<?xml version="1.0" standalone="no"?>
<!DOCTYPE svg PUBLIC "-//W3C//DTD SVG 1.1//EN" "http://www.w3.org/Graphics/SVG/1.1/DTD/svg11.dtd" >
<svg xmlns="http://www.w3.org/2000/svg" xmlns:xlink="http://www.w3.org/1999/xlink" version="1.1">
<metadata>
Created by FontForge 20170731 at Wed Mar 15 11:48:30 2023
 By Aleksey,,,
Copyright (c) 2016 by Mattox Shuler. All rights reserved.
</metadata>
<defs>
<font id="iCielRift-Regular" horiz-adv-x="925" >
  <font-face 
    font-family="Rift"
    font-weight="400"
    font-stretch="normal"
    units-per-em="2048"
    panose-1="0 0 5 0 0 0 0 0 0 0"
    ascent="1597"
    descent="-451"
    x-height="1434"
    cap-height="1434"
    bbox="-760 -539 1610 3848"
    underline-thickness="102"
    underline-position="-307"
    unicode-range="U+000D-E020"
  />
<missing-glyph horiz-adv-x="1024" 
d="M840 1597v-2048h-650v2048h650zM682 1460h-338v-67h133v-76h-135v-68h340v68h-135v76h135v67zM547 1196h-205v-213h340v70h-135v143zM477 1126v-73h-67v73h67zM682 928h-340v-68h135v-76h-135v-67h205v143h135v68zM682 805h-68v-135h-272v-70h340v205zM682 555h-205v-115
h70v47h67v-96h-204v164h-68v-231h340v231zM682 201h-340v-232h340v232zM614 133v-96h-204v96h204zM682 -78h-340v-67h143l-143 -97v-67h340v67h-209l143 97h66v67z" />
    <glyph glyph-name=".notdef" horiz-adv-x="1024" 
d="M840 1597v-2048h-650v2048h650zM682 1460h-338v-67h133v-76h-135v-68h340v68h-135v76h135v67zM547 1196h-205v-213h340v70h-135v143zM477 1126v-73h-67v73h67zM682 928h-340v-68h135v-76h-135v-67h205v143h135v68zM682 805h-68v-135h-272v-70h340v205zM682 555h-205v-115
h70v47h67v-96h-204v164h-68v-231h340v231zM682 201h-340v-232h340v232zM614 133v-96h-204v96h204zM682 -78h-340v-67h143l-143 -97v-67h340v67h-209l143 97h66v67z" />
    <glyph glyph-name=".null" horiz-adv-x="0" 
 />
    <glyph glyph-name="nonmarkingreturn" horiz-adv-x="682" 
 />
    <glyph glyph-name="NULL" horiz-adv-x="0" 
 />
    <glyph glyph-name="NULL" horiz-adv-x="0" 
 />
    <glyph glyph-name="CR" unicode="&#xd;" horiz-adv-x="512" 
 />
    <glyph glyph-name="space" unicode=" " horiz-adv-x="327" 
 />
    <glyph glyph-name="exclam" unicode="!" horiz-adv-x="350" 
d="M231 1434v-220l-12 -888h-88l-12 886v222h112zM236 150v-150h-121v150h121z" />
    <glyph glyph-name="quotedbl" unicode="&#x22;" horiz-adv-x="544" 
d="M262 1434l-131 -523h-74l93 523h112zM508 1434l-131 -523h-74l92 523h113z" />
    <glyph glyph-name="numbersign" unicode="#" horiz-adv-x="1224" 
d="M1188 899h-266l-84 -364h268v-91h-289l-100 -444h-101l101 444h-334l-100 -444h-101l101 444h-246v91h266l84 364h-268v90h289l100 445h100l-100 -445h334l100 445h100l-100 -445h246v-90zM737 535l84 364h-334l-84 -364h334z" />
    <glyph glyph-name="dollar" unicode="$" horiz-adv-x="856" 
d="M754 467v-184q0 -276 -271 -297v-146h-106v146q-271 21 -271 297v233h111v-201q0 -119 49 -174q48 -57 164 -57q115 0 166 57q47 56 47 174v115q0 75 -35 119q-25 35 -116 86l-216 117q-93 52 -129 100q-41 56 -41 137v166q0 266 271 293v145h106v-145q267 -27 267 -293
v-217h-111v184q0 119 -47 172q-50 56 -164 56t-164 -56q-47 -53 -47 -172v-100q0 -76 33 -115q26 -33 112 -78l220 -120q172 -91 172 -242z" />
    <glyph glyph-name="percent" unicode="%" horiz-adv-x="1046" 
d="M240 1442h32q65 0 109 -41q51 -45 51 -135v-258q0 -91 -51 -136q-44 -41 -109 -41h-32q-67 0 -111 41q-51 45 -51 136v258q0 90 51 135q44 41 111 41zM907 1434l-678 -1434h-90l678 1434h90zM350 1026v221q0 119 -84 119h-22q-82 0 -82 -119v-221q0 -119 82 -119h22
q84 0 84 119zM776 602h33q65 0 109 -41q51 -45 51 -135v-258q0 -90 -51 -135q-44 -41 -109 -41h-33q-66 0 -110 41q-52 46 -52 135v258q0 89 52 135q44 41 110 41zM887 186v222q0 118 -84 118h-23q-82 0 -82 -118v-222q0 -118 82 -118h23q84 0 84 118z" />
    <glyph glyph-name="ampersand" unicode="&#x26;" horiz-adv-x="948" 
d="M936 0h-123l-106 150q-76 -166 -295 -166h-15q-291 0 -291 286v320q0 182 113 237q-90 128 -90 240v88q0 295 317 295h5q317 0 317 -295v-192h-109v163q0 224 -210 224q-209 0 -209 -224v-55q0 -87 120 -256l302 -428l86 395h108l-111 -512zM631 256l-361 506
q-53 -50 -53 -144v-294q0 -244 203 -244q158 0 211 176z" />
    <glyph glyph-name="quotesingle" unicode="'" horiz-adv-x="299" 
d="M262 1434l-131 -523h-74l93 523h112z" />
    <glyph glyph-name="parenleft" unicode="(" horiz-adv-x="565" 
d="M500 1436h-37q-114 0 -166 -52q-55 -58 -55 -192v-950q0 -129 49 -187q51 -57 172 -57h37v-96h-37q-328 0 -328 303v1024q0 303 328 303h37v-96z" />
    <glyph glyph-name="parenright" unicode=")" horiz-adv-x="565" 
d="M102 1436h-36v96h36q328 0 328 -303v-1024q0 -303 -328 -303h-36v96h36q121 0 172 57q50 59 50 187v950q0 133 -56 192q-52 52 -166 52z" />
    <glyph glyph-name="asterisk" unicode="*" horiz-adv-x="667" 
d="M383 1153l149 -178l-75 -57l-123 198l-123 -194l-76 57l150 174l-228 55l29 90l217 -88l-18 232h96l-16 -232l217 88l28 -90z" />
    <glyph glyph-name="plus" unicode="+" horiz-adv-x="860" 
d="M743 776v-94h-266v-266h-94v266h-266v94h266v266h94v-266h266z" />
    <glyph glyph-name="comma" unicode="," horiz-adv-x="317" 
d="M219 150v-109q0 -158 -72 -287l-47 25q51 105 54 221h-56v150h121z" />
    <glyph glyph-name="hyphen" unicode="-" horiz-adv-x="565" 
d="M508 780v-94h-451v94h451z" />
    <glyph glyph-name="period" unicode="." horiz-adv-x="317" 
d="M219 150v-150h-121v150h121z" />
    <glyph glyph-name="slash" unicode="/" horiz-adv-x="653" 
d="M621 1532l-488 -1630h-100l487 1630h101z" />
    <glyph glyph-name="zero" unicode="0" horiz-adv-x="892" 
d="M438 1450h17q311 0 311 -303v-860q0 -303 -311 -303h-17q-311 0 -311 303v860q0 303 311 303zM655 324v786q0 238 -209 238q-208 0 -208 -238v-786q0 -238 208 -238q209 0 209 238z" />
    <glyph glyph-name="one" unicode="1" horiz-adv-x="430" 
d="M266 0h-110v1315q42 51 51 119h59v-1434z" />
    <glyph glyph-name="two" unicode="2" horiz-adv-x="811" 
d="M106 958v197q0 295 304 295h4q303 0 303 -295v-217q0 -90 -82 -178q-44 -50 -197 -166q-122 -94 -170 -154q-55 -70 -55 -161v-179h504v-100h-615v283q0 126 82 227q62 75 201 176q118 86 164 135q57 63 57 137v172q0 220 -198 220q-193 0 -193 -220v-172h-109z" />
    <glyph glyph-name="three" unicode="3" horiz-adv-x="821" 
d="M715 1147v-176q0 -87 -27 -140q-41 -74 -129 -86q93 -15 131 -83q15 -27 21 -62q4 -36 4 -61v-252q0 -303 -283 -303h-55q-283 0 -283 303v176h111v-152q0 -227 192 -227h15q192 0 192 227v224q0 157 -184 157h-148v99h127q205 0 205 178v153q0 228 -192 228h-19
q-192 0 -192 -228v-118h-107v143q0 303 303 303h15q303 0 303 -303z" />
    <glyph glyph-name="four" unicode="4" horiz-adv-x="774" 
d="M618 1434v-953h123v-102h-123v-379h-108v379h-477v108l465 947h120zM510 1251l-377 -770h377v770z" />
    <glyph glyph-name="five" unicode="5" horiz-adv-x="839" 
d="M721 1333h-483v-518q77 109 237 109q111 0 178 -52q84 -66 84 -192v-401q0 -295 -307 -295h-4q-307 0 -307 295v200h108v-176q0 -219 201 -219q199 0 199 219v350q0 100 -54 142q-42 28 -110 28q-140 0 -225 -116l-111 26v701h594v-101z" />
    <glyph glyph-name="six" unicode="6" horiz-adv-x="860" 
d="M729 1020h-111v110q0 124 -43 173q-44 47 -147 47t-147 -47q-43 -49 -43 -173v-364q52 94 217 94q129 0 204 -63q82 -70 82 -199v-319q0 -295 -305 -295h-4q-305 0 -305 295v876q0 150 68 221q71 74 231 74h4q161 0 232 -74q67 -70 67 -221v-135zM238 571v-268
q0 -122 47 -172q47 -47 149 -47q103 0 150 47q47 50 47 172v268q0 189 -197 189q-196 0 -196 -189z" />
    <glyph glyph-name="seven" unicode="7" horiz-adv-x="706" 
d="M631 1350l-332 -1350h-111l332 1333h-477v101h588v-84z" />
    <glyph glyph-name="eight" unicode="8" horiz-adv-x="841" 
d="M389 1450h64q282 0 282 -303v-176q0 -91 -26 -142q-41 -75 -129 -84q91 -15 131 -102q14 -32 20 -76q4 -46 4 -69v-211q0 -303 -282 -303h-64q-283 0 -283 303v211q0 12 5 69q6 44 20 76q40 87 131 102q-88 9 -129 84q-27 53 -27 142v176q0 303 283 303zM625 969v153
q0 228 -185 228h-39q-184 0 -184 -228v-153q0 -178 184 -178h39q185 0 185 178zM625 311v203q0 178 -185 178h-39q-184 0 -184 -178v-203q0 -227 184 -227h39q185 0 185 227z" />
    <glyph glyph-name="nine" unicode="9" horiz-adv-x="860" 
d="M131 414h111v-111q0 -123 43 -172q44 -47 147 -47q104 0 148 47q43 49 43 172v365q-53 -95 -217 -95q-129 0 -205 64q-82 70 -82 199v319q0 295 305 295h4q305 0 305 -295v-876q0 -152 -67 -222q-70 -73 -232 -73h-4q-161 0 -231 73q-68 71 -68 222v135zM623 862v268
q0 122 -48 173q-47 47 -149 47q-103 0 -150 -47q-47 -50 -47 -173v-268q0 -188 197 -188t197 188z" />
    <glyph glyph-name="colon" unicode=":" horiz-adv-x="317" 
d="M219 922v-150h-121v150h121zM219 150v-150h-121v150h121z" />
    <glyph glyph-name="semicolon" unicode=";" horiz-adv-x="317" 
d="M219 922v-150h-121v150h121zM219 150v-109q0 -158 -72 -287l-47 25q51 105 54 221h-56v150h121z" />
    <glyph glyph-name="less" unicode="&#x3c;" horiz-adv-x="860" 
d="M696 1210v-123l-475 -356l475 -356v-123l-561 426v106z" />
    <glyph glyph-name="equal" unicode="=" horiz-adv-x="860" 
d="M743 950v-94h-626v94h626zM743 610v-94h-626v94h626z" />
    <glyph glyph-name="greater" unicode="&#x3e;" horiz-adv-x="860" 
d="M639 731l-475 356v123l561 -426v-106l-561 -426v123z" />
    <glyph glyph-name="question" unicode="?" horiz-adv-x="782" 
d="M334 322v225q0 148 143 270q109 89 109 191v122q0 121 -49 173q-47 47 -150 47q-101 0 -145 -47q-47 -53 -47 -173v-192h-109v217q0 295 303 295h4q303 0 303 -295v-168q0 -74 -47 -145q-35 -50 -100 -103q-68 -56 -92 -108q-25 -55 -25 -142v-167h-98zM444 150v-150
h-120v150h120z" />
    <glyph glyph-name="at" unicode="@" horiz-adv-x="1300" 
d="M471 1450h358q345 0 345 -303v-653q0 -304 -203 -304q-124 0 -148 107q-9 -51 -71 -86q-53 -33 -121 -33h-4q-84 0 -146 47q-75 57 -75 162v504q0 101 69 158q63 51 154 51h4q137 0 172 -92l20 79h68v-688q0 -129 84 -129q108 0 108 205v690q0 97 -65 150q-60 51 -164 51
h-412q-103 0 -163 -51q-66 -54 -66 -150v-964q0 -96 66 -150q60 -51 163 -51h494v-84h-479q-332 0 -332 303v928q0 303 344 303zM797 424v430q0 76 -43 119q-41 41 -105 41q-63 0 -104 -41q-43 -43 -43 -119v-430q0 -76 43 -119q41 -41 104 -41q64 0 105 41q43 43 43 119z
" />
    <glyph glyph-name="A" unicode="A" horiz-adv-x="868" 
d="M705 0l-80 369h-385l-80 -369h-111l320 1434h127l323 -1434h-114zM262 469h340l-170 791z" />
    <glyph glyph-name="B" unicode="B" horiz-adv-x="903" 
d="M788 1151v-180q0 -90 -32 -144q-40 -73 -127 -82q91 -15 135 -86q33 -56 33 -141v-235q0 -126 -80 -203q-86 -80 -244 -80h-338v1434h342q155 0 238 -80q73 -73 73 -203zM246 1333v-540h227q205 0 205 159v166q0 111 -45 162q-50 53 -160 53h-227zM686 315v215
q0 160 -205 160h-235v-590h235q109 0 160 54q45 51 45 161z" />
    <glyph glyph-name="C" unicode="C" horiz-adv-x="905" 
d="M786 567v-280q0 -303 -327 -303h-4q-328 0 -328 303v860q0 303 328 303h4q327 0 327 -303v-246h-110v209q0 127 -49 182q-53 56 -170 56t-170 -56q-49 -55 -49 -182v-786q0 -128 49 -183q52 -55 170 -55t170 55q49 55 49 183v243h110z" />
    <glyph glyph-name="D" unicode="D" horiz-adv-x="923" 
d="M135 1434h334q328 0 328 -304v-827q0 -303 -328 -303h-334v1434zM686 340v754q0 128 -51 182q-52 55 -174 55h-215v-1229h215q121 0 174 56q51 54 51 182z" />
    <glyph glyph-name="E" unicode="E" horiz-adv-x="786" 
d="M705 0h-570v1434h563v-103h-452v-553h389v-102h-389v-574h459v-102z" />
    <glyph glyph-name="F" unicode="F" horiz-adv-x="739" 
d="M135 0v1434h555v-103h-444v-563h381v-102h-381v-666h-111z" />
    <glyph glyph-name="G" unicode="G" horiz-adv-x="921" 
d="M799 711v-424q0 -303 -328 -303h-16q-328 0 -328 303v860q0 303 328 303h16q328 0 328 -303v-189h-111v152q0 128 -51 182q-53 56 -174 56t-174 -56q-51 -54 -51 -182v-786q0 -129 51 -183q52 -55 174 -55t174 55q51 54 51 183v286h-233v101h344z" />
    <glyph glyph-name="H" unicode="H" horiz-adv-x="952" 
d="M135 1434h111v-654h461v654h110v-1434h-110v678h-461v-678h-111v1434z" />
    <glyph glyph-name="I" unicode="I" horiz-adv-x="399" 
d="M254 0h-111v1434h111v-1434z" />
    <glyph glyph-name="J" unicode="J" horiz-adv-x="561" 
d="M41 102h53q122 0 174 58q51 54 51 184v1090h111v-1131q0 -303 -332 -303h-57v102z" />
    <glyph glyph-name="K" unicode="K" horiz-adv-x="880" 
d="M852 0h-119l-301 786l-186 -305v-481h-111v1434h111v-775l459 775h122l-325 -535z" />
    <glyph glyph-name="L" unicode="L" horiz-adv-x="714" 
d="M674 102v-102h-539v1434h111v-1332h428z" />
    <glyph glyph-name="M" unicode="M" horiz-adv-x="1218" 
d="M973 1153l-334 -911h-64l-335 911v-1153h-105v1434h109l360 -994l365 994h114v-1434h-110v1153z" />
    <glyph glyph-name="N" unicode="N" horiz-adv-x="960" 
d="M242 0h-107v1434h115l469 -1172v1172h106v-1434h-108l-475 1180v-1180z" />
    <glyph glyph-name="O" unicode="O" 
d="M127 287v860q0 303 328 303h16q328 0 328 -303v-860q0 -303 -328 -303h-16q-328 0 -328 303zM238 1110v-786q0 -129 51 -183q52 -55 174 -55t174 55q51 54 51 183v786q0 128 -51 182q-53 56 -174 56t-174 -56q-51 -54 -51 -182z" />
    <glyph glyph-name="P" unicode="P" horiz-adv-x="882" 
d="M135 1434h338q328 0 328 -304v-225q0 -303 -328 -303h-227v-602h-111v1434zM690 942v152q0 128 -51 182q-52 55 -174 55h-219v-626h219q122 0 174 55q51 54 51 182z" />
    <glyph glyph-name="Q" unicode="Q" 
d="M455 1450h16q328 0 328 -303v-860q0 -280 -279 -301v-187h-106v187q-287 18 -287 301v860q0 303 328 303zM688 324v786q0 128 -51 182q-53 56 -174 56t-174 -56q-51 -54 -51 -182v-786q0 -129 51 -183q52 -55 174 -55t174 55q51 54 51 183z" />
    <glyph glyph-name="R" unicode="R" horiz-adv-x="923" 
d="M850 0h-119l-235 618h-250v-618h-111v1434h338q328 0 328 -304v-208q0 -234 -197 -287zM246 719h219q122 0 174 55q51 54 51 182v138q0 128 -51 182q-52 55 -174 55h-219v-612z" />
    <glyph glyph-name="S" unicode="S" horiz-adv-x="856" 
d="M750 938h-111v184q0 119 -47 172q-50 56 -164 56t-164 -56q-47 -53 -47 -172v-100q0 -76 33 -115q26 -33 112 -78l220 -120q172 -91 172 -242v-184q0 -299 -322 -299h-4q-322 0 -322 299v233h111v-201q0 -119 49 -174q48 -57 164 -57q115 0 166 57q47 56 47 174v115
q0 75 -35 119q-25 35 -116 86l-216 117q-93 52 -129 100q-41 56 -41 137v166q0 143 87 221q83 74 233 74h4q151 0 234 -74q86 -77 86 -221v-217z" />
    <glyph glyph-name="T" unicode="T" horiz-adv-x="724" 
d="M688 1434v-103h-270v-1331h-111v1331h-270v103h651z" />
    <glyph glyph-name="U" unicode="U" horiz-adv-x="917" 
d="M786 1434v-1147q0 -303 -323 -303h-8q-324 0 -324 303v1147h111v-1110q0 -130 47 -183q49 -55 170 -55t170 55q47 53 47 183v1110h110z" />
    <glyph glyph-name="V" unicode="V" horiz-adv-x="835" 
d="M786 1434l-309 -1434h-119l-309 1434h115l256 -1233l256 1233h110z" />
    <glyph glyph-name="W" unicode="W" horiz-adv-x="1314" 
d="M1262 1434l-242 -1434h-111l-250 1217l-251 -1217h-113l-242 1434h115l192 -1209l246 1209h109l243 -1209l195 1209h109z" />
    <glyph glyph-name="X" unicode="X" horiz-adv-x="833" 
d="M762 1434l-277 -699l308 -735h-121l-258 635l-256 -635h-119l313 743l-291 691h123l238 -598l223 598h117z" />
    <glyph glyph-name="Y" unicode="Y" horiz-adv-x="847" 
d="M479 559v-559h-110v559l-320 875h117l258 -744l258 744h117z" />
    <glyph glyph-name="Z" unicode="Z" horiz-adv-x="735" 
d="M678 100v-100h-621v84l486 1249h-461v101h582v-84l-486 -1250h500z" />
    <glyph glyph-name="bracketleft" unicode="[" horiz-adv-x="565" 
d="M242 1434v-1434h258v-98h-365v1630h365v-98h-258z" />
    <glyph glyph-name="backslash" unicode="\" horiz-adv-x="653" 
d="M33 1532h100l488 -1630h-101z" />
    <glyph glyph-name="bracketright" unicode="]" horiz-adv-x="565" 
d="M324 1434h-258v98h364v-1630h-364v98h258v1434z" />
    <glyph glyph-name="asciicircum" unicode="^" horiz-adv-x="770" 
d="M385 1325l-225 -575h-111l281 684h110l281 -684h-111z" />
    <glyph glyph-name="underscore" unicode="_" horiz-adv-x="677" 
d="M688 -125v-92h-698v92h698z" />
    <glyph glyph-name="grave" unicode="`" horiz-adv-x="927" 
d="M508 1726l51 -180h-72l-98 180h119z" />
    <glyph glyph-name="A001" unicode="a" horiz-adv-x="868" 
d="M705 0l-80 369h-385l-80 -369h-111l320 1434h127l323 -1434h-114zM262 469h340l-170 791z" />
    <glyph glyph-name="B014" unicode="b" horiz-adv-x="903" 
d="M788 1151v-180q0 -90 -32 -144q-40 -73 -127 -82q91 -15 135 -86q33 -56 33 -141v-235q0 -126 -80 -203q-86 -80 -244 -80h-338v1434h342q155 0 238 -80q73 -73 73 -203zM246 1333v-540h227q205 0 205 159v166q0 111 -45 162q-50 53 -160 53h-227zM686 315v215
q0 160 -205 160h-235v-590h235q109 0 160 54q45 51 45 161z" />
    <glyph glyph-name="C015" unicode="c" horiz-adv-x="905" 
d="M786 567v-280q0 -303 -327 -303h-4q-328 0 -328 303v860q0 303 328 303h4q327 0 327 -303v-246h-110v209q0 127 -49 182q-53 56 -170 56t-170 -56q-49 -55 -49 -182v-786q0 -128 49 -183q52 -55 170 -55t170 55q49 55 49 183v243h110z" />
    <glyph glyph-name="D020" unicode="d" horiz-adv-x="923" 
d="M135 1434h334q328 0 328 -304v-827q0 -303 -328 -303h-334v1434zM686 340v754q0 128 -51 182q-52 55 -174 55h-215v-1229h215q121 0 174 56q51 54 51 182z" />
    <glyph glyph-name="E024" unicode="e" horiz-adv-x="786" 
d="M705 0h-570v1434h563v-103h-452v-553h389v-102h-389v-574h459v-102z" />
    <glyph glyph-name="F034" unicode="f" horiz-adv-x="739" 
d="M135 0v1434h555v-103h-444v-563h381v-102h-381v-666h-111z" />
    <glyph glyph-name="G035" unicode="g" horiz-adv-x="921" 
d="M799 711v-424q0 -303 -328 -303h-16q-328 0 -328 303v860q0 303 328 303h16q328 0 328 -303v-189h-111v152q0 128 -51 182q-53 56 -174 56t-174 -56q-51 -54 -51 -182v-786q0 -129 51 -183q52 -55 174 -55t174 55q51 54 51 183v286h-233v101h344z" />
    <glyph glyph-name="H039" unicode="h" horiz-adv-x="952" 
d="M135 1434h111v-654h461v654h110v-1434h-110v678h-461v-678h-111v1434z" />
    <glyph glyph-name="I041" unicode="i" horiz-adv-x="399" 
d="M254 0h-111v1434h111v-1434z" />
    <glyph glyph-name="J050" unicode="j" horiz-adv-x="561" 
d="M41 102h53q122 0 174 58q51 54 51 184v1090h111v-1131q0 -303 -332 -303h-57v102z" />
    <glyph glyph-name="K051" unicode="k" horiz-adv-x="880" 
d="M852 0h-119l-301 786l-186 -305v-481h-111v1434h111v-775l459 775h122l-325 -535z" />
    <glyph glyph-name="L053" unicode="l" horiz-adv-x="714" 
d="M674 102v-102h-539v1434h111v-1332h428z" />
    <glyph glyph-name="M059" unicode="m" horiz-adv-x="1218" 
d="M973 1153l-334 -911h-64l-335 911v-1153h-105v1434h109l360 -994l365 994h114v-1434h-110v1153z" />
    <glyph glyph-name="N060" unicode="n" horiz-adv-x="960" 
d="M242 0h-107v1434h115l469 -1172v1172h106v-1434h-108l-475 1180v-1180z" />
    <glyph glyph-name="O066" unicode="o" 
d="M127 287v860q0 303 328 303h16q328 0 328 -303v-860q0 -303 -328 -303h-16q-328 0 -328 303zM238 1110v-786q0 -129 51 -183q52 -55 174 -55t174 55q51 54 51 183v786q0 128 -51 182q-53 56 -174 56t-174 -56q-51 -54 -51 -182z" />
    <glyph glyph-name="P078" unicode="p" horiz-adv-x="882" 
d="M135 1434h338q328 0 328 -304v-225q0 -303 -328 -303h-227v-602h-111v1434zM690 942v152q0 128 -51 182q-52 55 -174 55h-219v-626h219q122 0 174 55q51 54 51 182z" />
    <glyph glyph-name="Q080" unicode="q" 
d="M455 1450h16q328 0 328 -303v-860q0 -280 -279 -301v-187h-106v187q-287 18 -287 301v860q0 303 328 303zM688 324v786q0 128 -51 182q-53 56 -174 56t-174 -56q-51 -54 -51 -182v-786q0 -129 51 -183q52 -55 174 -55t174 55q51 54 51 183z" />
    <glyph glyph-name="R081" unicode="r" horiz-adv-x="923" 
d="M850 0h-119l-235 618h-250v-618h-111v1434h338q328 0 328 -304v-208q0 -234 -197 -287zM246 719h219q122 0 174 55q51 54 51 182v138q0 128 -51 182q-52 55 -174 55h-219v-612z" />
    <glyph glyph-name="S085" unicode="s" horiz-adv-x="856" 
d="M750 938h-111v184q0 119 -47 172q-50 56 -164 56t-164 -56q-47 -53 -47 -172v-100q0 -76 33 -115q26 -33 112 -78l220 -120q172 -91 172 -242v-184q0 -299 -322 -299h-4q-322 0 -322 299v233h111v-201q0 -119 49 -174q48 -57 164 -57q115 0 166 57q47 56 47 174v115
q0 75 -35 119q-25 35 -116 86l-216 117q-93 52 -129 100q-41 56 -41 137v166q0 143 87 221q83 74 233 74h4q151 0 234 -74q86 -77 86 -221v-217z" />
    <glyph glyph-name="T090" unicode="t" horiz-adv-x="724" 
d="M688 1434v-103h-270v-1331h-111v1331h-270v103h651z" />
    <glyph glyph-name="U094" unicode="u" horiz-adv-x="917" 
d="M786 1434v-1147q0 -303 -323 -303h-8q-324 0 -324 303v1147h111v-1110q0 -130 47 -183q49 -55 170 -55t170 55q47 53 47 183v1110h110z" />
    <glyph glyph-name="V104" unicode="v" horiz-adv-x="835" 
d="M786 1434l-309 -1434h-119l-309 1434h115l256 -1233l256 1233h110z" />
    <glyph glyph-name="W105" unicode="w" horiz-adv-x="1314" 
d="M1262 1434l-242 -1434h-111l-250 1217l-251 -1217h-113l-242 1434h115l192 -1209l246 1209h109l243 -1209l195 1209h109z" />
    <glyph glyph-name="X110" unicode="x" horiz-adv-x="833" 
d="M762 1434l-277 -699l308 -735h-121l-258 635l-256 -635h-119l313 743l-291 691h123l238 -598l223 598h117z" />
    <glyph glyph-name="Y111" unicode="y" horiz-adv-x="847" 
d="M479 559v-559h-110v559l-320 875h117l258 -744l258 744h117z" />
    <glyph glyph-name="Z116" unicode="z" horiz-adv-x="735" 
d="M678 100v-100h-621v84l486 1249h-461v101h582v-84l-486 -1250h500z" />
    <glyph glyph-name="braceleft" unicode="{" horiz-adv-x="630" 
d="M565 1434h-37q-114 0 -166 -52q-55 -55 -55 -190v-283q0 -147 -129 -184q129 -43 129 -184v-299q0 -136 55 -191q51 -51 166 -51h37v-98h-37q-327 0 -327 303v342q0 119 -144 131v90q144 12 144 133v328q0 303 327 303h37v-98z" />
    <glyph glyph-name="bar" unicode="|" horiz-adv-x="456" 
d="M281 -205h-105v1843h105v-1843z" />
    <glyph glyph-name="braceright" unicode="}" horiz-adv-x="630" 
d="M102 1434h-36v98h36q328 0 328 -303v-328q0 -121 143 -133v-90q-143 -12 -143 -131v-342q0 -303 -328 -303h-36v98h36q115 0 166 51q56 56 56 191v299q0 141 129 184q-129 37 -129 184v283q0 134 -56 190q-52 52 -166 52z" />
    <glyph glyph-name="asciitilde" unicode="~" horiz-adv-x="811" 
d="M168 627v-19h-90v35q0 107 57 164q46 49 119 49q77 0 168 -82l35 -31q29 -24 32 -26q37 -27 68 -27q84 0 84 135v19h92v-35q0 -106 -55 -164q-46 -49 -119 -49q-70 0 -166 84q-94 82 -137 82q-88 0 -88 -135z" />
    <glyph glyph-name="exclamdown" unicode="&#xa1;" horiz-adv-x="350" 
d="M236 1284h-121v150h121v-150zM231 0h-112v221l12 887h88l12 -889v-219z" />
    <glyph glyph-name="cent" unicode="&#xa2;" horiz-adv-x="843" 
d="M754 860h-111v70q0 125 -49 180q-51 57 -170 57t-170 -57q-49 -55 -49 -180v-426q0 -125 49 -180q52 -58 170 -58q219 0 219 238v104h111v-141q0 -277 -275 -301v-166h-106v166q-279 21 -279 301v500q0 280 279 301v166h106v-166q275 -24 275 -301v-107z" />
    <glyph glyph-name="sterling" unicode="&#xa3;" horiz-adv-x="843" 
d="M764 938h-111v192q0 108 -28 156q-41 62 -142 62t-139 -62q-31 -48 -31 -156v-374h271v-94h-271q0 -489 -139 -560h569v-102h-663l-25 102q86 42 121 185q27 120 27 375h-144v94h144v391q0 303 278 303h4q279 0 279 -303v-209z" />
    <glyph glyph-name="yen" unicode="&#xa5;" horiz-adv-x="847" 
d="M799 1434l-279 -762h205v-80h-233l-13 -33v-106h246v-80h-246v-373h-110v373h-271v80h271v106l-13 33h-258v80h230l-279 762h117l258 -744l258 744h117z" />
    <glyph glyph-name="brokenbar" unicode="&#xa6;" horiz-adv-x="456" 
d="M176 901v737h105v-737h-105zM281 573v-778h-105v778h105z" />
    <glyph glyph-name="section" unicode="&#xa7;" horiz-adv-x="860" 
d="M645 504v76q0 79 -47 129q-45 51 -178 110q-184 84 -254 160q-57 63 -57 158v100q0 144 86 221q83 74 233 74h4q151 0 234 -74q86 -77 86 -221v-201h-111v168q0 119 -47 172q-50 56 -164 56t-164 -56q-47 -53 -47 -172v-37q0 -82 45 -127q39 -42 178 -108
q170 -80 246 -156q68 -71 68 -164v-200q-34 54 -111 92zM219 846v-76q0 -81 41 -125q45 -45 176 -106q320 -150 320 -322v-119q0 -299 -322 -299h-4q-321 0 -321 299v221h110v-188q0 -119 49 -174q48 -57 164 -57q115 0 166 57q47 56 47 174v51q0 81 -49 133
q-48 48 -193 119q-174 82 -237 154q-57 60 -57 151v193q34 -46 110 -86z" />
    <glyph glyph-name="dieresis" unicode="&#xa8;" horiz-adv-x="901" 
d="M373 1690v-144h-117v144h117zM645 1690v-144h-117v144h117z" />
    <glyph glyph-name="copyright" unicode="&#xa9;" horiz-adv-x="1300" 
d="M471 1450h358q345 0 345 -303v-860q0 -303 -345 -303h-370q-332 0 -332 303v860q0 303 344 303zM1087 268v897q0 205 -231 205h-412q-231 0 -231 -205v-897q0 -205 231 -205h412q231 0 231 205zM895 612v-188q0 -94 -66 -154q-64 -55 -176 -55h-4q-112 0 -176 55
q-65 56 -65 154v586q0 92 65 151q64 58 176 58h4q112 0 176 -58q66 -60 66 -151v-164h-92v127q0 160 -152 160q-151 0 -151 -160v-512q0 -160 151 -160q152 0 152 160v151h92z" />
    <glyph glyph-name="ordfeminine" unicode="&#xaa;" horiz-adv-x="466" 
d="M406 858h-72v53q-30 -55 -119 -55q-154 0 -154 152v57q0 149 154 149q90 0 113 -57v121q0 94 -82 94h-23q-82 0 -82 -94v-16h-71v30q0 66 41 107q40 43 112 43h31q71 0 111 -43q41 -41 41 -107v-434zM328 1016v35q0 47 -29 73q-21 21 -53 21h-25q-82 0 -82 -94v-35
q0 -90 82 -90h25q32 0 53 18q29 23 29 72zM406 672h-345v71h345v-71z" />
    <glyph glyph-name="guillemotleft" unicode="&#xab;" horiz-adv-x="806" 
d="M393 1092v-119l-268 -248l268 -248v-119l-356 330v74zM741 1092v-119l-268 -248l268 -248v-119l-356 330v74z" />
    <glyph glyph-name="registered" unicode="&#xae;" horiz-adv-x="673" 
d="M246 1446h184q180 0 180 -166v-440q0 -168 -180 -168h-190q-177 0 -177 168v440q0 166 183 166zM551 829v461q0 103 -109 103h-211q-108 0 -108 -103v-461q0 -104 108 -104h211q109 0 109 104zM459 1204v-90q0 -72 -58 -96l72 -211h-59l-64 201h-71v-201h-58v504h121
q117 0 117 -107zM279 1255v-194h61q59 0 59 65v66q0 63 -59 63h-61z" />
    <glyph glyph-name="macron" unicode="&#xaf;" horiz-adv-x="790" 
d="M627 1567h-463v94h463v-94z" />
    <glyph glyph-name="degree" unicode="&#xb0;" horiz-adv-x="548" 
d="M449 1382q61 -70 61 -192q0 -124 -61 -191q-63 -69 -175 -69t-172 69q-63 66 -63 191q0 123 63 192q62 68 172 68t175 -68zM123 1190q0 -182 151 -182q152 0 152 182t-152 182q-151 0 -151 -182z" />
    <glyph glyph-name="plusminus" unicode="&#xb1;" horiz-adv-x="860" 
d="M477 901h266v-94h-266v-266h-94v266h-266v94h266v266h94v-266zM117 295v94h626v-94h-626z" />
    <glyph glyph-name="acute" unicode="&#xb4;" horiz-adv-x="927" 
d="M467 1704h119l-133 -158h-72z" />
    <glyph glyph-name="paragraph" unicode="&#xb6;" horiz-adv-x="1134" 
d="M999 1434v-1434h-110v1331h-141v-1331h-111v623h-227q-328 0 -328 303v204q0 304 328 304h589z" />
    <glyph glyph-name="periodcentered" unicode="&#xb7;" horiz-adv-x="317" 
d="M219 805v-150h-121v150h121z" />
    <glyph glyph-name="cedilla" unicode="&#xb8;" horiz-adv-x="720" 
d="M451 0v-98q0 -88 -33 -121q-34 -37 -111 -37q-47 0 -82 12l-28 72h75q47 0 66 16q18 18 18 66v90h95z" />
    <glyph glyph-name="ordmasculine" unicode="&#xba;" horiz-adv-x="477" 
d="M223 1442h33q73 0 115 -45q45 -45 45 -125v-250q0 -80 -45 -125q-42 -45 -115 -45h-33q-75 0 -117 45q-45 45 -45 125v250q0 80 45 125q42 45 117 45zM338 1036v221q0 115 -92 115h-19q-94 0 -94 -115v-221q0 -114 94 -114h19q92 0 92 114zM61 672v71h355v-71h-355z" />
    <glyph glyph-name="guillemotright" unicode="&#xbb;" horiz-adv-x="806" 
d="M334 725l-268 248v119l356 -330v-74l-356 -330v119zM682 725l-268 248v119l356 -330v-74l-356 -330v119z" />
    <glyph glyph-name="onequarter" unicode="&#xbc;" horiz-adv-x="1017" 
d="M188 565h-90v778q30 34 39 91h51v-869zM647 1434h80l-526 -1434h-80zM842 868v-571h78v-86h-78v-211h-92v211h-256v80l245 577h103zM750 717l-175 -420h175v420z" />
    <glyph glyph-name="onehalf" unicode="&#xbd;" horiz-adv-x="1060" 
d="M188 565h-90v778q30 34 39 91h51v-869zM647 1434h80l-526 -1434h-80zM573 547v145q0 185 193 185h2q193 0 193 -185v-84q0 -75 -58 -139q-23 -26 -59 -55l-35 -29l-35 -29q-112 -87 -112 -184v-90h299v-82h-392v174q0 123 154 250q89 71 113 98q32 38 32 88v66
q0 119 -104 119q-102 0 -102 -119v-129h-89z" />
    <glyph glyph-name="threequarters" unicode="&#xbe;" horiz-adv-x="1257" 
d="M494 1255v-104q0 -110 -78 -131q78 -21 78 -123v-149q0 -191 -183 -191h-30q-183 0 -183 191v126h90v-110q0 -125 103 -125h10q102 0 102 125v121q0 90 -98 90h-98v82h86q110 0 110 104v78q0 125 -102 125h-12q-101 0 -101 -125v-90h-90v106q0 191 193 191h10
q193 0 193 -191zM887 1434h80l-527 -1434h-80zM1083 868v-571h76v-86h-76v-211h-92v211h-258v80l246 577h104zM991 717l-174 -420h174v420z" />
    <glyph glyph-name="questiondown" unicode="&#xbf;" horiz-adv-x="782" 
d="M338 1284v150h121v-150h-121zM449 1112v-225q0 -148 -144 -271q-108 -88 -108 -190v-123q0 -120 49 -172q47 -47 149 -47t146 47q47 53 47 172v193h108v-217q0 -295 -303 -295h-4q-303 0 -303 295v167q0 75 47 146q33 48 100 102q69 57 93 109q24 53 24 141v168h99z" />
    <glyph glyph-name="Agrave" unicode="&#xc0;" horiz-adv-x="868" 
d="M487 1546h-88l-198 256h147zM705 0l-80 369h-385l-80 -369h-111l320 1434h127l323 -1434h-114zM262 469h340l-170 791z" />
    <glyph glyph-name="Aacute" unicode="&#xc1;" horiz-adv-x="868" 
d="M666 1802l-199 -256h-88l139 256h148zM705 0l-80 369h-385l-80 -369h-111l320 1434h127l323 -1434h-114zM262 469h340l-170 791z" />
    <glyph glyph-name="Acircumflex" unicode="&#xc2;" horiz-adv-x="868" 
d="M432 1722l-123 -176h-112l180 256h110l181 -256h-113zM705 0l-80 369h-385l-80 -369h-111l320 1434h127l323 -1434h-114zM262 469h340l-170 791z" />
    <glyph glyph-name="Atilde" unicode="&#xc3;" horiz-adv-x="868" 
d="M225 1571v-17h-88v33q0 96 47 152q43 49 113 49q68 0 149 -78l29 -29q9 -9 29 -24q36 -25 61 -25q72 0 72 127v17h90v-33q0 -99 -45 -150q-43 -49 -113 -49q-66 0 -147 78q-79 76 -121 76q-76 0 -76 -127zM705 0l-80 369h-385l-80 -369h-111l320 1434h127l323 -1434h-114
zM262 469h340l-170 791z" />
    <glyph glyph-name="Adieresis" unicode="&#xc4;" horiz-adv-x="868" 
d="M354 1690v-144h-116v144h116zM627 1690v-144h-117v144h117zM705 0l-80 369h-385l-80 -369h-111l320 1434h127l323 -1434h-114zM262 469h340l-170 791z" />
    <glyph glyph-name="Aring" unicode="&#xc5;" horiz-adv-x="868" 
d="M309 1577q-45 42 -45 115q0 72 45 114q46 43 123 43q75 0 121 -43q45 -42 45 -114q0 -73 -45 -115q-46 -43 -121 -43q-77 0 -123 43zM342 1692q0 -88 90 -88q88 0 88 88t-88 88q-90 0 -90 -88zM705 0l-80 369h-385l-80 -369h-111l320 1434h127l323 -1434h-114zM262 469
h340l-170 791z" />
    <glyph glyph-name="AE" unicode="&#xc6;" horiz-adv-x="1282" 
d="M741 102h459v-102h-569v369h-363l-118 -369h-113l465 1434h692v-103h-453v-553h389v-102h-389v-574zM299 467h332v864h-56z" />
    <glyph glyph-name="Ccedilla" unicode="&#xc7;" horiz-adv-x="905" 
d="M786 901h-110v209q0 127 -49 182q-53 56 -170 56t-170 -56q-49 -55 -49 -182v-786q0 -128 49 -183q52 -55 170 -55t170 55q49 55 49 183v243h110v-280q0 -285 -290 -303v-82q0 -88 -33 -121q-34 -37 -111 -37q-48 0 -82 12l-28 72h75q47 0 66 16q18 18 18 66v76
q-274 21 -274 301v860q0 303 328 303h4q327 0 327 -303v-246z" />
    <glyph glyph-name="Egrave" unicode="&#xc8;" horiz-adv-x="786" 
d="M330 1802l139 -256h-88l-199 256h148zM705 0h-570v1434h563v-103h-452v-553h389v-102h-389v-574h459v-102z" />
    <glyph glyph-name="Eacute" unicode="&#xc9;" horiz-adv-x="786" 
d="M500 1802h147l-198 -256h-89zM705 0h-570v1434h563v-103h-452v-553h389v-102h-389v-574h459v-102z" />
    <glyph glyph-name="Ecircumflex" unicode="&#xca;" horiz-adv-x="786" 
d="M649 1546l-180 256h-111l-180 -256h113l123 176l123 -176h112zM705 0h-570v1434h563v-103h-452v-553h389v-102h-389v-574h459v-102z" />
    <glyph glyph-name="Edieresis" unicode="&#xcb;" horiz-adv-x="786" 
d="M336 1690v-144h-117v144h117zM608 1690v-144h-116v144h116zM705 0h-570v1434h563v-103h-452v-553h389v-102h-389v-574h459v-102z" />
    <glyph glyph-name="Igrave" unicode="&#xcc;" horiz-adv-x="399" 
d="M115 1802l139 -256h-88l-199 256h148zM254 0h-111v1434h111v-1434z" />
    <glyph glyph-name="Iacute" unicode="&#xcd;" horiz-adv-x="399" 
d="M285 1802h147l-199 -256h-88zM254 0h-111v1434h111v-1434z" />
    <glyph glyph-name="Icircumflex" unicode="&#xce;" horiz-adv-x="399" 
d="M434 1546l-180 256h-111l-180 -256h113l123 176l123 -176h112zM254 0h-111v1434h111v-1434z" />
    <glyph glyph-name="Idieresis" unicode="&#xcf;" horiz-adv-x="399" 
d="M121 1690v-144h-117v144h117zM393 1690v-144h-117v144h117zM254 0h-111v1434h111v-1434z" />
    <glyph glyph-name="Eth" unicode="&#xd0;" horiz-adv-x="944" 
d="M156 1434h333q328 0 328 -304v-827q0 -303 -328 -303h-333v678h-111v102h111v654zM707 340v754q0 127 -52 182t-174 55h-215v-551h254v-102h-254v-576h215q121 0 174 56q52 55 52 182z" />
    <glyph glyph-name="Ntilde" unicode="&#xd1;" horiz-adv-x="960" 
d="M279 1554v17q0 127 75 127q26 0 62 -25l28 -24l31 -27q81 -78 148 -78q69 0 112 49q45 51 45 150v33h-90v-17q0 -127 -72 -127q-25 0 -61 25q-20 15 -29 24l-28 29q-81 78 -150 78t-112 -49q-48 -57 -48 -152v-33h89zM242 0h-107v1434h115l469 -1172v1172h106v-1434h-108
l-475 1180v-1180z" />
    <glyph glyph-name="Ograve" unicode="&#xd2;" 
d="M379 1802l139 -256h-88l-199 256h148zM127 287v860q0 303 328 303h16q328 0 328 -303v-860q0 -303 -328 -303h-16q-328 0 -328 303zM238 1110v-786q0 -129 51 -183q52 -55 174 -55t174 55q51 54 51 183v786q0 128 -51 182q-53 56 -174 56t-174 -56q-51 -54 -51 -182z" />
    <glyph glyph-name="Oacute" unicode="&#xd3;" 
d="M549 1802h147l-198 -256h-88zM127 287v860q0 303 328 303h16q328 0 328 -303v-860q0 -303 -328 -303h-16q-328 0 -328 303zM238 1110v-786q0 -129 51 -183q52 -55 174 -55t174 55q51 54 51 183v786q0 128 -51 182q-53 56 -174 56t-174 -56q-51 -54 -51 -182z" />
    <glyph glyph-name="Ocircumflex" unicode="&#xd4;" 
d="M698 1546l-180 256h-110l-181 -256h113l123 176l123 -176h112zM127 287v860q0 303 328 303h16q328 0 328 -303v-860q0 -303 -328 -303h-16q-328 0 -328 303zM238 1110v-786q0 -129 51 -183q52 -55 174 -55t174 55q51 54 51 183v786q0 128 -51 182q-53 56 -174 56
t-174 -56q-51 -54 -51 -182z" />
    <glyph glyph-name="Otilde" unicode="&#xd5;" 
d="M256 1554v17q0 127 76 127q25 0 61 -25l29 -24l31 -27q81 -78 147 -78q70 0 113 49q45 51 45 150v33h-90v-17q0 -127 -72 -127q-41 0 -119 78q-46 42 -65 53q-42 25 -84 25q-70 0 -113 -49q-47 -56 -47 -152v-33h88zM127 287v860q0 303 328 303h16q328 0 328 -303v-860
q0 -303 -328 -303h-16q-328 0 -328 303zM238 1110v-786q0 -129 51 -183q52 -55 174 -55t174 55q51 54 51 183v786q0 128 -51 182q-53 56 -174 56t-174 -56q-51 -54 -51 -182z" />
    <glyph glyph-name="Odieresis" unicode="&#xd6;" 
d="M385 1690v-144h-117v144h117zM657 1690v-144h-116v144h116zM127 287v860q0 303 328 303h16q328 0 328 -303v-860q0 -303 -328 -303h-16q-328 0 -328 303zM238 1110v-786q0 -129 51 -183q52 -55 174 -55t174 55q51 54 51 183v786q0 128 -51 182q-53 56 -174 56t-174 -56
q-51 -54 -51 -182z" />
    <glyph glyph-name="multiply" unicode="&#xd7;" horiz-adv-x="860" 
d="M684 920l-192 -191l192 -190l-66 -66l-190 193l-188 -191l-66 66l193 188l-193 189l66 65l188 -192l190 192z" />
    <glyph glyph-name="Oslash" unicode="&#xd8;" 
d="M455 1450h16q328 0 328 -303v-860q0 -303 -328 -303h-16q-328 0 -328 303v860q0 303 328 303zM238 1110v-786q0 -126 51 -183l268 1196q-57 11 -94 11q-121 0 -174 -56q-51 -54 -51 -182zM688 324v786q0 125 -51 182l-268 -1196q52 -10 94 -10q122 0 174 55q51 54 51 183
z" />
    <glyph glyph-name="Ugrave" unicode="&#xd9;" horiz-adv-x="917" 
d="M375 1802l139 -256h-88l-199 256h148zM786 1434v-1147q0 -303 -323 -303h-8q-324 0 -324 303v1147h111v-1110q0 -130 47 -183q49 -55 170 -55t170 55q47 53 47 183v1110h110z" />
    <glyph glyph-name="Uacute" unicode="&#xda;" horiz-adv-x="917" 
d="M545 1802h147l-198 -256h-88zM786 1434v-1147q0 -303 -323 -303h-8q-324 0 -324 303v1147h111v-1110q0 -130 47 -183q49 -55 170 -55t170 55q47 53 47 183v1110h110z" />
    <glyph glyph-name="Ucircumflex" unicode="&#xdb;" horiz-adv-x="917" 
d="M694 1546l-180 256h-111l-180 -256h113l123 176l123 -176h112zM786 1434v-1147q0 -303 -323 -303h-8q-324 0 -324 303v1147h111v-1110q0 -130 47 -183q49 -55 170 -55t170 55q47 53 47 183v1110h110z" />
    <glyph glyph-name="Udieresis" unicode="&#xdc;" horiz-adv-x="917" 
d="M381 1690v-144h-117v144h117zM653 1690v-144h-116v144h116zM786 1434v-1147q0 -303 -323 -303h-8q-324 0 -324 303v1147h111v-1110q0 -130 47 -183q49 -55 170 -55t170 55q47 53 47 183v1110h110z" />
    <glyph glyph-name="Yacute" unicode="&#xdd;" horiz-adv-x="847" 
d="M510 1802h147l-198 -256h-88zM479 559v-559h-110v559l-320 875h117l258 -744l258 744h117z" />
    <glyph glyph-name="Thorn" unicode="&#xde;" horiz-adv-x="882" 
d="M246 1145h227q328 0 328 -303v-228q0 -303 -328 -303h-227v-311h-111v1434h111v-289zM690 651v154q0 128 -51 182q-52 55 -174 55h-219v-628h219q122 0 174 55q51 54 51 182z" />
    <glyph glyph-name="germandbls" unicode="&#xdf;" horiz-adv-x="1712" 
d="M750 938h-111v184q0 119 -47 172q-50 56 -164 56t-164 -56q-47 -53 -47 -172v-100q0 -76 33 -115q26 -33 112 -78l220 -120q172 -91 172 -242v-184q0 -299 -322 -299h-4q-322 0 -322 299v233h111v-201q0 -119 49 -174q48 -57 164 -57q115 0 166 57q47 56 47 174v115
q0 75 -35 119q-25 35 -116 86l-216 117q-93 52 -129 100q-41 56 -41 137v166q0 143 87 221q83 74 233 74h4q151 0 234 -74q86 -77 86 -221v-217zM1606 938h-111v184q0 119 -47 172q-50 56 -164 56t-164 -56q-47 -53 -47 -172v-100q0 -76 33 -115q26 -32 113 -78l219 -120
q172 -91 172 -242v-184q0 -299 -322 -299h-4q-321 0 -321 299v233h110v-201q0 -119 49 -174q48 -57 164 -57q115 0 166 57q47 56 47 174v115q0 75 -35 119q-25 35 -116 86l-215 117q-93 52 -129 100q-41 56 -41 137v166q0 144 86 221q83 74 233 74h4q151 0 234 -74
q86 -77 86 -221v-217z" />
    <glyph glyph-name="Agrave006" unicode="&#xe0;" horiz-adv-x="868" 
d="M487 1546h-88l-198 256h147zM705 0l-80 369h-385l-80 -369h-111l320 1434h127l323 -1434h-114zM262 469h340l-170 791z" />
    <glyph glyph-name="Aacute002" unicode="&#xe1;" horiz-adv-x="868" 
d="M666 1802l-199 -256h-88l139 256h148zM705 0l-80 369h-385l-80 -369h-111l320 1434h127l323 -1434h-114zM262 469h340l-170 791z" />
    <glyph glyph-name="Acircumflex004" unicode="&#xe2;" horiz-adv-x="868" 
d="M432 1722l-123 -176h-112l180 256h110l181 -256h-113zM705 0l-80 369h-385l-80 -369h-111l320 1434h127l323 -1434h-114zM262 469h340l-170 791z" />
    <glyph glyph-name="Atilde011" unicode="&#xe3;" horiz-adv-x="868" 
d="M225 1571v-17h-88v33q0 96 47 152q43 49 113 49q68 0 149 -78l29 -29q9 -9 29 -24q36 -25 61 -25q72 0 72 127v17h90v-33q0 -99 -45 -150q-43 -49 -113 -49q-66 0 -147 78q-79 76 -121 76q-76 0 -76 -127zM705 0l-80 369h-385l-80 -369h-111l320 1434h127l323 -1434h-114
zM262 469h340l-170 791z" />
    <glyph glyph-name="Adieresis005" unicode="&#xe4;" horiz-adv-x="868" 
d="M354 1690v-144h-116v144h116zM627 1690v-144h-117v144h117zM705 0l-80 369h-385l-80 -369h-111l320 1434h127l323 -1434h-114zM262 469h340l-170 791z" />
    <glyph glyph-name="Aring009" unicode="&#xe5;" horiz-adv-x="868" 
d="M309 1577q-45 42 -45 115q0 72 45 114q46 43 123 43q75 0 121 -43q45 -42 45 -114q0 -73 -45 -115q-46 -43 -121 -43q-77 0 -123 43zM342 1692q0 -88 90 -88q88 0 88 88t-88 88q-90 0 -90 -88zM705 0l-80 369h-385l-80 -369h-111l320 1434h127l323 -1434h-114zM262 469
h340l-170 791z" />
    <glyph glyph-name="AE012" unicode="&#xe6;" horiz-adv-x="1282" 
d="M741 102h459v-102h-569v369h-363l-118 -369h-113l465 1434h692v-103h-453v-553h389v-102h-389v-574zM299 467h332v864h-56z" />
    <glyph glyph-name="Ccedilla018" unicode="&#xe7;" horiz-adv-x="905" 
d="M786 901h-110v209q0 127 -49 182q-53 56 -170 56t-170 -56q-49 -55 -49 -182v-786q0 -128 49 -183q52 -55 170 -55t170 55q49 55 49 183v243h110v-280q0 -285 -290 -303v-82q0 -88 -33 -121q-34 -37 -111 -37q-48 0 -82 12l-28 72h75q47 0 66 16q18 18 18 66v76
q-274 21 -274 301v860q0 303 328 303h4q327 0 327 -303v-246z" />
    <glyph glyph-name="Egrave031" unicode="&#xe8;" horiz-adv-x="786" 
d="M330 1802l139 -256h-88l-199 256h148zM705 0h-570v1434h563v-103h-452v-553h389v-102h-389v-574h459v-102z" />
    <glyph glyph-name="Eacute025" unicode="&#xe9;" horiz-adv-x="786" 
d="M500 1802h147l-198 -256h-89zM705 0h-570v1434h563v-103h-452v-553h389v-102h-389v-574h459v-102z" />
    <glyph glyph-name="Ecircumflex028" unicode="&#xea;" horiz-adv-x="786" 
d="M649 1546l-180 256h-111l-180 -256h113l123 176l123 -176h112zM705 0h-570v1434h563v-103h-452v-553h389v-102h-389v-574h459v-102z" />
    <glyph glyph-name="Edieresis029" unicode="&#xeb;" horiz-adv-x="786" 
d="M336 1690v-144h-117v144h117zM608 1690v-144h-116v144h116zM705 0h-570v1434h563v-103h-452v-553h389v-102h-389v-574h459v-102z" />
    <glyph glyph-name="Igrave046" unicode="&#xec;" horiz-adv-x="399" 
d="M115 1802l139 -256h-88l-199 256h148zM254 0h-111v1434h111v-1434z" />
    <glyph glyph-name="Iacute042" unicode="&#xed;" horiz-adv-x="399" 
d="M285 1802h147l-199 -256h-88zM254 0h-111v1434h111v-1434z" />
    <glyph glyph-name="Icircumflex044" unicode="&#xee;" horiz-adv-x="399" 
d="M434 1546l-180 256h-111l-180 -256h113l123 176l123 -176h112zM254 0h-111v1434h111v-1434z" />
    <glyph glyph-name="Idieresis045" unicode="&#xef;" horiz-adv-x="399" 
d="M121 1690v-144h-117v144h117zM393 1690v-144h-117v144h117zM254 0h-111v1434h111v-1434z" />
    <glyph glyph-name="Eth021" unicode="&#xf0;" horiz-adv-x="944" 
d="M156 1434h333q328 0 328 -304v-827q0 -303 -328 -303h-333v678h-111v102h111v654zM707 340v754q0 127 -52 182t-174 55h-215v-551h254v-102h-254v-576h215q121 0 174 56q52 55 52 182z" />
    <glyph glyph-name="Ntilde065" unicode="&#xf1;" horiz-adv-x="960" 
d="M279 1554v17q0 127 75 127q26 0 62 -25l28 -24l31 -27q81 -78 148 -78q69 0 112 49q45 51 45 150v33h-90v-17q0 -127 -72 -127q-25 0 -61 25q-20 15 -29 24l-28 29q-81 78 -150 78t-112 -49q-48 -57 -48 -152v-33h89zM242 0h-107v1434h115l469 -1172v1172h106v-1434h-108
l-475 1180v-1180z" />
    <glyph glyph-name="Ograve071" unicode="&#xf2;" 
d="M379 1802l139 -256h-88l-199 256h148zM127 287v860q0 303 328 303h16q328 0 328 -303v-860q0 -303 -328 -303h-16q-328 0 -328 303zM238 1110v-786q0 -129 51 -183q52 -55 174 -55t174 55q51 54 51 183v786q0 128 -51 182q-53 56 -174 56t-174 -56q-51 -54 -51 -182z" />
    <glyph glyph-name="Oacute067" unicode="&#xf3;" 
d="M549 1802h147l-198 -256h-88zM127 287v860q0 303 328 303h16q328 0 328 -303v-860q0 -303 -328 -303h-16q-328 0 -328 303zM238 1110v-786q0 -129 51 -183q52 -55 174 -55t174 55q51 54 51 183v786q0 128 -51 182q-53 56 -174 56t-174 -56q-51 -54 -51 -182z" />
    <glyph glyph-name="Ocircumflex069" unicode="&#xf4;" 
d="M698 1546l-180 256h-110l-181 -256h113l123 176l123 -176h112zM127 287v860q0 303 328 303h16q328 0 328 -303v-860q0 -303 -328 -303h-16q-328 0 -328 303zM238 1110v-786q0 -129 51 -183q52 -55 174 -55t174 55q51 54 51 183v786q0 128 -51 182q-53 56 -174 56
t-174 -56q-51 -54 -51 -182z" />
    <glyph glyph-name="Otilde076" unicode="&#xf5;" 
d="M256 1554v17q0 127 76 127q25 0 61 -25l29 -24l31 -27q81 -78 147 -78q70 0 113 49q45 51 45 150v33h-90v-17q0 -127 -72 -127q-41 0 -119 78q-46 42 -65 53q-42 25 -84 25q-70 0 -113 -49q-47 -56 -47 -152v-33h88zM127 287v860q0 303 328 303h16q328 0 328 -303v-860
q0 -303 -328 -303h-16q-328 0 -328 303zM238 1110v-786q0 -129 51 -183q52 -55 174 -55t174 55q51 54 51 183v786q0 128 -51 182q-53 56 -174 56t-174 -56q-51 -54 -51 -182z" />
    <glyph glyph-name="Odieresis070" unicode="&#xf6;" 
d="M385 1690v-144h-117v144h117zM657 1690v-144h-116v144h116zM127 287v860q0 303 328 303h16q328 0 328 -303v-860q0 -303 -328 -303h-16q-328 0 -328 303zM238 1110v-786q0 -129 51 -183q52 -55 174 -55t174 55q51 54 51 183v786q0 128 -51 182q-53 56 -174 56t-174 -56
q-51 -54 -51 -182z" />
    <glyph glyph-name="divide" unicode="&#xf7;" horiz-adv-x="860" 
d="M489 1147v-141h-118v141h118zM743 776v-94h-626v94h626zM489 453v-144h-118v144h118z" />
    <glyph glyph-name="Oslash074" unicode="&#xf8;" 
d="M455 1450h16q328 0 328 -303v-860q0 -303 -328 -303h-16q-328 0 -328 303v860q0 303 328 303zM238 1110v-786q0 -126 51 -183l268 1196q-57 11 -94 11q-121 0 -174 -56q-51 -54 -51 -182zM688 324v786q0 125 -51 182l-268 -1196q52 -10 94 -10q122 0 174 55q51 54 51 183
z" />
    <glyph glyph-name="Ugrave099" unicode="&#xf9;" horiz-adv-x="917" 
d="M375 1802l139 -256h-88l-199 256h148zM786 1434v-1147q0 -303 -323 -303h-8q-324 0 -324 303v1147h111v-1110q0 -130 47 -183q49 -55 170 -55t170 55q47 53 47 183v1110h110z" />
    <glyph glyph-name="Uacute095" unicode="&#xfa;" horiz-adv-x="917" 
d="M545 1802h147l-198 -256h-88zM786 1434v-1147q0 -303 -323 -303h-8q-324 0 -324 303v1147h111v-1110q0 -130 47 -183q49 -55 170 -55t170 55q47 53 47 183v1110h110z" />
    <glyph glyph-name="Ucircumflex097" unicode="&#xfb;" horiz-adv-x="917" 
d="M694 1546l-180 256h-111l-180 -256h113l123 176l123 -176h112zM786 1434v-1147q0 -303 -323 -303h-8q-324 0 -324 303v1147h111v-1110q0 -130 47 -183q49 -55 170 -55t170 55q47 53 47 183v1110h110z" />
    <glyph glyph-name="Udieresis098" unicode="&#xfc;" horiz-adv-x="917" 
d="M381 1690v-144h-117v144h117zM653 1690v-144h-116v144h116zM786 1434v-1147q0 -303 -323 -303h-8q-324 0 -324 303v1147h111v-1110q0 -130 47 -183q49 -55 170 -55t170 55q47 53 47 183v1110h110z" />
    <glyph glyph-name="Yacute112" unicode="&#xfd;" horiz-adv-x="847" 
d="M510 1802h147l-198 -256h-88zM479 559v-559h-110v559l-320 875h117l258 -744l258 744h117z" />
    <glyph glyph-name="Thorn079" unicode="&#xfe;" horiz-adv-x="882" 
d="M246 1145h227q328 0 328 -303v-228q0 -303 -328 -303h-227v-311h-111v1434h111v-289zM690 651v154q0 128 -51 182q-52 55 -174 55h-219v-628h219q122 0 174 55q51 54 51 182z" />
    <glyph glyph-name="Ydieresis114" unicode="&#xff;" horiz-adv-x="847" 
d="M346 1690v-144h-117v144h117zM618 1690v-144h-116v144h116zM479 559v-559h-110v559l-320 875h117l258 -744l258 744h117z" />
    <glyph glyph-name="Amacron" unicode="&#x100;" horiz-adv-x="868" 
d="M664 1661v-94h-463v94h463zM705 0l-80 369h-385l-80 -369h-111l320 1434h127l323 -1434h-114zM262 469h340l-170 791z" />
    <glyph glyph-name="Amacron007" unicode="&#x101;" horiz-adv-x="868" 
d="M664 1661v-94h-463v94h463zM705 0l-80 369h-385l-80 -369h-111l320 1434h127l323 -1434h-114zM262 469h340l-170 791z" />
    <glyph glyph-name="Abreve" unicode="&#x102;" horiz-adv-x="868" 
d="M444 1544h-24q-197 0 -197 162v78h92v-60q0 -98 113 -98h8q113 0 113 98v60h92v-80q0 -160 -197 -160zM705 0l-80 369h-385l-80 -369h-111l320 1434h127l323 -1434h-114zM262 469h340l-170 791z" />
    <glyph glyph-name="Abreve003" unicode="&#x103;" horiz-adv-x="868" 
d="M444 1544h-24q-197 0 -197 162v78h92v-60q0 -98 113 -98h8q113 0 113 98v60h92v-80q0 -160 -197 -160zM705 0l-80 369h-385l-80 -369h-111l320 1434h127l323 -1434h-114zM262 469h340l-170 791z" />
    <glyph glyph-name="Aogonek" unicode="&#x104;" horiz-adv-x="868" 
d="M819 0h-37q-93 -46 -96 -131q-3 -84 74 -84q28 0 57 20v-61q-19 -19 -43 -27q-30 -10 -49 -10q-122 0 -131 123t111 170l-80 369h-385l-80 -369h-111l320 1434h127zM262 469h340l-170 791z" />
    <glyph glyph-name="Aogonek008" unicode="&#x105;" horiz-adv-x="868" 
d="M819 0h-37q-93 -46 -96 -131q-3 -84 74 -84q28 0 57 20v-61q-19 -19 -43 -27q-30 -10 -49 -10q-122 0 -131 123t111 170l-80 369h-385l-80 -369h-111l320 1434h127zM262 469h340l-170 791z" />
    <glyph glyph-name="Cacute" unicode="&#x106;" horiz-adv-x="905" 
d="M543 1802h147l-198 -256h-89zM786 567v-280q0 -303 -327 -303h-4q-328 0 -328 303v860q0 303 328 303h4q327 0 327 -303v-246h-110v209q0 127 -49 182q-53 56 -170 56t-170 -56q-49 -55 -49 -182v-786q0 -128 49 -183q52 -55 170 -55t170 55q49 55 49 183v243h110z" />
    <glyph glyph-name="Cacute016" unicode="&#x107;" horiz-adv-x="905" 
d="M543 1802h147l-198 -256h-89zM786 567v-280q0 -303 -327 -303h-4q-328 0 -328 303v860q0 303 328 303h4q327 0 327 -303v-246h-110v209q0 127 -49 182q-53 56 -170 56t-170 -56q-49 -55 -49 -182v-786q0 -128 49 -183q52 -55 170 -55t170 55q49 55 49 183v243h110z" />
    <glyph glyph-name="Cdotaccent" unicode="&#x10a;" horiz-adv-x="905" 
d="M516 1690v-144h-119v144h119zM786 567v-280q0 -303 -327 -303h-4q-328 0 -328 303v860q0 303 328 303h4q327 0 327 -303v-246h-110v209q0 127 -49 182q-53 56 -170 56t-170 -56q-49 -55 -49 -182v-786q0 -128 49 -183q52 -55 170 -55t170 55q49 55 49 183v243h110z" />
    <glyph glyph-name="Cdotaccent019" unicode="&#x10b;" horiz-adv-x="905" 
d="M516 1690v-144h-119v144h119zM786 567v-280q0 -303 -327 -303h-4q-328 0 -328 303v860q0 303 328 303h4q327 0 327 -303v-246h-110v209q0 127 -49 182q-53 56 -170 56t-170 -56q-49 -55 -49 -182v-786q0 -128 49 -183q52 -55 170 -55t170 55q49 55 49 183v243h110z" />
    <glyph glyph-name="Ccaron" unicode="&#x10c;" horiz-adv-x="905" 
d="M692 1802h-112l-123 -176l-123 176h-113l182 -256h109zM786 567v-280q0 -303 -327 -303h-4q-328 0 -328 303v860q0 303 328 303h4q327 0 327 -303v-246h-110v209q0 127 -49 182q-53 56 -170 56t-170 -56q-49 -55 -49 -182v-786q0 -128 49 -183q52 -55 170 -55t170 55
q49 55 49 183v243h110z" />
    <glyph glyph-name="Ccaron017" unicode="&#x10d;" horiz-adv-x="905" 
d="M692 1802h-112l-123 -176l-123 176h-113l182 -256h109zM786 567v-280q0 -303 -327 -303h-4q-328 0 -328 303v860q0 303 328 303h4q327 0 327 -303v-246h-110v209q0 127 -49 182q-53 56 -170 56t-170 -56q-49 -55 -49 -182v-786q0 -128 49 -183q52 -55 170 -55t170 55
q49 55 49 183v243h110z" />
    <glyph glyph-name="Dcaron" unicode="&#x10e;" horiz-adv-x="923" 
d="M686 1802h-113l-122 -176l-123 176h-113l182 -256h109zM135 1434h334q328 0 328 -304v-827q0 -303 -328 -303h-334v1434zM686 340v754q0 128 -51 182q-52 55 -174 55h-215v-1229h215q121 0 174 56q51 54 51 182z" />
    <glyph glyph-name="Dcaron022" unicode="&#x10f;" horiz-adv-x="923" 
d="M686 1802h-113l-122 -176l-123 176h-113l182 -256h109zM135 1434h334q328 0 328 -304v-827q0 -303 -328 -303h-334v1434zM686 340v754q0 128 -51 182q-52 55 -174 55h-215v-1229h215q121 0 174 56q51 54 51 182z" />
    <glyph glyph-name="Dcroat" unicode="&#x110;" horiz-adv-x="944" 
d="M156 1434h333q328 0 328 -304v-827q0 -303 -328 -303h-333v678h-111v102h111v654zM707 340v754q0 127 -52 182t-174 55h-215v-551h254v-102h-254v-576h215q121 0 174 56q52 55 52 182z" />
    <glyph glyph-name="Dcroat023" unicode="&#x111;" horiz-adv-x="944" 
d="M156 1434h333q328 0 328 -304v-827q0 -303 -328 -303h-333v678h-111v102h111v654zM707 340v754q0 127 -52 182t-174 55h-215v-551h254v-102h-254v-576h215q121 0 174 56q52 55 52 182z" />
    <glyph glyph-name="Emacron" unicode="&#x112;" horiz-adv-x="786" 
d="M645 1567h-463v94h463v-94zM705 0h-570v1434h563v-103h-452v-553h389v-102h-389v-574h459v-102z" />
    <glyph glyph-name="Emacron032" unicode="&#x113;" horiz-adv-x="786" 
d="M645 1567h-463v94h463v-94zM705 0h-570v1434h563v-103h-452v-553h389v-102h-389v-574h459v-102z" />
    <glyph glyph-name="Ebreve" unicode="&#x114;" horiz-adv-x="786" 
d="M623 1784v-80q0 -160 -197 -160h-25q-196 0 -196 162v78h92v-60q0 -98 113 -98h8q112 0 112 98v60h93zM705 0h-570v1434h563v-103h-452v-553h389v-102h-389v-574h459v-102z" />
    <glyph glyph-name="Ebreve026" unicode="&#x115;" horiz-adv-x="786" 
d="M623 1784v-80q0 -160 -197 -160h-25q-196 0 -196 162v78h92v-60q0 -98 113 -98h8q112 0 112 98v60h93zM705 0h-570v1434h563v-103h-452v-553h389v-102h-389v-574h459v-102z" />
    <glyph glyph-name="Edotaccent" unicode="&#x116;" horiz-adv-x="786" 
d="M473 1690v-144h-119v144h119zM705 0h-570v1434h563v-103h-452v-553h389v-102h-389v-574h459v-102z" />
    <glyph glyph-name="Edotaccent030" unicode="&#x117;" horiz-adv-x="786" 
d="M473 1690v-144h-119v144h119zM705 0h-570v1434h563v-103h-452v-553h389v-102h-389v-574h459v-102z" />
    <glyph glyph-name="Eogonek" unicode="&#x118;" horiz-adv-x="786" 
d="M739 -195v-61q-19 -19 -43 -27q-30 -10 -49 -10q-122 0 -131 123t111 170h-492v1434h563v-103h-452v-553h389v-102h-389v-574h459v-102q-94 -46 -97 -131q-3 -84 74 -84q28 0 57 20z" />
    <glyph glyph-name="Eogonek033" unicode="&#x119;" horiz-adv-x="786" 
d="M739 -195v-61q-19 -19 -43 -27q-30 -10 -49 -10q-122 0 -131 123t111 170h-492v1434h563v-103h-452v-553h389v-102h-389v-574h459v-102q-94 -46 -97 -131q-3 -84 74 -84q28 0 57 20z" />
    <glyph glyph-name="Ecaron" unicode="&#x11a;" horiz-adv-x="786" 
d="M649 1802h-112l-123 -176l-123 176h-113l182 -256h109zM705 0h-570v1434h563v-103h-452v-553h389v-102h-389v-574h459v-102z" />
    <glyph glyph-name="Ecaron027" unicode="&#x11b;" horiz-adv-x="786" 
d="M649 1802h-112l-123 -176l-123 176h-113l182 -256h109zM705 0h-570v1434h563v-103h-452v-553h389v-102h-389v-574h459v-102z" />
    <glyph glyph-name="Gbreve" unicode="&#x11e;" horiz-adv-x="921" 
d="M672 1784v-80q0 -160 -197 -160h-24q-197 0 -197 162v78h92v-60q0 -98 113 -98h8q113 0 113 98v60h92zM799 711v-424q0 -303 -328 -303h-16q-328 0 -328 303v860q0 303 328 303h16q328 0 328 -303v-189h-111v152q0 128 -51 182q-53 56 -174 56t-174 -56q-51 -54 -51 -182
v-786q0 -129 51 -183q52 -55 174 -55t174 55q51 54 51 183v286h-233v101h344z" />
    <glyph glyph-name="Gbreve036" unicode="&#x11f;" horiz-adv-x="921" 
d="M672 1784v-80q0 -160 -197 -160h-24q-197 0 -197 162v78h92v-60q0 -98 113 -98h8q113 0 113 98v60h92zM799 711v-424q0 -303 -328 -303h-16q-328 0 -328 303v860q0 303 328 303h16q328 0 328 -303v-189h-111v152q0 128 -51 182q-53 56 -174 56t-174 -56q-51 -54 -51 -182
v-786q0 -129 51 -183q52 -55 174 -55t174 55q51 54 51 183v286h-233v101h344z" />
    <glyph glyph-name="Gdotaccent" unicode="&#x120;" horiz-adv-x="921" 
d="M522 1690v-144h-119v144h119zM799 711v-424q0 -303 -328 -303h-16q-328 0 -328 303v860q0 303 328 303h16q328 0 328 -303v-189h-111v152q0 128 -51 182q-53 56 -174 56t-174 -56q-51 -54 -51 -182v-786q0 -129 51 -183q52 -55 174 -55t174 55q51 54 51 183v286h-233v101
h344z" />
    <glyph glyph-name="Gdotaccent038" unicode="&#x121;" horiz-adv-x="921" 
d="M522 1690v-144h-119v144h119zM799 711v-424q0 -303 -328 -303h-16q-328 0 -328 303v860q0 303 328 303h16q328 0 328 -303v-189h-111v152q0 128 -51 182q-53 56 -174 56t-174 -56q-51 -54 -51 -182v-786q0 -129 51 -183q52 -55 174 -55t174 55q51 54 51 183v286h-233v101
h344z" />
    <glyph glyph-name="Gcommaaccent" unicode="&#x122;" horiz-adv-x="921" 
d="M799 711v-424q0 -303 -328 -303h-16q-328 0 -328 303v860q0 303 328 303h16q328 0 328 -303v-189h-111v152q0 128 -51 182q-53 56 -174 56t-174 -56q-51 -54 -51 -182v-786q0 -129 51 -183q52 -55 174 -55t174 55q51 54 51 183v286h-233v101h344zM522 -143v-109
q0 -160 -71 -287l-48 25q51 105 54 221h-56v150h121z" />
    <glyph glyph-name="Gcommaaccent037" unicode="&#x123;" horiz-adv-x="921" 
d="M799 711v-424q0 -303 -328 -303h-16q-328 0 -328 303v860q0 303 328 303h16q328 0 328 -303v-189h-111v152q0 128 -51 182q-53 56 -174 56t-174 -56q-51 -54 -51 -182v-786q0 -129 51 -183q52 -55 174 -55t174 55q51 54 51 183v286h-233v101h344zM522 -143v-109
q0 -160 -71 -287l-48 25q51 105 54 221h-56v150h121z" />
    <glyph glyph-name="Hbar" unicode="&#x126;" horiz-adv-x="993" 
d="M956 1153v-90h-118v-1063h-111v678h-461v-678h-110v1063h-119v90h119v281h110v-281h461v281h111v-281h118zM727 780v283h-461v-283h461z" />
    <glyph glyph-name="Hbar040" unicode="&#x127;" horiz-adv-x="993" 
d="M956 1153v-90h-118v-1063h-111v678h-461v-678h-110v1063h-119v90h119v281h110v-281h461v281h111v-281h118zM727 780v283h-461v-283h461z" />
    <glyph glyph-name="Itilde" unicode="&#x128;" horiz-adv-x="399" 
d="M254 0h-111v1434h111v-1434zM74 1552v13q0 102 61 102q32 0 96 -61q32 -28 52 -43q36 -19 67 -19q55 0 88 39q37 43 37 121v25h-72v-13q0 -102 -57 -102q-33 0 -96 63q-23 23 -51 43q-36 19 -68 19q-57 0 -90 -39q-37 -43 -37 -121v-27h70z" />
    <glyph glyph-name="Itilde206" unicode="&#x129;" horiz-adv-x="399" 
d="M254 0h-111v1434h111v-1434zM74 1552v13q0 102 61 102q32 0 96 -61q32 -28 52 -43q36 -19 67 -19q55 0 88 39q37 43 37 121v25h-72v-13q0 -102 -57 -102q-33 0 -96 63q-23 23 -51 43q-36 19 -68 19q-57 0 -90 -39q-37 -43 -37 -121v-27h70z" />
    <glyph glyph-name="Imacron" unicode="&#x12a;" horiz-adv-x="399" 
d="M430 1567h-463v94h463v-94zM254 0h-111v1434h111v-1434z" />
    <glyph glyph-name="Imacron048" unicode="&#x12b;" horiz-adv-x="399" 
d="M430 1567h-463v94h463v-94zM254 0h-111v1434h111v-1434z" />
    <glyph glyph-name="Ibreve" unicode="&#x12c;" horiz-adv-x="399" 
d="M408 1784v-80q0 -160 -197 -160h-25q-196 0 -196 162v78h92v-60q0 -98 113 -98h8q112 0 112 98v60h93zM254 0h-111v1434h111v-1434z" />
    <glyph glyph-name="Ibreve043" unicode="&#x12d;" horiz-adv-x="399" 
d="M408 1784v-80q0 -160 -197 -160h-25q-196 0 -196 162v78h92v-60q0 -98 113 -98h8q112 0 112 98v60h93zM254 0h-111v1434h111v-1434z" />
    <glyph glyph-name="Iogonek" unicode="&#x12e;" horiz-adv-x="399" 
d="M258 -195v-61q-19 -19 -43 -27q-30 -10 -49 -10q-122 0 -131 123q-9 124 110 170h-2v1434h111v-1434h-31q-93 -46 -96 -131q-3 -84 74 -84q28 0 57 20z" />
    <glyph glyph-name="Iogonek049" unicode="&#x12f;" horiz-adv-x="399" 
d="M258 -195v-61q-19 -19 -43 -27q-30 -10 -49 -10q-122 0 -131 123q-9 124 110 170h-2v1434h111v-1434h-31q-93 -46 -96 -131q-3 -84 74 -84q28 0 57 20z" />
    <glyph glyph-name="Idotaccent" unicode="&#x130;" horiz-adv-x="399" 
d="M258 1690v-144h-119v144h119zM254 0h-111v1434h111v-1434z" />
    <glyph glyph-name="IJ" unicode="&#x132;" horiz-adv-x="718" 
d="M246 266h-111v1168h111v-1168zM135 102h117q122 0 174 58q51 54 51 184v1090h111v-1131q0 -303 -332 -303h-121v102z" />
    <glyph glyph-name="IJ047" unicode="&#x133;" horiz-adv-x="718" 
d="M246 266h-111v1168h111v-1168zM135 102h117q122 0 174 58q51 54 51 184v1090h111v-1131q0 -303 -332 -303h-121v102z" />
    <glyph glyph-name="Kcommaaccent" unicode="&#x136;" horiz-adv-x="880" 
d="M502 899l350 -899h-119l-301 786l-186 -305v-481h-111v1434h111v-775l459 775h122zM426 -293v150h121v-109q0 -158 -72 -287l-47 25q50 103 53 221h-55z" />
    <glyph glyph-name="Kcommaaccent052" unicode="&#x137;" horiz-adv-x="880" 
d="M502 899l350 -899h-119l-301 786l-186 -305v-481h-111v1434h111v-775l459 775h122zM426 -293v150h121v-109q0 -158 -72 -287l-47 25q50 103 53 221h-55z" />
    <glyph glyph-name="Lacute" unicode="&#x139;" horiz-adv-x="714" 
d="M307 1802h148l-199 -256h-88zM674 102v-102h-539v1434h111v-1332h428z" />
    <glyph glyph-name="Lacute054" unicode="&#x13a;" horiz-adv-x="714" 
d="M307 1802h148l-199 -256h-88zM674 102v-102h-539v1434h111v-1332h428z" />
    <glyph glyph-name="Lcommaaccent" unicode="&#x13b;" horiz-adv-x="714" 
d="M674 102v-102h-539v1434h111v-1332h428zM465 -143v-109q0 -158 -72 -287l-47 25q50 103 53 221h-55v150h121z" />
    <glyph glyph-name="Lcommaaccent056" unicode="&#x13c;" horiz-adv-x="714" 
d="M674 102v-102h-539v1434h111v-1332h428zM465 -143v-109q0 -158 -72 -287l-47 25q50 103 53 221h-55v150h121z" />
    <glyph glyph-name="Lcaron" unicode="&#x13d;" horiz-adv-x="714" 
d="M674 102v-102h-539v1434h111v-1332h428zM569 1434v-109q0 -160 -71 -287l-47 25q50 103 53 221h-55v150h120z" />
    <glyph glyph-name="Lcaron055" unicode="&#x13e;" horiz-adv-x="714" 
d="M674 102v-102h-539v1434h111v-1332h428zM569 1434v-109q0 -160 -71 -287l-47 25q50 103 53 221h-55v150h120z" />
    <glyph glyph-name="Ldot" unicode="&#x13f;" horiz-adv-x="731" 
d="M674 102v-102h-539v1434h111v-1332h428zM537 899v-149h-121v149h121z" />
    <glyph glyph-name="Ldot057" unicode="&#x140;" horiz-adv-x="731" 
d="M674 102v-102h-539v1434h111v-1332h428zM537 899v-149h-121v149h121z" />
    <glyph glyph-name="Lslash" unicode="&#x141;" horiz-adv-x="735" 
d="M266 102h428v-102h-538v672l-136 -70v105l136 69v658h110v-603l260 134v-105l-260 -133v-625z" />
    <glyph glyph-name="Lslash058" unicode="&#x142;" horiz-adv-x="735" 
d="M266 102h428v-102h-538v672l-136 -70v105l136 69v658h110v-603l260 134v-105l-260 -133v-625z" />
    <glyph glyph-name="Nacute" unicode="&#x143;" horiz-adv-x="960" 
d="M571 1802h148l-199 -256h-88zM242 0h-107v1434h115l469 -1172v1172h106v-1434h-108l-475 1180v-1180z" />
    <glyph glyph-name="Nacute061" unicode="&#x144;" horiz-adv-x="960" 
d="M571 1802h148l-199 -256h-88zM242 0h-107v1434h115l469 -1172v1172h106v-1434h-108l-475 1180v-1180z" />
    <glyph glyph-name="Ncommaaccent" unicode="&#x145;" horiz-adv-x="960" 
d="M242 0h-107v1434h115l469 -1172v1172h106v-1434h-108l-475 1180v-1180zM539 -143v-109q0 -158 -72 -287l-47 25q50 103 53 221h-55v150h121z" />
    <glyph glyph-name="Ncommaaccent063" unicode="&#x146;" horiz-adv-x="960" 
d="M242 0h-107v1434h115l469 -1172v1172h106v-1434h-108l-475 1180v-1180zM539 -143v-109q0 -158 -72 -287l-47 25q50 103 53 221h-55v150h121z" />
    <glyph glyph-name="Ncaron" unicode="&#x147;" horiz-adv-x="960" 
d="M721 1802h-113l-123 -176l-123 176h-112l182 -256h109zM242 0h-107v1434h115l469 -1172v1172h106v-1434h-108l-475 1180v-1180z" />
    <glyph glyph-name="Ncaron062" unicode="&#x148;" horiz-adv-x="960" 
d="M721 1802h-113l-123 -176l-123 176h-112l182 -256h109zM242 0h-107v1434h115l469 -1172v1172h106v-1434h-108l-475 1180v-1180z" />
    <glyph glyph-name="Eng" unicode="&#x14a;" horiz-adv-x="960" 
d="M719 1434h106v-1414q0 -303 -315 -303h-43v103h41q192 0 207 186l-473 1174v-1180h-107v1434h115l469 -1172v1172z" />
    <glyph glyph-name="Eng064" unicode="&#x14b;" horiz-adv-x="960" 
d="M719 1434h106v-1414q0 -303 -315 -303h-43v103h41q192 0 207 186l-473 1174v-1180h-107v1434h115l469 -1172v1172z" />
    <glyph glyph-name="Omacron" unicode="&#x14c;" 
d="M694 1567h-463v94h463v-94zM127 287v860q0 303 328 303h16q328 0 328 -303v-860q0 -303 -328 -303h-16q-328 0 -328 303zM238 1110v-786q0 -129 51 -183q52 -55 174 -55t174 55q51 54 51 183v786q0 128 -51 182q-53 56 -174 56t-174 -56q-51 -54 -51 -182z" />
    <glyph glyph-name="Omacron073" unicode="&#x14d;" 
d="M694 1567h-463v94h463v-94zM127 287v860q0 303 328 303h16q328 0 328 -303v-860q0 -303 -328 -303h-16q-328 0 -328 303zM238 1110v-786q0 -129 51 -183q52 -55 174 -55t174 55q51 54 51 183v786q0 128 -51 182q-53 56 -174 56t-174 -56q-51 -54 -51 -182z" />
    <glyph glyph-name="Obreve" unicode="&#x14e;" 
d="M672 1784v-80q0 -160 -197 -160h-24q-197 0 -197 162v78h92v-60q0 -98 113 -98h8q113 0 113 98v60h92zM127 287v860q0 303 328 303h16q328 0 328 -303v-860q0 -303 -328 -303h-16q-328 0 -328 303zM238 1110v-786q0 -129 51 -183q52 -55 174 -55t174 55q51 54 51 183v786
q0 128 -51 182q-53 56 -174 56t-174 -56q-51 -54 -51 -182z" />
    <glyph glyph-name="Obreve068" unicode="&#x14f;" 
d="M672 1784v-80q0 -160 -197 -160h-24q-197 0 -197 162v78h92v-60q0 -98 113 -98h8q113 0 113 98v60h92zM127 287v860q0 303 328 303h16q328 0 328 -303v-860q0 -303 -328 -303h-16q-328 0 -328 303zM238 1110v-786q0 -129 51 -183q52 -55 174 -55t174 55q51 54 51 183v786
q0 128 -51 182q-53 56 -174 56t-174 -56q-51 -54 -51 -182z" />
    <glyph glyph-name="Ohungarumlaut" unicode="&#x150;" 
d="M432 1802h119l-225 -256h-119zM705 1802h118l-223 -256h-119zM127 287v860q0 303 328 303h16q328 0 328 -303v-860q0 -303 -328 -303h-16q-328 0 -328 303zM238 1110v-786q0 -129 51 -183q52 -55 174 -55t174 55q51 54 51 183v786q0 128 -51 182q-53 56 -174 56t-174 -56
q-51 -54 -51 -182z" />
    <glyph glyph-name="Ohungarumlaut072" unicode="&#x151;" 
d="M432 1802h119l-225 -256h-119zM705 1802h118l-223 -256h-119zM127 287v860q0 303 328 303h16q328 0 328 -303v-860q0 -303 -328 -303h-16q-328 0 -328 303zM238 1110v-786q0 -129 51 -183q52 -55 174 -55t174 55q51 54 51 183v786q0 128 -51 182q-53 56 -174 56t-174 -56
q-51 -54 -51 -182z" />
    <glyph glyph-name="OE" unicode="&#x152;" horiz-adv-x="1327" 
d="M788 102h457v-102h-790q-328 0 -328 303v827q0 304 328 304h784v-103h-451v-553h388v-102h-388v-574zM463 102h213v1229h-213q-122 0 -174 -55q-51 -54 -51 -182v-754q0 -128 51 -182q53 -56 174 -56z" />
    <glyph glyph-name="OE077" unicode="&#x153;" horiz-adv-x="1327" 
d="M788 102h457v-102h-790q-328 0 -328 303v827q0 304 328 304h784v-103h-451v-553h388v-102h-388v-574zM463 102h213v1229h-213q-122 0 -174 -55q-51 -54 -51 -182v-754q0 -128 51 -182q53 -56 174 -56z" />
    <glyph glyph-name="Racute" unicode="&#x154;" horiz-adv-x="923" 
d="M684 1802l-199 -256h-88l140 256h147zM850 0h-119l-235 618h-250v-618h-111v1434h338q328 0 328 -304v-208q0 -234 -197 -287zM246 719h219q122 0 174 55q51 54 51 182v138q0 128 -51 182q-52 55 -174 55h-219v-612z" />
    <glyph glyph-name="Racute082" unicode="&#x155;" horiz-adv-x="923" 
d="M684 1802l-199 -256h-88l140 256h147zM850 0h-119l-235 618h-250v-618h-111v1434h338q328 0 328 -304v-208q0 -234 -197 -287zM246 719h219q122 0 174 55q51 54 51 182v138q0 128 -51 182q-52 55 -174 55h-219v-612z" />
    <glyph glyph-name="Rcommaaccent" unicode="&#x156;" horiz-adv-x="923" 
d="M604 635l246 -635h-119l-235 618h-250v-618h-111v1434h338q328 0 328 -304v-208q0 -234 -197 -287zM246 719h219q122 0 174 55q51 54 51 182v138q0 128 -51 182q-52 55 -174 55h-219v-612zM426 -293v150h121v-109q0 -158 -72 -287l-47 25q50 103 53 221h-55z" />
    <glyph glyph-name="Rcommaaccent084" unicode="&#x157;" horiz-adv-x="923" 
d="M604 635l246 -635h-119l-235 618h-250v-618h-111v1434h338q328 0 328 -304v-208q0 -234 -197 -287zM246 719h219q122 0 174 55q51 54 51 182v138q0 128 -51 182q-52 55 -174 55h-219v-612zM426 -293v150h121v-109q0 -158 -72 -287l-47 25q50 103 53 221h-55z" />
    <glyph glyph-name="Rcaron" unicode="&#x158;" horiz-adv-x="923" 
d="M506 1546h-109l-182 256h113l123 -176l122 176h113zM850 0h-119l-235 618h-250v-618h-111v1434h338q328 0 328 -304v-208q0 -234 -197 -287zM246 719h219q122 0 174 55q51 54 51 182v138q0 128 -51 182q-52 55 -174 55h-219v-612z" />
    <glyph glyph-name="Rcaron083" unicode="&#x159;" horiz-adv-x="923" 
d="M506 1546h-109l-182 256h113l123 -176l122 176h113zM850 0h-119l-235 618h-250v-618h-111v1434h338q328 0 328 -304v-208q0 -234 -197 -287zM246 719h219q122 0 174 55q51 54 51 182v138q0 128 -51 182q-52 55 -174 55h-219v-612z" />
    <glyph glyph-name="Sacute" unicode="&#x15a;" horiz-adv-x="856" 
d="M514 1802h148l-199 -256h-88zM750 938h-111v184q0 119 -47 172q-50 56 -164 56t-164 -56q-47 -53 -47 -172v-100q0 -76 33 -115q26 -33 112 -78l220 -120q172 -91 172 -242v-184q0 -299 -322 -299h-4q-322 0 -322 299v233h111v-201q0 -119 49 -174q48 -57 164 -57
q115 0 166 57q47 56 47 174v115q0 75 -35 119q-25 35 -116 86l-216 117q-93 52 -129 100q-41 56 -41 137v166q0 143 87 221q83 74 233 74h4q151 0 234 -74q86 -77 86 -221v-217z" />
    <glyph glyph-name="Sacute086" unicode="&#x15b;" horiz-adv-x="856" 
d="M514 1802h148l-199 -256h-88zM750 938h-111v184q0 119 -47 172q-50 56 -164 56t-164 -56q-47 -53 -47 -172v-100q0 -76 33 -115q26 -33 112 -78l220 -120q172 -91 172 -242v-184q0 -299 -322 -299h-4q-322 0 -322 299v233h111v-201q0 -119 49 -174q48 -57 164 -57
q115 0 166 57q47 56 47 174v115q0 75 -35 119q-25 35 -116 86l-216 117q-93 52 -129 100q-41 56 -41 137v166q0 143 87 221q83 74 233 74h4q151 0 234 -74q86 -77 86 -221v-217z" />
    <glyph glyph-name="Scedilla" unicode="&#x15e;" horiz-adv-x="856" 
d="M754 467v-184q0 -273 -262 -297v-84q0 -88 -33 -121q-34 -37 -111 -37q-48 0 -82 12l-28 72h75q47 0 66 16q18 18 18 66v74q-291 12 -291 299v233h111v-201q0 -119 49 -174q48 -57 164 -57q115 0 166 57q47 56 47 174v115q0 75 -35 119q-25 35 -116 86l-216 117
q-93 52 -129 100q-41 56 -41 137v166q0 143 87 221q83 74 233 74h4q151 0 234 -74q86 -77 86 -221v-217h-111v184q0 119 -47 172q-50 56 -164 56t-164 -56q-47 -53 -47 -172v-100q0 -76 33 -115q26 -33 112 -78l220 -120q172 -91 172 -242z" />
    <glyph glyph-name="Scedilla088" unicode="&#x15f;" horiz-adv-x="856" 
d="M754 467v-184q0 -273 -262 -297v-84q0 -88 -33 -121q-34 -37 -111 -37q-48 0 -82 12l-28 72h75q47 0 66 16q18 18 18 66v74q-291 12 -291 299v233h111v-201q0 -119 49 -174q48 -57 164 -57q115 0 166 57q47 56 47 174v115q0 75 -35 119q-25 35 -116 86l-216 117
q-93 52 -129 100q-41 56 -41 137v166q0 143 87 221q83 74 233 74h4q151 0 234 -74q86 -77 86 -221v-217h-111v184q0 119 -47 172q-50 56 -164 56t-164 -56q-47 -53 -47 -172v-100q0 -76 33 -115q26 -33 112 -78l220 -120q172 -91 172 -242z" />
    <glyph glyph-name="Scaron" unicode="&#x160;" horiz-adv-x="856" 
d="M664 1802h-113l-123 -176l-123 176h-112l182 -256h108zM750 938h-111v184q0 119 -47 172q-50 56 -164 56t-164 -56q-47 -53 -47 -172v-100q0 -76 33 -115q26 -33 112 -78l220 -120q172 -91 172 -242v-184q0 -299 -322 -299h-4q-322 0 -322 299v233h111v-201
q0 -119 49 -174q48 -57 164 -57q115 0 166 57q47 56 47 174v115q0 75 -35 119q-25 35 -116 86l-216 117q-93 52 -129 100q-41 56 -41 137v166q0 143 87 221q83 74 233 74h4q151 0 234 -74q86 -77 86 -221v-217z" />
    <glyph glyph-name="Scaron087" unicode="&#x161;" horiz-adv-x="856" 
d="M664 1802h-113l-123 -176l-123 176h-112l182 -256h108zM750 938h-111v184q0 119 -47 172q-50 56 -164 56t-164 -56q-47 -53 -47 -172v-100q0 -76 33 -115q26 -33 112 -78l220 -120q172 -91 172 -242v-184q0 -299 -322 -299h-4q-322 0 -322 299v233h111v-201
q0 -119 49 -174q48 -57 164 -57q115 0 166 57q47 56 47 174v115q0 75 -35 119q-25 35 -116 86l-216 117q-93 52 -129 100q-41 56 -41 137v166q0 143 87 221q83 74 233 74h4q151 0 234 -74q86 -77 86 -221v-217z" />
    <glyph glyph-name="Tcedilla" unicode="&#x162;" horiz-adv-x="724" 
d="M37 1434h651v-103h-270v-1331q-12 -4 -15 -37q-4 -28 -4 -61q0 -158 -141 -158q-52 0 -82 12l-29 72h86q74 0 74 82v1421h-270v103z" />
    <glyph glyph-name="Tcedilla093" unicode="&#x163;" horiz-adv-x="724" 
d="M37 1434h651v-103h-270v-1331q-12 -4 -15 -37q-4 -28 -4 -61q0 -158 -141 -158q-52 0 -82 12l-29 72h86q74 0 74 82v1421h-270v103z" />
    <glyph glyph-name="Tcaron" unicode="&#x164;" horiz-adv-x="724" 
d="M598 1802h-113l-123 -176l-122 176h-113l182 -256h109zM688 1434v-103h-270v-1331h-111v1331h-270v103h651z" />
    <glyph glyph-name="Tcaron092" unicode="&#x165;" horiz-adv-x="724" 
d="M598 1802h-113l-123 -176l-122 176h-113l182 -256h109zM688 1434v-103h-270v-1331h-111v1331h-270v103h651z" />
    <glyph glyph-name="Tbar" unicode="&#x166;" horiz-adv-x="724" 
d="M688 1331h-270v-489h176v-94h-176v-748h-111v748h-176v94h176v489h-270v103h651v-103z" />
    <glyph glyph-name="Tbar091" unicode="&#x167;" horiz-adv-x="724" 
d="M688 1331h-270v-489h176v-94h-176v-748h-111v748h-176v94h176v489h-270v103h651v-103z" />
    <glyph glyph-name="Utilde" unicode="&#x168;" horiz-adv-x="917" 
d="M786 1434v-1147q0 -303 -323 -303h-8q-324 0 -324 303v1147h111v-1110q0 -130 47 -183q49 -55 170 -55t170 55q47 53 47 183v1110h110zM293 1552v13q0 102 61 102q33 0 97 -61q35 -32 51 -43q36 -19 67 -19q55 0 88 39q37 43 37 121v25h-71v-13q0 -102 -58 -102
q-33 0 -96 63q-23 23 -51 43q-36 19 -68 19q-57 0 -90 -39q-37 -43 -37 -121v-27h70z" />
    <glyph glyph-name="Utilde196" unicode="&#x169;" horiz-adv-x="917" 
d="M786 1434v-1147q0 -303 -323 -303h-8q-324 0 -324 303v1147h111v-1110q0 -130 47 -183q49 -55 170 -55t170 55q47 53 47 183v1110h110zM293 1552v13q0 102 61 102q33 0 97 -61q35 -32 51 -43q36 -19 67 -19q55 0 88 39q37 43 37 121v25h-71v-13q0 -102 -58 -102
q-33 0 -96 63q-23 23 -51 43q-36 19 -68 19q-57 0 -90 -39q-37 -43 -37 -121v-27h70z" />
    <glyph glyph-name="Umacron" unicode="&#x16a;" horiz-adv-x="917" 
d="M690 1567h-463v94h463v-94zM786 1434v-1147q0 -303 -323 -303h-8q-324 0 -324 303v1147h111v-1110q0 -130 47 -183q49 -55 170 -55t170 55q47 53 47 183v1110h110z" />
    <glyph glyph-name="Umacron101" unicode="&#x16b;" horiz-adv-x="917" 
d="M690 1567h-463v94h463v-94zM786 1434v-1147q0 -303 -323 -303h-8q-324 0 -324 303v1147h111v-1110q0 -130 47 -183q49 -55 170 -55t170 55q47 53 47 183v1110h110z" />
    <glyph glyph-name="Ubreve" unicode="&#x16c;" horiz-adv-x="917" 
d="M668 1784v-80q0 -160 -197 -160h-25q-196 0 -196 162v78h92v-60q0 -98 113 -98h8q112 0 112 98v60h93zM786 1434v-1147q0 -303 -323 -303h-8q-324 0 -324 303v1147h111v-1110q0 -130 47 -183q49 -55 170 -55t170 55q47 53 47 183v1110h110z" />
    <glyph glyph-name="Ubreve096" unicode="&#x16d;" horiz-adv-x="917" 
d="M668 1784v-80q0 -160 -197 -160h-25q-196 0 -196 162v78h92v-60q0 -98 113 -98h8q112 0 112 98v60h93zM786 1434v-1147q0 -303 -323 -303h-8q-324 0 -324 303v1147h111v-1110q0 -130 47 -183q49 -55 170 -55t170 55q47 53 47 183v1110h110z" />
    <glyph glyph-name="Uring" unicode="&#x16e;" horiz-adv-x="917" 
d="M580 1806q45 -42 45 -114q0 -73 -45 -115q-46 -43 -121 -43q-77 0 -123 43q-45 42 -45 115q0 72 45 114q46 43 123 43q75 0 121 -43zM369 1692q0 -88 90 -88q88 0 88 88t-88 88q-90 0 -90 -88zM786 1434v-1147q0 -303 -323 -303h-8q-324 0 -324 303v1147h111v-1110
q0 -130 47 -183q49 -55 170 -55t170 55q47 53 47 183v1110h110z" />
    <glyph glyph-name="Uring103" unicode="&#x16f;" horiz-adv-x="917" 
d="M580 1806q45 -42 45 -114q0 -73 -45 -115q-46 -43 -121 -43q-77 0 -123 43q-45 42 -45 115q0 72 45 114q46 43 123 43q75 0 121 -43zM369 1692q0 -88 90 -88q88 0 88 88t-88 88q-90 0 -90 -88zM786 1434v-1147q0 -303 -323 -303h-8q-324 0 -324 303v1147h111v-1110
q0 -130 47 -183q49 -55 170 -55t170 55q47 53 47 183v1110h110z" />
    <glyph glyph-name="Uhungarumlaut" unicode="&#x170;" horiz-adv-x="917" 
d="M428 1802h119l-225 -256h-119zM700 1802h119l-223 -256h-119zM786 1434v-1147q0 -303 -323 -303h-8q-324 0 -324 303v1147h111v-1110q0 -130 47 -183q49 -55 170 -55t170 55q47 53 47 183v1110h110z" />
    <glyph glyph-name="Uhungarumlaut100" unicode="&#x171;" horiz-adv-x="917" 
d="M428 1802h119l-225 -256h-119zM700 1802h119l-223 -256h-119zM786 1434v-1147q0 -303 -323 -303h-8q-324 0 -324 303v1147h111v-1110q0 -130 47 -183q49 -55 170 -55t170 55q47 53 47 183v1110h110z" />
    <glyph glyph-name="Uogonek" unicode="&#x172;" horiz-adv-x="917" 
d="M676 1434h110v-1147q0 -234 -188 -287q-93 -46 -96 -131q-3 -84 73 -84q29 0 58 20v-61q-19 -19 -43 -27q-30 -10 -49 -10q-114 0 -129 109q-18 109 77 168h-34q-324 0 -324 303v1147h111v-1110q0 -130 47 -183q49 -55 170 -55t170 55q47 53 47 183v1110z" />
    <glyph glyph-name="Uogonek102" unicode="&#x173;" horiz-adv-x="917" 
d="M676 1434h110v-1147q0 -234 -188 -287q-93 -46 -96 -131q-3 -84 73 -84q29 0 58 20v-61q-19 -19 -43 -27q-30 -10 -49 -10q-114 0 -129 109q-18 109 77 168h-34q-324 0 -324 303v1147h111v-1110q0 -130 47 -183q49 -55 170 -55t170 55q47 53 47 183v1110z" />
    <glyph glyph-name="Wcircumflex" unicode="&#x174;" horiz-adv-x="1314" 
d="M899 1546l-180 256h-111l-180 -256h113l123 176l122 -176h113zM1262 1434l-242 -1434h-111l-250 1217l-251 -1217h-113l-242 1434h115l192 -1209l246 1209h109l243 -1209l195 1209h109z" />
    <glyph glyph-name="Wcircumflex107" unicode="&#x175;" horiz-adv-x="1314" 
d="M899 1546l-180 256h-111l-180 -256h113l123 176l122 -176h113zM1262 1434l-242 -1434h-111l-250 1217l-251 -1217h-113l-242 1434h115l192 -1209l246 1209h109l243 -1209l195 1209h109z" />
    <glyph glyph-name="Ycircumflex" unicode="&#x176;" horiz-adv-x="847" 
d="M659 1546l-180 256h-110l-181 -256h113l123 176l123 -176h112zM479 559v-559h-110v559l-320 875h117l258 -744l258 744h117z" />
    <glyph glyph-name="Ycircumflex113" unicode="&#x177;" horiz-adv-x="847" 
d="M659 1546l-180 256h-110l-181 -256h113l123 176l123 -176h112zM479 559v-559h-110v559l-320 875h117l258 -744l258 744h117z" />
    <glyph glyph-name="Ydieresis" unicode="&#x178;" horiz-adv-x="847" 
d="M346 1690v-144h-117v144h117zM618 1690v-144h-116v144h116zM479 559v-559h-110v559l-320 875h117l258 -744l258 744h117z" />
    <glyph glyph-name="Zacute" unicode="&#x179;" horiz-adv-x="735" 
d="M469 1802h147l-198 -256h-88zM678 100v-100h-621v84l486 1249h-461v101h582v-84l-486 -1250h500z" />
    <glyph glyph-name="Zacute117" unicode="&#x17a;" horiz-adv-x="735" 
d="M469 1802h147l-198 -256h-88zM678 100v-100h-621v84l486 1249h-461v101h582v-84l-486 -1250h500z" />
    <glyph glyph-name="Zdotaccent" unicode="&#x17b;" horiz-adv-x="735" 
d="M442 1690v-144h-118v144h118zM678 100v-100h-621v84l486 1249h-461v101h582v-84l-486 -1250h500z" />
    <glyph glyph-name="Zdotaccent119" unicode="&#x17c;" horiz-adv-x="735" 
d="M442 1690v-144h-118v144h118zM678 100v-100h-621v84l486 1249h-461v101h582v-84l-486 -1250h500z" />
    <glyph glyph-name="Zcaron" unicode="&#x17d;" horiz-adv-x="735" 
d="M618 1802h-112l-123 -176l-123 176h-113l183 -256h108zM678 100v-100h-621v84l486 1249h-461v101h582v-84l-486 -1250h500z" />
    <glyph glyph-name="Zcaron118" unicode="&#x17e;" horiz-adv-x="735" 
d="M618 1802h-112l-123 -176l-123 176h-113l183 -256h108zM678 100v-100h-621v84l486 1249h-461v101h582v-84l-486 -1250h500z" />
    <glyph glyph-name="florin" unicode="&#x192;" horiz-adv-x="704" 
d="M659 1331h-57q-108 0 -151 -55q-43 -52 -43 -182v-295h231l-25 -99h-206v-397q0 -303 -297 -303h-66v102h57q108 0 152 56q43 52 43 182v360h-231l24 99h207v331q0 304 297 304h65v-103z" />
    <glyph glyph-name="Ohorn" unicode="&#x1a0;" 
d="M238 1110v-786q0 -129 51 -183q52 -55 174 -55t174 55q51 54 51 183v786q0 128 -51 182q-53 56 -174 56t-174 -56q-51 -54 -51 -182zM723 1370q76 -76 76 -223v-860q0 -303 -328 -303h-16q-328 0 -328 303v860q0 303 328 303h16q83 0 154 -23q71 15 71 95v59h92v-80
q0 -90 -65 -131z" />
    <glyph glyph-name="Ohorn182" unicode="&#x1a1;" 
d="M238 1110v-786q0 -129 51 -183q52 -55 174 -55t174 55q51 54 51 183v786q0 128 -51 182q-53 56 -174 56t-174 -56q-51 -54 -51 -182zM723 1370q76 -76 76 -223v-860q0 -303 -328 -303h-16q-328 0 -328 303v860q0 303 328 303h16q83 0 154 -23q71 15 71 95v59h92v-80
q0 -90 -65 -131z" />
    <glyph glyph-name="Uhorn" unicode="&#x1af;" horiz-adv-x="917" 
d="M786 1348v-1061q0 -303 -323 -303h-8q-324 0 -324 303v1147h111v-1110q0 -130 47 -183q49 -55 170 -55t170 55q47 53 47 183v1110h92q51 20 51 88v59h92v-80q0 -126 -125 -153z" />
    <glyph glyph-name="Uhorn195" unicode="&#x1b0;" horiz-adv-x="917" 
d="M786 1348v-1061q0 -303 -323 -303h-8q-324 0 -324 303v1147h111v-1110q0 -130 47 -183q49 -55 170 -55t170 55q47 53 47 183v1110h92q51 20 51 88v59h92v-80q0 -126 -125 -153z" />
    <glyph glyph-name="Aringacute" unicode="&#x1fa;" horiz-adv-x="868" 
d="M666 2157l-199 -256h-88l139 256h148zM309 1577q-45 42 -45 115q0 72 45 114q46 43 123 43q75 0 121 -43q45 -42 45 -114q0 -73 -45 -115q-46 -43 -121 -43q-77 0 -123 43zM342 1692q0 -88 90 -88q88 0 88 88t-88 88q-90 0 -90 -88zM705 0l-80 369h-385l-80 -369h-111
l320 1434h127l323 -1434h-114zM262 469h340l-170 791z" />
    <glyph glyph-name="Aringacute010" unicode="&#x1fb;" horiz-adv-x="868" 
d="M666 2157l-199 -256h-88l139 256h148zM309 1577q-45 42 -45 115q0 72 45 114q46 43 123 43q75 0 121 -43q45 -42 45 -114q0 -73 -45 -115q-46 -43 -121 -43q-77 0 -123 43zM342 1692q0 -88 90 -88q88 0 88 88t-88 88q-90 0 -90 -88zM705 0l-80 369h-385l-80 -369h-111
l320 1434h127l323 -1434h-114zM262 469h340l-170 791z" />
    <glyph glyph-name="AEacute" unicode="&#x1fc;" horiz-adv-x="1282" 
d="M1034 1802l-198 -256h-88l139 256h147zM741 102h459v-102h-569v369h-363l-118 -369h-113l465 1434h692v-103h-453v-553h389v-102h-389v-574zM299 467h332v864h-56z" />
    <glyph glyph-name="AEacute013" unicode="&#x1fd;" horiz-adv-x="1282" 
d="M1034 1802l-198 -256h-88l139 256h147zM741 102h459v-102h-569v369h-363l-118 -369h-113l465 1434h692v-103h-453v-553h389v-102h-389v-574zM299 467h332v864h-56z" />
    <glyph glyph-name="Oslashacute" unicode="&#x1fe;" 
d="M696 1802l-198 -256h-88l139 256h147zM455 1450h16q328 0 328 -303v-860q0 -303 -328 -303h-16q-328 0 -328 303v860q0 303 328 303zM238 1110v-786q0 -126 51 -183l268 1196q-57 11 -94 11q-121 0 -174 -56q-51 -54 -51 -182zM688 324v786q0 125 -51 182l-268 -1196
q52 -10 94 -10q122 0 174 55q51 54 51 183z" />
    <glyph glyph-name="Oslashacute075" unicode="&#x1ff;" 
d="M696 1802l-198 -256h-88l139 256h147zM455 1450h16q328 0 328 -303v-860q0 -303 -328 -303h-16q-328 0 -328 303v860q0 303 328 303zM238 1110v-786q0 -126 51 -183l268 1196q-57 11 -94 11q-121 0 -174 -56q-51 -54 -51 -182zM688 324v786q0 125 -51 182l-268 -1196
q52 -10 94 -10q122 0 174 55q51 54 51 183z" />
    <glyph glyph-name="Scommaaccent" unicode="&#x218;" horiz-adv-x="856" 
d="M750 938h-111v184q0 119 -47 172q-50 56 -164 56t-164 -56q-47 -53 -47 -172v-100q0 -76 33 -115q26 -33 112 -78l220 -120q172 -91 172 -242v-184q0 -299 -322 -299h-4q-322 0 -322 299v233h111v-201q0 -119 49 -174q48 -57 164 -57q115 0 166 57q47 56 47 174v115
q0 75 -35 119q-25 35 -116 86l-216 117q-93 52 -129 100q-41 56 -41 137v166q0 143 87 221q83 74 233 74h4q151 0 234 -74q86 -77 86 -221v-217zM512 -143v-109q0 -158 -72 -287l-47 25q50 103 53 221h-55v150h121z" />
    <glyph glyph-name="Scommaaccent089" unicode="&#x219;" horiz-adv-x="856" 
d="M750 938h-111v184q0 119 -47 172q-50 56 -164 56t-164 -56q-47 -53 -47 -172v-100q0 -76 33 -115q26 -33 112 -78l220 -120q172 -91 172 -242v-184q0 -299 -322 -299h-4q-322 0 -322 299v233h111v-201q0 -119 49 -174q48 -57 164 -57q115 0 166 57q47 56 47 174v115
q0 75 -35 119q-25 35 -116 86l-216 117q-93 52 -129 100q-41 56 -41 137v166q0 143 87 221q83 74 233 74h4q151 0 234 -74q86 -77 86 -221v-217zM512 -143v-109q0 -158 -72 -287l-47 25q50 103 53 221h-55v150h121z" />
    <glyph glyph-name="circumflex" unicode="&#x2c6;" horiz-adv-x="892" 
d="M492 1702l143 -156h-90l-99 92l-98 -92h-90l143 156h91z" />
    <glyph glyph-name="caron" unicode="&#x2c7;" horiz-adv-x="892" 
d="M567 1802h113l-180 -256h-109l-182 256h113l122 -176z" />
    <glyph glyph-name="breve" unicode="&#x2d8;" horiz-adv-x="966" 
d="M651 1737v-66q0 -127 -157 -127h-21q-158 0 -158 129v64h74v-49q0 -78 90 -78h8q91 0 91 78v49h73z" />
    <glyph glyph-name="dotaccent" unicode="&#x2d9;" horiz-adv-x="585" 
d="M352 1690v-144h-119v144h119z" />
    <glyph glyph-name="ring" unicode="&#x2da;" horiz-adv-x="780" 
d="M514 1806q45 -42 45 -114q0 -73 -45 -115q-46 -43 -121 -43q-77 0 -123 43q-45 42 -45 115q0 72 45 114q46 43 123 43q75 0 121 -43zM303 1692q0 -88 90 -88q88 0 88 88t-88 88q-90 0 -90 -88z" />
    <glyph glyph-name="ogonek" unicode="&#x2db;" horiz-adv-x="804" 
d="M498 -195v-61q-19 -19 -43 -27q-30 -10 -49 -10q-123 0 -132 123t111 170h78q-93 -46 -96 -131q-3 -84 73 -84q29 0 58 20z" />
    <glyph glyph-name="tilde" unicode="&#x2dc;" horiz-adv-x="995" 
d="M332 1565v-13h-70v27q0 78 37 121q33 39 90 39q32 0 68 -19q28 -20 51 -43q63 -63 96 -63q58 0 58 102v13h71v-25q0 -78 -37 -121q-33 -39 -88 -39q-31 0 -67 19q-20 15 -52 43q-64 61 -96 61q-61 0 -61 -102z" />
    <glyph glyph-name="hungarumlaut" unicode="&#x2dd;" horiz-adv-x="1536" 
d="M674 1802h119l-226 -256h-118zM946 1802h119l-223 -256h-119z" />
    <glyph glyph-name="gravecomb" unicode="&#x300;" horiz-adv-x="0" 
d="M-582 1726l52 -180h-72l-98 180h118z" />
    <glyph glyph-name="acutecomb" unicode="&#x301;" horiz-adv-x="0" 
d="M-584 1704h119l-133 -158h-72z" />
    <glyph glyph-name="tildecomb" unicode="&#x303;" horiz-adv-x="0" 
d="M-690 1565v-13h-70v27q0 78 37 121q33 39 90 39q32 0 68 -19q28 -20 51 -43q63 -63 96 -63q58 0 58 102v13h71v-25q0 -78 -37 -121q-33 -39 -88 -39q-31 0 -67 19q-16 11 -51 43q-64 61 -97 61q-61 0 -61 -102z" />
    <glyph glyph-name="hookabovecomb" unicode="&#x309;" horiz-adv-x="782" 
d="M344 1536v37q0 53 45 92q25 22 25 43v21q0 36 -33 36q-31 0 -31 -36v-43h-82v51q0 104 119 104q111 0 111 -104v-33q0 -34 -19 -62q-8 -12 -14 -18l-8 -6l-8 -6q-33 -26 -33 -58v-18h-72z" />
    <glyph glyph-name="uni031B" unicode="&#x31b;" horiz-adv-x="0" 
d="M-31 1219h-24l8 81h8q113 0 113 99v59h92v-80q0 -159 -197 -159z" />
    <glyph glyph-name="dotbelowcomb" unicode="&#x323;" horiz-adv-x="0" 
d="M-438 -139v-150h-121v150h121z" />
    <glyph glyph-name="uni0326" unicode="&#x326;" horiz-adv-x="0" 
d="M-266 -143v-109q0 -158 -72 -287l-47 25q50 103 53 221h-55v150h121z" />
    <glyph glyph-name="Wgrave" unicode="&#x1e80;" horiz-adv-x="1314" 
d="M580 1802l139 -256h-88l-199 256h148zM1262 1434l-242 -1434h-111l-250 1217l-251 -1217h-113l-242 1434h115l192 -1209l246 1209h109l243 -1209l195 1209h109z" />
    <glyph glyph-name="Wgrave109" unicode="&#x1e81;" horiz-adv-x="1314" 
d="M580 1802l139 -256h-88l-199 256h148zM1262 1434l-242 -1434h-111l-250 1217l-251 -1217h-113l-242 1434h115l192 -1209l246 1209h109l243 -1209l195 1209h109z" />
    <glyph glyph-name="Wacute" unicode="&#x1e82;" horiz-adv-x="1314" 
d="M750 1802h147l-199 -256h-88zM1262 1434l-242 -1434h-111l-250 1217l-251 -1217h-113l-242 1434h115l192 -1209l246 1209h109l243 -1209l195 1209h109z" />
    <glyph glyph-name="Wacute106" unicode="&#x1e83;" horiz-adv-x="1314" 
d="M750 1802h147l-199 -256h-88zM1262 1434l-242 -1434h-111l-250 1217l-251 -1217h-113l-242 1434h115l192 -1209l246 1209h109l243 -1209l195 1209h109z" />
    <glyph glyph-name="Wdieresis" unicode="&#x1e84;" horiz-adv-x="1314" 
d="M586 1690v-144h-117v144h117zM858 1690v-144h-117v144h117zM1262 1434l-242 -1434h-111l-250 1217l-251 -1217h-113l-242 1434h115l192 -1209l246 1209h109l243 -1209l195 1209h109z" />
    <glyph glyph-name="Wdieresis108" unicode="&#x1e85;" horiz-adv-x="1314" 
d="M586 1690v-144h-117v144h117zM858 1690v-144h-117v144h117zM1262 1434l-242 -1434h-111l-250 1217l-251 -1217h-113l-242 1434h115l192 -1209l246 1209h109l243 -1209l195 1209h109z" />
    <glyph glyph-name="A.dotbl" unicode="&#x1ea0;" horiz-adv-x="868" 
d="M705 0l-80 369h-385l-80 -369h-111l320 1434h127l323 -1434h-114zM262 469h340l-170 791zM496 -139v-150h-121v150h121z" />
    <glyph glyph-name="A.dotbl159" unicode="&#x1ea1;" horiz-adv-x="868" 
d="M705 0l-80 369h-385l-80 -369h-111l320 1434h127l323 -1434h-114zM262 469h340l-170 791zM494 -139v-150h-121v150h121z" />
    <glyph glyph-name="A.hook" unicode="&#x1ea2;" horiz-adv-x="868" 
d="M705 0l-80 369h-385l-80 -369h-111l320 1434h127l323 -1434h-114zM262 469h340l-170 791zM395 1536v37q0 53 45 92q25 22 25 43v21q0 36 -33 36q-31 0 -31 -36v-43h-82v51q0 104 119 104q111 0 111 -104v-33q0 -34 -19 -62q-8 -12 -14 -18l-8 -6l-8 -6q-33 -26 -33 -58
v-18h-72z" />
    <glyph glyph-name="A.hook160" unicode="&#x1ea3;" horiz-adv-x="868" 
d="M705 0l-80 369h-385l-80 -369h-111l320 1434h127l323 -1434h-114zM262 469h340l-170 791zM395 1536v37q0 53 45 92q25 22 25 43v21q0 36 -33 36q-31 0 -31 -36v-43h-82v51q0 104 119 104q111 0 111 -104v-33q0 -34 -19 -62q-8 -12 -14 -18l-8 -6l-8 -6q-33 -26 -33 -58
v-18h-72z" />
    <glyph glyph-name="Acir.acute" unicode="&#x1ea4;" horiz-adv-x="868" 
d="M705 0l-80 369h-385l-80 -369h-111l320 1434h127l323 -1434h-114zM262 469h340l-170 791zM623 1546l-144 156h-90l-143 -156h90l98 92l98 -92h91zM713 1782h118l-133 -158h-71z" />
    <glyph glyph-name="Acir.acute161" unicode="&#x1ea5;" horiz-adv-x="868" 
d="M705 0l-80 369h-385l-80 -369h-111l320 1434h127l323 -1434h-114zM262 469h340l-170 791zM623 1546l-144 156h-90l-143 -156h90l98 92l98 -92h91zM713 1782h118l-133 -158h-71z" />
    <glyph glyph-name="Acir.grave" unicode="&#x1ea6;" horiz-adv-x="868" 
d="M705 0l-80 369h-385l-80 -369h-111l320 1434h127l323 -1434h-114zM262 469h340l-170 791zM623 1546l-144 156h-90l-143 -156h90l98 92l98 -92h91zM623 1847l51 -180h-72l-98 180h119z" />
    <glyph glyph-name="Acir.grave162" unicode="&#x1ea7;" horiz-adv-x="868" 
d="M705 0l-80 369h-385l-80 -369h-111l320 1434h127l323 -1434h-114zM262 469h340l-170 791zM623 1546l-144 156h-90l-143 -156h90l98 92l98 -92h91zM623 1847l51 -180h-72l-98 180h119z" />
    <glyph glyph-name="Acir.hook" unicode="&#x1ea8;" horiz-adv-x="868" 
d="M705 0l-80 369h-385l-80 -369h-111l320 1434h127l323 -1434h-114zM262 469h340l-170 791zM623 1546l-144 156h-90l-143 -156h90l98 92l98 -92h91zM588 1624v37q0 53 45 92q24 21 24 43v21q0 36 -32 36q-31 0 -31 -36v-43h-82v51q0 104 119 104q110 0 110 -104v-33
q0 -34 -18 -61q-6 -9 -16 -19l-9 -6l-8 -6q-31 -28 -31 -58v-18h-71z" />
    <glyph glyph-name="Acir.hook163" unicode="&#x1ea9;" horiz-adv-x="868" 
d="M705 0l-80 369h-385l-80 -369h-111l320 1434h127l323 -1434h-114zM262 469h340l-170 791zM623 1546l-144 156h-90l-143 -156h90l98 92l98 -92h91zM588 1624v37q0 53 45 92q24 21 24 43v21q0 36 -32 36q-31 0 -31 -36v-43h-82v51q0 104 119 104q110 0 110 -104v-33
q0 -34 -18 -61q-10 -15 -14 -19l-9 -6l-8 -6q-33 -26 -33 -58v-18h-71z" />
    <glyph glyph-name="Acir.tilde" unicode="&#x1eaa;" horiz-adv-x="868" 
d="M705 0l-80 369h-385l-80 -369h-111l320 1434h127l323 -1434h-114zM262 469h340l-170 791zM623 1546l-144 156h-90l-143 -156h90l98 92l98 -92h91zM268 1759v13q0 102 62 102q31 0 96 -62q35 -32 51 -43q34 -18 68 -18q55 0 88 39q37 43 37 121v24h-72v-12
q0 -102 -57 -102q-34 0 -97 63q-23 23 -51 43q-36 19 -67 19q-57 0 -90 -39q-37 -43 -37 -121v-27h69z" />
    <glyph glyph-name="Acir.tilde164" unicode="&#x1eab;" horiz-adv-x="868" 
d="M705 0l-80 369h-385l-80 -369h-111l320 1434h127l323 -1434h-114zM262 469h340l-170 791zM623 1546l-144 156h-90l-143 -156h90l98 92l98 -92h91zM268 1759v13q0 102 62 102q31 0 96 -62q35 -32 51 -43q34 -18 68 -18q55 0 88 39q37 43 37 121v24h-72v-12
q0 -102 -57 -102q-34 0 -97 63q-23 23 -51 43q-36 19 -67 19q-57 0 -90 -39q-37 -43 -37 -121v-27h69z" />
    <glyph glyph-name="Acir.dotbl" unicode="&#x1eac;" horiz-adv-x="868" 
d="M705 0l-80 369h-385l-80 -369h-111l320 1434h127l323 -1434h-114zM262 469h340l-170 791zM623 1546l-144 156h-90l-143 -156h90l98 92l98 -92h91zM496 -139v-150h-121v150h121z" />
    <glyph glyph-name="Acir.dotbl165" unicode="&#x1ead;" horiz-adv-x="868" 
d="M705 0l-80 369h-385l-80 -369h-111l320 1434h127l323 -1434h-114zM262 469h340l-170 791zM623 1546l-144 156h-90l-143 -156h90l98 92l98 -92h91zM494 -139v-150h-121v150h121z" />
    <glyph glyph-name="Abrv.acute" unicode="&#x1eae;" horiz-adv-x="868" 
d="M705 0l-80 369h-385l-80 -369h-111l320 1434h127l323 -1434h-114zM262 469h340l-170 791zM602 1737v-66q0 -127 -158 -127h-20q-158 0 -158 129v64h74v-49q0 -78 90 -78h8q90 0 90 78v49h74zM453 1933h118l-133 -157h-71z" />
    <glyph glyph-name="Abrv.acute166" unicode="&#x1eaf;" horiz-adv-x="868" 
d="M705 0l-80 369h-385l-80 -369h-111l320 1434h127l323 -1434h-114zM262 469h340l-170 791zM602 1737v-66q0 -127 -158 -127h-20q-158 0 -158 129v64h74v-49q0 -78 90 -78h8q90 0 90 78v49h74zM453 1933h118l-133 -157h-71z" />
    <glyph glyph-name="Abrv.grave" unicode="&#x1eb0;" horiz-adv-x="868" 
d="M705 0l-80 369h-385l-80 -369h-111l320 1434h127l323 -1434h-114zM262 469h340l-170 791zM602 1737v-66q0 -127 -158 -127h-20q-158 0 -158 129v64h74v-49q0 -78 90 -78h8q90 0 90 78v49h74zM438 1962l51 -180h-71l-99 180h119z" />
    <glyph glyph-name="Abrv.grave167" unicode="&#x1eb1;" horiz-adv-x="868" 
d="M705 0l-80 369h-385l-80 -369h-111l320 1434h127l323 -1434h-114zM262 469h340l-170 791zM602 1737v-66q0 -127 -158 -127h-20q-158 0 -158 129v64h74v-49q0 -78 90 -78h8q90 0 90 78v49h74zM438 1962l51 -180h-71l-99 180h119z" />
    <glyph glyph-name="Abrv.hook" unicode="&#x1eb2;" horiz-adv-x="868" 
d="M705 0l-80 369h-385l-80 -369h-111l320 1434h127l323 -1434h-114zM262 469h340l-170 791zM602 1737v-66q0 -127 -158 -127h-20q-158 0 -158 129v64h74v-49q0 -78 90 -78h8q90 0 90 78v49h74zM395 1737v37q0 53 45 92q25 22 25 43v20q0 37 -33 37q-31 0 -31 -37v-43h-82
v51q0 105 119 105q111 0 111 -105v-32q0 -34 -19 -62q-8 -12 -14 -18l-8 -6l-8 -7q-33 -26 -33 -57v-18h-72z" />
    <glyph glyph-name="Abrv.hook168" unicode="&#x1eb3;" horiz-adv-x="868" 
d="M705 0l-80 369h-385l-80 -369h-111l320 1434h127l323 -1434h-114zM262 469h340l-170 791zM602 1737v-66q0 -127 -158 -127h-20q-158 0 -158 129v64h74v-49q0 -78 90 -78h8q90 0 90 78v49h74zM395 1737v37q0 53 45 92q25 22 25 43v20q0 37 -33 37q-31 0 -31 -37v-43h-82
v51q0 105 119 105q111 0 111 -105v-32q0 -34 -19 -62q-8 -12 -14 -18l-8 -6l-8 -7q-33 -26 -33 -57v-18h-72z" />
    <glyph glyph-name="Abrv.tilde" unicode="&#x1eb4;" horiz-adv-x="868" 
d="M705 0l-80 369h-385l-80 -369h-111l320 1434h127l323 -1434h-114zM262 469h340l-170 791zM602 1737v-66q0 -127 -158 -127h-20q-158 0 -158 129v64h74v-49q0 -78 90 -78h8q90 0 90 78v49h74zM268 1794v12q0 103 62 103q31 0 96 -62q35 -32 51 -43q35 -18 68 -18
q55 0 88 39q37 43 37 121v24h-72v-12q0 -103 -57 -103q-33 0 -97 64q-23 23 -51 43q-35 18 -67 18q-58 0 -90 -38q-37 -43 -37 -121v-27h69z" />
    <glyph glyph-name="Abrv.tilde169" unicode="&#x1eb5;" horiz-adv-x="868" 
d="M705 0l-80 369h-385l-80 -369h-111l320 1434h127l323 -1434h-114zM262 469h340l-170 791zM602 1737v-66q0 -127 -158 -127h-20q-158 0 -158 129v64h74v-49q0 -78 90 -78h8q90 0 90 78v49h74zM268 1794v12q0 103 62 103q31 0 96 -62q35 -32 51 -43q35 -18 68 -18
q55 0 88 39q37 43 37 121v24h-72v-12q0 -103 -57 -103q-33 0 -97 64q-23 23 -51 43q-35 18 -67 18q-58 0 -90 -38q-37 -43 -37 -121v-27h69z" />
    <glyph glyph-name="Abrv.dotbl" unicode="&#x1eb6;" horiz-adv-x="868" 
d="M705 0l-80 369h-385l-80 -369h-111l320 1434h127l323 -1434h-114zM262 469h340l-170 791zM602 1737v-66q0 -127 -158 -127h-20q-158 0 -158 129v64h74v-49q0 -78 90 -78h8q90 0 90 78v49h74zM496 -139v-150h-121v150h121z" />
    <glyph glyph-name="Abrv.dotbl170" unicode="&#x1eb7;" horiz-adv-x="868" 
d="M705 0l-80 369h-385l-80 -369h-111l320 1434h127l323 -1434h-114zM262 469h340l-170 791zM602 1737v-66q0 -127 -158 -127h-20q-158 0 -158 129v64h74v-49q0 -78 90 -78h8q90 0 90 78v49h74zM494 -139v-150h-121v150h121z" />
    <glyph glyph-name="E.dotbl" unicode="&#x1eb8;" horiz-adv-x="786" 
d="M705 0h-570v1434h563v-103h-452v-553h389v-102h-389v-574h459v-102zM481 -139v-150h-121v150h121z" />
    <glyph glyph-name="E.dotbl171" unicode="&#x1eb9;" horiz-adv-x="786" 
d="M705 0h-570v1434h563v-103h-452v-553h389v-102h-389v-574h459v-102zM479 -139v-150h-121v150h121z" />
    <glyph glyph-name="E.hook" unicode="&#x1eba;" horiz-adv-x="786" 
d="M705 0h-570v1434h563v-103h-452v-553h389v-102h-389v-574h459v-102zM381 1536v37q0 53 45 92q25 22 25 43v21q0 36 -33 36q-31 0 -31 -36v-43h-82v51q0 104 119 104q111 0 111 -104v-33q0 -34 -19 -62q-8 -12 -14 -18l-8 -6l-9 -6q-32 -25 -32 -58v-18h-72z" />
    <glyph glyph-name="E.hook172" unicode="&#x1ebb;" horiz-adv-x="786" 
d="M705 0h-570v1434h563v-103h-452v-553h389v-102h-389v-574h459v-102zM381 1536v37q0 53 45 92q25 22 25 43v21q0 36 -33 36q-31 0 -31 -36v-43h-82v51q0 104 119 104q111 0 111 -104v-33q0 -34 -19 -62q-8 -12 -14 -18l-8 -6l-9 -6q-32 -25 -32 -58v-18h-72z" />
    <glyph glyph-name="E.tilde" unicode="&#x1ebc;" horiz-adv-x="786" 
d="M705 0h-570v1434h563v-103h-452v-553h389v-102h-389v-574h459v-102zM254 1552v13q0 102 61 102q33 0 97 -61q35 -32 51 -43q36 -19 67 -19q55 0 88 39q37 43 37 121v25h-71v-13q0 -102 -58 -102q-33 0 -96 63q-23 23 -51 43q-36 19 -68 19q-57 0 -90 -39
q-37 -43 -37 -121v-27h70z" />
    <glyph glyph-name="E.tilde173" unicode="&#x1ebd;" horiz-adv-x="786" 
d="M705 0h-570v1434h563v-103h-452v-553h389v-102h-389v-574h459v-102zM254 1552v13q0 102 61 102q33 0 97 -61q35 -32 51 -43q36 -19 67 -19q55 0 88 39q37 43 37 121v25h-71v-13q0 -102 -58 -102q-33 0 -96 63q-23 23 -51 43q-36 19 -68 19q-57 0 -90 -39
q-37 -43 -37 -121v-27h70z" />
    <glyph glyph-name="Ecir.acute" unicode="&#x1ebe;" horiz-adv-x="786" 
d="M705 0h-570v1434h563v-103h-452v-553h389v-102h-389v-574h459v-102zM608 1546l-143 156h-90l-144 -156h91l98 92l98 -92h90zM649 1782h119l-133 -158h-72z" />
    <glyph glyph-name="Ecir.acute174" unicode="&#x1ebf;" horiz-adv-x="786" 
d="M705 0h-570v1434h563v-103h-452v-553h389v-102h-389v-574h459v-102zM608 1546l-143 156h-90l-144 -156h91l98 92l98 -92h90zM649 1782h119l-133 -158h-72z" />
    <glyph glyph-name="Ecir.grave" unicode="&#x1ec0;" horiz-adv-x="786" 
d="M705 0h-570v1434h563v-103h-452v-553h389v-102h-389v-574h459v-102zM608 1546l-143 156h-90l-144 -156h91l98 92l98 -92h90zM612 1860l52 -181h-72l-98 181h118z" />
    <glyph glyph-name="Ecir.grave175" unicode="&#x1ec1;" horiz-adv-x="786" 
d="M705 0h-570v1434h563v-103h-452v-553h389v-102h-389v-574h459v-102zM608 1546l-143 156h-90l-144 -156h91l98 92l98 -92h90zM612 1860l52 -181h-72l-98 181h118z" />
    <glyph glyph-name="Ecir.hook" unicode="&#x1ec2;" horiz-adv-x="786" 
d="M705 0h-570v1434h563v-103h-452v-553h389v-102h-389v-574h459v-102zM608 1546l-143 156h-90l-144 -156h91l98 92l98 -92h90zM612 1628v37q0 53 45 92q25 22 25 43v21q0 37 -33 37q-31 0 -31 -37v-43h-81v51q0 104 118 104q111 0 111 -104v-33q0 -34 -18 -61
q-4 -6 -17 -19l-8 -6l-6 -6q-33 -26 -33 -57v-19h-72z" />
    <glyph glyph-name="Ecir.hook176" unicode="&#x1ec3;" horiz-adv-x="786" 
d="M705 0h-570v1434h563v-103h-452v-553h389v-102h-389v-574h459v-102zM608 1546l-143 156h-90l-144 -156h91l98 92l98 -92h90zM612 1628v37q0 53 45 92q25 22 25 43v21q0 37 -33 37q-31 0 -31 -37v-43h-81v51q0 104 118 104q111 0 111 -104v-33q0 -34 -18 -61
q-8 -12 -15 -19l-8 -6l-8 -6q-33 -26 -33 -57v-19h-72z" />
    <glyph glyph-name="Ecir.tilde" unicode="&#x1ec4;" horiz-adv-x="786" 
d="M705 0h-570v1434h563v-103h-452v-553h389v-102h-389v-574h459v-102zM608 1546l-143 156h-90l-144 -156h91l98 92l98 -92h90zM254 1759v13q0 102 61 102q32 0 97 -62q35 -32 51 -43q34 -18 67 -18q55 0 88 39q37 43 37 121v24h-71v-12q0 -102 -58 -102q-33 0 -96 63
q-23 23 -51 43q-36 19 -68 19q-57 0 -90 -39q-37 -43 -37 -121v-27h70z" />
    <glyph glyph-name="Ecir.tilde177" unicode="&#x1ec5;" horiz-adv-x="786" 
d="M705 0h-570v1434h563v-103h-452v-553h389v-102h-389v-574h459v-102zM608 1546l-143 156h-90l-144 -156h91l98 92l98 -92h90zM254 1759v13q0 102 61 102q32 0 97 -62q35 -32 51 -43q34 -18 67 -18q55 0 88 39q37 43 37 121v24h-71v-12q0 -102 -58 -102q-33 0 -96 63
q-23 23 -51 43q-36 19 -68 19q-57 0 -90 -39q-37 -43 -37 -121v-27h70z" />
    <glyph glyph-name="Ecir.dotbl" unicode="&#x1ec6;" horiz-adv-x="786" 
d="M705 0h-570v1434h563v-103h-452v-553h389v-102h-389v-574h459v-102zM608 1546l-143 156h-90l-144 -156h91l98 92l98 -92h90zM481 -139v-150h-121v150h121z" />
    <glyph glyph-name="Ecir.dotbl178" unicode="&#x1ec7;" horiz-adv-x="786" 
d="M705 0h-570v1434h563v-103h-452v-553h389v-102h-389v-574h459v-102zM608 1546l-143 156h-90l-144 -156h91l98 92l98 -92h90zM479 -139v-150h-121v150h121z" />
    <glyph glyph-name="I.hook" unicode="&#x1ec8;" horiz-adv-x="399" 
d="M254 0h-111v1434h111v-1434zM164 1532v41q0 53 47 94q22 22 22 41v21q0 32 -28 32q-27 0 -27 -32v-48h-90v56q0 108 119 108t119 -108v-33q0 -36 -19 -64q-4 -6 -16 -18l-8 -8l-9 -6q-30 -24 -30 -54v-22h-80z" />
    <glyph glyph-name="I.hook179" unicode="&#x1ec9;" horiz-adv-x="399" 
d="M254 0h-111v1434h111v-1434zM164 1532v41q0 53 47 94q22 22 22 41v21q0 32 -28 32q-27 0 -27 -32v-48h-90v56q0 108 119 108t119 -108v-33q0 -36 -19 -64q-4 -6 -16 -18l-8 -8l-9 -6q-30 -24 -30 -54v-22h-80z" />
    <glyph glyph-name="I.dotbl" unicode="&#x1eca;" horiz-adv-x="399" 
d="M254 0h-111v1434h111v-1434zM260 -139v-150h-121v150h121z" />
    <glyph glyph-name="I.dotbl180" unicode="&#x1ecb;" horiz-adv-x="399" 
d="M254 0h-111v1434h111v-1434zM260 -139v-150h-121v150h121z" />
    <glyph glyph-name="O.dotbl" unicode="&#x1ecc;" 
d="M127 287v860q0 303 328 303h16q328 0 328 -303v-860q0 -303 -328 -303h-16q-328 0 -328 303zM238 1110v-786q0 -129 51 -183q52 -55 174 -55t174 55q51 54 51 183v786q0 128 -51 182q-53 56 -174 56t-174 -56q-51 -54 -51 -182zM524 -139v-150h-121v150h121z" />
    <glyph glyph-name="O.dotbl181" unicode="&#x1ecd;" 
d="M127 287v860q0 303 328 303h16q328 0 328 -303v-860q0 -303 -328 -303h-16q-328 0 -328 303zM238 1110v-786q0 -129 51 -183q52 -55 174 -55t174 55q51 54 51 183v786q0 128 -51 182q-53 56 -174 56t-174 -56q-51 -54 -51 -182zM522 -139v-150h-121v150h121z" />
    <glyph glyph-name="O.hook" unicode="&#x1ece;" 
d="M127 287v860q0 303 328 303h16q328 0 328 -303v-860q0 -303 -328 -303h-16q-328 0 -328 303zM238 1110v-786q0 -129 51 -183q52 -55 174 -55t174 55q51 54 51 183v786q0 128 -51 182q-53 56 -174 56t-174 -56q-51 -54 -51 -182zM424 1536v37q0 53 45 92q25 22 25 43v21
q0 36 -33 36q-31 0 -31 -36v-43h-82v51q0 104 119 104q111 0 111 -104v-33q0 -34 -19 -62q-8 -12 -14 -18l-8 -6l-9 -6q-32 -25 -32 -58v-18h-72z" />
    <glyph glyph-name="O.hook183" unicode="&#x1ecf;" 
d="M127 287v860q0 303 328 303h16q328 0 328 -303v-860q0 -303 -328 -303h-16q-328 0 -328 303zM238 1110v-786q0 -129 51 -183q52 -55 174 -55t174 55q51 54 51 183v786q0 128 -51 182q-53 56 -174 56t-174 -56q-51 -54 -51 -182zM424 1536v37q0 53 45 92q25 22 25 43v21
q0 36 -33 36q-31 0 -31 -36v-43h-82v51q0 104 119 104q111 0 111 -104v-33q0 -34 -19 -62q-8 -12 -14 -18l-8 -6l-9 -6q-32 -25 -32 -58v-18h-72z" />
    <glyph glyph-name="Ocir.acute" unicode="&#x1ed0;" 
d="M127 287v860q0 303 328 303h16q328 0 328 -303v-860q0 -303 -328 -303h-16q-328 0 -328 303zM238 1110v-786q0 -129 51 -183q52 -55 174 -55t174 55q51 54 51 183v786q0 128 -51 182q-53 56 -174 56t-174 -56q-51 -54 -51 -182zM651 1546l-143 156h-90l-144 -156h91
l98 92l98 -92h90zM717 1782h119l-134 -158h-71z" />
    <glyph glyph-name="Ocir.acute184" unicode="&#x1ed1;" 
d="M127 287v860q0 303 328 303h16q328 0 328 -303v-860q0 -303 -328 -303h-16q-328 0 -328 303zM238 1110v-786q0 -129 51 -183q52 -55 174 -55t174 55q51 54 51 183v786q0 128 -51 182q-53 56 -174 56t-174 -56q-51 -54 -51 -182zM651 1546l-143 156h-90l-144 -156h91
l98 92l98 -92h90zM717 1782h119l-134 -158h-71z" />
    <glyph glyph-name="Ocir.grave" unicode="&#x1ed2;" 
d="M127 287v860q0 303 328 303h16q328 0 328 -303v-860q0 -303 -328 -303h-16q-328 0 -328 303zM238 1110v-786q0 -129 51 -183q52 -55 174 -55t174 55q51 54 51 183v786q0 128 -51 182q-53 56 -174 56t-174 -56q-51 -54 -51 -182zM651 1546l-143 156h-90l-144 -156h91
l98 92l98 -92h90zM664 1831l51 -180h-72l-98 180h119z" />
    <glyph glyph-name="Ocir.grave185" unicode="&#x1ed3;" 
d="M127 287v860q0 303 328 303h16q328 0 328 -303v-860q0 -303 -328 -303h-16q-328 0 -328 303zM238 1110v-786q0 -129 51 -183q52 -55 174 -55t174 55q51 54 51 183v786q0 128 -51 182q-53 56 -174 56t-174 -56q-51 -54 -51 -182zM651 1546l-143 156h-90l-144 -156h91
l98 92l98 -92h90zM664 1831l51 -180h-72l-98 180h119z" />
    <glyph glyph-name="Ocir.hook" unicode="&#x1ed4;" 
d="M127 287v860q0 303 328 303h16q328 0 328 -303v-860q0 -303 -328 -303h-16q-328 0 -328 303zM238 1110v-786q0 -129 51 -183q52 -55 174 -55t174 55q51 54 51 183v786q0 128 -51 182q-53 56 -174 56t-174 -56q-51 -54 -51 -182zM651 1546l-143 156h-90l-144 -156h91
l98 92l98 -92h90zM606 1624v37q0 53 45 92q25 22 25 43v21q0 36 -33 36q-31 0 -31 -36v-43h-82v51q0 104 119 104q111 0 111 -104v-33q0 -32 -19 -61q-6 -9 -16 -19l-8 -6l-6 -6q-33 -26 -33 -58v-18h-72z" />
    <glyph glyph-name="Ocir.hook186" unicode="&#x1ed5;" 
d="M127 287v860q0 303 328 303h16q328 0 328 -303v-860q0 -303 -328 -303h-16q-328 0 -328 303zM238 1110v-786q0 -129 51 -183q52 -55 174 -55t174 55q51 54 51 183v786q0 128 -51 182q-53 56 -174 56t-174 -56q-51 -54 -51 -182zM651 1546l-143 156h-90l-144 -156h91
l98 92l98 -92h90zM606 1624v37q0 53 45 92q25 22 25 43v21q0 36 -33 36q-31 0 -31 -36v-43h-82v51q0 104 119 104q111 0 111 -104v-33q0 -32 -19 -61q-10 -15 -14 -19l-8 -6l-8 -6q-33 -26 -33 -58v-18h-72z" />
    <glyph glyph-name="Ocir.tilde" unicode="&#x1ed6;" 
d="M127 287v860q0 303 328 303h16q328 0 328 -303v-860q0 -303 -328 -303h-16q-328 0 -328 303zM238 1110v-786q0 -129 51 -183q52 -55 174 -55t174 55q51 54 51 183v786q0 128 -51 182q-53 56 -174 56t-174 -56q-51 -54 -51 -182zM651 1546l-143 156h-90l-144 -156h91
l98 92l98 -92h90zM297 1759v13q0 102 61 102q32 0 97 -62q35 -32 51 -43q34 -18 67 -18q56 0 89 39q36 42 36 121v24h-71v-12q0 -102 -58 -102q-33 0 -96 63q-23 23 -51 43q-36 19 -68 19q-57 0 -90 -39q-37 -43 -37 -121v-27h70z" />
    <glyph glyph-name="Ocir.tilde187" unicode="&#x1ed7;" 
d="M127 287v860q0 303 328 303h16q328 0 328 -303v-860q0 -303 -328 -303h-16q-328 0 -328 303zM238 1110v-786q0 -129 51 -183q52 -55 174 -55t174 55q51 54 51 183v786q0 128 -51 182q-53 56 -174 56t-174 -56q-51 -54 -51 -182zM651 1546l-143 156h-90l-144 -156h91
l98 92l98 -92h90zM297 1759v13q0 102 61 102q32 0 97 -62q35 -32 51 -43q34 -18 67 -18q56 0 89 39q36 42 36 121v24h-71v-12q0 -102 -58 -102q-33 0 -96 63q-23 23 -51 43q-36 19 -68 19q-57 0 -90 -39q-37 -43 -37 -121v-27h70z" />
    <glyph glyph-name="Ocir.dotbl" unicode="&#x1ed8;" 
d="M127 287v860q0 303 328 303h16q328 0 328 -303v-860q0 -303 -328 -303h-16q-328 0 -328 303zM238 1110v-786q0 -129 51 -183q52 -55 174 -55t174 55q51 54 51 183v786q0 128 -51 182q-53 56 -174 56t-174 -56q-51 -54 -51 -182zM651 1546l-143 156h-90l-144 -156h91
l98 92l98 -92h90zM524 -139v-150h-121v150h121z" />
    <glyph glyph-name="Ocir.dotbl189" unicode="&#x1ed9;" 
d="M127 287v860q0 303 328 303h16q328 0 328 -303v-860q0 -303 -328 -303h-16q-328 0 -328 303zM238 1110v-786q0 -129 51 -183q52 -55 174 -55t174 55q51 54 51 183v786q0 128 -51 182q-53 56 -174 56t-174 -56q-51 -54 -51 -182zM651 1546l-143 156h-90l-144 -156h91
l98 92l98 -92h90zM522 -139v-150h-121v150h121z" />
    <glyph glyph-name="Ohorn.acute" unicode="&#x1eda;" 
d="M238 1110v-786q0 -129 51 -183q52 -55 174 -55t174 55q51 54 51 183v786q0 128 -51 182q-53 56 -174 56t-174 -56q-51 -54 -51 -182zM723 1370q76 -76 76 -223v-860q0 -303 -328 -303h-16q-328 0 -328 303v860q0 303 328 303h16q83 0 154 -23q71 15 71 95v59h92v-80
q0 -90 -65 -131zM449 1704h118l-133 -158h-72z" />
    <glyph glyph-name="Ohorn.acute190" unicode="&#x1edb;" 
d="M238 1110v-786q0 -129 51 -183q52 -55 174 -55t174 55q51 54 51 183v786q0 128 -51 182q-53 56 -174 56t-174 -56q-51 -54 -51 -182zM723 1370q76 -76 76 -223v-860q0 -303 -328 -303h-16q-328 0 -328 303v860q0 303 328 303h16q83 0 154 -23q71 15 71 95v59h92v-80
q0 -90 -65 -131zM449 1704h118l-133 -158h-72z" />
    <glyph glyph-name="Ohorn.grave" unicode="&#x1edc;" 
d="M238 1110v-786q0 -129 51 -183q52 -55 174 -55t174 55q51 54 51 183v786q0 128 -51 182q-53 56 -174 56t-174 -56q-51 -54 -51 -182zM723 1370q76 -76 76 -223v-860q0 -303 -328 -303h-16q-328 0 -328 303v860q0 303 328 303h16q83 0 154 -23q71 15 71 95v59h92v-80
q0 -90 -65 -131zM434 1726l51 -180h-71l-99 180h119z" />
    <glyph glyph-name="Ohorn.grave188" unicode="&#x1edd;" 
d="M238 1110v-786q0 -129 51 -183q52 -55 174 -55t174 55q51 54 51 183v786q0 128 -51 182q-53 56 -174 56t-174 -56q-51 -54 -51 -182zM723 1370q76 -76 76 -223v-860q0 -303 -328 -303h-16q-328 0 -328 303v860q0 303 328 303h16q83 0 154 -23q71 15 71 95v59h92v-80
q0 -90 -65 -131zM434 1726l51 -180h-71l-99 180h119z" />
    <glyph glyph-name="Ohorn.hook" unicode="&#x1ede;" 
d="M238 1110v-786q0 -129 51 -183q52 -55 174 -55t174 55q51 54 51 183v786q0 128 -51 182q-53 56 -174 56t-174 -56q-51 -54 -51 -182zM723 1370q76 -76 76 -223v-860q0 -303 -328 -303h-16q-328 0 -328 303v860q0 303 328 303h16q83 0 154 -23q71 15 71 95v59h92v-80
q0 -90 -65 -131zM389 1536v37q0 53 45 92q25 22 25 43v21q0 36 -33 36q-31 0 -31 -36v-43h-82v51q0 104 119 104q111 0 111 -104v-33q0 -34 -19 -62q-8 -12 -14 -18l-8 -6l-8 -6q-33 -26 -33 -58v-18h-72z" />
    <glyph glyph-name="Ohorn.hook191" unicode="&#x1edf;" 
d="M238 1110v-786q0 -129 51 -183q52 -55 174 -55t174 55q51 54 51 183v786q0 128 -51 182q-53 56 -174 56t-174 -56q-51 -54 -51 -182zM723 1370q76 -76 76 -223v-860q0 -303 -328 -303h-16q-328 0 -328 303v860q0 303 328 303h16q83 0 154 -23q71 15 71 95v59h92v-80
q0 -90 -65 -131zM389 1536v37q0 53 45 92q25 22 25 43v21q0 36 -33 36q-31 0 -31 -36v-43h-82v51q0 104 119 104q111 0 111 -104v-33q0 -34 -19 -62q-8 -12 -14 -18l-8 -6l-8 -6q-33 -26 -33 -58v-18h-72z" />
    <glyph glyph-name="Ohorn.tilde" unicode="&#x1ee0;" 
d="M238 1110v-786q0 -129 51 -183q52 -55 174 -55t174 55q51 54 51 183v786q0 128 -51 182q-53 56 -174 56t-174 -56q-51 -54 -51 -182zM723 1370q76 -76 76 -223v-860q0 -303 -328 -303h-16q-328 0 -328 303v860q0 303 328 303h16q83 0 154 -23q71 15 71 95v59h92v-80
q0 -90 -65 -131zM221 1552v13q0 102 62 102q32 0 96 -61q35 -32 51 -43q36 -19 68 -19q55 0 88 39q37 43 37 121v25h-72v-13q0 -102 -57 -102q-34 0 -97 63q-23 23 -51 43q-36 19 -67 19q-58 0 -91 -39q-36 -42 -36 -121v-27h69z" />
    <glyph glyph-name="Ohorn.tilde192" unicode="&#x1ee1;" 
d="M238 1110v-786q0 -129 51 -183q52 -55 174 -55t174 55q51 54 51 183v786q0 128 -51 182q-53 56 -174 56t-174 -56q-51 -54 -51 -182zM723 1370q76 -76 76 -223v-860q0 -303 -328 -303h-16q-328 0 -328 303v860q0 303 328 303h16q83 0 154 -23q71 15 71 95v59h92v-80
q0 -90 -65 -131zM221 1552v13q0 102 62 102q32 0 96 -61q35 -32 51 -43q36 -19 68 -19q55 0 88 39q37 43 37 121v25h-72v-13q0 -102 -57 -102q-34 0 -97 63q-23 23 -51 43q-36 19 -67 19q-58 0 -91 -39q-36 -42 -36 -121v-27h69z" />
    <glyph glyph-name="Ohorn.dotbl" unicode="&#x1ee2;" 
d="M238 1110v-786q0 -129 51 -183q52 -55 174 -55t174 55q51 54 51 183v786q0 128 -51 182q-53 56 -174 56t-174 -56q-51 -54 -51 -182zM723 1370q76 -76 76 -223v-860q0 -303 -328 -303h-16q-328 0 -328 303v860q0 303 328 303h16q83 0 154 -23q71 15 71 95v59h92v-80
q0 -90 -65 -131zM516 -141v-150h-121v150h121z" />
    <glyph glyph-name="Ohorn.dotbl193" unicode="&#x1ee3;" 
d="M238 1110v-786q0 -129 51 -183q52 -55 174 -55t174 55q51 54 51 183v786q0 128 -51 182q-53 56 -174 56t-174 -56q-51 -54 -51 -182zM723 1370q76 -76 76 -223v-860q0 -303 -328 -303h-16q-328 0 -328 303v860q0 303 328 303h16q83 0 154 -23q71 15 71 95v59h92v-80
q0 -90 -65 -131zM514 -139v-150h-121v150h121z" />
    <glyph glyph-name="U.dotbl" unicode="&#x1ee4;" horiz-adv-x="917" 
d="M786 1434v-1147q0 -303 -323 -303h-8q-324 0 -324 303v1147h111v-1110q0 -130 47 -183q49 -55 170 -55t170 55q47 53 47 183v1110h110zM520 -139v-150h-121v150h121z" />
    <glyph glyph-name="U.dotbl194" unicode="&#x1ee5;" horiz-adv-x="917" 
d="M786 1434v-1147q0 -303 -323 -303h-8q-324 0 -324 303v1147h111v-1110q0 -130 47 -183q49 -55 170 -55t170 55q47 53 47 183v1110h110zM518 -139v-150h-121v150h121z" />
    <glyph glyph-name="U.hook" unicode="&#x1ee6;" horiz-adv-x="917" 
d="M786 1434v-1147q0 -303 -323 -303h-8q-324 0 -324 303v1147h111v-1110q0 -130 47 -183q49 -55 170 -55t170 55q47 53 47 183v1110h110zM420 1536v37q0 53 45 92q24 21 24 43v21q0 36 -32 36q-31 0 -31 -36v-43h-82v51q0 104 119 104q110 0 110 -104v-33q0 -35 -18 -62
q-8 -12 -14 -18l-9 -6l-8 -6q-32 -25 -32 -58v-18h-72z" />
    <glyph glyph-name="U.hook197" unicode="&#x1ee7;" horiz-adv-x="917" 
d="M786 1434v-1147q0 -303 -323 -303h-8q-324 0 -324 303v1147h111v-1110q0 -130 47 -183q49 -55 170 -55t170 55q47 53 47 183v1110h110zM420 1536v37q0 53 45 92q24 21 24 43v21q0 36 -32 36q-31 0 -31 -36v-43h-82v51q0 104 119 104q110 0 110 -104v-33q0 -35 -18 -62
q-8 -12 -14 -18l-9 -6l-8 -6q-32 -25 -32 -58v-18h-72z" />
    <glyph glyph-name="Uhorn.acute" unicode="&#x1ee8;" horiz-adv-x="917" 
d="M786 1348v-1061q0 -303 -323 -303h-8q-324 0 -324 303v1147h111v-1110q0 -130 47 -183q49 -55 170 -55t170 55q47 53 47 183v1110h92q51 20 51 88v59h92v-80q0 -126 -125 -153zM547 1704h119l-134 -158h-71z" />
    <glyph glyph-name="Uhorn.acute198" unicode="&#x1ee9;" horiz-adv-x="917" 
d="M786 1348v-1061q0 -303 -323 -303h-8q-324 0 -324 303v1147h111v-1110q0 -130 47 -183q49 -55 170 -55t170 55q47 53 47 183v1110h92q51 20 51 88v59h92v-80q0 -126 -125 -153zM547 1704h119l-134 -158h-71z" />
    <glyph glyph-name="Uhorn.grave" unicode="&#x1eea;" horiz-adv-x="917" 
d="M786 1348v-1061q0 -303 -323 -303h-8q-324 0 -324 303v1147h111v-1110q0 -130 47 -183q49 -55 170 -55t170 55q47 53 47 183v1110h92q51 20 51 88v59h92v-80q0 -126 -125 -153zM440 1726l52 -180h-72l-98 180h118z" />
    <glyph glyph-name="Uhorn.grave199" unicode="&#x1eeb;" horiz-adv-x="917" 
d="M786 1348v-1061q0 -303 -323 -303h-8q-324 0 -324 303v1147h111v-1110q0 -130 47 -183q49 -55 170 -55t170 55q47 53 47 183v1110h92q51 20 51 88v59h92v-80q0 -126 -125 -153zM440 1726l52 -180h-72l-98 180h118z" />
    <glyph glyph-name="Uhorn.hook" unicode="&#x1eec;" horiz-adv-x="917" 
d="M786 1348v-1061q0 -303 -323 -303h-8q-324 0 -324 303v1147h111v-1110q0 -130 47 -183q49 -55 170 -55t170 55q47 53 47 183v1110h92q51 20 51 88v59h92v-80q0 -126 -125 -153zM473 1536v37q0 53 45 92q25 22 25 43v21q0 36 -33 36q-31 0 -31 -36v-43h-82v51
q0 104 119 104q111 0 111 -104v-33q0 -34 -19 -62q-4 -6 -16 -18l-8 -6l-9 -6q-30 -27 -30 -58v-18h-72z" />
    <glyph glyph-name="Uhorn.hook200" unicode="&#x1eed;" horiz-adv-x="917" 
d="M786 1348v-1061q0 -303 -323 -303h-8q-324 0 -324 303v1147h111v-1110q0 -130 47 -183q49 -55 170 -55t170 55q47 53 47 183v1110h92q51 20 51 88v59h92v-80q0 -126 -125 -153zM473 1536v37q0 53 45 92q25 22 25 43v21q0 36 -33 36q-31 0 -31 -36v-43h-82v51
q0 104 119 104q111 0 111 -104v-33q0 -34 -19 -62q-8 -12 -14 -18l-8 -6l-8 -6q-33 -26 -33 -58v-18h-72z" />
    <glyph glyph-name="Uhorn.tilde" unicode="&#x1eee;" horiz-adv-x="917" 
d="M786 1348v-1061q0 -303 -323 -303h-8q-324 0 -324 303v1147h111v-1110q0 -130 47 -183q49 -55 170 -55t170 55q47 53 47 183v1110h92q51 20 51 88v59h92v-80q0 -126 -125 -153zM322 1552v13q0 102 61 102q32 0 96 -61q35 -32 51 -43q36 -19 68 -19q55 0 88 39
q37 43 37 121v25h-72v-13q0 -102 -57 -102q-33 0 -96 63q-20 21 -52 43q-36 19 -67 19q-57 0 -90 -39q-37 -43 -37 -121v-27h70z" />
    <glyph glyph-name="Uhorn.tilde201" unicode="&#x1eef;" horiz-adv-x="917" 
d="M786 1348v-1061q0 -303 -323 -303h-8q-324 0 -324 303v1147h111v-1110q0 -130 47 -183q49 -55 170 -55t170 55q47 53 47 183v1110h92q51 20 51 88v59h92v-80q0 -126 -125 -153zM322 1552v13q0 102 61 102q32 0 96 -61q35 -32 51 -43q36 -19 68 -19q55 0 88 39
q37 43 37 121v25h-72v-13q0 -102 -57 -102q-33 0 -96 63q-20 21 -52 43q-36 19 -67 19q-57 0 -90 -39q-37 -43 -37 -121v-27h70z" />
    <glyph glyph-name="Uhorn.dotbl" unicode="&#x1ef0;" horiz-adv-x="917" 
d="M786 1348v-1061q0 -303 -323 -303h-8q-324 0 -324 303v1147h111v-1110q0 -130 47 -183q49 -55 170 -55t170 55q47 53 47 183v1110h92q51 20 51 88v59h92v-80q0 -126 -125 -153zM547 -139v-150h-121v150h121z" />
    <glyph glyph-name="Uhorn.dotbl202" unicode="&#x1ef1;" horiz-adv-x="917" 
d="M786 1348v-1061q0 -303 -323 -303h-8q-324 0 -324 303v1147h111v-1110q0 -130 47 -183q49 -55 170 -55t170 55q47 53 47 183v1110h92q51 20 51 88v59h92v-80q0 -126 -125 -153zM547 -139v-150h-121v150h121z" />
    <glyph glyph-name="Ygrave" unicode="&#x1ef2;" horiz-adv-x="847" 
d="M340 1802l139 -256h-88l-198 256h147zM479 559v-559h-110v559l-320 875h117l258 -744l258 744h117z" />
    <glyph glyph-name="Ygrave115" unicode="&#x1ef3;" horiz-adv-x="847" 
d="M340 1802l139 -256h-88l-198 256h147zM479 559v-559h-110v559l-320 875h117l258 -744l258 744h117z" />
    <glyph glyph-name="Y.dotbl" unicode="&#x1ef4;" horiz-adv-x="847" 
d="M479 559v-559h-110v559l-320 875h117l258 -744l258 744h117zM489 -141v-150h-120v150h120z" />
    <glyph glyph-name="Y.dotbl203" unicode="&#x1ef5;" horiz-adv-x="847" 
d="M479 559v-559h-110v559l-320 875h117l258 -744l258 744h117zM487 -139v-150h-120v150h120z" />
    <glyph glyph-name="Y.hook" unicode="&#x1ef6;" horiz-adv-x="847" 
d="M479 559v-559h-110v559l-320 875h117l258 -744l258 744h117zM385 1536v37q0 53 45 92q25 22 25 43v21q0 36 -33 36q-31 0 -31 -36v-43h-82v51q0 104 119 104q111 0 111 -104v-33q0 -34 -19 -62q-8 -12 -14 -18l-8 -6l-9 -6q-32 -25 -32 -58v-18h-72z" />
    <glyph glyph-name="Y.hook204" unicode="&#x1ef7;" horiz-adv-x="847" 
d="M479 559v-559h-110v559l-320 875h117l258 -744l258 744h117zM385 1536v37q0 53 45 92q25 22 25 43v21q0 36 -33 36q-31 0 -31 -36v-43h-82v51q0 104 119 104q111 0 111 -104v-33q0 -34 -19 -62q-8 -12 -14 -18l-8 -6l-9 -6q-32 -25 -32 -58v-18h-72z" />
    <glyph glyph-name="Ytilde" unicode="&#x1ef8;" horiz-adv-x="847" 
d="M479 559v-559h-110v559l-320 875h117l258 -744l258 744h117zM258 1552v13q0 102 61 102q33 0 97 -61q35 -32 51 -43q36 -19 68 -19q55 0 88 39q36 42 36 121v25h-71v-13q0 -102 -58 -102q-33 0 -96 63q-23 23 -51 43q-36 19 -68 19q-57 0 -90 -39q-37 -43 -37 -121v-27
h70z" />
    <glyph glyph-name="Ytilde205" unicode="&#x1ef9;" horiz-adv-x="847" 
d="M479 559v-559h-110v559l-320 875h117l258 -744l258 744h117zM258 1552v13q0 102 61 102q33 0 97 -61q35 -32 51 -43q36 -19 68 -19q55 0 88 39q36 42 36 121v25h-71v-13q0 -102 -58 -102q-33 0 -96 63q-23 23 -51 43q-36 19 -68 19q-57 0 -90 -39q-37 -43 -37 -121v-27
h70z" />
    <glyph glyph-name="endash" unicode="&#x2013;" horiz-adv-x="729" 
d="M672 780v-94h-615v94h615z" />
    <glyph glyph-name="emdash" unicode="&#x2014;" horiz-adv-x="1036" 
d="M979 780v-94h-922v94h922z" />
    <glyph glyph-name="quoteleft" unicode="&#x2018;" horiz-adv-x="317" 
d="M98 1057v108q0 158 72 287l47 -25q-50 -103 -53 -221h55v-149h-121z" />
    <glyph glyph-name="quoteright" unicode="&#x2019;" horiz-adv-x="317" 
d="M219 1434v-109q0 -158 -72 -287l-47 25q51 105 54 221h-56v150h121z" />
    <glyph glyph-name="quotesinglbase" unicode="&#x201a;" horiz-adv-x="317" 
d="M219 150v-109q0 -158 -72 -287l-47 25q51 105 54 221h-56v150h121z" />
    <glyph glyph-name="quotedblleft" unicode="&#x201c;" horiz-adv-x="518" 
d="M96 1057v108q0 158 72 287l47 -25q-50 -103 -53 -221h55v-149h-121zM299 1057v108q0 158 72 287l47 -25q-50 -103 -53 -221h55v-149h-121z" />
    <glyph glyph-name="quotedblright" unicode="&#x201d;" horiz-adv-x="518" 
d="M219 1434v-109q0 -158 -72 -287l-47 25q51 105 54 221h-56v150h121zM422 1434v-109q0 -158 -72 -287l-47 25q50 103 53 221h-55v150h121z" />
    <glyph glyph-name="quotedblbase" unicode="&#x201e;" horiz-adv-x="518" 
d="M219 150v-109q0 -158 -72 -287l-47 25q51 105 54 221h-56v150h121zM422 150v-109q0 -158 -72 -287l-47 25q50 103 53 221h-55v150h121z" />
    <glyph glyph-name="dagger" unicode="&#x2020;" horiz-adv-x="675" 
d="M635 1024v-94h-246v-930h-102v930h-246v94h246v410h102v-410h246z" />
    <glyph glyph-name="daggerdbl" unicode="&#x2021;" horiz-adv-x="675" 
d="M635 930h-246v-426h246v-94h-246v-410h-102v410h-246v94h246v426h-246v94h246v410h102v-410h246v-94z" />
    <glyph glyph-name="bullet" unicode="&#x2022;" horiz-adv-x="571" 
d="M406 729q0 -127 -119 -127q-123 0 -123 127t123 127q119 0 119 -127z" />
    <glyph glyph-name="ellipsis" unicode="&#x2026;" horiz-adv-x="1028" 
d="M219 150v-150h-121v150h121zM575 150v-150h-120v150h120zM930 150v-150h-121v150h121z" />
    <glyph glyph-name="perthousand" unicode="&#x2030;" horiz-adv-x="1488" 
d="M240 1442h32q65 0 109 -41q51 -45 51 -135v-258q0 -91 -51 -136q-44 -41 -109 -41h-32q-67 0 -111 41q-51 45 -51 136v258q0 90 51 135q44 41 111 41zM907 1434l-678 -1434h-90l678 1434h90zM350 1026v221q0 119 -84 119h-22q-82 0 -82 -119v-221q0 -119 82 -119h22
q84 0 84 119zM776 602h33q65 0 109 -41q51 -45 51 -135v-258q0 -90 -51 -135q-44 -41 -109 -41h-33q-66 0 -110 41q-52 46 -52 135v258q0 89 52 135q44 41 110 41zM1219 602h32q65 0 109 -41q51 -45 51 -135v-258q0 -90 -51 -135q-44 -41 -109 -41h-32q-67 0 -111 41
q-51 45 -51 135v258q0 90 51 135q44 41 111 41zM887 186v222q0 118 -84 118h-23q-82 0 -82 -118v-222q0 -118 82 -118h23q84 0 84 118zM1327 186v222q0 118 -82 118h-22q-84 0 -84 -118v-222q0 -118 84 -118h22q82 0 82 118z" />
    <glyph glyph-name="guilsinglleft" unicode="&#x2039;" horiz-adv-x="458" 
d="M393 1092v-119l-268 -248l268 -248v-119l-356 330v74z" />
    <glyph glyph-name="guilsinglright" unicode="&#x203a;" horiz-adv-x="458" 
d="M334 725l-268 248v119l356 -330v-74l-356 -330v119z" />
    <glyph glyph-name="fraction" unicode="&#x2044;" horiz-adv-x="188" 
d="M317 1434h80l-526 -1434h-80z" />
    <glyph glyph-name="Euro" unicode="&#x20ac;" 
d="M807 901h-111v209q0 127 -49 182q-53 56 -170 56t-170 -56q-49 -55 -49 -182v-227h289v-80h-289v-139h289v-80h-289v-260q0 -128 49 -183q52 -55 170 -55t170 55q49 55 49 183v243h111v-280q0 -303 -328 -303h-4q-328 0 -328 303v297h-139v80h139v139h-139v80h139v264
q0 303 328 303h4q328 0 328 -303v-246z" />
    <glyph glyph-name="servicemark" unicode="&#x2120;" horiz-adv-x="829" 
d="M322 1245h-68v64q0 71 -64 71q-63 0 -63 -71v-29q0 -37 59 -78l70 -43q68 -41 68 -104v-62q0 -121 -134 -121q-131 0 -131 121v84h68v-71q0 -72 63 -72q66 0 66 72v34q0 40 -70 80l-65 41q-62 41 -62 107v55q0 119 131 119q132 0 132 -119v-78zM702 1260l-100 -283h-33
l-100 283v-379h-68v553h64l121 -336l116 336h68v-553h-68v379z" />
    <glyph glyph-name="trademark" unicode="&#x2122;" horiz-adv-x="790" 
d="M293 1434v-64h-92v-489h-70v489h-92v64h254zM664 1260l-101 -283h-33l-100 283v-379h-68v553h64l121 -336l117 336h67v-553h-67v379z" />
    <glyph glyph-name="onethird" unicode="&#x2153;" horiz-adv-x="1079" 
d="M188 565h-90v778q30 34 39 91h51v-869zM647 1434h80l-526 -1434h-80zM981 686v-104q0 -110 -78 -131q78 -21 78 -123v-150q0 -190 -182 -190h-31q-182 0 -182 190v127h90v-110q0 -125 102 -125h10q103 0 103 125v120q0 91 -98 91h-99v81h86q111 0 111 105v78
q0 125 -103 125h-12q-100 0 -100 -125v-90h-90v106q0 191 192 191h10q193 0 193 -191z" />
    <glyph glyph-name="twothirds" unicode="&#x2154;" horiz-adv-x="1327" 
d="M102 1116v146q0 184 193 184h2q195 0 195 -184v-84q0 -76 -58 -140q-23 -26 -59 -55l-35 -29l-35 -28q-112 -87 -112 -185v-90h299v-82h-394v174q0 124 156 250q89 71 111 99q32 38 32 88v65q0 119 -104 119q-100 0 -100 -119v-129h-91zM893 1434h80l-527 -1434h-79z
M1229 686v-104q0 -110 -78 -131q78 -21 78 -123v-150q0 -190 -182 -190h-31q-182 0 -182 190v127h90v-110q0 -125 102 -125h10q103 0 103 125v120q0 91 -99 91h-98v81h86q111 0 111 105v78q0 125 -103 125h-12q-100 0 -100 -125v-90h-90v106q0 191 192 191h10
q193 0 193 -191z" />
    <glyph glyph-name="onefifth" unicode="&#x2155;" horiz-adv-x="1095" 
d="M188 565h-90v778q30 34 39 91h51v-869zM647 1434h80l-526 -1434h-80zM989 782h-291v-286q43 73 138 73q76 0 118 -45q43 -46 43 -123v-229q0 -184 -194 -184h-4q-193 0 -193 184v141h88v-125q0 -118 105 -118q110 0 110 118v197q0 100 -90 100q-41 0 -82 -30
q-7 -5 -28 -25l-9 -12l-8 -10l-82 24v432h379v-82z" />
    <glyph glyph-name="twofifths" unicode="&#x2156;" horiz-adv-x="1343" 
d="M102 1116v146q0 184 193 184h2q195 0 195 -184v-84q0 -76 -58 -140q-23 -26 -59 -55l-35 -29l-35 -28q-112 -87 -112 -185v-90h299v-82h-394v174q0 124 156 250q89 71 111 99q32 38 32 88v65q0 119 -104 119q-100 0 -100 -119v-129h-91zM893 1434h80l-527 -1434h-79z
M1237 782h-291v-286q43 73 137 73q77 0 119 -45q43 -46 43 -123v-229q0 -184 -194 -184h-4q-195 0 -195 184v141h90v-125q0 -118 105 -118q108 0 108 118v197q0 100 -88 100q-41 0 -82 -30q-10 -6 -29 -25l-8 -12l-8 -10l-84 24v432h381v-82z" />
    <glyph glyph-name="threefifths" unicode="&#x2157;" horiz-adv-x="1337" 
d="M494 1255v-104q0 -110 -78 -131q78 -21 78 -123v-149q0 -191 -183 -191h-30q-183 0 -183 191v126h90v-110q0 -125 103 -125h10q102 0 102 125v121q0 90 -98 90h-98v82h86q110 0 110 104v78q0 125 -102 125h-12q-101 0 -101 -125v-90h-90v106q0 191 193 191h10
q193 0 193 -191zM887 1434h80l-527 -1434h-80zM1231 782h-291v-286q43 73 135 73q76 0 121 -45q43 -46 43 -123v-229q0 -184 -195 -184h-4q-194 0 -194 184v141h88v-125q0 -118 106 -118q109 0 109 118v197q0 100 -88 100q-41 0 -82 -30q-10 -6 -29 -25l-8 -12l-8 -10
l-84 24v432h381v-82z" />
    <glyph glyph-name="fourfifths" unicode="&#x2158;" horiz-adv-x="1349" 
d="M449 1434v-572h75v-86h-75v-211h-95v211h-256v80l246 578h105zM899 1434h80l-526 -1434h-80zM354 1282l-172 -420h172v420zM1241 782h-291v-286q43 73 137 73q77 0 119 -45q43 -46 43 -123v-229q0 -184 -192 -184h-4q-195 0 -195 184v141h88v-125q0 -118 107 -118
q108 0 108 118v197q0 100 -90 100q-41 0 -82 -30q-12 -7 -26 -25l-11 -12l-8 -10l-82 24v432h379v-82z" />
    <glyph glyph-name="onesixth" unicode="&#x2159;" horiz-adv-x="1097" 
d="M188 565h-90v778q30 34 39 91h51v-869zM647 1434h80l-526 -1434h-80zM999 623h-90v53q0 119 -108 119q-107 0 -107 -119v-223q34 75 142 75q76 0 118 -45q43 -46 43 -123v-188q0 -184 -194 -184h-4q-193 0 -193 184v520q0 185 195 185h4q194 0 194 -185v-69zM731 418
q-37 -27 -37 -70v-160q0 -118 107 -118q108 0 108 118v156q0 100 -90 100q-55 0 -88 -26z" />
    <glyph glyph-name="fivesixths" unicode="&#x215a;" horiz-adv-x="1345" 
d="M483 1352h-290v-287q44 74 135 74q76 0 121 -45q43 -46 43 -123v-230q0 -184 -195 -184h-4q-195 0 -195 184v142h90v-125q0 -119 105 -119q108 0 108 119v196q0 101 -88 101q-40 0 -82 -31q-8 -4 -28 -25l-8 -12l-9 -10l-84 24v433h381v-82zM895 1434h80l-526 -1434h-80z
M1247 623h-88v53q0 119 -110 119q-105 0 -105 -119v-223q26 75 139 75q76 0 121 -45q43 -46 43 -123v-188q0 -184 -194 -184h-4q-195 0 -195 184v520q0 185 195 185h4q194 0 194 -185v-69zM979 418q-35 -27 -35 -70v-160q0 -118 105 -118q108 0 108 118v156q0 100 -90 100
q-55 0 -88 -26z" />
    <glyph glyph-name="oneeighth" unicode="&#x215b;" horiz-adv-x="1087" 
d="M188 565h-90v778q30 34 39 91h51v-869zM647 1434h80l-526 -1434h-80zM770 877h39q180 0 180 -191v-104q0 -106 -76 -133q76 -34 76 -146v-125q0 -190 -180 -190h-39q-178 0 -178 190v125q0 111 78 146q-78 28 -78 133v104q0 191 178 191zM901 580v90q0 125 -100 125h-23
q-98 0 -98 -125v-90q0 -93 98 -93h23q100 0 100 93zM901 195v118q0 93 -100 93h-23q-98 0 -98 -93v-118q0 -125 98 -125h23q100 0 100 125z" />
    <glyph glyph-name="threeeighths" unicode="&#x215c;" horiz-adv-x="1329" 
d="M494 1255v-104q0 -110 -78 -131q78 -21 78 -123v-149q0 -191 -183 -191h-30q-183 0 -183 191v126h90v-110q0 -125 103 -125h10q102 0 102 125v121q0 90 -98 90h-98v82h86q110 0 110 104v78q0 125 -102 125h-12q-101 0 -101 -125v-90h-90v106q0 191 193 191h10
q193 0 193 -191zM887 1434h80l-527 -1434h-80zM1012 877h39q180 0 180 -191v-104q0 -105 -78 -133q78 -35 78 -146v-125q0 -190 -180 -190h-39q-181 0 -181 190v125q0 111 80 146q-80 27 -80 133v104q0 191 181 191zM1141 580v90q0 125 -99 125h-22q-98 0 -98 -125v-90
q0 -93 98 -93h22q99 0 99 93zM1141 195v118q0 93 -99 93h-22q-98 0 -98 -93v-118q0 -125 98 -125h22q99 0 99 125z" />
    <glyph glyph-name="fiveeighths" unicode="&#x215d;" horiz-adv-x="1337" 
d="M483 1352h-290v-287q44 74 135 74q76 0 121 -45q43 -46 43 -123v-230q0 -184 -195 -184h-4q-195 0 -195 184v142h90v-125q0 -119 105 -119q108 0 108 119v196q0 101 -88 101q-40 0 -82 -31q-8 -4 -28 -25l-8 -12l-9 -10l-84 24v433h381v-82zM895 1434h80l-526 -1434h-80z
M1020 877h39q180 0 180 -191v-104q0 -105 -78 -133q78 -35 78 -146v-125q0 -190 -180 -190h-39q-180 0 -180 190v125q0 111 80 146q-80 27 -80 133v104q0 191 180 191zM1149 580v90q0 125 -98 125h-23q-98 0 -98 -125v-90q0 -93 98 -93h23q98 0 98 93zM1149 195v118
q0 93 -98 93h-23q-98 0 -98 -93v-118q0 -125 98 -125h23q98 0 98 125z" />
    <glyph glyph-name="seveneighths" unicode="&#x215e;" horiz-adv-x="1189" 
d="M457 1362l-224 -797h-90l226 787h-271v82h359v-72zM748 1434h79l-526 -1434h-80zM872 877h39q181 0 181 -191v-104q0 -105 -78 -133q78 -35 78 -146v-125q0 -190 -181 -190h-39q-180 0 -180 190v125q0 111 80 146q-80 27 -80 133v104q0 191 180 191zM1001 580v90
q0 125 -98 125h-22q-99 0 -99 -125v-90q0 -93 99 -93h22q98 0 98 93zM1001 195v118q0 93 -98 93h-22q-99 0 -99 -93v-118q0 -125 99 -125h22q98 0 98 125z" />
    <glyph glyph-name="minus" unicode="&#x2212;" horiz-adv-x="860" 
d="M743 776v-94h-626v94h626z" />
    <glyph glyph-name="notequal" unicode="&#x2260;" horiz-adv-x="860" 
d="M743 856h-233l-80 -246h313v-94h-342l-108 -338h-80l109 338h-205v94h233l80 246h-313v94h342l108 338h80l-108 -338h204v-94z" />
    <glyph glyph-name="cir.acute" unicode="&#xe00d;" horiz-adv-x="0" 
d="M492 3279l143 -156h-90l-99 92l-98 -92h-90l143 156h91zM586 3711h-119l-86 -158h72z" />
    <glyph glyph-name="cir.grave" unicode="&#xe00e;" horiz-adv-x="0" 
d="M492 3279l143 -156h-90l-99 92l-98 -92h-90l143 156h91zM559 3553l-51 181h-119l98 -181h72z" />
    <glyph glyph-name="cir.tilde" unicode="&#xe00f;" horiz-adv-x="0" 
d="M492 3279l143 -156h-90l-99 92l-98 -92h-90l143 156h91zM332 3572v-13h-70v27q0 78 37 121q33 39 90 39q32 0 68 -19q28 -20 51 -43q63 -63 96 -63q58 0 58 102v13h71v-25q0 -78 -37 -121q-33 -39 -88 -39q-31 0 -67 19q-20 15 -52 43q-64 61 -96 61q-61 0 -61 -102z" />
    <glyph glyph-name="breve.tilde" unicode="&#xe010;" horiz-adv-x="0" 
d="M651 3248v66h-73v-49q0 -78 -91 -78h-8q-90 0 -90 78v49h-74v-64q0 -129 158 -129h21q157 0 157 127zM332 3572v-13h-70v27q0 78 37 121q33 39 90 39q32 0 68 -19q28 -20 51 -43q63 -63 96 -63q58 0 58 102v13h71v-25q0 -78 -37 -121q-33 -39 -88 -39q-31 0 -67 19
q-20 15 -52 43q-64 61 -96 61q-61 0 -61 -102z" />
    <glyph glyph-name="breve.acute" unicode="&#xe011;" horiz-adv-x="0" 
d="M651 3314v-66q0 -127 -157 -127h-21q-158 0 -158 129v64h74v-49q0 -78 90 -78h8q91 0 91 78v49h73zM467 3711h119l-133 -158h-72z" />
    <glyph glyph-name="breve.grave" unicode="&#xe012;" horiz-adv-x="0" 
d="M651 3314v-66q0 -127 -157 -127h-21q-158 0 -158 129v64h74v-49q0 -78 90 -78h8q91 0 91 78v49h73zM508 3734l51 -181h-72l-98 181h119z" />
    <glyph glyph-name="breve.hook" unicode="&#xe013;" horiz-adv-x="0" 
d="M651 3314v-66q0 -127 -157 -127h-21q-158 0 -158 129v64h74v-49q0 -78 90 -78h8q91 0 91 78v49h73zM344 3160v27q0 40 45 69q25 16 25 33v14q0 29 -33 29q-31 0 -31 -29v-32h-82v39q0 77 119 77q111 0 111 -77v-25q0 -26 -19 -45q-6 -8 -14 -14l-8 -4l-8 -7
q-33 -17 -33 -43v-12h-72z" />
    <glyph glyph-name="cir.hook" unicode="&#xe014;" horiz-adv-x="0" 
d="M635 3123l-143 156h-91l-143 -156h90l98 92l99 -92h90zM344 3543v37q0 53 45 92q25 22 25 43v21q0 36 -33 36q-31 0 -31 -36v-43h-82v51q0 104 119 104q111 0 111 -104v-33q0 -33 -19 -61q-10 -15 -14 -19l-8 -6l-8 -6q-33 -26 -33 -58v-18h-72z" />
    <glyph glyph-name="uniE015" unicode="&#xe015;" horiz-adv-x="927" 
d="M508 1726l51 -180h-72l-98 180h119z" />
    <glyph glyph-name="uniE016" unicode="&#xe016;" horiz-adv-x="927" 
d="M467 1704h119l-133 -158h-72z" />
    <glyph glyph-name="uniE017" unicode="&#xe017;" horiz-adv-x="892" 
d="M492 1702l143 -156h-90l-99 92l-98 -92h-90l143 156h91z" />
    <glyph glyph-name="uniE018" unicode="&#xe018;" horiz-adv-x="892" 
d="M567 1802h113l-180 -256h-109l-182 256h113l122 -176z" />
    <glyph glyph-name="uniE019" unicode="&#xe019;" horiz-adv-x="995" 
d="M332 1565v-13h-70v27q0 78 37 121q33 39 90 39q32 0 68 -19q28 -20 51 -43q63 -63 96 -63q58 0 58 102v13h71v-25q0 -78 -37 -121q-33 -39 -88 -39q-31 0 -67 19q-20 15 -52 43q-64 61 -96 61q-61 0 -61 -102z" />
    <glyph glyph-name="uniE01A" unicode="&#xe01a;" horiz-adv-x="995" 
d="M508 1726l51 -180h-72l-98 180h119z" />
    <glyph glyph-name="uniE01B" unicode="&#xe01b;" horiz-adv-x="1536" 
d="M674 1802h119l-226 -256h-118zM946 1802h119l-223 -256h-119z" />
    <glyph glyph-name="uniE01C" unicode="&#xe01c;" horiz-adv-x="966" 
d="M651 1737v-66q0 -127 -157 -127h-21q-158 0 -158 129v64h74v-49q0 -78 90 -78h8q91 0 91 78v49h73z" />
    <glyph glyph-name="uniE01D" unicode="&#xe01d;" horiz-adv-x="966" 
d="M651 1737v-66q0 -127 -157 -127h-21q-158 0 -158 129v64h74v-49q0 -78 90 -78h8q91 0 91 78v49h73z" />
    <glyph glyph-name="uniE01E" unicode="&#xe01e;" horiz-adv-x="780" 
d="M514 1806q45 -42 45 -114q0 -73 -45 -115q-46 -43 -121 -43q-77 0 -123 43q-45 42 -45 115q0 72 45 114q46 43 123 43q75 0 121 -43zM303 1692q0 -88 90 -88q88 0 88 88t-88 88q-90 0 -90 -88z" />
    <glyph glyph-name="uniE01F" unicode="&#xe01f;" horiz-adv-x="782" 
d="M344 1536v37q0 53 45 92q25 22 25 43v21q0 36 -33 36q-31 0 -31 -36v-43h-82v51q0 104 119 104q111 0 111 -104v-33q0 -34 -19 -62q-8 -12 -14 -18l-8 -6l-8 -6q-33 -26 -33 -58v-18h-72z" />
    <glyph glyph-name="uniE020" unicode="&#xe020;" horiz-adv-x="868" 
d="M375 1690v-144h-119v144h119zM612 1690v-144h-118v144h118z" />
    <glyph glyph-name="A.ss01" horiz-adv-x="917" 
d="M455 1450h8q323 0 323 -303v-1147h-110v539h-434v-539h-111v1147q0 303 324 303zM242 641h434v469q0 129 -47 182q-50 56 -170 56t-170 -56q-47 -53 -47 -182v-469z" />
    <glyph glyph-name="A.ss01120" horiz-adv-x="917" 
d="M455 1450h8q323 0 323 -303v-1147h-110v539h-434v-539h-111v1147q0 303 324 303zM242 641h434v469q0 129 -47 182q-50 56 -170 56t-170 -56q-47 -53 -47 -182v-469z" />
    <glyph glyph-name="AE.ss01" horiz-adv-x="1288" 
d="M748 102h458v-102h-569v522h-395v-522h-111v1130q0 304 324 304h745v-103h-452v-553h389v-102h-389v-574zM242 625h395v706h-178q-121 0 -170 -55q-47 -53 -47 -182v-469z" />
    <glyph glyph-name="AE.ss01131" horiz-adv-x="1288" 
d="M748 102h458v-102h-569v522h-395v-522h-111v1130q0 304 324 304h745v-103h-452v-553h389v-102h-389v-574zM242 625h395v706h-178q-121 0 -170 -55q-47 -53 -47 -182v-469z" />
    <glyph glyph-name="AEacute.ss01" horiz-adv-x="1288" 
d="M938 1802l-199 -256h-88l140 256h147zM748 102h458v-102h-569v522h-395v-522h-111v1130q0 304 324 304h745v-103h-452v-553h389v-102h-389v-574zM242 625h395v706h-178q-121 0 -170 -55q-47 -53 -47 -182v-469z" />
    <glyph glyph-name="AEacute.ss01132" horiz-adv-x="1288" 
d="M938 1802l-199 -256h-88l140 256h147zM748 102h458v-102h-569v522h-395v-522h-111v1130q0 304 324 304h745v-103h-452v-553h389v-102h-389v-574zM242 625h395v706h-178q-121 0 -170 -55q-47 -53 -47 -182v-469z" />
    <glyph glyph-name="Aacute.ss01" horiz-adv-x="917" 
d="M692 1802l-198 -256h-88l139 256h147zM455 1450h8q323 0 323 -303v-1147h-110v539h-434v-539h-111v1147q0 303 324 303zM242 641h434v469q0 129 -47 182q-50 56 -170 56t-170 -56q-47 -53 -47 -182v-469z" />
    <glyph glyph-name="Aacute.ss01121" horiz-adv-x="917" 
d="M692 1802l-198 -256h-88l139 256h147zM455 1450h8q323 0 323 -303v-1147h-110v539h-434v-539h-111v1147q0 303 324 303zM242 641h434v469q0 129 -47 182q-50 56 -170 56t-170 -56q-47 -53 -47 -182v-469z" />
    <glyph glyph-name="Abreve.ss01" horiz-adv-x="917" 
d="M471 1544h-25q-196 0 -196 162v78h92v-60q0 -98 113 -98h8q112 0 112 98v60h93v-80q0 -160 -197 -160zM455 1450h8q323 0 323 -303v-1147h-110v539h-434v-539h-111v1147q0 303 324 303zM242 641h434v469q0 129 -47 182q-50 56 -170 56t-170 -56q-47 -53 -47 -182v-469z
" />
    <glyph glyph-name="Abreve.ss01122" horiz-adv-x="917" 
d="M471 1544h-25q-196 0 -196 162v78h92v-60q0 -98 113 -98h8q112 0 112 98v60h93v-80q0 -160 -197 -160zM455 1450h8q323 0 323 -303v-1147h-110v539h-434v-539h-111v1147q0 303 324 303zM242 641h434v469q0 129 -47 182q-50 56 -170 56t-170 -56q-47 -53 -47 -182v-469z
" />
    <glyph glyph-name="Acircumflex.ss01" horiz-adv-x="917" 
d="M459 1722l-123 -176h-113l180 256h111l180 -256h-112zM455 1450h8q323 0 323 -303v-1147h-110v539h-434v-539h-111v1147q0 303 324 303zM242 641h434v469q0 129 -47 182q-50 56 -170 56t-170 -56q-47 -53 -47 -182v-469z" />
    <glyph glyph-name="Acircumflex.ss01123" horiz-adv-x="917" 
d="M459 1722l-123 -176h-113l180 256h111l180 -256h-112zM455 1450h8q323 0 323 -303v-1147h-110v539h-434v-539h-111v1147q0 303 324 303zM242 641h434v469q0 129 -47 182q-50 56 -170 56t-170 -56q-47 -53 -47 -182v-469z" />
    <glyph glyph-name="Adieresis.ss01" horiz-adv-x="917" 
d="M381 1690v-144h-117v144h117zM653 1690v-144h-116v144h116zM455 1450h8q323 0 323 -303v-1147h-110v539h-434v-539h-111v1147q0 303 324 303zM242 641h434v469q0 129 -47 182q-50 56 -170 56t-170 -56q-47 -53 -47 -182v-469z" />
    <glyph glyph-name="Adieresis.ss01124" horiz-adv-x="917" 
d="M381 1690v-144h-117v144h117zM653 1690v-144h-116v144h116zM455 1450h8q323 0 323 -303v-1147h-110v539h-434v-539h-111v1147q0 303 324 303zM242 641h434v469q0 129 -47 182q-50 56 -170 56t-170 -56q-47 -53 -47 -182v-469z" />
    <glyph glyph-name="Agrave.ss01" horiz-adv-x="917" 
d="M514 1546h-88l-199 256h148zM455 1450h8q323 0 323 -303v-1147h-110v539h-434v-539h-111v1147q0 303 324 303zM242 641h434v469q0 129 -47 182q-50 56 -170 56t-170 -56q-47 -53 -47 -182v-469z" />
    <glyph glyph-name="Agrave.ss01125" horiz-adv-x="917" 
d="M514 1546h-88l-199 256h148zM455 1450h8q323 0 323 -303v-1147h-110v539h-434v-539h-111v1147q0 303 324 303zM242 641h434v469q0 129 -47 182q-50 56 -170 56t-170 -56q-47 -53 -47 -182v-469z" />
    <glyph glyph-name="Amacron.ss01" horiz-adv-x="917" 
d="M690 1661v-94h-463v94h463zM455 1450h8q323 0 323 -303v-1147h-110v539h-434v-539h-111v1147q0 303 324 303zM242 641h434v469q0 129 -47 182q-50 56 -170 56t-170 -56q-47 -53 -47 -182v-469z" />
    <glyph glyph-name="Amacron.ss01126" horiz-adv-x="917" 
d="M690 1661v-94h-463v94h463zM455 1450h8q323 0 323 -303v-1147h-110v539h-434v-539h-111v1147q0 303 324 303zM242 641h434v469q0 129 -47 182q-50 56 -170 56t-170 -56q-47 -53 -47 -182v-469z" />
    <glyph glyph-name="Aogonek.ss01" horiz-adv-x="917" 
d="M788 -195v-61q-19 -19 -43 -27q-30 -10 -49 -10q-122 0 -131 123t111 170v539h-434v-539h-111v1147q0 303 324 303h8q323 0 323 -303v-1147h-32q-94 -46 -97 -131q-3 -84 74 -84q28 0 57 20zM242 641h434v469q0 129 -47 182q-50 56 -170 56t-170 -56q-47 -53 -47 -182
v-469z" />
    <glyph glyph-name="Aogonek.ss01127" horiz-adv-x="917" 
d="M788 -195v-61q-19 -19 -43 -27q-30 -10 -49 -10q-122 0 -131 123t111 170v539h-434v-539h-111v1147q0 303 324 303h8q323 0 323 -303v-1147h-32q-94 -46 -97 -131q-3 -84 74 -84q28 0 57 20zM242 641h434v469q0 129 -47 182q-50 56 -170 56t-170 -56q-47 -53 -47 -182
v-469z" />
    <glyph glyph-name="Aring.ss01" horiz-adv-x="917" 
d="M336 1577q-45 42 -45 115q0 72 45 114q46 43 123 43q75 0 121 -43q45 -42 45 -114q0 -73 -45 -115q-46 -43 -121 -43q-77 0 -123 43zM369 1692q0 -88 90 -88q88 0 88 88t-88 88q-90 0 -90 -88zM455 1450h8q323 0 323 -303v-1147h-110v539h-434v-539h-111v1147
q0 303 324 303zM242 641h434v469q0 129 -47 182q-50 56 -170 56t-170 -56q-47 -53 -47 -182v-469z" />
    <glyph glyph-name="Aring.ss01128" horiz-adv-x="917" 
d="M336 1577q-45 42 -45 115q0 72 45 114q46 43 123 43q75 0 121 -43q45 -42 45 -114q0 -73 -45 -115q-46 -43 -121 -43q-77 0 -123 43zM369 1692q0 -88 90 -88q88 0 88 88t-88 88q-90 0 -90 -88zM455 1450h8q323 0 323 -303v-1147h-110v539h-434v-539h-111v1147
q0 303 324 303zM242 641h434v469q0 129 -47 182q-50 56 -170 56t-170 -56q-47 -53 -47 -182v-469z" />
    <glyph glyph-name="Aringacute.ss01" horiz-adv-x="917" 
d="M666 2157l-199 -256h-88l139 256h148zM336 1577q-45 42 -45 115q0 72 45 114q46 43 123 43q75 0 121 -43q45 -42 45 -114q0 -73 -45 -115q-46 -43 -121 -43q-77 0 -123 43zM369 1692q0 -88 90 -88q88 0 88 88t-88 88q-90 0 -90 -88zM455 1450h8q323 0 323 -303v-1147
h-110v539h-434v-539h-111v1147q0 303 324 303zM242 641h434v469q0 129 -47 182q-50 56 -170 56t-170 -56q-47 -53 -47 -182v-469z" />
    <glyph glyph-name="Aringacute.ss01129" horiz-adv-x="917" 
d="M666 2157l-199 -256h-88l139 256h148zM336 1577q-45 42 -45 115q0 72 45 114q46 43 123 43q75 0 121 -43q45 -42 45 -114q0 -73 -45 -115q-46 -43 -121 -43q-77 0 -123 43zM369 1692q0 -88 90 -88q88 0 88 88t-88 88q-90 0 -90 -88zM455 1450h8q323 0 323 -303v-1147
h-110v539h-434v-539h-111v1147q0 303 324 303zM242 641h434v469q0 129 -47 182q-50 56 -170 56t-170 -56q-47 -53 -47 -182v-469z" />
    <glyph glyph-name="Atilde.ss01" horiz-adv-x="917" 
d="M252 1571v-17h-88v33q0 96 47 152q43 49 113 49q68 0 149 -78l29 -29q12 -12 28 -24q36 -25 62 -25q72 0 72 127v17h90v-33q0 -99 -45 -150q-43 -49 -113 -49q-66 0 -147 78q-79 76 -121 76q-76 0 -76 -127zM455 1450h8q323 0 323 -303v-1147h-110v539h-434v-539h-111
v1147q0 303 324 303zM242 641h434v469q0 129 -47 182q-50 56 -170 56t-170 -56q-47 -53 -47 -182v-469z" />
    <glyph glyph-name="Atilde.ss01130" horiz-adv-x="917" 
d="M252 1571v-17h-88v33q0 96 47 152q43 49 113 49q68 0 149 -78l29 -29q12 -12 28 -24q36 -25 62 -25q72 0 72 127v17h90v-33q0 -99 -45 -150q-43 -49 -113 -49q-66 0 -147 78q-79 76 -121 76q-76 0 -76 -127zM455 1450h8q323 0 323 -303v-1147h-110v539h-434v-539h-111
v1147q0 303 324 303zM242 641h434v469q0 129 -47 182q-50 56 -170 56t-170 -56q-47 -53 -47 -182v-469z" />
    <glyph glyph-name="Eng.ss01" horiz-adv-x="921" 
d="M791 1147v-1147q-12 -283 -316 -283h-43v103h39q111 0 160 55t49 184v1041q0 248 -191 248q-106 0 -170 -64q-73 -67 -73 -184v-1100h-111v1434h111v-138q83 154 264 154q281 0 281 -303z" />
    <glyph glyph-name="Eng.ss01142" horiz-adv-x="921" 
d="M791 1147v-1147q-12 -283 -316 -283h-43v103h39q111 0 160 55t49 184v1041q0 248 -191 248q-106 0 -170 -64q-73 -67 -73 -184v-1100h-111v1434h111v-138q83 154 264 154q281 0 281 -303z" />
    <glyph glyph-name="Euro.tf" horiz-adv-x="860" 
d="M788 901h-110v209q0 127 -49 182q-53 56 -170 56t-170 -56q-49 -55 -49 -182v-227h288v-80h-288v-139h288v-80h-288v-260q0 -128 49 -183q52 -55 170 -55t170 55q49 55 49 183v243h110v-280q0 -303 -327 -303h-4q-328 0 -328 303v297h-104v80h104v139h-104v80h104v264
q0 303 328 303h4q327 0 327 -303v-246z" />
    <glyph glyph-name="G.ss01" 
d="M799 958h-111v152q0 128 -51 182q-53 56 -174 56t-174 -56q-51 -54 -51 -182v-786q0 -129 51 -183q52 -55 174 -55t174 55q51 54 51 183v286h-233v101h344v-711h-68l-22 109q-61 -125 -242 -125h-16q-324 0 -324 303v860q0 303 328 303h16q328 0 328 -303v-189z" />
    <glyph glyph-name="G.ss01133" 
d="M799 958h-111v152q0 128 -51 182q-53 56 -174 56t-174 -56q-51 -54 -51 -182v-786q0 -129 51 -183q52 -55 174 -55t174 55q51 54 51 183v286h-233v101h344v-711h-68l-22 109q-61 -125 -242 -125h-16q-324 0 -324 303v860q0 303 328 303h16q328 0 328 -303v-189z" />
    <glyph glyph-name="Gbreve.ss01" 
d="M672 1784v-80q0 -160 -197 -160h-24q-197 0 -197 162v78h92v-60q0 -98 113 -98h8q113 0 113 98v60h92zM799 958h-111v152q0 128 -51 182q-53 56 -174 56t-174 -56q-51 -54 -51 -182v-786q0 -129 51 -183q52 -55 174 -55t174 55q51 54 51 183v286h-233v101h344v-711h-68
l-22 109q-61 -125 -242 -125h-16q-324 0 -324 303v860q0 303 328 303h16q328 0 328 -303v-189z" />
    <glyph glyph-name="Gbreve.ss01134" 
d="M672 1784v-80q0 -160 -197 -160h-24q-197 0 -197 162v78h92v-60q0 -98 113 -98h8q113 0 113 98v60h92zM799 958h-111v152q0 128 -51 182q-53 56 -174 56t-174 -56q-51 -54 -51 -182v-786q0 -129 51 -183q52 -55 174 -55t174 55q51 54 51 183v286h-233v101h344v-711h-68
l-22 109q-61 -125 -242 -125h-16q-324 0 -324 303v860q0 303 328 303h16q328 0 328 -303v-189z" />
    <glyph glyph-name="Gcommaaccent.ss01" 
d="M799 958h-111v152q0 128 -51 182q-53 56 -174 56t-174 -56q-51 -54 -51 -182v-786q0 -129 51 -183q52 -55 174 -55t174 55q51 54 51 183v286h-233v101h344v-711h-68l-22 109q-61 -125 -242 -125h-16q-324 0 -324 303v860q0 303 328 303h16q328 0 328 -303v-189zM522 -143
v-109q0 -160 -71 -287l-48 25q51 105 54 221h-56v150h121z" />
    <glyph glyph-name="Gcommaaccent.ss01135" 
d="M799 958h-111v152q0 128 -51 182q-53 56 -174 56t-174 -56q-51 -54 -51 -182v-786q0 -129 51 -183q52 -55 174 -55t174 55q51 54 51 183v286h-233v101h344v-711h-68l-22 109q-61 -125 -242 -125h-16q-324 0 -324 303v860q0 303 328 303h16q328 0 328 -303v-189zM522 -143
v-109q0 -160 -71 -287l-48 25q51 105 54 221h-56v150h121z" />
    <glyph glyph-name="Gdotaccent.ss01" 
d="M522 1690v-144h-119v144h119zM799 958h-111v152q0 128 -51 182q-53 56 -174 56t-174 -56q-51 -54 -51 -182v-786q0 -129 51 -183q52 -55 174 -55t174 55q51 54 51 183v286h-233v101h344v-711h-68l-22 109q-61 -125 -242 -125h-16q-324 0 -324 303v860q0 303 328 303h16
q328 0 328 -303v-189z" />
    <glyph glyph-name="Gdotaccent.ss01136" 
d="M522 1690v-144h-119v144h119zM799 958h-111v152q0 128 -51 182q-53 56 -174 56t-174 -56q-51 -54 -51 -182v-786q0 -129 51 -183q52 -55 174 -55t174 55q51 54 51 183v286h-233v101h344v-711h-68l-22 109q-61 -125 -242 -125h-16q-324 0 -324 303v860q0 303 328 303h16
q328 0 328 -303v-189z" />
    <glyph glyph-name="M.ss01" horiz-adv-x="1425" 
d="M1219 1376q75 -78 75 -229v-1147h-110v1100q0 248 -183 248q-97 0 -163 -66q-68 -71 -68 -182v-1100h-111v1100q0 248 -182 248q-98 0 -164 -66q-67 -70 -67 -182v-1100h-111v1434h111v-138q83 154 250 154q201 0 256 -174q82 174 266 174q130 0 201 -74z" />
    <glyph glyph-name="M.ss01137" horiz-adv-x="1425" 
d="M1219 1376q75 -78 75 -229v-1147h-110v1100q0 248 -183 248q-97 0 -163 -66q-68 -71 -68 -182v-1100h-111v1100q0 248 -182 248q-98 0 -164 -66q-67 -70 -67 -182v-1100h-111v1434h111v-138q83 154 250 154q201 0 256 -174q82 174 266 174q130 0 201 -74z" />
    <glyph glyph-name="N.ss01" horiz-adv-x="921" 
d="M791 0h-111v1100q0 248 -191 248q-106 0 -170 -64q-73 -67 -73 -184v-1100h-111v1434h111v-138q83 154 264 154q281 0 281 -303v-1147z" />
    <glyph glyph-name="N.ss01138" horiz-adv-x="921" 
d="M791 0h-111v1100q0 248 -191 248q-106 0 -170 -64q-73 -67 -73 -184v-1100h-111v1434h111v-138q83 154 264 154q281 0 281 -303v-1147z" />
    <glyph glyph-name="Nacute.ss01" horiz-adv-x="921" 
d="M549 1802h147l-198 -256h-88zM791 0h-111v1100q0 248 -191 248q-106 0 -170 -64q-73 -67 -73 -184v-1100h-111v1434h111v-138q83 154 264 154q281 0 281 -303v-1147z" />
    <glyph glyph-name="Nacute.ss01139" horiz-adv-x="921" 
d="M549 1802h147l-198 -256h-88zM791 0h-111v1100q0 248 -191 248q-106 0 -170 -64q-73 -67 -73 -184v-1100h-111v1434h111v-138q83 154 264 154q281 0 281 -303v-1147z" />
    <glyph glyph-name="Ncaron.ss01" horiz-adv-x="921" 
d="M698 1802h-112l-123 -176l-123 176h-113l183 -256h108zM791 0h-111v1100q0 248 -191 248q-106 0 -170 -64q-73 -67 -73 -184v-1100h-111v1434h111v-138q83 154 264 154q281 0 281 -303v-1147z" />
    <glyph glyph-name="Ncaron.ss01140" horiz-adv-x="921" 
d="M698 1802h-112l-123 -176l-123 176h-113l183 -256h108zM791 0h-111v1100q0 248 -191 248q-106 0 -170 -64q-73 -67 -73 -184v-1100h-111v1434h111v-138q83 154 264 154q281 0 281 -303v-1147z" />
    <glyph glyph-name="Ncommaaccent.ss01" horiz-adv-x="921" 
d="M791 0h-111v1100q0 248 -191 248q-106 0 -170 -64q-73 -67 -73 -184v-1100h-111v1434h111v-138q83 154 264 154q281 0 281 -303v-1147zM522 -143v-109q0 -160 -71 -287l-48 25q51 105 54 221h-56v150h121z" />
    <glyph glyph-name="Ncommaaccent.ss01141" horiz-adv-x="921" 
d="M791 0h-111v1100q0 248 -191 248q-106 0 -170 -64q-73 -67 -73 -184v-1100h-111v1434h111v-138q83 154 264 154q281 0 281 -303v-1147zM522 -143v-109q0 -160 -71 -287l-48 25q51 105 54 221h-56v150h121z" />
    <glyph glyph-name="Ntilde.ss01" horiz-adv-x="921" 
d="M256 1554v17q0 127 76 127q25 0 61 -25l29 -24l31 -27q81 -78 147 -78q70 0 113 49q45 51 45 150v33h-90v-17q0 -127 -72 -127q-41 0 -119 78q-46 42 -65 53q-42 25 -84 25q-70 0 -113 -49q-47 -56 -47 -152v-33h88zM791 0h-111v1100q0 248 -191 248q-106 0 -170 -64
q-73 -67 -73 -184v-1100h-111v1434h111v-138q83 154 264 154q281 0 281 -303v-1147z" />
    <glyph glyph-name="Ntilde.ss01143" horiz-adv-x="921" 
d="M256 1554v17q0 127 76 127q25 0 61 -25l29 -24l31 -27q81 -78 147 -78q70 0 113 49q45 51 45 150v33h-90v-17q0 -127 -72 -127q-41 0 -119 78q-46 42 -65 53q-42 25 -84 25q-70 0 -113 -49q-47 -56 -47 -152v-33h88zM791 0h-111v1100q0 248 -191 248q-106 0 -170 -64
q-73 -67 -73 -184v-1100h-111v1434h111v-138q83 154 264 154q281 0 281 -303v-1147z" />
    <glyph glyph-name="Q.ss01" 
d="M455 1450h16q328 0 328 -303v-860q0 -277 -277 -301q-15 -81 37 -115q51 -34 137 4l25 -86q-151 -65 -244 16q-86 77 -33 179q-317 3 -317 303v860q0 303 328 303zM688 324v786q0 128 -51 182q-53 56 -174 56t-174 -56q-51 -54 -51 -182v-786q0 -129 51 -183
q52 -55 174 -55t174 55q51 54 51 183z" />
    <glyph glyph-name="Q.ss01144" 
d="M455 1450h16q328 0 328 -303v-860q0 -277 -277 -301q-15 -81 37 -115q51 -34 137 4l25 -86q-151 -65 -244 16q-86 77 -33 179q-317 3 -317 303v860q0 303 328 303zM688 324v786q0 128 -51 182q-53 56 -174 56t-174 -56q-51 -54 -51 -182v-786q0 -129 51 -183
q52 -55 174 -55t174 55q51 54 51 183z" />
    <glyph glyph-name="R.ss01" horiz-adv-x="915" 
d="M793 1130v-217q0 -87 -50 -149q-50 -65 -131 -74q90 -12 138 -69q43 -52 43 -127v-301q0 -144 57 -162v-31h-76q-55 0 -76 61q-16 50 -16 132v272q0 96 -57 135q-50 33 -168 33h-211v-633h-111v1434h330q328 0 328 -304zM246 735h211q225 0 225 201v158q0 128 -51 182
q-52 55 -174 55h-211v-596z" />
    <glyph glyph-name="R.ss01145" horiz-adv-x="915" 
d="M793 1130v-217q0 -87 -50 -149q-50 -65 -131 -74q90 -12 138 -69q43 -52 43 -127v-301q0 -144 57 -162v-31h-76q-55 0 -76 61q-16 50 -16 132v272q0 96 -57 135q-50 33 -168 33h-211v-633h-111v1434h330q328 0 328 -304zM246 735h211q225 0 225 201v158q0 128 -51 182
q-52 55 -174 55h-211v-596z" />
    <glyph glyph-name="Racute.ss01" horiz-adv-x="915" 
d="M520 1802h148l-199 -256h-88zM793 1130v-217q0 -87 -50 -149q-50 -65 -131 -74q90 -12 138 -69q43 -52 43 -127v-301q0 -144 57 -162v-31h-76q-55 0 -76 61q-16 50 -16 132v272q0 96 -57 135q-50 33 -168 33h-211v-633h-111v1434h330q328 0 328 -304zM246 735h211
q225 0 225 201v158q0 128 -51 182q-52 55 -174 55h-211v-596z" />
    <glyph glyph-name="Racute.ss01146" horiz-adv-x="915" 
d="M520 1802h148l-199 -256h-88zM793 1130v-217q0 -87 -50 -149q-50 -65 -131 -74q90 -12 138 -69q43 -52 43 -127v-301q0 -144 57 -162v-31h-76q-55 0 -76 61q-16 50 -16 132v272q0 96 -57 135q-50 33 -168 33h-211v-633h-111v1434h330q328 0 328 -304zM246 735h211
q225 0 225 201v158q0 128 -51 182q-52 55 -174 55h-211v-596z" />
    <glyph glyph-name="Rcaron.ss01" horiz-adv-x="915" 
d="M670 1802h-113l-123 -176l-123 176h-112l182 -256h108zM793 1130v-217q0 -87 -50 -149q-50 -65 -131 -74q90 -12 138 -69q43 -52 43 -127v-301q0 -144 57 -162v-31h-76q-55 0 -76 61q-16 50 -16 132v272q0 96 -57 135q-50 33 -168 33h-211v-633h-111v1434h330
q328 0 328 -304zM246 735h211q225 0 225 201v158q0 128 -51 182q-52 55 -174 55h-211v-596z" />
    <glyph glyph-name="Rcaron.ss01147" horiz-adv-x="915" 
d="M670 1802h-113l-123 -176l-123 176h-112l182 -256h108zM793 1130v-217q0 -87 -50 -149q-50 -65 -131 -74q90 -12 138 -69q43 -52 43 -127v-301q0 -144 57 -162v-31h-76q-55 0 -76 61q-16 50 -16 132v272q0 96 -57 135q-50 33 -168 33h-211v-633h-111v1434h330
q328 0 328 -304zM246 735h211q225 0 225 201v158q0 128 -51 182q-52 55 -174 55h-211v-596z" />
    <glyph glyph-name="Rcommaaccent.ss01" horiz-adv-x="915" 
d="M793 1130v-217q0 -87 -50 -149q-50 -65 -131 -74q90 -12 138 -69q43 -52 43 -127v-301q0 -144 57 -162v-31h-76q-55 0 -76 61q-16 50 -16 132v272q0 96 -57 135q-50 33 -168 33h-211v-633h-111v1434h330q328 0 328 -304zM246 735h211q225 0 225 201v158q0 128 -51 182
q-52 55 -174 55h-211v-596zM545 -143v-109q0 -158 -72 -287l-47 25q50 103 53 221h-55v150h121z" />
    <glyph glyph-name="Rcommaaccent.ss01148" horiz-adv-x="915" 
d="M793 1130v-217q0 -87 -50 -149q-50 -65 -131 -74q90 -12 138 -69q43 -52 43 -127v-301q0 -144 57 -162v-31h-76q-55 0 -76 61q-16 50 -16 132v272q0 96 -57 135q-50 33 -168 33h-211v-633h-111v1434h330q328 0 328 -304zM246 735h211q225 0 225 201v158q0 128 -51 182
q-52 55 -174 55h-211v-596zM545 -143v-109q0 -158 -72 -287l-47 25q50 103 53 221h-55v150h121z" />
    <glyph glyph-name="W.ss01" horiz-adv-x="1421" 
d="M1180 1434h110v-1127q0 -161 -94 -246q-86 -77 -221 -77q-201 0 -266 153q-67 -153 -263 -153q-137 0 -221 75q-94 79 -94 228v1147h111v-1100q0 -248 207 -248q206 0 206 248v1100h111v-1100q0 -248 207 -248t207 248v1100z" />
    <glyph glyph-name="W.ss01149" horiz-adv-x="1421" 
d="M1180 1434h110v-1127q0 -161 -94 -246q-86 -77 -221 -77q-201 0 -266 153q-67 -153 -263 -153q-137 0 -221 75q-94 79 -94 228v1147h111v-1100q0 -248 207 -248q206 0 206 248v1100h111v-1100q0 -248 207 -248t207 248v1100z" />
    <glyph glyph-name="Wacute.ss01" horiz-adv-x="1421" 
d="M797 1802h147l-199 -256h-88zM1180 1434h110v-1127q0 -161 -94 -246q-86 -77 -221 -77q-201 0 -266 153q-67 -153 -263 -153q-137 0 -221 75q-94 79 -94 228v1147h111v-1100q0 -248 207 -248q206 0 206 248v1100h111v-1100q0 -248 207 -248t207 248v1100z" />
    <glyph glyph-name="Wacute.ss01150" horiz-adv-x="1421" 
d="M797 1802h147l-199 -256h-88zM1180 1434h110v-1127q0 -161 -94 -246q-86 -77 -221 -77q-201 0 -266 153q-67 -153 -263 -153q-137 0 -221 75q-94 79 -94 228v1147h111v-1100q0 -248 207 -248q206 0 206 248v1100h111v-1100q0 -248 207 -248t207 248v1100z" />
    <glyph glyph-name="Wcircumflex.ss01" horiz-adv-x="1421" 
d="M946 1546l-180 256h-111l-180 -256h113l123 176l123 -176h112zM1180 1434h110v-1127q0 -161 -94 -246q-86 -77 -221 -77q-201 0 -266 153q-67 -153 -263 -153q-137 0 -221 75q-94 79 -94 228v1147h111v-1100q0 -248 207 -248q206 0 206 248v1100h111v-1100
q0 -248 207 -248t207 248v1100z" />
    <glyph glyph-name="Wcircumflex.ss01151" horiz-adv-x="1421" 
d="M946 1546l-180 256h-111l-180 -256h113l123 176l123 -176h112zM1180 1434h110v-1127q0 -161 -94 -246q-86 -77 -221 -77q-201 0 -266 153q-67 -153 -263 -153q-137 0 -221 75q-94 79 -94 228v1147h111v-1100q0 -248 207 -248q206 0 206 248v1100h111v-1100
q0 -248 207 -248t207 248v1100z" />
    <glyph glyph-name="Wdieresis.ss01" horiz-adv-x="1421" 
d="M633 1690v-144h-117v144h117zM905 1690v-144h-117v144h117zM1180 1434h110v-1127q0 -161 -94 -246q-86 -77 -221 -77q-201 0 -266 153q-67 -153 -263 -153q-137 0 -221 75q-94 79 -94 228v1147h111v-1100q0 -248 207 -248q206 0 206 248v1100h111v-1100q0 -248 207 -248
t207 248v1100z" />
    <glyph glyph-name="Wdieresis.ss01152" horiz-adv-x="1421" 
d="M633 1690v-144h-117v144h117zM905 1690v-144h-117v144h117zM1180 1434h110v-1127q0 -161 -94 -246q-86 -77 -221 -77q-201 0 -266 153q-67 -153 -263 -153q-137 0 -221 75q-94 79 -94 228v1147h111v-1100q0 -248 207 -248q206 0 206 248v1100h111v-1100q0 -248 207 -248
t207 248v1100z" />
    <glyph glyph-name="Wgrave.ss01" horiz-adv-x="1421" 
d="M627 1802l139 -256h-88l-199 256h148zM1180 1434h110v-1127q0 -161 -94 -246q-86 -77 -221 -77q-201 0 -266 153q-67 -153 -263 -153q-137 0 -221 75q-94 79 -94 228v1147h111v-1100q0 -248 207 -248q206 0 206 248v1100h111v-1100q0 -248 207 -248t207 248v1100z" />
    <glyph glyph-name="Wgrave.ss01153" horiz-adv-x="1421" 
d="M627 1802l139 -256h-88l-199 256h148zM1180 1434h110v-1127q0 -161 -94 -246q-86 -77 -221 -77q-201 0 -266 153q-67 -153 -263 -153q-137 0 -221 75q-94 79 -94 228v1147h111v-1100q0 -248 207 -248q206 0 206 248v1100h111v-1100q0 -248 207 -248t207 248v1100z" />
    <glyph glyph-name="Y.ss01" horiz-adv-x="913" 
d="M672 1434h110v-1147q0 -303 -323 -303h-8q-324 0 -324 303v141h111v-104q0 -130 47 -183q49 -55 170 -55t170 55q47 53 47 183v413q-82 -153 -264 -153q-281 0 -281 303v547h111v-500q0 -250 190 -250q102 0 172 64q72 72 72 186v500z" />
    <glyph glyph-name="Y.ss01154" horiz-adv-x="913" 
d="M672 1434h110v-1147q0 -303 -323 -303h-8q-324 0 -324 303v141h111v-104q0 -130 47 -183q49 -55 170 -55t170 55q47 53 47 183v413q-82 -153 -264 -153q-281 0 -281 303v547h111v-500q0 -250 190 -250q102 0 172 64q72 72 72 186v500z" />
    <glyph glyph-name="Yacute.ss01" horiz-adv-x="913" 
d="M541 1802h147l-199 -256h-88zM672 1434h110v-1147q0 -303 -323 -303h-8q-324 0 -324 303v141h111v-104q0 -130 47 -183q49 -55 170 -55t170 55q47 53 47 183v413q-82 -153 -264 -153q-281 0 -281 303v547h111v-500q0 -250 190 -250q102 0 172 64q72 72 72 186v500z" />
    <glyph glyph-name="Yacute.ss01155" horiz-adv-x="913" 
d="M541 1802h147l-199 -256h-88zM672 1434h110v-1147q0 -303 -323 -303h-8q-324 0 -324 303v141h111v-104q0 -130 47 -183q49 -55 170 -55t170 55q47 53 47 183v413q-82 -153 -264 -153q-281 0 -281 303v547h111v-500q0 -250 190 -250q102 0 172 64q72 72 72 186v500z" />
    <glyph glyph-name="Ycircumflex.ss01" horiz-adv-x="913" 
d="M690 1546l-180 256h-111l-180 -256h113l123 176l123 -176h112zM672 1434h110v-1147q0 -303 -323 -303h-8q-324 0 -324 303v141h111v-104q0 -130 47 -183q49 -55 170 -55t170 55q47 53 47 183v413q-82 -153 -264 -153q-281 0 -281 303v547h111v-500q0 -250 190 -250
q102 0 172 64q72 72 72 186v500z" />
    <glyph glyph-name="Ycircumflex.ss01156" horiz-adv-x="913" 
d="M690 1546l-180 256h-111l-180 -256h113l123 176l123 -176h112zM672 1434h110v-1147q0 -303 -323 -303h-8q-324 0 -324 303v141h111v-104q0 -130 47 -183q49 -55 170 -55t170 55q47 53 47 183v413q-82 -153 -264 -153q-281 0 -281 303v547h111v-500q0 -250 190 -250
q102 0 172 64q72 72 72 186v500z" />
    <glyph glyph-name="Ydieresis.ss01" horiz-adv-x="913" 
d="M377 1690v-144h-117v144h117zM649 1690v-144h-117v144h117zM672 1434h110v-1147q0 -303 -323 -303h-8q-324 0 -324 303v141h111v-104q0 -130 47 -183q49 -55 170 -55t170 55q47 53 47 183v413q-82 -153 -264 -153q-281 0 -281 303v547h111v-500q0 -250 190 -250
q102 0 172 64q72 72 72 186v500z" />
    <glyph glyph-name="Ydieresis.ss01157" horiz-adv-x="913" 
d="M377 1690v-144h-117v144h117zM649 1690v-144h-117v144h117zM672 1434h110v-1147q0 -303 -323 -303h-8q-324 0 -324 303v141h111v-104q0 -130 47 -183q49 -55 170 -55t170 55q47 53 47 183v413q-82 -153 -264 -153q-281 0 -281 303v547h111v-500q0 -250 190 -250
q102 0 172 64q72 72 72 186v500z" />
    <glyph glyph-name="Ygrave.ss01" horiz-adv-x="913" 
d="M371 1802l139 -256h-88l-199 256h148zM672 1434h110v-1147q0 -303 -323 -303h-8q-324 0 -324 303v141h111v-104q0 -130 47 -183q49 -55 170 -55t170 55q47 53 47 183v413q-82 -153 -264 -153q-281 0 -281 303v547h111v-500q0 -250 190 -250q102 0 172 64q72 72 72 186
v500z" />
    <glyph glyph-name="Ygrave.ss01158" horiz-adv-x="913" 
d="M371 1802l139 -256h-88l-199 256h148zM672 1434h110v-1147q0 -303 -323 -303h-8q-324 0 -324 303v141h111v-104q0 -130 47 -183q49 -55 170 -55t170 55q47 53 47 183v413q-82 -153 -264 -153q-281 0 -281 303v547h111v-500q0 -250 190 -250q102 0 172 64q72 72 72 186
v500z" />
    <glyph glyph-name="bar.tf" horiz-adv-x="430" 
d="M266 -205h-102v1843h102v-1843z" />
    <glyph glyph-name="brokenbar.tf" horiz-adv-x="430" 
d="M164 901v737h102v-737h-102zM266 573v-778h-102v778h102z" />
    <glyph glyph-name="cent.tf" horiz-adv-x="860" 
d="M762 860h-111v70q0 125 -49 180q-51 57 -170 57t-170 -57q-49 -55 -49 -180v-426q0 -125 49 -180q52 -58 170 -58q219 0 219 238v104h111v-141q0 -277 -275 -301v-166h-106v166q-279 21 -279 301v500q0 280 279 301v166h106v-166q275 -24 275 -301v-107z" />
    <glyph glyph-name="colon.tf" horiz-adv-x="430" 
d="M276 922v-150h-120v150h120zM276 150v-150h-120v150h120z" />
    <glyph glyph-name="comma.tf" horiz-adv-x="430" 
d="M276 150v-109q0 -160 -71 -287l-47 25q50 103 53 221h-55v150h120z" />
    <glyph glyph-name="dollar.tf" horiz-adv-x="860" 
d="M756 467v-184q0 -276 -271 -297v-146h-106v146q-270 21 -270 297v233h110v-201q0 -119 49 -174q48 -57 164 -57q115 0 166 57q47 56 47 174v115q0 75 -35 119q-25 35 -116 86l-215 117q-93 52 -129 100q-41 56 -41 137v166q0 266 270 293v145h106v-145q267 -27 267 -293
v-217h-111v184q0 119 -47 172q-50 56 -164 56t-164 -56q-47 -53 -47 -172v-100q0 -76 33 -115q26 -32 113 -78l219 -120q172 -91 172 -242z" />
    <glyph glyph-name="eight.tf" horiz-adv-x="860" 
d="M399 1450h64q282 0 282 -303v-176q0 -91 -26 -142q-41 -75 -129 -84q91 -15 131 -102q14 -32 20 -76q4 -46 4 -69v-211q0 -303 -282 -303h-64q-282 0 -282 303v211q0 23 4 69q6 44 20 76q40 87 131 102q-88 9 -129 84q-26 51 -26 142v176q0 303 282 303zM635 969v153
q0 228 -184 228h-39q-185 0 -185 -228v-153q0 -178 185 -178h39q184 0 184 178zM635 311v203q0 178 -184 178h-39q-185 0 -185 -178v-203q0 -227 185 -227h39q184 0 184 227z" />
    <glyph glyph-name="five.tf" horiz-adv-x="860" 
d="M731 1333h-483v-518q77 109 237 109q112 0 179 -52q84 -66 84 -192v-401q0 -295 -308 -295h-4q-307 0 -307 295v200h109v-176q0 -219 200 -219q199 0 199 219v350q0 101 -53 142q-42 28 -111 28q-140 0 -225 -116l-111 26v701h594v-101z" />
    <glyph glyph-name="florin.tf" horiz-adv-x="860" 
d="M766 1331h-86q-109 0 -152 -55q-43 -52 -43 -182v-295h260l-24 -99h-236v-397q0 -303 -297 -303h-94v102h86q108 0 152 56q43 52 43 182v360h-260l24 99h236v331q0 304 297 304h94v-103z" />
    <glyph glyph-name="four.tf" horiz-adv-x="860" 
d="M645 1434v-953h160v-102h-160v-379h-108v379h-476v108l465 947h119zM537 1251l-377 -770h377v770z" />
    <glyph glyph-name="i.loclTRK" horiz-adv-x="399" 
d="M258 1690v-144h-119v144h119zM254 0h-111v1434h111v-1434z" />
    <glyph glyph-name="nine.tf" horiz-adv-x="860" 
d="M131 414h111v-111q0 -123 43 -172q44 -47 147 -47q104 0 148 47q43 49 43 172v365q-53 -95 -217 -95q-129 0 -205 64q-82 70 -82 199v319q0 295 305 295h4q305 0 305 -295v-876q0 -152 -67 -222q-70 -73 -232 -73h-4q-161 0 -231 73q-68 71 -68 222v135zM623 862v268
q0 122 -48 173q-47 47 -149 47q-103 0 -150 -47q-47 -50 -47 -173v-268q0 -188 197 -188t197 188z" />
    <glyph glyph-name="numbersign.tf" horiz-adv-x="860" 
d="M850 899h-160l-84 -364h182v-91h-202l-101 -444h-94l101 444h-248l-101 -444h-94l101 444h-140v91h160l84 364h-182v90h202l101 445h94l-100 -445h247l101 445h94l-100 -445h139v-90zM512 535l84 364h-248l-84 -364h248z" />
    <glyph glyph-name="one.ss01" horiz-adv-x="552" 
d="M387 0h-108v1321l-240 -113v105l260 121h88v-1434z" />
    <glyph glyph-name="one.tf" horiz-adv-x="860" 
d="M506 100h239v-100h-610v100h260v1219l-260 -113v107l281 121h90v-1334z" />
    <glyph glyph-name="percent.tf" horiz-adv-x="860" 
d="M186 1442h33q65 0 109 -41q51 -45 51 -135v-258q0 -91 -51 -136q-44 -41 -109 -41h-33q-66 0 -110 41q-51 45 -51 136v258q0 90 51 135q44 41 110 41zM772 1434l-600 -1434h-86l600 1434h86zM297 1026v221q0 119 -84 119h-23q-81 0 -81 -119v-221q0 -119 81 -119h23
q84 0 84 119zM641 602h33q64 0 108 -41q52 -46 52 -135v-258q0 -89 -52 -135q-44 -41 -108 -41h-33q-67 0 -111 41q-51 45 -51 135v258q0 90 51 135q44 41 111 41zM750 186v222q0 118 -82 118h-23q-82 0 -82 -118v-222q0 -118 82 -118h23q82 0 82 118z" />
    <glyph glyph-name="period.tf" horiz-adv-x="430" 
d="M274 150v-150h-118v150h118z" />
    <glyph glyph-name="semicolon.tf" horiz-adv-x="430" 
d="M276 922v-150h-120v150h120zM276 150v-109q0 -160 -71 -287l-47 25q50 103 53 221h-55v150h120z" />
    <glyph glyph-name="seven.tf" horiz-adv-x="860" 
d="M764 1350l-449 -1350h-112l446 1333h-571v101h686v-84z" />
    <glyph glyph-name="six.tf" horiz-adv-x="860" 
d="M729 1020h-111v110q0 124 -43 173q-44 47 -147 47t-147 -47q-43 -49 -43 -173v-364q52 94 217 94q129 0 204 -63q82 -70 82 -199v-319q0 -295 -305 -295h-4q-305 0 -305 295v876q0 150 68 221q71 74 231 74h4q161 0 232 -74q67 -70 67 -221v-135zM238 571v-268
q0 -122 47 -172q47 -47 149 -47q103 0 150 47q47 50 47 172v268q0 189 -197 189q-196 0 -196 -189z" />
    <glyph glyph-name="space.tf" horiz-adv-x="430" 
 />
    <glyph glyph-name="sterling.tf" horiz-adv-x="860" 
d="M762 938h-111v192q0 108 -28 156q-41 62 -142 62t-139 -62q-31 -48 -31 -156v-374h271v-94h-271q0 -489 -139 -560h569v-102h-663l-25 102q86 42 121 185q27 120 27 375h-144v94h144v391q0 303 278 303h4q279 0 279 -303v-209z" />
    <glyph glyph-name="three.tf" horiz-adv-x="860" 
d="M735 1147v-176q0 -89 -26 -140q-41 -74 -129 -86q93 -15 131 -83q13 -24 20 -62q4 -36 4 -61v-252q0 -303 -282 -303h-56q-282 0 -282 303v176h110v-152q0 -227 193 -227h14q193 0 193 227v224q0 157 -185 157h-147v99h127q205 0 205 178v153q0 228 -193 228h-18
q-193 0 -193 -228v-118h-106v143q0 303 303 303h14q303 0 303 -303z" />
    <glyph glyph-name="two.tf" horiz-adv-x="860" 
d="M131 958v197q0 295 303 295h4q303 0 303 -295v-217q0 -90 -82 -178q-46 -52 -196 -166q-122 -94 -170 -154q-55 -70 -55 -161v-179h503v-100h-614v283q0 126 82 227q62 75 201 176q115 84 163 135q58 64 58 137v172q0 220 -199 220q-192 0 -192 -220v-172h-109z" />
    <glyph glyph-name="yen.tf" horiz-adv-x="860" 
d="M805 1434l-279 -762h205v-80h-233l-13 -33v-106h246v-80h-246v-373h-110v373h-271v80h271v106l-13 33h-258v80h230l-279 762h117l258 -744l258 744h117z" />
    <glyph glyph-name="zero.tf" horiz-adv-x="860" 
d="M422 1450h16q312 0 312 -303v-860q0 -303 -312 -303h-16q-311 0 -311 303v860q0 303 311 303zM639 324v786q0 238 -209 238t-209 -238v-786q0 -238 209 -238t209 238z" />
    </font>
</defs>
</svg>
