<?xml version="1.0" standalone="no"?>
<!DOCTYPE svg PUBLIC "-//W3C//DTD SVG 1.1//EN" "http://www.w3.org/Graphics/SVG/1.1/DTD/svg11.dtd" >
<svg xmlns="http://www.w3.org/2000/svg" xmlns:xlink="http://www.w3.org/1999/xlink" version="1.1">
<metadata>
Created by FontForge 20170731 at Tue Jul  4 06:28:54 2023
 By Aleksey,,,
2011
</metadata>
<defs>
<font id="iCielBCCubano-Normal" horiz-adv-x="1187" >
  <font-face 
    font-family="iCielBC Cubano Normal"
    font-weight="400"
    font-stretch="normal"
    units-per-em="2048"
    panose-1="0 0 5 0 0 0 0 0 0 0"
    ascent="1638"
    descent="-410"
    x-height="1434"
    cap-height="1434"
    bbox="-913.5 -410 1828.17 2220.25"
    underline-thickness="102"
    underline-position="-307"
    unicode-range="U+0020-2260"
  />
<missing-glyph horiz-adv-x="512" 
 />
    <glyph glyph-name=".notdef" horiz-adv-x="512" 
 />
    <glyph glyph-name=".null" horiz-adv-x="0" 
 />
    <glyph glyph-name="nonmarkingreturn" horiz-adv-x="682" 
 />
    <glyph glyph-name="space" unicode=" " horiz-adv-x="614" 
 />
    <glyph glyph-name="exclam" unicode="!" horiz-adv-x="679" 
d="M184 1434q-30 0 -46 -16t-15 -46l41 -860q3 -61 61 -61h230q58 0 61 61l41 860q3 62 -61 62h-312zM225 352q-61 0 -61 -61v-230q0 -61 61 -61h230q61 0 61 61v230q0 61 -61 61h-230z" />
    <glyph glyph-name="quotedbl" unicode="&#x22;" horiz-adv-x="802" 
d="M123 1536q-31 0 -48 -15.5t-14 -45.5l41 -332q10 -62 62 -62h106q29 0 43 15.5t19 46.5l41 332q3 30 -13.5 45.5t-48.5 15.5h-188zM492 1536q-31 0 -48 -15.5t-14 -45.5l41 -332q10 -62 61 -62h107q29 0 42.5 15.5t18.5 46.5l41 332q6 61 -61 61h-188z" />
    <glyph glyph-name="numbersign" unicode="#" horiz-adv-x="1228" 
d="M963 819q-17 0 -23 -18l-35 -164q-3 -23 19 -23h194q32 0 47 -17.5t9 -49.5l-17 -82q-12 -55 -67 -55h-213q-20 0 -23 -19l-72 -336q-12 -55 -67 -55h-80q-32 0 -46.5 18t-8.5 50l67 319q3 10 -2 16.5t-16 6.5h-162q-20 0 -23 -19l-71 -336q-12 -55 -68 -55h-80
q-32 0 -46.5 18t-8.5 50l68 319q3 10 -2.5 16.5t-16.5 6.5h-192q-70 0 -58 67l17 82q12 55 69 55h213q17 0 23 19l35 164q3 22 -19 22h-194q-32 0 -47 18t-9 50l17 82q12 55 67 55h213q20 0 23 18l72 336q12 56 67 56h80q32 0 46.5 -18t8.5 -50l-67 -319q-3 -10 2 -16.5
t16 -6.5h162q19 0 22 18l72 336q12 56 68 56h80q32 0 46.5 -18t8.5 -50l-68 -319q-3 -10 2.5 -16.5t16.5 -6.5h192q32 0 47 -18t9 -50l-17 -82q-12 -55 -67 -55h-213zM735 797q3 22 -18 22h-164q-17 0 -23 -18l-34 -164q-3 -23 18 -23h164q16 0 22 19z" />
    <glyph glyph-name="dollar" unicode="$" horiz-adv-x="1185" 
d="M786 905q-56 -14 -65 47q-26 132 -150 129q-52 -1 -76 -30t-16 -62q7 -31 43.5 -56t89.5 -45t116.5 -42.5t125 -56.5t112.5 -78.5t83.5 -117.5t33.5 -165q1 -16 -3 -41.5t-14.5 -65.5t-35 -81.5t-59.5 -81.5t-94 -73.5t-132 -51.5v-127q0 -62 -61 -62h-229
q-29 -1 -45.5 15t-16.5 45v135q-261 77 -291 391q-3 53 50 66l217 51q54 12 63 -47q8 -77 40.5 -113t111.5 -35q78 1 109 37t22 74q-8 34 -44.5 59.5t-88 44t-112 38.5t-120 51t-108.5 73.5t-80 113.5t-33 163q-1 15 0 33.5t6.5 52t16 65.5t31.5 70t50 69t74.5 59t102.5 44
v127q0 61 61 61h229q62 0 62 -61v-131q65 -19 116 -53.5t81 -72.5t51 -84.5t29.5 -84t11.5 -76.5q6 -54 -47 -66z" />
    <glyph glyph-name="percent" unicode="%" horiz-adv-x="1327" 
d="M1219 1434q34 0 43.5 -20t-9.5 -52l-962 -1313q-30 -49 -82 -49h-100q-34 0 -44.5 20t9.5 52l962 1312q27 50 82 50h101zM299 918q-85 0 -146 60.5t-61 145.5t61 146t146 61t146 -61t61 -146t-61 -145.5t-146 -60.5zM1028 102q-85 0 -146 61t-61 146t61 146t146 61
t146 -61t61 -146t-61 -146t-146 -61z" />
    <glyph glyph-name="ampersand" unicode="&#x26;" horiz-adv-x="1314" 
d="M1214 440q39 -46 -4 -86q-50 -46 -94 -82q-15 -15 -2 -28l43 -49q43 -46 -6 -86l-137 -107q-47 -38 -86 10l-45 56q-12 14 -29 4q-165 -109 -367 -109q-137 0 -241.5 65.5t-153.5 164.5q-30 62 -34.5 132t15.5 142t72.5 144.5t133.5 133.5q20 13 4 29q-152 187 -103 402
q15 65 48 119.5t87 98t135.5 64t182.5 10.5q122 -12 209 -74t122 -155.5t15 -200.5q-23 -102 -72.5 -184.5t-152.5 -161.5q-17 -13 -2 -28l129 -148q12 -15 28 -2q58 46 90 78q47 41 86 -4zM469 1104q-8 -38 4 -69.5t62 -100.5q12 -15 28 -6q104 69 119 135q7 38 -17 79
t-73 46q-49 6 -82 -19.5t-41 -64.5zM410 315q33 -41 101 -40t132 40q18 12 4 29q-48 56 -137 164q-14 14 -27 4q-30 -22 -50.5 -42.5t-35.5 -46t-12 -53t25 -55.5z" />
    <glyph glyph-name="quotesingle" unicode="'" horiz-adv-x="434" 
d="M123 1536q-31 0 -48 -15.5t-14 -45.5l41 -332q10 -62 62 -62h106q29 0 43 15.5t19 46.5l41 332q3 30 -13.5 45.5t-48.5 15.5h-188z" />
    <glyph glyph-name="parenleft" unicode="(" horiz-adv-x="604" 
d="M512 1348q31 39 31 75v115q0 40 -23.5 51t-52.5 -16q-181 -164 -303.5 -413t-122.5 -511q0 -259 121 -501t301 -408q31 -27 55.5 -15t24.5 54v106q0 39 -31 78q-108 121 -171 305t-65 377q-2 199 61.5 389.5t174.5 313.5z" />
    <glyph glyph-name="parenright" unicode=")" horiz-adv-x="604" 
d="M92 1348q111 -123 174.5 -313.5t61.5 -389.5q-2 -193 -65 -377t-171 -305q-31 -39 -31 -78v-106q0 -42 24.5 -54t55.5 15q180 166 301 408t121 501q0 262 -122.5 511t-303.5 413q-29 27 -52.5 16t-23.5 -51v-115q0 -36 31 -75z" />
    <glyph glyph-name="asterisk" unicode="*" horiz-adv-x="819" 
d="M784 1278q3 -22 -10 -43t-43 -25l-158 -39q-11 -3 -13 -11t5 -17l107 -125q22 -28 18 -55.5t-28 -38.5l-68 -47q-17 -13 -41.5 -6t-42.5 34l-84 142q-6 9 -14.5 9t-14.5 -9l-86 -142q-17 -27 -41.5 -34t-42.5 6l-73 53h-2q-18 15 -18 39.5t18 48.5l106 125q16 19 -8 26
l-176 45q-24 9 -32.5 28.5t-0.5 39.5l29 92q9 20 32.5 26.5t51.5 -3.5l147 -62q25 -9 25 17l-15 164q0 29 16 48t38 19h94q24 0 37.5 -20t13.5 -50l-12 -161q0 -26 22 -17l150 62q28 12 52.5 3.5t33.5 -32.5l28 -88v-2z" />
    <glyph glyph-name="plus" unicode="+" horiz-adv-x="1429" 
d="M1245 846q62 0 62 -62v-229q0 -61 -62 -61h-334q-20 0 -20 -21v-334q0 -61 -62 -61h-229q-61 0 -61 61v334q0 21 -21 21h-334q-61 0 -61 61v229q0 62 61 62h334q21 0 21 20v334q0 29 16 45.5t45 16.5h229q62 0 62 -62v-334q0 -20 20 -20h334z" />
    <glyph glyph-name="comma" unicode="," horiz-adv-x="485" 
d="M143 352q-61 0 -61 -61v-230q0 -61 61 -61h95q20 0 20 -20q-4 -85 -65 -158q-14 -17 -8 -31.5t26 -13.5q113 11 168 88t55 196v230q0 61 -61 61h-230z" />
    <glyph glyph-name="hyphen" unicode="-" horiz-adv-x="571" 
d="M61 784q0 62 62 62h326q61 0 61 -62v-229q0 -61 -61 -61h-326q-29 0 -45.5 16t-16.5 45v229z" />
    <glyph glyph-name="period" unicode="." horiz-adv-x="485" 
d="M143 352q-61 0 -61 -61v-230q0 -61 61 -61h230q61 0 61 61v230q0 61 -61 61h-230z" />
    <glyph glyph-name="slash" unicode="/" horiz-adv-x="1228" 
d="M981 1571q34 0 47.5 -20t1.5 -52l-610 -1655q-18 -49 -72 -49h-100q-34 0 -47.5 20t-1.5 52l610 1655q18 49 72 49h100z" />
    <glyph glyph-name="zero" unicode="0" horiz-adv-x="1228" 
d="M1128 717q0 -53 -1.5 -97t-7.5 -106t-16.5 -112.5t-29.5 -109t-45 -104t-65.5 -89t-88 -72.5t-115 -46.5t-145.5 -17.5t-145.5 17.5t-115 46.5t-88 72.5t-65.5 89t-45 104t-29.5 109t-16.5 112.5t-7.5 106t-1.5 97q0 57 1 99t6.5 106.5t15 113t28 108.5t44 103.5t65 88
t88.5 72t117 45t149 17.5q104 0 186.5 -29t135.5 -72t91 -112.5t57 -129.5t29.5 -145t12.5 -137.5t2 -127.5zM614 1118q-37 0 -64.5 -14.5t-45 -44.5t-28 -63t-15.5 -84t-6.5 -92.5t-1.5 -102.5q0 -58 0.5 -88.5t3.5 -80.5t9 -77.5t17.5 -61.5t28.5 -51.5t43 -30t59 -12.5
q37 0 64.5 14.5t45 44.5t28.5 63.5t16 84.5t6.5 92.5t1.5 102.5q0 44 -0.5 69t-2 64.5t-4 63t-8.5 55.5t-14 50.5t-20 40t-28 32.5t-37.5 18.5t-47.5 7.5z" />
    <glyph glyph-name="one" unicode="1" horiz-adv-x="778" 
d="M397 1434q-12 0 -26 -7l-262 -157q-41 -23 -41 -74v-111q0 -61 61 -61h88q62 0 62 -61v-902q0 -61 61 -61h227q62 0 62 61v1311q0 62 -62 62h-170z" />
    <glyph glyph-name="two" unicode="2" horiz-adv-x="1167" 
d="M1004 352q61 0 61 -61v-230q0 -61 -61 -61h-873q-61 0 -61 61v177q0 96 33.5 181.5t87 148.5t119 117.5t132 97.5t123 80t95 73t45.5 68q9 48 -17 81t-84 33q-135 0 -158 -137q-9 -62 -67 -51l-234 51q-56 12 -53 68q4 52 16.5 101t48 110t88 105t146 74.5t213.5 30.5
q94 0 170.5 -20.5t124.5 -52t84 -75t53.5 -83t27.5 -82.5t12 -67t1 -43q0 -82 -29.5 -152t-78.5 -120.5t-108.5 -94.5t-122 -80.5t-117 -70.5t-96.5 -73.5t-56 -80.5q-7 -23 18 -23h517z" />
    <glyph glyph-name="three" unicode="3" horiz-adv-x="1208" 
d="M166 981q-56 12 -53 68q4 52 16.5 101t48 110t88 105t146 74.5t213.5 30.5t214.5 -36.5t152 -98.5t86 -142t24.5 -171q-5 -111 -48.5 -186.5t-97.5 -108.5q-23 -10 0 -20q54 -33 97.5 -108.5t48.5 -186.5q4 -91 -24.5 -171t-86 -142.5t-152 -99t-214.5 -36.5t-213.5 30.5
t-146 75t-88 105.5t-48 110t-16.5 101q-3 56 53 68l233 51q59 11 68 -51q23 -138 158 -138q64 0 98.5 51.5t3.5 112.5q-48 88 -201 107q-61 6 -61 61v139q0 56 61 62q154 19 201 106q33 61 -2.5 112.5t-99.5 51.5q-135 0 -158 -137q-9 -62 -68 -51z" />
    <glyph glyph-name="four" unicode="4" horiz-adv-x="1228" 
d="M1180 553q0 -61 -62 -61h-24q-62 0 -62 -62v-369q0 -61 -61 -61h-230q-61 0 -61 61v369q0 62 -62 62h-518q-61 0 -61 61v287l12 41l176 350q13 26 28 37.5t42 11.5h225q35 0 50.5 -20t0.5 -50l-172 -344q-6 -22 17 -22h200q62 0 62 61v508q0 62 61 62h230q61 0 61 -62
v-508q0 -29 16.5 -45t45.5 -16h24q62 0 62 -62v-229z" />
    <glyph glyph-name="five" unicode="5" horiz-adv-x="1208" 
d="M1085 1143q0 -62 -61 -62h-514q-21 0 -21 -20v-41q0 -29 16.5 -45.5t45.5 -16.5h63q109 0 198 -33.5t145.5 -85.5t95.5 -119.5t55 -132.5t16 -126q0 -68 -16 -134.5t-54.5 -133t-95.5 -117t-146 -82t-198 -31.5q-120 0 -213.5 30.5t-146 75t-88 105.5t-48 110t-16.5 101
q-3 56 54 68l233 51q59 11 68 -51q23 -138 157 -138q69 0 103 45t26 101q-12 83 -73 120t-181 37h-290q-29 0 -45.5 16.5t-16.5 45.5v692q0 29 16.5 45.5t45.5 16.5h825q61 0 61 -62v-229z" />
    <glyph glyph-name="six" unicode="6" horiz-adv-x="1126" 
d="M899 1434q42 0 49 -20t-26 -48q-118 -103 -228.5 -225t-148.5 -215q-4 -12 2.5 -18.5t21.5 -4.5q116 11 213.5 -20t161 -93t98.5 -147t35 -182q0 -102 -33 -191t-95.5 -158t-161.5 -109t-224 -40t-224 40t-161.5 109t-95.5 158t-33 191q0 101 29.5 225.5t84.5 255
t147.5 256t205.5 211.5q35 25 76 25h307zM563 578q-71 0 -116.5 -39.5t-45.5 -114.5q0 -76 43 -115t119 -39q71 0 116.5 39.5t45.5 114.5q0 76 -43 115t-119 39z" />
    <glyph glyph-name="seven" unicode="7" horiz-adv-x="1167" 
d="M229 0q-34 0 -47 20t2 52l439 985q10 24 -15 24h-504q-29 0 -45 16.5t-16 45.5v229q0 62 61 62h1029q35 0 45.5 -21t-4.5 -53l-588 -1313q-20 -47 -72 -47h-285z" />
    <glyph glyph-name="eight" unicode="8" horiz-adv-x="1228" 
d="M991 791q137 -116 137 -322q0 -101 -33 -190.5t-95 -159.5t-162 -111t-224 -41t-224 41t-162 111t-95 159.5t-33 190.5q0 211 136 326q-89 118 -89 280q0 186 114.5 290.5t352.5 104.5q228 0 347.5 -106t119.5 -289q0 -162 -90 -284zM467 1038q0 -66 39 -100.5t108 -34.5
q65 0 106.5 35t41.5 100q0 70 -39.5 106t-108.5 36q-65 0 -106 -36.5t-41 -105.5zM614 319q71 0 116.5 39t45.5 111q0 76 -43 112.5t-119 36.5q-72 0 -116.5 -37.5t-44.5 -111.5q0 -73 43 -111.5t118 -38.5z" />
    <glyph glyph-name="nine" unicode="9" horiz-adv-x="1146" 
d="M260 0q-41 0 -50.5 22.5t19.5 51.5q97 99 195 223.5t139 212.5q4 10 -2 17.5t-20 7.5q-236 9 -359 124.5t-123 313.5q0 102 33 191t95.5 158t161.5 108.5t224 39.5t224 -39.5t161.5 -108.5t95.5 -158t33 -191q0 -184 -131 -445.5t-321 -492.5q-28 -35 -74 -35h-301z
M573 856q71 0 116.5 39.5t45.5 114.5q0 76 -43 114.5t-119 38.5q-71 0 -116 -39t-45 -114q0 -76 42.5 -115t118.5 -39z" />
    <glyph glyph-name="colon" unicode=":" horiz-adv-x="557" 
d="M164 901q-62 0 -62 -61v-230q0 -29 16.5 -45t45.5 -16h229q62 0 62 61v230q0 61 -62 61h-229zM164 352q-62 0 -62 -61v-230q0 -29 16.5 -45t45.5 -16h229q62 0 62 61v230q0 61 -62 61h-229z" />
    <glyph glyph-name="semicolon" unicode=";" horiz-adv-x="516" 
d="M143 901q-61 0 -61 -61v-230q0 -61 61 -61h230q61 0 61 61v230q0 61 -61 61h-230zM143 352q-61 0 -61 -61v-230q0 -61 61 -61h95q20 0 20 -20q-4 -85 -65 -158q-14 -17 -8 -31.5t26 -13.5q118 12 170.5 79.5t52.5 204.5v230q0 61 -61 61h-230z" />
    <glyph glyph-name="equal" unicode="=" horiz-adv-x="1347" 
d="M143 1026q0 61 62 61h938q61 0 61 -61v-229q0 -62 -61 -62h-938q-29 0 -45.5 16.5t-16.5 45.5v229zM143 512q0 61 62 61h938q61 0 61 -61v-229q0 -62 -61 -62h-938q-29 0 -45.5 16.5t-16.5 45.5v229z" />
    <glyph glyph-name="question" unicode="?" horiz-adv-x="1228" 
d="M506 457q-31 0 -47 17.5t-10 49.5q11 65 35.5 116t53 80.5t61.5 59t61 53.5t51.5 62.5t33.5 87.5q10 50 -17 92.5t-83 42.5q-135 0 -158 -137q-9 -62 -67 -51l-234 51q-56 12 -53 68q4 52 16.5 101t48 110t88 105t146 74.5t213.5 30.5q94 0 170.5 -20.5t124.5 -52t84 -75
t53.5 -83t27.5 -82.5t12 -67t1 -43q0 -95 -24.5 -168.5t-64 -120.5t-80.5 -83.5t-82 -79.5t-60 -87q-20 -51 -70 -51h-231zM500 352q-62 0 -62 -61v-230q0 -29 16.5 -45t45.5 -16h229q62 0 62 61v230q0 61 -62 61h-229z" />
    <glyph glyph-name="at" unicode="@" horiz-adv-x="1712" 
d="M1112 141q39 -57 -16 -92q-75 -47 -248 -55q-153 -7 -291.5 46.5t-238 151t-158 235t-58.5 290.5t60 292.5t161 240.5t240.5 160.5t292.5 59.5t292.5 -59.5t240.5 -160.5t161 -240.5t60 -292.5q0 -96 -18.5 -176t-57 -145.5t-106.5 -102.5t-160 -37q-70 0 -127.5 22.5
t-93.5 59t-58 71t-35 70.5q-5 14 -8 -2q-15 -50 -89 -70.5t-157 3.5q-82 27 -131 114.5t-49 192.5q0 138 86 227.5t221 89.5q39 0 70 -12t31 -31q0 43 67 43h86q68 0 68 -65v-252q0 -124 34.5 -181t84.5 -57q53 0 87 57t34 181q0 144 -71.5 266t-194.5 193t-269 71
q-144 0 -265.5 -71t-192 -193t-70.5 -266q0 -108 40.5 -203.5t110 -161.5t166 -100.5t203.5 -26.5q62 6 127 23q60 15 88 -31zM827 610q42 0 72.5 28.5t34.5 78.5q6 54 -18.5 82t-67.5 28q-42 0 -73.5 -28t-35.5 -82q-4 -50 21.5 -78.5t66.5 -28.5z" />
    <glyph glyph-name="A" unicode="A" 
d="M1096 938q0 63 -3.5 111.5t-15.5 106.5t-33 100.5t-59 85t-90 69t-128.5 43t-172.5 16.5t-172.5 -16.5t-128.5 -43t-90 -69t-59 -85t-33 -100.5t-15.5 -106.5t-3.5 -111.5v-868q0 -34 16.5 -52t45.5 -18h229q61 0 61 61v179q0 61 62 61h176q61 0 61 -61v-179
q0 -61 62 -61h229q62 0 62 70v868zM743 717q0 -61 -61 -64h-176q-29 0 -45.5 16.5t-16.5 45.5v223q0 41 4.5 65t19.5 44.5t45.5 29t80.5 8.5q95 0 122 -32.5t27 -114.5v-221z" />
    <glyph glyph-name="B" unicode="B" horiz-adv-x="1200" 
d="M594 1434q285 0 408.5 -118t123.5 -374q0 -69 -24 -152t-80 -145q64 -30 104.5 -102.5t40.5 -165.5q0 -132 -43.5 -212t-153.5 -122.5t-300 -42.5h-506q-29 0 -45.5 16t-16.5 45v1309q0 61 62 64h430zM627 803q42 0 65.5 4t44 17.5t29 42t8.5 75.5t-8.5 75.5t-29 42
t-44 17.5t-65.5 4h-111q-61 0 -61 -61v-156q0 -61 61 -61h111zM643 291q82 0 115 19.5t33 86.5q0 68 -32.5 89.5t-111.5 21.5h-133q-61 0 -61 -62v-94q0 -61 61 -61h129z" />
    <glyph glyph-name="C" unicode="C" horiz-adv-x="1146" 
d="M82 973q0 37 2.5 71t14.5 86t32 95.5t59 90.5t91.5 79.5t133.5 53.5t181 21q90 0 165 -17t126 -44.5t91 -66.5t63 -78.5t38 -86t21 -82.5t8 -75q1 -22 -11 -37t-34 -20l-227 -52q-32 -6 -54.5 12.5t-27.5 51.5q-8 72 -43.5 107.5t-114.5 35.5q-45 0 -75.5 -12t-47.5 -31
t-26 -54.5t-11 -68.5t-2 -88v-295q0 -55 2 -88t11 -68.5t26 -54.5t47.5 -31t75.5 -12q80 0 113 36t43 112q5 33 27 49.5t52 9.5l232 -51q22 -5 34 -20.5t11 -38.5q-3 -56 -14 -107.5t-45 -117t-86.5 -112.5t-147.5 -79.5t-219 -32.5q-100 0 -181 21t-133.5 53.5t-91.5 79.5
t-59 90.5t-32 96t-14.5 86.5t-2.5 71v512z" />
    <glyph glyph-name="D" unicode="D" horiz-adv-x="1214" 
d="M621 1434q144 0 242.5 -29t158 -91.5t85.5 -152.5t26 -219v-448q0 -129 -26 -219.5t-85.5 -153t-158 -92t-242.5 -29.5h-457q-29 0 -45.5 16t-16.5 45v1309q0 61 62 64h457zM627 352q80 0 113.5 26.5t33.5 113.5v450q0 47 -8.5 75.5t-29 42t-44 17.5t-65.5 4h-111
q-61 0 -61 -61v-606q0 -29 16 -45.5t45 -16.5h111z" />
    <glyph glyph-name="E" unicode="E" horiz-adv-x="1140" 
d="M164 1434q-62 0 -62 -62v-1311q0 -29 16.5 -45t45.5 -16h860q61 0 61 61v230q0 61 -61 61h-496q-29 0 -45 16.5t-16 45.5v65q0 62 61 62h318q61 0 61 61v229q0 62 -61 62h-318q-61 0 -61 61v66q0 61 61 61h496q61 0 61 62v229q0 62 -61 62h-860z" />
    <glyph glyph-name="F" unicode="F" horiz-adv-x="1126" 
d="M164 1434q-62 0 -62 -62v-1311q0 -29 16.5 -45t45.5 -16h242q61 0 61 61v418q0 62 61 62h338q62 0 62 61v229q0 62 -62 62h-338q-61 0 -61 61v66q0 61 61 61h516q62 0 62 62v229q0 62 -62 62h-880z" />
    <glyph glyph-name="G" unicode="G" 
d="M82 973q0 37 2.5 71t14.5 86t32 95.5t59 90.5t91.5 79.5t133.5 53.5t181 21q89 0 163 -16.5t125 -43t90.5 -64.5t63 -76.5t39.5 -84t22.5 -82t8.5 -75.5q3 -55 -53 -67l-232 -52q-61 -12 -67 54q-6 79 -41.5 117t-118.5 38q-45 0 -75.5 -12t-47.5 -31t-26 -54.5
t-11 -68.5t-2 -88v-295q0 -55 2 -88t11 -68.5t26 -54.5t47.5 -31t75.5 -12q44 0 75 11.5t47.5 28.5t26 45.5t11.5 52t2 59.5h-119q-61 0 -61 61v164q0 62 61 62h410q61 0 61 -62v-276q0 -37 -2.5 -71t-14.5 -86.5t-32 -96t-59 -90.5t-91.5 -79.5t-133.5 -53.5t-181 -21
t-181 21t-133.5 53.5t-91.5 79.5t-59 90.5t-32 96t-14.5 86.5t-2.5 71v512z" />
    <glyph glyph-name="H" unicode="H" horiz-adv-x="1228" 
d="M164 1434q-62 0 -62 -62v-1311q0 -29 16.5 -45t45.5 -16h229q62 0 62 61v324q0 61 61 61h197q61 0 61 -61v-324q0 -29 16.5 -45t45.5 -16h229q61 0 61 61v1311q0 62 -61 62h-229q-29 0 -45.5 -16.5t-16.5 -45.5v-512q0 -61 -61 -61h-197q-61 0 -61 61v512
q0 29 -16.5 45.5t-45.5 16.5h-229z" />
    <glyph glyph-name="I" unicode="I" horiz-adv-x="552" 
d="M164 1434q-62 0 -62 -62v-1311q0 -29 16.5 -45t45.5 -16h225q62 0 62 61v1311q0 62 -62 62h-225z" />
    <glyph glyph-name="J" unicode="J" horiz-adv-x="1138" 
d="M983 1434q28 0 46 -18t18 -46v-909q0 -37 -3 -71t-15 -86.5t-32 -96t-59 -90.5t-91.5 -79.5t-133.5 -53.5t-181 -21q-90 0 -165 17t-126 44.5t-91 66.5t-63 78.5t-38 86t-21 83t-8 75.5q-1 21 11.5 36.5t34.5 20.5l227 51q32 6 54.5 -12t27.5 -51q8 -72 43 -108t114 -36
q45 0 75.5 12t47.5 31t26 54.5t11 68.5t2 88v801q0 28 18 46t46 18h225z" />
    <glyph glyph-name="K" unicode="K" horiz-adv-x="1275" 
d="M1253 74q21 -31 9.5 -52.5t-48.5 -21.5h-307q-48 0 -73 41l-254 389q-6 9 -14.5 9t-14.5 -9l-84 -115q-8 -11 -8 -26v-228q0 -61 -62 -61h-233q-29 0 -45.5 16t-16.5 45v1311q0 62 62 62h233q62 0 62 -62v-411q0 -15 8.5 -18t15.5 9l322 443q26 39 74 39h303
q38 0 49.5 -22t-10.5 -54l-414 -570q-10 -16 0 -28z" />
    <glyph glyph-name="L" unicode="L" horiz-adv-x="1058" 
d="M164 1434q-62 0 -62 -62v-1311q0 -29 16.5 -45t45.5 -16h809q61 0 61 61v230q0 61 -61 61h-457q-29 0 -45 16.5t-16 45.5v958q0 62 -62 62h-229z" />
    <glyph glyph-name="M" unicode="M" horiz-adv-x="1622" 
d="M164 1434q-62 0 -62 -62v-1311q0 -61 62 -61h229q62 0 62 61v807q0 11 9.5 11.5t12.5 -9.5l199 -817q12 -53 67 -53h136q55 0 67 53l199 817q3 10 12.5 9.5t9.5 -11.5v-807q0 -29 16.5 -45t45.5 -16h229q62 0 62 61v1311q0 62 -62 62h-424q-52 0 -65 -56l-146 -596
q-3 -15 -12 -15t-12 15l-146 596q-13 56 -65 56h-424z" />
    <glyph glyph-name="N" unicode="N" horiz-adv-x="1294" 
d="M164 1434q-62 0 -62 -62v-1311q0 -29 16.5 -45t45.5 -16h229q62 0 62 61v662q0 15 9 17t15 -11l279 -682q20 -47 71 -47h301q62 0 62 61v1311q0 62 -62 62h-229q-61 0 -61 -62v-661q0 -15 -9.5 -17.5t-15.5 11.5l-278 681q-20 48 -72 48h-301z" />
    <glyph glyph-name="O" unicode="O" horiz-adv-x="1191" 
d="M1110 461q0 -37 -2.5 -71t-14.5 -86.5t-32 -96t-59 -90.5t-91.5 -79.5t-133.5 -53.5t-181 -21t-181 21t-133.5 53.5t-91.5 79.5t-59 90.5t-32 96t-14.5 86.5t-2.5 71v512q0 37 2.5 71t14.5 86t32 95.5t59 90.5t91.5 79.5t133.5 53.5t181 21t181 -21t133.5 -53.5
t91.5 -79.5t59 -90.5t32 -95.5t14.5 -86t2.5 -71v-512zM758 864q0 55 -2 88t-11 68.5t-26 54.5t-47.5 31t-75.5 12t-75.5 -12t-47.5 -31t-26 -54.5t-11 -68.5t-2 -88v-295q0 -55 2 -88t11 -68.5t26 -54.5t47.5 -31t75.5 -12t75.5 12t47.5 31t26 54.5t11 68.5t2 88v295z" />
    <glyph glyph-name="P" unicode="P" horiz-adv-x="1150" 
d="M614 1434q271 0 391.5 -118.5t120.5 -373.5t-120.5 -373t-391.5 -118h-98q-61 0 -61 -62v-328q0 -61 -62 -61h-229q-29 0 -45.5 16t-16.5 45v1309q0 61 62 64h450zM627 803q42 0 65.5 4t44 17.5t29 42t8.5 75.5t-8.5 75.5t-29 42t-44 17.5t-65.5 4h-111q-61 0 -61 -61
v-156q0 -61 61 -61h111z" />
    <glyph glyph-name="Q" unicode="Q" horiz-adv-x="1198" 
d="M1016 -86q-43 -43 -86 0l-78 78q-12 12 -29 6q-93 -35 -227 -35q-100 0 -181 21t-133.5 53.5t-91.5 79.5t-59 90.5t-32 96t-14.5 86.5t-2.5 71v512q0 37 2.5 71t14.5 86t32 95.5t59 90.5t91.5 79.5t133.5 53.5t181 21t181 -21t133.5 -53.5t91.5 -79.5t59 -90.5t32 -95.5
t14.5 -86t2.5 -71v-512q0 -87 -23 -174q-3 -16 7 -29l92 -98q40 -44 -4 -88zM434 569q0 -55 2 -88t11 -68.5t26 -54.5t47.5 -31t75.5 -12t75.5 12t47.5 31t26 54.5t11 68.5t2 88v295q0 55 -2 88t-11 68.5t-26 54.5t-47.5 31t-75.5 12t-75.5 -12t-47.5 -31t-26 -54.5
t-11 -68.5t-2 -88v-295z" />
    <glyph glyph-name="R" unicode="R" horiz-adv-x="1214" 
d="M1182 111q22 -40 0.5 -75.5t-68.5 -35.5h-233q-34 0 -47 29l-213 411q-7 11 -17 11h-82q-28 0 -45.5 -18t-17.5 -46v-324q0 -28 -18 -45.5t-46 -17.5h-229q-28 0 -46 17.5t-18 45.5v1307q0 28 18 46t46 18h448q271 0 391.5 -118.5t120.5 -373.5q0 -290 -155 -401
q-13 -10 -6 -27zM522 1081q-28 0 -45.5 -17.5t-17.5 -45.5v-152q0 -28 17.5 -45.5t45.5 -17.5h105q42 0 65.5 4t44 17.5t29 42t8.5 75.5t-8.5 75.5t-29 42t-44 17.5t-65.5 4h-105z" />
    <glyph glyph-name="S" unicode="S" horiz-adv-x="1171" 
d="M817 926q-58 -11 -67 51q-11 63 -59 100t-120 37q-58 0 -92 -28.5t-28 -65.5q5 -28 37.5 -53.5t80.5 -45.5t108.5 -45.5t122 -52t120.5 -67.5t104.5 -89t73.5 -118.5t28 -155.5q0 -17 -5 -43t-20.5 -67.5t-40 -82.5t-68 -83.5t-99 -74.5t-139.5 -52.5t-183 -20.5
q-123 0 -219 31.5t-152 78t-93 109.5t-51 116t-17 108t53 67l232 51q61 12 67 -53q6 -72 56 -113.5t124 -41.5q73 0 122 36t40 78q-8 35 -48.5 63.5t-98.5 51t-127 48t-136 62.5t-122 85t-89 124t-34 172q-1 17 2 43t15 67.5t31.5 82t57.5 83.5t88 75t127.5 52.5t171.5 20.5
q120 0 215.5 -30.5t151.5 -75t94 -105t53 -111t19 -100.5q3 -55 -53 -67z" />
    <glyph glyph-name="T" unicode="T" horiz-adv-x="1212" 
d="M430 61q0 -29 16.5 -45t45.5 -16h229q61 0 61 61v959q0 61 62 61h286q62 0 62 62v229q0 62 -62 62h-1048q-62 0 -62 -62v-229q0 -29 16.5 -45.5t45.5 -16.5h287q61 0 61 -61v-959z" />
    <glyph glyph-name="U" unicode="U" horiz-adv-x="1208" 
d="M381 1434q61 0 61 -62v-803q0 -55 2 -88t11 -68.5t26 -54.5t47.5 -31t75.5 -12t75.5 12t47.5 31t26 54.5t11 68.5t2 88v803q0 62 61 62h230q61 0 61 -62v-911q0 -37 -2.5 -71t-14.5 -86.5t-32 -96t-59 -90.5t-91.5 -79.5t-133.5 -53.5t-181 -21t-181 21t-133.5 53.5
t-91.5 79.5t-59 90.5t-32 96t-14.5 86.5t-2.5 71v911q0 62 62 62h229z" />
    <glyph glyph-name="V" unicode="V" 
d="M90 1434q-32 0 -46 -18t-7 -50l299 -1313q12 -53 67 -53h381q56 0 68 53l299 1313q7 32 -7 50t-46 18h-244q-56 0 -68 -54l-180 -786q-2 -9 -7 -12t-10 0t-7 12l-181 786q-12 54 -67 54h-244z" />
    <glyph glyph-name="W" unicode="W" horiz-adv-x="1658" 
d="M281 53q9 -53 67 -53h289q56 0 68 53l112 504q3 15 12.5 15t12.5 -15l112 -504q12 -53 68 -53h289q58 0 67 53l252 1313q6 32 -8.5 50t-46.5 18h-244q-28 0 -46 -14t-21 -40l-117 -854q-3 -15 -12.5 -15t-12.5 15l-137 854q-9 54 -67 54h-177q-58 0 -67 -54l-137 -854
q-3 -15 -12.5 -15t-12.5 15l-117 854q-3 26 -21 40t-46 14h-244q-32 0 -46.5 -18t-8.5 -50z" />
    <glyph glyph-name="X" unicode="X" horiz-adv-x="1228" 
d="M1210 74q19 -32 6.5 -53t-49.5 -21h-254q-50 0 -73 41l-203 344q-6 11 -13.5 11t-13.5 -11l-196 -342q-22 -43 -74 -43h-279q-37 0 -49.5 21t6.5 53l394 665q9 15 0 29l-349 592q-19 32 -6.5 53t49.5 21h254q51 0 74 -41l166 -285q6 -10 14.5 -10t14.5 10l168 285
q23 41 73 41h256q36 0 47.5 -21t-6.5 -53l-344 -602q-9 -14 0 -29z" />
    <glyph glyph-name="Y" unicode="Y" horiz-adv-x="1230" 
d="M86 1434q-35 0 -48.5 -20t1.5 -52l369 -819q4 -8 4 -25v-457q0 -61 61 -61h287q61 0 61 61v457q0 17 4 25l367 819q15 32 1.5 52t-48.5 20h-293q-53 0 -70 -48l-151 -380q-6 -14 -14.5 -14t-14.5 14l-151 380q-17 48 -70 48h-295z" />
    <glyph glyph-name="Z" unicode="Z" horiz-adv-x="1208" 
d="M1073 352q62 0 62 -61v-230q0 -61 -62 -61h-1018q-37 0 -49.5 21t6.5 53l559 983q6 11 2 17.5t-16 6.5h-391q-29 0 -45.5 16.5t-16.5 45.5v229q0 62 62 62h987q37 0 49.5 -21t-6.5 -53l-569 -983q-6 -11 -2 -18t16 -7h432z" />
    <glyph glyph-name="bracketleft" unicode="[" horiz-adv-x="573" 
d="M123 1638q-62 0 -62 -61v-1925q0 -29 16.5 -45.5t45.5 -16.5h328q61 0 61 62v123q0 61 -61 61h-123q-29 0 -45.5 16.5t-16.5 45.5v1474q0 62 62 62h123q61 0 61 61v82q0 61 -61 61h-328z" />
    <glyph glyph-name="backslash" unicode="\" horiz-adv-x="1228" 
d="M199 1501q-12 32 1.5 52t47.5 20h100q54 0 72 -49l610 -1655q12 -32 -1.5 -52t-47.5 -20h-100q-54 0 -72 49z" />
    <glyph glyph-name="bracketright" unicode="]" horiz-adv-x="573" 
d="M512 1577q0 61 -61 61h-328q-62 0 -62 -61v-82q0 -61 62 -61h123q61 0 61 -62v-1474q0 -29 -16 -45.5t-45 -16.5h-123q-62 0 -62 -61v-123q0 -62 62 -62h328q29 0 45 16.5t16 45.5v1925z" />
    <glyph glyph-name="asciicircum" unicode="^" horiz-adv-x="1228" 
d="M1055 1130q45 -42 0 -90l-58 -55q-43 -43 -86 0l-293 289q-9 15 -24 0l-291 -289q-19 -20 -41.5 -20t-42.5 20l-57 55q-44 46 0 90l403 404q22 22 41.5 22t44.5 -22z" />
    <glyph glyph-name="underscore" unicode="_" horiz-adv-x="1228" 
d="M23 -184q0 61 61 61h1061q61 0 61 -61v-82q0 -62 -61 -62h-1061q-29 0 -45 16.5t-16 45.5v82z" />
    <glyph glyph-name="a" unicode="a" 
d="M1096 938q0 63 -3.5 111.5t-15.5 106.5t-33 100.5t-59 85t-90 69t-128.5 43t-172.5 16.5t-172.5 -16.5t-128.5 -43t-90 -69t-59 -85t-33 -100.5t-15.5 -106.5t-3.5 -111.5v-868q0 -34 16.5 -52t45.5 -18h229q61 0 61 61v179q0 61 62 61h176q61 0 61 -61v-179
q0 -61 62 -61h229q62 0 62 70v868zM743 717q0 -61 -61 -64h-176q-29 0 -45.5 16.5t-16.5 45.5v223q0 41 4.5 65t19.5 44.5t45.5 29t80.5 8.5q95 0 122 -32.5t27 -114.5v-221z" />
    <glyph glyph-name="b" unicode="b" horiz-adv-x="1200" 
d="M594 1434q285 0 408.5 -118t123.5 -374q0 -69 -24 -152t-80 -145q64 -30 104.5 -102.5t40.5 -165.5q0 -132 -43.5 -212t-153.5 -122.5t-300 -42.5h-506q-29 0 -45.5 16t-16.5 45v1309q0 61 62 64h430zM627 803q42 0 65.5 4t44 17.5t29 42t8.5 75.5t-8.5 75.5t-29 42
t-44 17.5t-65.5 4h-111q-61 0 -61 -61v-156q0 -61 61 -61h111zM643 291q82 0 115 19.5t33 86.5q0 68 -32.5 89.5t-111.5 21.5h-133q-61 0 -61 -62v-94q0 -61 61 -61h129z" />
    <glyph glyph-name="c" unicode="c" horiz-adv-x="1146" 
d="M82 973q0 37 2.5 71t14.5 86t32 95.5t59 90.5t91.5 79.5t133.5 53.5t181 21q90 0 165 -17t126 -44.5t91 -66.5t63 -78.5t38 -86t21 -82.5t8 -75q1 -22 -11 -37t-34 -20l-227 -52q-32 -6 -54.5 12.5t-27.5 51.5q-8 72 -43.5 107.5t-114.5 35.5q-45 0 -75.5 -12t-47.5 -31
t-26 -54.5t-11 -68.5t-2 -88v-295q0 -55 2 -88t11 -68.5t26 -54.5t47.5 -31t75.5 -12q80 0 113 36t43 112q5 33 27 49.5t52 9.5l232 -51q22 -5 34 -20.5t11 -38.5q-3 -56 -14 -107.5t-45 -117t-86.5 -112.5t-147.5 -79.5t-219 -32.5q-100 0 -181 21t-133.5 53.5t-91.5 79.5
t-59 90.5t-32 96t-14.5 86.5t-2.5 71v512z" />
    <glyph glyph-name="d" unicode="d" horiz-adv-x="1214" 
d="M621 1434q144 0 242.5 -29t158 -91.5t85.5 -152.5t26 -219v-448q0 -129 -26 -219.5t-85.5 -153t-158 -92t-242.5 -29.5h-457q-29 0 -45.5 16t-16.5 45v1309q0 61 62 64h457zM627 352q80 0 113.5 26.5t33.5 113.5v450q0 47 -8.5 75.5t-29 42t-44 17.5t-65.5 4h-111
q-61 0 -61 -61v-606q0 -29 16 -45.5t45 -16.5h111z" />
    <glyph glyph-name="e" unicode="e" horiz-adv-x="1140" 
d="M164 1434q-62 0 -62 -62v-1311q0 -29 16.5 -45t45.5 -16h860q61 0 61 61v230q0 61 -61 61h-496q-29 0 -45 16.5t-16 45.5v65q0 62 61 62h318q61 0 61 61v229q0 62 -61 62h-318q-61 0 -61 61v66q0 61 61 61h496q61 0 61 62v229q0 62 -61 62h-860z" />
    <glyph glyph-name="f" unicode="f" horiz-adv-x="1126" 
d="M164 1434q-62 0 -62 -62v-1311q0 -29 16.5 -45t45.5 -16h242q61 0 61 61v418q0 62 61 62h338q62 0 62 61v229q0 62 -62 62h-338q-61 0 -61 61v66q0 61 61 61h516q62 0 62 62v229q0 62 -62 62h-880z" />
    <glyph glyph-name="g" unicode="g" 
d="M82 973q0 37 2.5 71t14.5 86t32 95.5t59 90.5t91.5 79.5t133.5 53.5t181 21q89 0 163 -16.5t125 -43t90.5 -64.5t63 -76.5t39.5 -84t22.5 -82t8.5 -75.5q3 -55 -53 -67l-232 -52q-61 -12 -67 54q-6 79 -41.5 117t-118.5 38q-45 0 -75.5 -12t-47.5 -31t-26 -54.5
t-11 -68.5t-2 -88v-295q0 -55 2 -88t11 -68.5t26 -54.5t47.5 -31t75.5 -12q44 0 75 11.5t47.5 28.5t26 45.5t11.5 52t2 59.5h-119q-61 0 -61 61v164q0 62 61 62h410q61 0 61 -62v-276q0 -37 -2.5 -71t-14.5 -86.5t-32 -96t-59 -90.5t-91.5 -79.5t-133.5 -53.5t-181 -21
t-181 21t-133.5 53.5t-91.5 79.5t-59 90.5t-32 96t-14.5 86.5t-2.5 71v512z" />
    <glyph glyph-name="h" unicode="h" horiz-adv-x="1228" 
d="M164 1434q-62 0 -62 -62v-1311q0 -29 16.5 -45t45.5 -16h229q62 0 62 61v324q0 61 61 61h197q61 0 61 -61v-324q0 -29 16.5 -45t45.5 -16h229q61 0 61 61v1311q0 62 -61 62h-229q-29 0 -45.5 -16.5t-16.5 -45.5v-512q0 -61 -61 -61h-197q-61 0 -61 61v512
q0 29 -16.5 45.5t-45.5 16.5h-229z" />
    <glyph glyph-name="i" unicode="i" horiz-adv-x="552" 
d="M164 1434q-62 0 -62 -62v-1311q0 -29 16.5 -45t45.5 -16h225q62 0 62 61v1311q0 62 -62 62h-225z" />
    <glyph glyph-name="j" unicode="j" horiz-adv-x="1138" 
d="M983 1434q28 0 46 -18t18 -46v-909q0 -37 -3 -71t-15 -86.5t-32 -96t-59 -90.5t-91.5 -79.5t-133.5 -53.5t-181 -21q-90 0 -165 17t-126 44.5t-91 66.5t-63 78.5t-38 86t-21 83t-8 75.5q-1 21 11.5 36.5t34.5 20.5l227 51q32 6 54.5 -12t27.5 -51q8 -72 43 -108t114 -36
q45 0 75.5 12t47.5 31t26 54.5t11 68.5t2 88v801q0 28 18 46t46 18h225z" />
    <glyph glyph-name="k" unicode="k" horiz-adv-x="1275" 
d="M1253 74q21 -31 9.5 -52.5t-48.5 -21.5h-307q-48 0 -73 41l-254 389q-6 9 -14.5 9t-14.5 -9l-84 -115q-8 -11 -8 -26v-228q0 -61 -62 -61h-233q-29 0 -45.5 16t-16.5 45v1311q0 62 62 62h233q62 0 62 -62v-411q0 -15 8.5 -18t15.5 9l322 443q26 39 74 39h303
q38 0 49.5 -22t-10.5 -54l-414 -570q-10 -16 0 -28z" />
    <glyph glyph-name="l" unicode="l" horiz-adv-x="1058" 
d="M164 1434q-62 0 -62 -62v-1311q0 -29 16.5 -45t45.5 -16h809q61 0 61 61v230q0 61 -61 61h-457q-29 0 -45 16.5t-16 45.5v958q0 62 -62 62h-229z" />
    <glyph glyph-name="m" unicode="m" horiz-adv-x="1622" 
d="M164 1434q-62 0 -62 -62v-1311q0 -61 62 -61h229q62 0 62 61v807q0 11 9.5 11.5t12.5 -9.5l199 -817q12 -53 67 -53h136q55 0 67 53l199 817q3 10 12.5 9.5t9.5 -11.5v-807q0 -29 16.5 -45t45.5 -16h229q62 0 62 61v1311q0 62 -62 62h-424q-52 0 -65 -56l-146 -596
q-3 -15 -12 -15t-12 15l-146 596q-13 56 -65 56h-424z" />
    <glyph glyph-name="n" unicode="n" horiz-adv-x="1294" 
d="M164 1434q-62 0 -62 -62v-1311q0 -29 16.5 -45t45.5 -16h229q62 0 62 61v662q0 15 9 17t15 -11l279 -682q20 -47 71 -47h301q62 0 62 61v1311q0 62 -62 62h-229q-61 0 -61 -62v-661q0 -15 -9.5 -17.5t-15.5 11.5l-278 681q-20 48 -72 48h-301z" />
    <glyph glyph-name="o" unicode="o" horiz-adv-x="1191" 
d="M1110 461q0 -37 -2.5 -71t-14.5 -86.5t-32 -96t-59 -90.5t-91.5 -79.5t-133.5 -53.5t-181 -21t-181 21t-133.5 53.5t-91.5 79.5t-59 90.5t-32 96t-14.5 86.5t-2.5 71v512q0 37 2.5 71t14.5 86t32 95.5t59 90.5t91.5 79.5t133.5 53.5t181 21t181 -21t133.5 -53.5
t91.5 -79.5t59 -90.5t32 -95.5t14.5 -86t2.5 -71v-512zM758 864q0 55 -2 88t-11 68.5t-26 54.5t-47.5 31t-75.5 12t-75.5 -12t-47.5 -31t-26 -54.5t-11 -68.5t-2 -88v-295q0 -55 2 -88t11 -68.5t26 -54.5t47.5 -31t75.5 -12t75.5 12t47.5 31t26 54.5t11 68.5t2 88v295z" />
    <glyph glyph-name="p" unicode="p" horiz-adv-x="1150" 
d="M614 1434q271 0 391.5 -118.5t120.5 -373.5t-120.5 -373t-391.5 -118h-98q-61 0 -61 -62v-328q0 -61 -62 -61h-229q-29 0 -45.5 16t-16.5 45v1309q0 61 62 64h450zM627 803q42 0 65.5 4t44 17.5t29 42t8.5 75.5t-8.5 75.5t-29 42t-44 17.5t-65.5 4h-111q-61 0 -61 -61
v-156q0 -61 61 -61h111z" />
    <glyph glyph-name="q" unicode="q" horiz-adv-x="1198" 
d="M1016 -86q-43 -43 -86 0l-78 78q-12 12 -29 6q-93 -35 -227 -35q-100 0 -181 21t-133.5 53.5t-91.5 79.5t-59 90.5t-32 96t-14.5 86.5t-2.5 71v512q0 37 2.5 71t14.5 86t32 95.5t59 90.5t91.5 79.5t133.5 53.5t181 21t181 -21t133.5 -53.5t91.5 -79.5t59 -90.5t32 -95.5
t14.5 -86t2.5 -71v-512q0 -87 -23 -174q-3 -16 7 -29l92 -98q40 -44 -4 -88zM434 569q0 -55 2 -88t11 -68.5t26 -54.5t47.5 -31t75.5 -12t75.5 12t47.5 31t26 54.5t11 68.5t2 88v295q0 55 -2 88t-11 68.5t-26 54.5t-47.5 31t-75.5 12t-75.5 -12t-47.5 -31t-26 -54.5
t-11 -68.5t-2 -88v-295z" />
    <glyph glyph-name="r" unicode="r" horiz-adv-x="1214" 
d="M1182 111q22 -40 0.5 -75.5t-68.5 -35.5h-233q-34 0 -47 29l-213 411q-7 11 -17 11h-82q-28 0 -45.5 -18t-17.5 -46v-324q0 -28 -18 -45.5t-46 -17.5h-229q-28 0 -46 17.5t-18 45.5v1307q0 28 18 46t46 18h448q271 0 391.5 -118.5t120.5 -373.5q0 -290 -155 -401
q-13 -10 -6 -27zM522 1081q-28 0 -45.5 -17.5t-17.5 -45.5v-152q0 -28 17.5 -45.5t45.5 -17.5h105q42 0 65.5 4t44 17.5t29 42t8.5 75.5t-8.5 75.5t-29 42t-44 17.5t-65.5 4h-105z" />
    <glyph glyph-name="s" unicode="s" horiz-adv-x="1171" 
d="M817 926q-58 -11 -67 51q-11 63 -59 100t-120 37q-58 0 -92 -28.5t-28 -65.5q5 -28 37.5 -53.5t80.5 -45.5t108.5 -45.5t122 -52t120.5 -67.5t104.5 -89t73.5 -118.5t28 -155.5q0 -17 -5 -43t-20.5 -67.5t-40 -82.5t-68 -83.5t-99 -74.5t-139.5 -52.5t-183 -20.5
q-123 0 -219 31.5t-152 78t-93 109.5t-51 116t-17 108t53 67l232 51q61 12 67 -53q6 -72 56 -113.5t124 -41.5q73 0 122 36t40 78q-8 35 -48.5 63.5t-98.5 51t-127 48t-136 62.5t-122 85t-89 124t-34 172q-1 17 2 43t15 67.5t31.5 82t57.5 83.5t88 75t127.5 52.5t171.5 20.5
q120 0 215.5 -30.5t151.5 -75t94 -105t53 -111t19 -100.5q3 -55 -53 -67z" />
    <glyph glyph-name="t" unicode="t" horiz-adv-x="1212" 
d="M430 61q0 -29 16.5 -45t45.5 -16h229q61 0 61 61v959q0 61 62 61h286q62 0 62 62v229q0 62 -62 62h-1048q-62 0 -62 -62v-229q0 -29 16.5 -45.5t45.5 -16.5h287q61 0 61 -61v-959z" />
    <glyph glyph-name="u" unicode="u" horiz-adv-x="1208" 
d="M381 1434q61 0 61 -62v-803q0 -55 2 -88t11 -68.5t26 -54.5t47.5 -31t75.5 -12t75.5 12t47.5 31t26 54.5t11 68.5t2 88v803q0 62 61 62h230q61 0 61 -62v-911q0 -37 -2.5 -71t-14.5 -86.5t-32 -96t-59 -90.5t-91.5 -79.5t-133.5 -53.5t-181 -21t-181 21t-133.5 53.5
t-91.5 79.5t-59 90.5t-32 96t-14.5 86.5t-2.5 71v911q0 62 62 62h229z" />
    <glyph glyph-name="v" unicode="v" 
d="M90 1434q-32 0 -46 -18t-7 -50l299 -1313q12 -53 67 -53h381q56 0 68 53l299 1313q7 32 -7 50t-46 18h-244q-56 0 -68 -54l-180 -786q-2 -9 -7 -12t-10 0t-7 12l-181 786q-12 54 -67 54h-244z" />
    <glyph glyph-name="w" unicode="w" horiz-adv-x="1658" 
d="M281 53q9 -53 67 -53h289q56 0 68 53l112 504q3 15 12.5 15t12.5 -15l112 -504q12 -53 68 -53h289q58 0 67 53l252 1313q6 32 -8.5 50t-46.5 18h-244q-28 0 -46 -14t-21 -40l-117 -854q-3 -15 -12.5 -15t-12.5 15l-137 854q-9 54 -67 54h-177q-58 0 -67 -54l-137 -854
q-3 -15 -12.5 -15t-12.5 15l-117 854q-3 26 -21 40t-46 14h-244q-32 0 -46.5 -18t-8.5 -50z" />
    <glyph glyph-name="x" unicode="x" horiz-adv-x="1228" 
d="M1210 74q19 -32 6.5 -53t-49.5 -21h-254q-50 0 -73 41l-203 344q-6 11 -13.5 11t-13.5 -11l-196 -342q-22 -43 -74 -43h-279q-37 0 -49.5 21t6.5 53l394 665q9 15 0 29l-349 592q-19 32 -6.5 53t49.5 21h254q51 0 74 -41l166 -285q6 -10 14.5 -10t14.5 10l168 285
q23 41 73 41h256q36 0 47.5 -21t-6.5 -53l-344 -602q-9 -14 0 -29z" />
    <glyph glyph-name="y" unicode="y" horiz-adv-x="1230" 
d="M86 1434q-35 0 -48.5 -20t1.5 -52l369 -819q4 -8 4 -25v-457q0 -61 61 -61h287q61 0 61 61v457q0 17 4 25l367 819q15 32 1.5 52t-48.5 20h-293q-53 0 -70 -48l-151 -380q-6 -14 -14.5 -14t-14.5 14l-151 380q-17 48 -70 48h-295z" />
    <glyph glyph-name="z" unicode="z" horiz-adv-x="1208" 
d="M1073 352q62 0 62 -61v-230q0 -61 -62 -61h-1018q-37 0 -49.5 21t6.5 53l559 983q6 11 2 17.5t-16 6.5h-391q-29 0 -45.5 16.5t-16.5 45.5v229q0 62 62 62h987q37 0 49.5 -21t-6.5 -53l-569 -983q-6 -11 -2 -18t16 -7h432z" />
    <glyph glyph-name="braceleft" unicode="{" horiz-adv-x="542" 
d="M481 -145q0 45 -51 65q-54 23 -73.5 85t-13.5 143t15.5 164.5t6 166.5t-32.5 131q-4 6 -7.5 11.5t-5.5 9t-4.5 6t-2 5t0 4t1.5 5t3 6t5.5 8.5t7.5 11q31 47 34.5 129.5t-6.5 166.5t-15.5 166.5t14 145.5t73.5 86q51 20 51 66v133q0 31 -17 46t-48 11q-97 -12 -159 -61
t-86.5 -118.5t-32 -151.5t-3.5 -166t6.5 -156t-8.5 -127.5t-43 -75.5q-16 -10 -20.5 -13t-14 -11.5t-12 -18t-2.5 -22.5v-119q0 -17 7.5 -30t15 -18.5t26.5 -17.5q32 -19 43.5 -74.5t9 -127.5t-7 -156t3.5 -166t32 -151.5t86 -118.5t159 -62q31 -4 48 11t17 46v134z" />
    <glyph glyph-name="bar" unicode="|" horiz-adv-x="368" 
d="M143 1577q-61 0 -61 -61v-1803q0 -61 61 -61h82q62 0 62 61v1803q0 61 -62 61h-82z" />
    <glyph glyph-name="braceright" unicode="}" horiz-adv-x="542" 
d="M61 1436q0 -46 52 -66q54 -23 73.5 -86t14 -145.5t-15.5 -166.5t-6.5 -166.5t34.5 -129.5q3 -5 8 -12q10 -15 10 -19.5t-9 -16.5q-6 -11 -11 -18q-29 -48 -32.5 -131t6 -166.5t15.5 -164.5t-13.5 -143t-73.5 -85q-52 -20 -52 -65v-134q0 -31 17.5 -46t48.5 -11
q97 13 159 62t86 118.5t32 151.5t3.5 166t-7 156t9 127.5t43.5 74.5q19 12 26.5 17.5t15 18.5t7.5 30v119q0 13 -2.5 22.5t-12 18t-14 11.5t-20.5 13q-32 20 -43 75.5t-8.5 127.5t6.5 156t-3.5 166t-32 151.5t-86.5 118.5t-159 61q-31 4 -48.5 -11t-17.5 -46v-133z" />
    <glyph glyph-name="asciitilde" unicode="~" horiz-adv-x="1228" 
d="M115 823q-63 -21 -39 -80q38 -76 92.5 -120t112.5 -54t123.5 -5.5t127 23t122.5 34t110 25.5t88 -1t59 -47q10 -18 35 -25.5t45 0.5l123 39q63 22 39 80q-38 76 -92 120t-112 54t-123.5 5.5t-127.5 -23t-122.5 -33.5t-110 -25t-89 1t-59.5 47q-8 18 -32.5 26t-46.5 -2z
" />
    <glyph glyph-name="exclamdown" unicode="&#xa1;" horiz-adv-x="679" 
d="M225 674q-61 0 -61 61v230q0 61 61 61h230q61 0 61 -61v-230q0 -61 -61 -61h-230zM184 -408q-30 0 -46 16t-15 46l41 860q3 61 61 61h230q58 0 61 -61l41 -860q3 -62 -61 -62h-312z" />
    <glyph glyph-name="cent" unicode="&#xa2;" horiz-adv-x="968" 
d="M864 637q46 -9 43 -55q-1 -42 -9 -81t-30.5 -87t-57.5 -85t-96 -66.5t-141 -39.5v-174q0 -49 -51 -49h-67q-52 0 -52 49v172q-69 8 -123.5 31t-89.5 51.5t-60.5 72t-38.5 80.5t-20 90t-8.5 87t-1.5 84q0 48 2 85t9.5 87.5t21.5 89.5t39.5 81t60.5 71.5t88.5 52
t120.5 30.5v170q0 23 13.5 36.5t38.5 13.5h67q51 0 51 -50v-172q80 -10 141 -39.5t96 -66.5t57.5 -85t30.5 -87t9 -80q3 -45 -43 -57l-137 -33q-46 -8 -55 43q-7 74 -27.5 113t-71.5 53v-510q51 14 71.5 52.5t27.5 109.5q9 53 55 45zM403 975q-68 -19 -87 -75t-19 -183
q0 -42 1 -68t4.5 -56t10 -48.5t18.5 -36.5t29.5 -29t42.5 -18v514z" />
    <glyph glyph-name="dieresis" unicode="&#xa8;" horiz-adv-x="1228" 
d="M399 1194q-47 0 -81.5 35t-34.5 82t34.5 81.5t81.5 34.5t82 -34.5t35 -81.5t-35 -82t-82 -35zM829 1194q-47 0 -81.5 35t-34.5 82t34.5 81.5t81.5 34.5t82 -34.5t35 -81.5t-35 -82t-82 -35z" />
    <glyph glyph-name="guillemotleft" unicode="&#xab;" horiz-adv-x="1165" 
d="M596 197q-48 -45 -90 0l-404 403q-22 25 -22 44.5t22 41.5l404 404q44 44 90 0l55 -58q20 -20 20 -42.5t-20 -41.5l-289 -291q-15 -15 0 -24l289 -293q43 -43 0 -86zM1004 197q-46 -46 -86 0l-406 403q-22 25 -22 44.5t22 41.5l406 404q41 45 86 0l57 -58
q23 -20 23 -42.5t-23 -41.5l-289 -291q-15 -15 0 -24l289 -293q48 -45 0 -86z" />
    <glyph glyph-name="degree" unicode="&#xb0;" horiz-adv-x="589" 
d="M295 1040q-113 0 -194 81t-81 194q0 114 81 194t194 80q114 0 194 -80t80 -194q0 -113 -80 -194t-194 -81zM295 1219q38 0 67 29t29 67t-29 67t-67 29t-67 -29t-29 -67t29 -67t67 -29z" />
    <glyph glyph-name="periodcentered" unicode="&#xb7;" horiz-adv-x="475" 
d="M123 889q-62 0 -62 -62v-229q0 -29 16.5 -45t45.5 -16h229q62 0 62 61v229q0 62 -62 62h-229z" />
    <glyph glyph-name="guillemotright" unicode="&#xbb;" horiz-adv-x="1165" 
d="M248 197q-40 -46 -86 0l-58 57q-48 41 0 86l289 293q15 9 0 24l-289 291q-23 19 -23 41.5t23 42.5l58 58q45 45 86 0l405 -404q22 -22 22 -41.5t-22 -44.5zM659 197q-42 -45 -90 0l-55 57q-43 43 0 86l289 293q15 9 0 24l-289 291q-20 19 -20 41.5t20 42.5l55 58
q46 44 90 0l404 -404q22 -22 22 -41.5t-22 -44.5z" />
    <glyph glyph-name="questiondown" unicode="&#xbf;" horiz-adv-x="1228" 
d="M752 709q61 0 61 61v229q0 29 -16 45.5t-45 16.5h-230q-61 0 -61 -62v-229q0 -61 61 -61h230zM745 604q32 0 48 -17.5t10 -49.5q-14 -77 -45.5 -133.5t-68.5 -89.5t-73.5 -63t-67 -73t-42.5 -100q-10 -50 17 -92.5t83 -42.5q135 0 158 137q9 62 67 51l234 -51
q56 -12 53 -68q-4 -52 -16.5 -101t-48 -110t-88 -105.5t-146 -75t-213.5 -30.5q-94 0 -170.5 20.5t-124.5 52.5t-84 75.5t-53.5 83t-27.5 82.5t-12 67t-1 43q0 95 24.5 168.5t64 120.5t80.5 83.5t82 79.5t60 87q20 51 70 51h231z" />
    <glyph glyph-name="Agrave" unicode="&#xc0;" 
d="M164 1927l614 -305q6 -3 17 -9t17 -8.5t15 -5t19 -2.5h26q38 0 49.5 26.5t-16.5 41.5l-549 301q-31 31 -67 31h-101q-40 0 -50 -25.5t26 -44.5zM1096 938q0 63 -3.5 111.5t-15.5 106.5t-33 100.5t-59 85t-90 69t-128.5 43t-172.5 16.5t-172.5 -16.5t-128.5 -43t-90 -69
t-59 -85t-33 -100.5t-15.5 -106.5t-3.5 -111.5v-868q0 -34 16.5 -52t45.5 -18h229q61 0 61 61v179q0 61 62 61h176q61 0 61 -61v-179q0 -61 62 -61h229q62 0 62 70v868zM743 717q0 -61 -61 -64h-176q-29 0 -45.5 16.5t-16.5 45.5v223q0 41 4.5 65t19.5 44.5t45.5 29
t80.5 8.5q95 0 122 -32.5t27 -114.5v-221z" />
    <glyph glyph-name="Aacute" unicode="&#xc1;" 
d="M1057 1892q36 15 25.5 42.5t-50.5 27.5h-100q-37 0 -68 -31l-588 -266q-17 -8 -18.5 -24.5t13 -30t38.5 -13.5h27q12 0 22.5 3.5t24.5 11t20 10.5zM1096 938q0 63 -3.5 111.5t-15.5 106.5t-33 100.5t-59 85t-90 69t-128.5 43t-172.5 16.5t-172.5 -16.5t-128.5 -43
t-90 -69t-59 -85t-33 -100.5t-15.5 -106.5t-3.5 -111.5v-868q0 -34 16.5 -52t45.5 -18h229q61 0 61 61v179q0 61 62 61h176q61 0 61 -61v-179q0 -61 62 -61h229q62 0 62 70v868zM743 717q0 -61 -61 -64h-176q-29 0 -45.5 16.5t-16.5 45.5v223q0 41 4.5 65t19.5 44.5t45.5 29
t80.5 8.5q95 0 122 -32.5t27 -114.5v-221z" />
    <glyph glyph-name="Acircumflex" unicode="&#xc2;" 
d="M870 1653q36 -36 0 -74l-47 -47q-35 -36 -71 0q-2 2 -9 9.5t-9 8.5t-9 7t-11.5 7.5t-14 5.5t-19 5t-23 3t-30 2.5t-37.5 0.5q-53 0 -80 -5.5t-51 -22.5t-25 -17q-32 -37 -69 0l-48 45q-37 39 0 76q56 56 114 73t153 17q114 0 173.5 -22t112.5 -72zM1096 938
q0 63 -3.5 111.5t-15.5 106.5t-33 100.5t-59 85t-90 69t-128.5 43t-172.5 16.5t-172.5 -16.5t-128.5 -43t-90 -69t-59 -85t-33 -100.5t-15.5 -106.5t-3.5 -111.5v-868q0 -34 16.5 -52t45.5 -18h229q61 0 61 61v179q0 61 62 61h176q61 0 61 -61v-179q0 -61 62 -61h229
q62 0 62 70v868zM743 717q0 -61 -61 -64h-176q-29 0 -45.5 16.5t-16.5 45.5v223q0 41 4.5 65t19.5 44.5t45.5 29t80.5 8.5q95 0 122 -32.5t27 -114.5v-221z" />
    <glyph glyph-name="Atilde" unicode="&#xc3;" 
d="M311 1614l70 -23q11 -6 25.5 -0.5t19.5 15.5q13 23 39.5 28t60.5 -3t73.5 -20t81.5 -19.5t80.5 -5t74.5 27.5t61 74q14 32 -20 45l-70 22q-12 4 -25.5 0.5t-19.5 -12.5q-15 -27 -49.5 -30.5t-75 10t-90.5 24.5t-95 14.5t-89 -21.5t-72 -81q-17 -33 20 -45zM1096 938
q0 63 -3.5 111.5t-15.5 106.5t-33 100.5t-59 85t-90 69t-128.5 43t-172.5 16.5t-172.5 -16.5t-128.5 -43t-90 -69t-59 -85t-33 -100.5t-15.5 -106.5t-3.5 -111.5v-868q0 -34 16.5 -52t45.5 -18h229q61 0 61 61v179q0 61 62 61h176q61 0 61 -61v-179q0 -61 62 -61h229
q62 0 62 70v868zM743 717q0 -61 -61 -64h-176q-29 0 -45.5 16.5t-16.5 45.5v223q0 41 4.5 65t19.5 44.5t45.5 29t80.5 8.5q95 0 122 -32.5t27 -114.5v-221z" />
    <glyph glyph-name="Adieresis" unicode="&#xc4;" 
d="M385 1604q-47 0 -82 34.5t-35 81.5t35 82t82 35t82 -35t35 -82t-35 -81.5t-82 -34.5zM815 1604q-47 0 -82 34.5t-35 81.5t35 82t82 35t82 -35t35 -82t-35 -81.5t-82 -34.5zM1096 938q0 63 -3.5 111.5t-15.5 106.5t-33 100.5t-59 85t-90 69t-128.5 43t-172.5 16.5
t-172.5 -16.5t-128.5 -43t-90 -69t-59 -85t-33 -100.5t-15.5 -106.5t-3.5 -111.5v-868q0 -34 16.5 -52t45.5 -18h229q61 0 61 61v179q0 61 62 61h176q61 0 61 -61v-179q0 -61 62 -61h229q62 0 62 70v868zM743 717q0 -61 -61 -64h-176q-29 0 -45.5 16.5t-16.5 45.5v223
q0 41 4.5 65t19.5 44.5t45.5 29t80.5 8.5q95 0 122 -32.5t27 -114.5v-221z" />
    <glyph glyph-name="Egrave" unicode="&#xc8;" horiz-adv-x="1140" 
d="M141 1927l615 -305q6 -3 16.5 -8.5t16.5 -8.5t15 -5.5t19 -2.5h27q38 0 49.5 26.5t-16.5 41.5l-549 301q-31 31 -68 31h-100q-40 0 -50.5 -25.5t25.5 -44.5zM164 1434q-62 0 -62 -62v-1311q0 -29 16.5 -45t45.5 -16h860q61 0 61 61v230q0 61 -61 61h-496q-29 0 -45 16.5
t-16 45.5v65q0 62 61 62h318q61 0 61 61v229q0 62 -61 62h-318q-61 0 -61 61v66q0 61 61 61h496q61 0 61 62v229q0 62 -61 62h-860z" />
    <glyph glyph-name="Eacute" unicode="&#xc9;" horiz-adv-x="1140" 
d="M1034 1892q36 15 26 42.5t-50 27.5h-101q-36 0 -67 -31l-588 -266q-17 -8 -18.5 -24.5t13 -30t38.5 -13.5h26q12 0 22.5 3.5t25 11t20.5 10.5zM164 1434q-62 0 -62 -62v-1311q0 -29 16.5 -45t45.5 -16h860q61 0 61 61v230q0 61 -61 61h-496q-29 0 -45 16.5t-16 45.5v65
q0 62 61 62h318q61 0 61 61v229q0 62 -61 62h-318q-61 0 -61 61v66q0 61 61 61h496q61 0 61 62v229q0 62 -61 62h-860z" />
    <glyph glyph-name="Ecircumflex" unicode="&#xca;" horiz-adv-x="1140" 
d="M848 1653q36 -36 0 -74l-47 -47q-36 -36 -72 0q-2 2 -9 9.5t-9 8.5t-9 7t-11.5 7.5t-14 5.5t-19 5t-23 3t-30 2.5t-37.5 0.5q-53 0 -79.5 -5.5t-50 -22t-25.5 -17.5q-33 -37 -70 0l-47 45q-37 39 0 76q56 56 113.5 73t152.5 17q114 0 174 -22t113 -72zM164 1434
q-62 0 -62 -62v-1311q0 -29 16.5 -45t45.5 -16h860q61 0 61 61v230q0 61 -61 61h-496q-29 0 -45 16.5t-16 45.5v65q0 62 61 62h318q61 0 61 61v229q0 62 -61 62h-318q-61 0 -61 61v66q0 61 61 61h496q61 0 61 62v229q0 62 -61 62h-860z" />
    <glyph glyph-name="Edieresis" unicode="&#xcb;" horiz-adv-x="1140" 
d="M399 1604q-47 0 -81.5 34.5t-34.5 81.5t34.5 82t81.5 35t82 -35t35 -82t-35 -81.5t-82 -34.5zM829 1604q-47 0 -81.5 34.5t-34.5 81.5t34.5 82t81.5 35t82 -35t35 -82t-35 -81.5t-82 -34.5zM164 1434q-62 0 -62 -62v-1311q0 -29 16.5 -45t45.5 -16h860q61 0 61 61v230
q0 61 -61 61h-496q-29 0 -45 16.5t-16 45.5v65q0 62 61 62h318q61 0 61 61v229q0 62 -61 62h-318q-61 0 -61 61v66q0 61 61 61h496q61 0 61 62v229q0 62 -61 62h-860z" />
    <glyph glyph-name="Igrave" unicode="&#xcc;" horiz-adv-x="552" 
d="M-154 1927l615 -305q6 -3 16.5 -8.5t16.5 -8.5t15 -5.5t19 -2.5h27q38 0 49.5 26.5t-16.5 41.5l-549 301q-31 31 -68 31h-100q-41 0 -51 -25.5t26 -44.5zM164 1434q-62 0 -62 -62v-1311q0 -29 16.5 -45t45.5 -16h225q62 0 62 61v1311q0 62 -62 62h-225z" />
    <glyph glyph-name="Iacute" unicode="&#xcd;" horiz-adv-x="552" 
d="M739 1892q36 15 26 42.5t-50 27.5h-101q-36 0 -67 -31l-588 -266q-17 -8 -18.5 -24.5t13 -30t38.5 -13.5h26q12 0 22.5 3.5t25 11t20.5 10.5zM164 1434q-62 0 -62 -62v-1311q0 -29 16.5 -45t45.5 -16h225q62 0 62 61v1311q0 62 -62 62h-225z" />
    <glyph glyph-name="Icircumflex" unicode="&#xce;" horiz-adv-x="552" 
d="M610 1710q45 -42 0 -90l-57 -55q-43 -43 -86 0l-182 180q-13 13 -25 0l-176 -176q-19 -20 -41.5 -20t-42.5 20l-57 55q-44 46 0 90l288 291q23 23 41.5 23.5t44.5 -23.5zM164 1434q-62 0 -62 -62v-1311q0 -29 16.5 -45t45.5 -16h225q62 0 62 61v1311q0 62 -62 62h-225z
" />
    <glyph glyph-name="Idieresis" unicode="&#xcf;" horiz-adv-x="552" 
d="M61 1604q-47 0 -81.5 34.5t-34.5 81.5t34.5 82t81.5 35t82 -35t35 -82t-35 -81.5t-82 -34.5zM492 1604q-47 0 -82 34.5t-35 81.5t35 82t82 35t81.5 -35t34.5 -82t-34.5 -81.5t-81.5 -34.5zM164 1434q-62 0 -62 -62v-1311q0 -29 16.5 -45t45.5 -16h225q62 0 62 61v1311
q0 62 -62 62h-225z" />
    <glyph glyph-name="Ntilde" unicode="&#xd1;" horiz-adv-x="1294" 
d="M291 1769q-48 -15 -27 -59q32 -65 79.5 -98.5t99.5 -36.5t107.5 6.5t108.5 25t98.5 26t81 4t52.5 -37.5q7 -13 25 -18t34 0l94 31q47 17 27 59q-32 65 -79.5 98.5t-99.5 36.5t-107.5 -6.5t-108.5 -25t-98.5 -26t-81 -4t-52.5 37.5q-6 12 -25 18.5t-34 -0.5zM164 1434
q-62 0 -62 -62v-1311q0 -29 16.5 -45t45.5 -16h229q62 0 62 61v662q0 15 9 17t15 -11l279 -682q20 -47 71 -47h301q62 0 62 61v1311q0 62 -62 62h-229q-61 0 -61 -62v-661q0 -15 -9.5 -17.5t-15.5 11.5l-278 681q-20 48 -72 48h-301z" />
    <glyph glyph-name="Ograve" unicode="&#xd2;" horiz-adv-x="1191" 
d="M166 1927l614 -305q6 -3 17 -9t17 -8.5t15 -5t19 -2.5h26q38 0 49.5 26.5t-16.5 41.5l-549 301q-31 31 -67 31h-101q-40 0 -50 -25.5t26 -44.5zM1110 461q0 -37 -2.5 -71t-14.5 -86.5t-32 -96t-59 -90.5t-91.5 -79.5t-133.5 -53.5t-181 -21t-181 21t-133.5 53.5
t-91.5 79.5t-59 90.5t-32 96t-14.5 86.5t-2.5 71v512q0 37 2.5 71t14.5 86t32 95.5t59 90.5t91.5 79.5t133.5 53.5t181 21t181 -21t133.5 -53.5t91.5 -79.5t59 -90.5t32 -95.5t14.5 -86t2.5 -71v-512zM758 864q0 55 -2 88t-11 68.5t-26 54.5t-47.5 31t-75.5 12t-75.5 -12
t-47.5 -31t-26 -54.5t-11 -68.5t-2 -88v-295q0 -55 2 -88t11 -68.5t26 -54.5t47.5 -31t75.5 -12t75.5 12t47.5 31t26 54.5t11 68.5t2 88v295z" />
    <glyph glyph-name="Oacute" unicode="&#xd3;" horiz-adv-x="1191" 
d="M1059 1892q36 15 25.5 42.5t-50.5 27.5h-100q-37 0 -68 -31l-587 -266q-17 -8 -19 -24.5t12.5 -30t38.5 -13.5h27q12 0 22.5 3.5t25 11t20.5 10.5zM1110 461q0 -37 -2.5 -71t-14.5 -86.5t-32 -96t-59 -90.5t-91.5 -79.5t-133.5 -53.5t-181 -21t-181 21t-133.5 53.5
t-91.5 79.5t-59 90.5t-32 96t-14.5 86.5t-2.5 71v512q0 37 2.5 71t14.5 86t32 95.5t59 90.5t91.5 79.5t133.5 53.5t181 21t181 -21t133.5 -53.5t91.5 -79.5t59 -90.5t32 -95.5t14.5 -86t2.5 -71v-512zM758 864q0 55 -2 88t-11 68.5t-26 54.5t-47.5 31t-75.5 12t-75.5 -12
t-47.5 -31t-26 -54.5t-11 -68.5t-2 -88v-295q0 -55 2 -88t11 -68.5t26 -54.5t47.5 -31t75.5 -12t75.5 12t47.5 31t26 54.5t11 68.5t2 88v295z" />
    <glyph glyph-name="Ocircumflex" unicode="&#xd4;" horiz-adv-x="1191" 
d="M872 1653q36 -36 0 -74l-47 -47q-35 -36 -71 0q-2 2 -9 9.5t-9 8.5t-9 7t-11.5 7.5t-14 5.5t-19 5t-23 3t-30 2.5t-37.5 0.5q-53 0 -80 -5.5t-51 -22.5t-25 -17q-32 -37 -69 0l-48 45q-37 39 0 76q56 56 114 73t153 17q114 0 173.5 -22t112.5 -72zM1110 461
q0 -37 -2.5 -71t-14.5 -86.5t-32 -96t-59 -90.5t-91.5 -79.5t-133.5 -53.5t-181 -21t-181 21t-133.5 53.5t-91.5 79.5t-59 90.5t-32 96t-14.5 86.5t-2.5 71v512q0 37 2.5 71t14.5 86t32 95.5t59 90.5t91.5 79.5t133.5 53.5t181 21t181 -21t133.5 -53.5t91.5 -79.5t59 -90.5
t32 -95.5t14.5 -86t2.5 -71v-512zM758 864q0 55 -2 88t-11 68.5t-26 54.5t-47.5 31t-75.5 12t-75.5 -12t-47.5 -31t-26 -54.5t-11 -68.5t-2 -88v-295q0 -55 2 -88t11 -68.5t26 -54.5t47.5 -31t75.5 -12t75.5 12t47.5 31t26 54.5t11 68.5t2 88v295z" />
    <glyph glyph-name="Otilde" unicode="&#xd5;" horiz-adv-x="1191" 
d="M313 1614l70 -23q11 -6 25.5 -0.5t19.5 15.5q13 23 39.5 28t60.5 -3t73.5 -20t81.5 -19.5t80.5 -5t74.5 27.5t61 74q14 32 -20 45l-70 22q-12 4 -25.5 0.5t-19.5 -12.5q-15 -27 -49.5 -30.5t-75 10t-90.5 24.5t-95 14.5t-89 -21.5t-72 -81q-17 -33 20 -45zM1110 461
q0 -37 -2.5 -71t-14.5 -86.5t-32 -96t-59 -90.5t-91.5 -79.5t-133.5 -53.5t-181 -21t-181 21t-133.5 53.5t-91.5 79.5t-59 90.5t-32 96t-14.5 86.5t-2.5 71v512q0 37 2.5 71t14.5 86t32 95.5t59 90.5t91.5 79.5t133.5 53.5t181 21t181 -21t133.5 -53.5t91.5 -79.5t59 -90.5
t32 -95.5t14.5 -86t2.5 -71v-512zM758 864q0 55 -2 88t-11 68.5t-26 54.5t-47.5 31t-75.5 12t-75.5 -12t-47.5 -31t-26 -54.5t-11 -68.5t-2 -88v-295q0 -55 2 -88t11 -68.5t26 -54.5t47.5 -31t75.5 -12t75.5 12t47.5 31t26 54.5t11 68.5t2 88v295z" />
    <glyph glyph-name="Odieresis" unicode="&#xd6;" horiz-adv-x="1191" 
d="M381 1604q-47 0 -82 34.5t-35 81.5t35 82t82 35t82 -35t35 -82t-35 -81.5t-82 -34.5zM811 1604q-47 0 -82 34.5t-35 81.5t35 82t82 35t82 -35t35 -82t-35 -81.5t-82 -34.5zM1110 461q0 -37 -2.5 -71t-14.5 -86.5t-32 -96t-59 -90.5t-91.5 -79.5t-133.5 -53.5t-181 -21
t-181 21t-133.5 53.5t-91.5 79.5t-59 90.5t-32 96t-14.5 86.5t-2.5 71v512q0 37 2.5 71t14.5 86t32 95.5t59 90.5t91.5 79.5t133.5 53.5t181 21t181 -21t133.5 -53.5t91.5 -79.5t59 -90.5t32 -95.5t14.5 -86t2.5 -71v-512zM758 864q0 55 -2 88t-11 68.5t-26 54.5t-47.5 31
t-75.5 12t-75.5 -12t-47.5 -31t-26 -54.5t-11 -68.5t-2 -88v-295q0 -55 2 -88t11 -68.5t26 -54.5t47.5 -31t75.5 -12t75.5 12t47.5 31t26 54.5t11 68.5t2 88v295z" />
    <glyph glyph-name="multiply" unicode="&#xd7;" horiz-adv-x="1228" 
d="M864 1174q44 44 88 0l162 -162q42 -46 0 -88l-235 -236q-16 -13 0 -29l235 -235q44 -44 0 -88l-162 -162q-46 -42 -88 0l-235 236q-15 14 -29 0l-235 -236q-45 -41 -89 0l-161 162q-42 42 0 88l235 235q16 16 0 29l-235 236q-41 44 0 88l161 162q43 43 89 0l235 -236
q6 -8 14.5 -8t14.5 8z" />
    <glyph glyph-name="Oslash" unicode="&#xd8;" horiz-adv-x="1232" 
d="M1087 1454q53 -30 25 -82l-68 -117q66 -114 66 -282v-512q0 -37 -2.5 -71t-14.5 -86.5t-32 -96t-59 -90.5t-91.5 -79.5t-133.5 -53.5t-181 -21q-163 0 -268 51l-35 -59q-29 -48 -82 -12l-68 41q-56 24 -24 77l49 84q-86 122 -86 316v512q0 37 2.5 71t14.5 86t32 95.5
t59 90.5t91.5 79.5t133.5 53.5t181 21q183 0 297 -65l43 74q11 22 33 26.5t47 -12.5zM434 608l275 477q-41 33 -113 33q-45 0 -75.5 -12t-47.5 -31t-26 -54.5t-11 -68.5t-2 -88v-256zM758 760l-248 -428q39 -17 86 -17q45 0 75.5 12t47.5 31t26 54.5t11 68.5t2 88v191z" />
    <glyph glyph-name="Ugrave" unicode="&#xd9;" horiz-adv-x="1208" 
d="M174 1927l614 -305q6 -3 17 -9t17 -8.5t15 -5t19 -2.5h27q38 0 49 26.5t-17 41.5l-548 301q-31 31 -68 31h-100q-41 0 -51 -25.5t26 -44.5zM381 1434q61 0 61 -62v-803q0 -55 2 -88t11 -68.5t26 -54.5t47.5 -31t75.5 -12t75.5 12t47.5 31t26 54.5t11 68.5t2 88v803
q0 62 61 62h230q61 0 61 -62v-911q0 -37 -2.5 -71t-14.5 -86.5t-32 -96t-59 -90.5t-91.5 -79.5t-133.5 -53.5t-181 -21t-181 21t-133.5 53.5t-91.5 79.5t-59 90.5t-32 96t-14.5 86.5t-2.5 71v911q0 62 62 62h229z" />
    <glyph glyph-name="Uacute" unicode="&#xda;" horiz-adv-x="1208" 
d="M1067 1892q36 15 25.5 42.5t-50.5 27.5h-100q-37 0 -68 -31l-587 -266q-17 -8 -19 -24.5t12.5 -30t38.5 -13.5h27q12 0 22.5 3.5t25 11t20.5 10.5zM381 1434q61 0 61 -62v-803q0 -55 2 -88t11 -68.5t26 -54.5t47.5 -31t75.5 -12t75.5 12t47.5 31t26 54.5t11 68.5t2 88
v803q0 62 61 62h230q61 0 61 -62v-911q0 -37 -2.5 -71t-14.5 -86.5t-32 -96t-59 -90.5t-91.5 -79.5t-133.5 -53.5t-181 -21t-181 21t-133.5 53.5t-91.5 79.5t-59 90.5t-32 96t-14.5 86.5t-2.5 71v911q0 62 62 62h229z" />
    <glyph glyph-name="Ucircumflex" unicode="&#xdb;" horiz-adv-x="1208" 
d="M938 1710q45 -42 0 -90l-57 -55q-43 -43 -86 0l-183 180q-12 12 -24 0l-176 -176q-19 -20 -41.5 -20t-42.5 20l-58 55q-44 46 0 90l289 291q23 23 41.5 23.5t44.5 -23.5zM381 1434q61 0 61 -62v-803q0 -55 2 -88t11 -68.5t26 -54.5t47.5 -31t75.5 -12t75.5 12t47.5 31
t26 54.5t11 68.5t2 88v803q0 62 61 62h230q61 0 61 -62v-911q0 -37 -2.5 -71t-14.5 -86.5t-32 -96t-59 -90.5t-91.5 -79.5t-133.5 -53.5t-181 -21t-181 21t-133.5 53.5t-91.5 79.5t-59 90.5t-32 96t-14.5 86.5t-2.5 71v911q0 62 62 62h229z" />
    <glyph glyph-name="Udieresis" unicode="&#xdc;" horiz-adv-x="1208" 
d="M389 1604q-47 0 -82 34.5t-35 81.5t35 82t82 35t82 -35t35 -82t-35 -81.5t-82 -34.5zM819 1604q-47 0 -82 34.5t-35 81.5t35 82t82 35t82 -35t35 -82t-35 -81.5t-82 -34.5zM381 1434q61 0 61 -62v-803q0 -55 2 -88t11 -68.5t26 -54.5t47.5 -31t75.5 -12t75.5 12t47.5 31
t26 54.5t11 68.5t2 88v803q0 62 61 62h230q61 0 61 -62v-911q0 -37 -2.5 -71t-14.5 -86.5t-32 -96t-59 -90.5t-91.5 -79.5t-133.5 -53.5t-181 -21t-181 21t-133.5 53.5t-91.5 79.5t-59 90.5t-32 96t-14.5 86.5t-2.5 71v911q0 62 62 62h229z" />
    <glyph glyph-name="Yacute" unicode="&#xdd;" horiz-adv-x="1230" 
d="M1079 1892q36 15 26 42.5t-50 27.5h-101q-36 0 -67 -31l-588 -266q-17 -8 -18.5 -24.5t13 -30t38.5 -13.5h26q12 0 22.5 3.5t25 11t20.5 10.5zM86 1434q-35 0 -48.5 -20t1.5 -52l369 -819q4 -8 4 -25v-457q0 -61 61 -61h287q61 0 61 61v457q0 17 4 25l367 819
q15 32 1.5 52t-48.5 20h-293q-53 0 -70 -48l-151 -380q-6 -14 -14.5 -14t-14.5 14l-151 380q-17 48 -70 48h-295z" />
    <glyph glyph-name="agrave" unicode="&#xe0;" 
d="M164 1927l614 -305q6 -3 17 -9t17 -8.5t15 -5t19 -2.5h26q38 0 49.5 26.5t-16.5 41.5l-549 301q-31 31 -67 31h-101q-40 0 -50 -25.5t26 -44.5zM1096 938q0 63 -3.5 111.5t-15.5 106.5t-33 100.5t-59 85t-90 69t-128.5 43t-172.5 16.5t-172.5 -16.5t-128.5 -43t-90 -69
t-59 -85t-33 -100.5t-15.5 -106.5t-3.5 -111.5v-868q0 -34 16.5 -52t45.5 -18h229q61 0 61 61v179q0 61 62 61h176q61 0 61 -61v-179q0 -61 62 -61h229q62 0 62 70v868zM743 717q0 -61 -61 -64h-176q-29 0 -45.5 16.5t-16.5 45.5v223q0 41 4.5 65t19.5 44.5t45.5 29
t80.5 8.5q95 0 122 -32.5t27 -114.5v-221z" />
    <glyph glyph-name="aacute" unicode="&#xe1;" 
d="M1057 1892q36 15 25.5 42.5t-50.5 27.5h-100q-37 0 -68 -31l-588 -266q-17 -8 -18.5 -24.5t13 -30t38.5 -13.5h27q12 0 22.5 3.5t24.5 11t20 10.5zM1096 938q0 63 -3.5 111.5t-15.5 106.5t-33 100.5t-59 85t-90 69t-128.5 43t-172.5 16.5t-172.5 -16.5t-128.5 -43
t-90 -69t-59 -85t-33 -100.5t-15.5 -106.5t-3.5 -111.5v-868q0 -34 16.5 -52t45.5 -18h229q61 0 61 61v179q0 61 62 61h176q61 0 61 -61v-179q0 -61 62 -61h229q62 0 62 70v868zM743 717q0 -61 -61 -64h-176q-29 0 -45.5 16.5t-16.5 45.5v223q0 41 4.5 65t19.5 44.5t45.5 29
t80.5 8.5q95 0 122 -32.5t27 -114.5v-221z" />
    <glyph glyph-name="acircumflex" unicode="&#xe2;" 
d="M870 1653q36 -36 0 -74l-47 -47q-35 -36 -71 0q-2 2 -9 9.5t-9 8.5t-9 7t-11.5 7.5t-14 5.5t-19 5t-23 3t-30 2.5t-37.5 0.5q-53 0 -80 -5.5t-51 -22.5t-25 -17q-32 -37 -69 0l-48 45q-37 39 0 76q56 56 114 73t153 17q114 0 173.5 -22t112.5 -72zM1096 938
q0 63 -3.5 111.5t-15.5 106.5t-33 100.5t-59 85t-90 69t-128.5 43t-172.5 16.5t-172.5 -16.5t-128.5 -43t-90 -69t-59 -85t-33 -100.5t-15.5 -106.5t-3.5 -111.5v-868q0 -34 16.5 -52t45.5 -18h229q61 0 61 61v179q0 61 62 61h176q61 0 61 -61v-179q0 -61 62 -61h229
q62 0 62 70v868zM743 717q0 -61 -61 -64h-176q-29 0 -45.5 16.5t-16.5 45.5v223q0 41 4.5 65t19.5 44.5t45.5 29t80.5 8.5q95 0 122 -32.5t27 -114.5v-221z" />
    <glyph glyph-name="atilde" unicode="&#xe3;" 
d="M311 1614l70 -23q11 -6 25.5 -0.5t19.5 15.5q13 23 39.5 28t60.5 -3t73.5 -20t81.5 -19.5t80.5 -5t74.5 27.5t61 74q14 32 -20 45l-70 22q-12 4 -25.5 0.5t-19.5 -12.5q-15 -27 -49.5 -30.5t-75 10t-90.5 24.5t-95 14.5t-89 -21.5t-72 -81q-17 -33 20 -45zM1096 938
q0 63 -3.5 111.5t-15.5 106.5t-33 100.5t-59 85t-90 69t-128.5 43t-172.5 16.5t-172.5 -16.5t-128.5 -43t-90 -69t-59 -85t-33 -100.5t-15.5 -106.5t-3.5 -111.5v-868q0 -34 16.5 -52t45.5 -18h229q61 0 61 61v179q0 61 62 61h176q61 0 61 -61v-179q0 -61 62 -61h229
q62 0 62 70v868zM743 717q0 -61 -61 -64h-176q-29 0 -45.5 16.5t-16.5 45.5v223q0 41 4.5 65t19.5 44.5t45.5 29t80.5 8.5q95 0 122 -32.5t27 -114.5v-221z" />
    <glyph glyph-name="adieresis" unicode="&#xe4;" 
d="M385 1604q-47 0 -82 34.5t-35 81.5t35 82t82 35t82 -35t35 -82t-35 -81.5t-82 -34.5zM815 1604q-47 0 -82 34.5t-35 81.5t35 82t82 35t82 -35t35 -82t-35 -81.5t-82 -34.5zM1096 938q0 63 -3.5 111.5t-15.5 106.5t-33 100.5t-59 85t-90 69t-128.5 43t-172.5 16.5
t-172.5 -16.5t-128.5 -43t-90 -69t-59 -85t-33 -100.5t-15.5 -106.5t-3.5 -111.5v-868q0 -34 16.5 -52t45.5 -18h229q61 0 61 61v179q0 61 62 61h176q61 0 61 -61v-179q0 -61 62 -61h229q62 0 62 70v868zM743 717q0 -61 -61 -64h-176q-29 0 -45.5 16.5t-16.5 45.5v223
q0 41 4.5 65t19.5 44.5t45.5 29t80.5 8.5q95 0 122 -32.5t27 -114.5v-221z" />
    <glyph glyph-name="egrave" unicode="&#xe8;" horiz-adv-x="1140" 
d="M141 1927l615 -305q6 -3 16.5 -8.5t16.5 -8.5t15 -5.5t19 -2.5h27q38 0 49.5 26.5t-16.5 41.5l-549 301q-31 31 -68 31h-100q-40 0 -50.5 -25.5t25.5 -44.5zM164 1434q-62 0 -62 -62v-1311q0 -29 16.5 -45t45.5 -16h860q61 0 61 61v230q0 61 -61 61h-496q-29 0 -45 16.5
t-16 45.5v65q0 62 61 62h318q61 0 61 61v229q0 62 -61 62h-318q-61 0 -61 61v66q0 61 61 61h496q61 0 61 62v229q0 62 -61 62h-860z" />
    <glyph glyph-name="eacute" unicode="&#xe9;" horiz-adv-x="1140" 
d="M1034 1892q36 15 26 42.5t-50 27.5h-101q-36 0 -67 -31l-588 -266q-17 -8 -18.5 -24.5t13 -30t38.5 -13.5h26q12 0 22.5 3.5t25 11t20.5 10.5zM164 1434q-62 0 -62 -62v-1311q0 -29 16.5 -45t45.5 -16h860q61 0 61 61v230q0 61 -61 61h-496q-29 0 -45 16.5t-16 45.5v65
q0 62 61 62h318q61 0 61 61v229q0 62 -61 62h-318q-61 0 -61 61v66q0 61 61 61h496q61 0 61 62v229q0 62 -61 62h-860z" />
    <glyph glyph-name="ecircumflex" unicode="&#xea;" horiz-adv-x="1140" 
d="M848 1653q36 -36 0 -74l-47 -47q-36 -36 -72 0q-2 2 -9 9.5t-9 8.5t-9 7t-11.5 7.5t-14 5.5t-19 5t-23 3t-30 2.5t-37.5 0.5q-53 0 -79.5 -5.5t-50 -22t-25.5 -17.5q-33 -37 -70 0l-47 45q-37 39 0 76q56 56 113.5 73t152.5 17q114 0 174 -22t113 -72zM164 1434
q-62 0 -62 -62v-1311q0 -29 16.5 -45t45.5 -16h860q61 0 61 61v230q0 61 -61 61h-496q-29 0 -45 16.5t-16 45.5v65q0 62 61 62h318q61 0 61 61v229q0 62 -61 62h-318q-61 0 -61 61v66q0 61 61 61h496q61 0 61 62v229q0 62 -61 62h-860z" />
    <glyph glyph-name="edieresis" unicode="&#xeb;" horiz-adv-x="1140" 
d="M399 1604q-47 0 -81.5 34.5t-34.5 81.5t34.5 82t81.5 35t82 -35t35 -82t-35 -81.5t-82 -34.5zM829 1604q-47 0 -81.5 34.5t-34.5 81.5t34.5 82t81.5 35t82 -35t35 -82t-35 -81.5t-82 -34.5zM164 1434q-62 0 -62 -62v-1311q0 -29 16.5 -45t45.5 -16h860q61 0 61 61v230
q0 61 -61 61h-496q-29 0 -45 16.5t-16 45.5v65q0 62 61 62h318q61 0 61 61v229q0 62 -61 62h-318q-61 0 -61 61v66q0 61 61 61h496q61 0 61 62v229q0 62 -61 62h-860z" />
    <glyph glyph-name="igrave" unicode="&#xec;" horiz-adv-x="552" 
d="M-154 1927l615 -305q6 -3 16.5 -8.5t16.5 -8.5t15 -5.5t19 -2.5h27q38 0 49.5 26.5t-16.5 41.5l-549 301q-31 31 -68 31h-100q-41 0 -51 -25.5t26 -44.5zM164 1434q-62 0 -62 -62v-1311q0 -29 16.5 -45t45.5 -16h225q62 0 62 61v1311q0 62 -62 62h-225z" />
    <glyph glyph-name="iacute" unicode="&#xed;" horiz-adv-x="552" 
d="M739 1892q36 15 26 42.5t-50 27.5h-101q-36 0 -67 -31l-588 -266q-17 -8 -18.5 -24.5t13 -30t38.5 -13.5h26q12 0 22.5 3.5t25 11t20.5 10.5zM164 1434q-62 0 -62 -62v-1311q0 -29 16.5 -45t45.5 -16h225q62 0 62 61v1311q0 62 -62 62h-225z" />
    <glyph glyph-name="icircumflex" unicode="&#xee;" horiz-adv-x="552" 
d="M610 1710q45 -42 0 -90l-57 -55q-43 -43 -86 0l-182 180q-13 13 -25 0l-176 -176q-19 -20 -41.5 -20t-42.5 20l-57 55q-44 46 0 90l288 291q23 23 41.5 23.5t44.5 -23.5zM164 1434q-62 0 -62 -62v-1311q0 -29 16.5 -45t45.5 -16h225q62 0 62 61v1311q0 62 -62 62h-225z
" />
    <glyph glyph-name="idieresis" unicode="&#xef;" horiz-adv-x="552" 
d="M61 1604q-47 0 -81.5 34.5t-34.5 81.5t34.5 82t81.5 35t82 -35t35 -82t-35 -81.5t-82 -34.5zM492 1604q-47 0 -82 34.5t-35 81.5t35 82t82 35t81.5 -35t34.5 -82t-34.5 -81.5t-81.5 -34.5zM164 1434q-62 0 -62 -62v-1311q0 -29 16.5 -45t45.5 -16h225q62 0 62 61v1311
q0 62 -62 62h-225z" />
    <glyph glyph-name="ntilde" unicode="&#xf1;" horiz-adv-x="1294" 
d="M291 1769q-48 -15 -27 -59q32 -65 79.5 -98.5t99.5 -36.5t107.5 6.5t108.5 25t98.5 26t81 4t52.5 -37.5q7 -13 25 -18t34 0l94 31q47 17 27 59q-32 65 -79.5 98.5t-99.5 36.5t-107.5 -6.5t-108.5 -25t-98.5 -26t-81 -4t-52.5 37.5q-6 12 -25 18.5t-34 -0.5zM164 1434
q-62 0 -62 -62v-1311q0 -29 16.5 -45t45.5 -16h229q62 0 62 61v662q0 15 9 17t15 -11l279 -682q20 -47 71 -47h301q62 0 62 61v1311q0 62 -62 62h-229q-61 0 -61 -62v-661q0 -15 -9.5 -17.5t-15.5 11.5l-278 681q-20 48 -72 48h-301z" />
    <glyph glyph-name="ograve" unicode="&#xf2;" horiz-adv-x="1191" 
d="M166 1927l614 -305q6 -3 17 -9t17 -8.5t15 -5t19 -2.5h26q38 0 49.5 26.5t-16.5 41.5l-549 301q-31 31 -67 31h-101q-40 0 -50 -25.5t26 -44.5zM1110 461q0 -37 -2.5 -71t-14.5 -86.5t-32 -96t-59 -90.5t-91.5 -79.5t-133.5 -53.5t-181 -21t-181 21t-133.5 53.5
t-91.5 79.5t-59 90.5t-32 96t-14.5 86.5t-2.5 71v512q0 37 2.5 71t14.5 86t32 95.5t59 90.5t91.5 79.5t133.5 53.5t181 21t181 -21t133.5 -53.5t91.5 -79.5t59 -90.5t32 -95.5t14.5 -86t2.5 -71v-512zM758 864q0 55 -2 88t-11 68.5t-26 54.5t-47.5 31t-75.5 12t-75.5 -12
t-47.5 -31t-26 -54.5t-11 -68.5t-2 -88v-295q0 -55 2 -88t11 -68.5t26 -54.5t47.5 -31t75.5 -12t75.5 12t47.5 31t26 54.5t11 68.5t2 88v295z" />
    <glyph glyph-name="oacute" unicode="&#xf3;" horiz-adv-x="1191" 
d="M1059 1892q36 15 25.5 42.5t-50.5 27.5h-100q-37 0 -68 -31l-587 -266q-17 -8 -19 -24.5t12.5 -30t38.5 -13.5h27q12 0 22.5 3.5t25 11t20.5 10.5zM1110 461q0 -37 -2.5 -71t-14.5 -86.5t-32 -96t-59 -90.5t-91.5 -79.5t-133.5 -53.5t-181 -21t-181 21t-133.5 53.5
t-91.5 79.5t-59 90.5t-32 96t-14.5 86.5t-2.5 71v512q0 37 2.5 71t14.5 86t32 95.5t59 90.5t91.5 79.5t133.5 53.5t181 21t181 -21t133.5 -53.5t91.5 -79.5t59 -90.5t32 -95.5t14.5 -86t2.5 -71v-512zM758 864q0 55 -2 88t-11 68.5t-26 54.5t-47.5 31t-75.5 12t-75.5 -12
t-47.5 -31t-26 -54.5t-11 -68.5t-2 -88v-295q0 -55 2 -88t11 -68.5t26 -54.5t47.5 -31t75.5 -12t75.5 12t47.5 31t26 54.5t11 68.5t2 88v295z" />
    <glyph glyph-name="ocircumflex" unicode="&#xf4;" horiz-adv-x="1191" 
d="M872 1653q36 -36 0 -74l-47 -47q-35 -36 -71 0q-2 2 -9 9.5t-9 8.5t-9 7t-11.5 7.5t-14 5.5t-19 5t-23 3t-30 2.5t-37.5 0.5q-53 0 -80 -5.5t-51 -22.5t-25 -17q-32 -37 -69 0l-48 45q-37 39 0 76q56 56 114 73t153 17q114 0 173.5 -22t112.5 -72zM1110 461
q0 -37 -2.5 -71t-14.5 -86.5t-32 -96t-59 -90.5t-91.5 -79.5t-133.5 -53.5t-181 -21t-181 21t-133.5 53.5t-91.5 79.5t-59 90.5t-32 96t-14.5 86.5t-2.5 71v512q0 37 2.5 71t14.5 86t32 95.5t59 90.5t91.5 79.5t133.5 53.5t181 21t181 -21t133.5 -53.5t91.5 -79.5t59 -90.5
t32 -95.5t14.5 -86t2.5 -71v-512zM758 864q0 55 -2 88t-11 68.5t-26 54.5t-47.5 31t-75.5 12t-75.5 -12t-47.5 -31t-26 -54.5t-11 -68.5t-2 -88v-295q0 -55 2 -88t11 -68.5t26 -54.5t47.5 -31t75.5 -12t75.5 12t47.5 31t26 54.5t11 68.5t2 88v295z" />
    <glyph glyph-name="otilde" unicode="&#xf5;" horiz-adv-x="1191" 
d="M313 1614l70 -23q11 -6 25.5 -0.5t19.5 15.5q13 23 39.5 28t60.5 -3t73.5 -20t81.5 -19.5t80.5 -5t74.5 27.5t61 74q14 32 -20 45l-70 22q-12 4 -25.5 0.5t-19.5 -12.5q-15 -27 -49.5 -30.5t-75 10t-90.5 24.5t-95 14.5t-89 -21.5t-72 -81q-17 -33 20 -45zM1110 461
q0 -37 -2.5 -71t-14.5 -86.5t-32 -96t-59 -90.5t-91.5 -79.5t-133.5 -53.5t-181 -21t-181 21t-133.5 53.5t-91.5 79.5t-59 90.5t-32 96t-14.5 86.5t-2.5 71v512q0 37 2.5 71t14.5 86t32 95.5t59 90.5t91.5 79.5t133.5 53.5t181 21t181 -21t133.5 -53.5t91.5 -79.5t59 -90.5
t32 -95.5t14.5 -86t2.5 -71v-512zM758 864q0 55 -2 88t-11 68.5t-26 54.5t-47.5 31t-75.5 12t-75.5 -12t-47.5 -31t-26 -54.5t-11 -68.5t-2 -88v-295q0 -55 2 -88t11 -68.5t26 -54.5t47.5 -31t75.5 -12t75.5 12t47.5 31t26 54.5t11 68.5t2 88v295z" />
    <glyph glyph-name="odieresis" unicode="&#xf6;" horiz-adv-x="1191" 
d="M381 1604q-47 0 -82 34.5t-35 81.5t35 82t82 35t82 -35t35 -82t-35 -81.5t-82 -34.5zM811 1604q-47 0 -82 34.5t-35 81.5t35 82t82 35t82 -35t35 -82t-35 -81.5t-82 -34.5zM1110 461q0 -37 -2.5 -71t-14.5 -86.5t-32 -96t-59 -90.5t-91.5 -79.5t-133.5 -53.5t-181 -21
t-181 21t-133.5 53.5t-91.5 79.5t-59 90.5t-32 96t-14.5 86.5t-2.5 71v512q0 37 2.5 71t14.5 86t32 95.5t59 90.5t91.5 79.5t133.5 53.5t181 21t181 -21t133.5 -53.5t91.5 -79.5t59 -90.5t32 -95.5t14.5 -86t2.5 -71v-512zM758 864q0 55 -2 88t-11 68.5t-26 54.5t-47.5 31
t-75.5 12t-75.5 -12t-47.5 -31t-26 -54.5t-11 -68.5t-2 -88v-295q0 -55 2 -88t11 -68.5t26 -54.5t47.5 -31t75.5 -12t75.5 12t47.5 31t26 54.5t11 68.5t2 88v295z" />
    <glyph glyph-name="divide" unicode="&#xf7;" horiz-adv-x="1228" 
d="M614 920q-77 0 -124.5 47t-47.5 125q0 68 49 120t123 52t123 -52t49 -120q0 -78 -47.5 -125t-124.5 -47zM1145 846q61 0 61 -62v-229q0 -61 -61 -61h-1061q-61 0 -61 61v229q0 62 61 62h1061zM614 80q-74 0 -123 52t-49 120q0 78 47.5 125t124.5 47t124.5 -47t47.5 -125
q0 -68 -49 -120t-123 -52z" />
    <glyph glyph-name="oslash" unicode="&#xf8;" horiz-adv-x="1232" 
d="M1087 1454q53 -30 25 -82l-68 -117q66 -114 66 -282v-512q0 -37 -2.5 -71t-14.5 -86.5t-32 -96t-59 -90.5t-91.5 -79.5t-133.5 -53.5t-181 -21q-163 0 -268 51l-35 -59q-29 -48 -82 -12l-68 41q-56 24 -24 77l49 84q-86 122 -86 316v512q0 37 2.5 71t14.5 86t32 95.5
t59 90.5t91.5 79.5t133.5 53.5t181 21q183 0 297 -65l43 74q11 22 33 26.5t47 -12.5zM434 608l275 477q-41 33 -113 33q-45 0 -75.5 -12t-47.5 -31t-26 -54.5t-11 -68.5t-2 -88v-256zM758 760l-248 -428q39 -17 86 -17q45 0 75.5 12t47.5 31t26 54.5t11 68.5t2 88v191z" />
    <glyph glyph-name="ugrave" unicode="&#xf9;" horiz-adv-x="1208" 
d="M174 1927l614 -305q6 -3 17 -9t17 -8.5t15 -5t19 -2.5h27q38 0 49 26.5t-17 41.5l-548 301q-31 31 -68 31h-100q-41 0 -51 -25.5t26 -44.5zM381 1434q61 0 61 -62v-803q0 -55 2 -88t11 -68.5t26 -54.5t47.5 -31t75.5 -12t75.5 12t47.5 31t26 54.5t11 68.5t2 88v803
q0 62 61 62h230q61 0 61 -62v-911q0 -37 -2.5 -71t-14.5 -86.5t-32 -96t-59 -90.5t-91.5 -79.5t-133.5 -53.5t-181 -21t-181 21t-133.5 53.5t-91.5 79.5t-59 90.5t-32 96t-14.5 86.5t-2.5 71v911q0 62 62 62h229z" />
    <glyph glyph-name="uacute" unicode="&#xfa;" horiz-adv-x="1208" 
d="M1067 1892q36 15 25.5 42.5t-50.5 27.5h-100q-37 0 -68 -31l-587 -266q-17 -8 -19 -24.5t12.5 -30t38.5 -13.5h27q12 0 22.5 3.5t25 11t20.5 10.5zM381 1434q61 0 61 -62v-803q0 -55 2 -88t11 -68.5t26 -54.5t47.5 -31t75.5 -12t75.5 12t47.5 31t26 54.5t11 68.5t2 88
v803q0 62 61 62h230q61 0 61 -62v-911q0 -37 -2.5 -71t-14.5 -86.5t-32 -96t-59 -90.5t-91.5 -79.5t-133.5 -53.5t-181 -21t-181 21t-133.5 53.5t-91.5 79.5t-59 90.5t-32 96t-14.5 86.5t-2.5 71v911q0 62 62 62h229z" />
    <glyph glyph-name="ucircumflex" unicode="&#xfb;" horiz-adv-x="1208" 
d="M938 1710q45 -42 0 -90l-57 -55q-43 -43 -86 0l-183 180q-12 12 -24 0l-176 -176q-19 -20 -41.5 -20t-42.5 20l-58 55q-44 46 0 90l289 291q23 23 41.5 23.5t44.5 -23.5zM381 1434q61 0 61 -62v-803q0 -55 2 -88t11 -68.5t26 -54.5t47.5 -31t75.5 -12t75.5 12t47.5 31
t26 54.5t11 68.5t2 88v803q0 62 61 62h230q61 0 61 -62v-911q0 -37 -2.5 -71t-14.5 -86.5t-32 -96t-59 -90.5t-91.5 -79.5t-133.5 -53.5t-181 -21t-181 21t-133.5 53.5t-91.5 79.5t-59 90.5t-32 96t-14.5 86.5t-2.5 71v911q0 62 62 62h229z" />
    <glyph glyph-name="udieresis" unicode="&#xfc;" horiz-adv-x="1208" 
d="M389 1604q-47 0 -82 34.5t-35 81.5t35 82t82 35t82 -35t35 -82t-35 -81.5t-82 -34.5zM819 1604q-47 0 -82 34.5t-35 81.5t35 82t82 35t82 -35t35 -82t-35 -81.5t-82 -34.5zM381 1434q61 0 61 -62v-803q0 -55 2 -88t11 -68.5t26 -54.5t47.5 -31t75.5 -12t75.5 12t47.5 31
t26 54.5t11 68.5t2 88v803q0 62 61 62h230q61 0 61 -62v-911q0 -37 -2.5 -71t-14.5 -86.5t-32 -96t-59 -90.5t-91.5 -79.5t-133.5 -53.5t-181 -21t-181 21t-133.5 53.5t-91.5 79.5t-59 90.5t-32 96t-14.5 86.5t-2.5 71v911q0 62 62 62h229z" />
    <glyph glyph-name="yacute" unicode="&#xfd;" horiz-adv-x="1230" 
d="M1079 1892q36 15 26 42.5t-50 27.5h-101q-36 0 -67 -31l-588 -266q-17 -8 -18.5 -24.5t13 -30t38.5 -13.5h26q12 0 22.5 3.5t25 11t20.5 10.5zM86 1434q-35 0 -48.5 -20t1.5 -52l369 -819q4 -8 4 -25v-457q0 -61 61 -61h287q61 0 61 61v457q0 17 4 25l367 819
q15 32 1.5 52t-48.5 20h-293q-53 0 -70 -48l-151 -380q-6 -14 -14.5 -14t-14.5 14l-151 380q-17 48 -70 48h-295z" />
    <glyph glyph-name="Abreve" unicode="&#x102;" 
d="M866 1655q-53 -50 -112.5 -72t-173.5 -22q-95 0 -153 17t-114 73q-36 36 0 75l47 46q37 37 70 0q2 -1 25.5 -18t50.5 -22.5t80 -5.5q21 0 37.5 0.5t30 2.5t23.5 3.5t19 5t13.5 5.5t11.5 7.5t9 7.5l9 9l9 9q36 36 71 0l47 -47q36 -38 0 -74zM1096 938q0 63 -3.5 111.5
t-15.5 106.5t-33 100.5t-59 85t-90 69t-128.5 43t-172.5 16.5t-172.5 -16.5t-128.5 -43t-90 -69t-59 -85t-33 -100.5t-15.5 -106.5t-3.5 -111.5v-868q0 -34 16.5 -52t45.5 -18h229q61 0 61 61v179q0 61 62 61h176q61 0 61 -61v-179q0 -61 62 -61h229q62 0 62 70v868z
M743 717q0 -61 -61 -64h-176q-29 0 -45.5 16.5t-16.5 45.5v223q0 41 4.5 65t19.5 44.5t45.5 29t80.5 8.5q95 0 122 -32.5t27 -114.5v-221z" />
    <glyph glyph-name="abreve" unicode="&#x103;" 
d="M866 1655q-53 -50 -112.5 -72t-173.5 -22q-95 0 -153 17t-114 73q-36 36 0 75l47 46q37 37 70 0q2 -1 25.5 -18t50.5 -22.5t80 -5.5q21 0 37.5 0.5t30 2.5t23.5 3.5t19 5t13.5 5.5t11.5 7.5t9 7.5l9 9l9 9q36 36 71 0l47 -47q36 -38 0 -74zM1096 938q0 63 -3.5 111.5
t-15.5 106.5t-33 100.5t-59 85t-90 69t-128.5 43t-172.5 16.5t-172.5 -16.5t-128.5 -43t-90 -69t-59 -85t-33 -100.5t-15.5 -106.5t-3.5 -111.5v-868q0 -34 16.5 -52t45.5 -18h229q61 0 61 61v179q0 61 62 61h176q61 0 61 -61v-179q0 -61 62 -61h229q62 0 62 70v868z
M743 717q0 -61 -61 -64h-176q-29 0 -45.5 16.5t-16.5 45.5v223q0 41 4.5 65t19.5 44.5t45.5 29t80.5 8.5q95 0 122 -32.5t27 -114.5v-221z" />
    <glyph glyph-name="Dcroat" unicode="&#x110;" horiz-adv-x="1214" 
d="M621 1434q144 0 242.5 -29t158 -91.5t85.5 -152.5t26 -219v-448q0 -129 -26 -219.5t-85.5 -153t-158 -92t-242.5 -29.5h-457q-29 0 -45.5 16t-16.5 45v523h-157q-37 0 -37 37v143q0 37 37 37h157v569q0 61 62 64h457zM774 492v450q0 47 -8.5 75.5t-29 42t-44 17.5
t-65.5 4h-111q-61 0 -61 -61v-606q0 -29 16 -45.5t45 -16.5h111q80 0 113.5 26.5t33.5 113.5z" />
    <glyph glyph-name="dcroat" unicode="&#x111;" horiz-adv-x="1214" 
d="M621 1434q144 0 242.5 -29t158 -91.5t85.5 -152.5t26 -219v-448q0 -129 -26 -219.5t-85.5 -153t-158 -92t-242.5 -29.5h-457q-29 0 -45.5 16t-16.5 45v523h-157q-37 0 -37 37v143q0 37 37 37h157v569q0 61 62 64h457zM774 492v450q0 47 -8.5 75.5t-29 42t-44 17.5
t-65.5 4h-111q-61 0 -61 -61v-606q0 -29 16 -45.5t45 -16.5h111q80 0 113.5 26.5t33.5 113.5z" />
    <glyph glyph-name="Itilde" unicode="&#x128;" horiz-adv-x="552" 
d="M-6 1614l69 -23q11 -6 26 -0.5t20 15.5q13 23 39.5 28t60.5 -3t73.5 -20t81.5 -19.5t80.5 -5t74.5 27.5t61 74q14 31 -21 45l-70 22q-12 4 -25.5 0.5t-19.5 -12.5q-15 -27 -49.5 -30.5t-75 10t-90.5 24.5t-95 14.5t-89 -21.5t-72 -81q-17 -33 21 -45zM164 1434
q-62 0 -62 -62v-1311q0 -29 16.5 -45t45.5 -16h225q62 0 62 61v1311q0 62 -62 62h-225z" />
    <glyph glyph-name="itilde" unicode="&#x129;" horiz-adv-x="552" 
d="M-6 1614l69 -23q11 -6 26 -0.5t20 15.5q13 23 39.5 28t60.5 -3t73.5 -20t81.5 -19.5t80.5 -5t74.5 27.5t61 74q14 31 -21 45l-70 22q-12 4 -25.5 0.5t-19.5 -12.5q-15 -27 -49.5 -30.5t-75 10t-90.5 24.5t-95 14.5t-89 -21.5t-72 -81q-17 -33 21 -45zM164 1434
q-62 0 -62 -62v-1311q0 -29 16.5 -45t45.5 -16h225q62 0 62 61v1311q0 62 -62 62h-225z" />
    <glyph glyph-name="dotlessi" unicode="&#x131;" horiz-adv-x="552" 
d="M164 1434q-62 0 -62 -62v-1311q0 -29 16.5 -45t45.5 -16h225q62 0 62 61v1311q0 62 -62 62h-225z" />
    <glyph glyph-name="Utilde" unicode="&#x168;" horiz-adv-x="1208" 
d="M322 1614l69 -23q11 -6 25.5 -0.5t19.5 15.5q13 23 39.5 28t60.5 -3t73.5 -20t81.5 -19.5t80.5 -5t74.5 27.5t61 74q14 32 -20 45l-70 22q-12 4 -25.5 0.5t-19.5 -12.5q-15 -27 -49.5 -30.5t-75 10t-90.5 24.5t-95 14.5t-89 -21.5t-72 -81q-17 -33 21 -45zM381 1434
q61 0 61 -62v-803q0 -55 2 -88t11 -68.5t26 -54.5t47.5 -31t75.5 -12t75.5 12t47.5 31t26 54.5t11 68.5t2 88v803q0 62 61 62h230q61 0 61 -62v-911q0 -37 -2.5 -71t-14.5 -86.5t-32 -96t-59 -90.5t-91.5 -79.5t-133.5 -53.5t-181 -21t-181 21t-133.5 53.5t-91.5 79.5
t-59 90.5t-32 96t-14.5 86.5t-2.5 71v911q0 62 62 62h229z" />
    <glyph glyph-name="utilde" unicode="&#x169;" horiz-adv-x="1208" 
d="M322 1614l69 -23q11 -6 25.5 -0.5t19.5 15.5q13 23 39.5 28t60.5 -3t73.5 -20t81.5 -19.5t80.5 -5t74.5 27.5t61 74q14 32 -20 45l-70 22q-12 4 -25.5 0.5t-19.5 -12.5q-15 -27 -49.5 -30.5t-75 10t-90.5 24.5t-95 14.5t-89 -21.5t-72 -81q-17 -33 21 -45zM381 1434
q61 0 61 -62v-803q0 -55 2 -88t11 -68.5t26 -54.5t47.5 -31t75.5 -12t75.5 12t47.5 31t26 54.5t11 68.5t2 88v803q0 62 61 62h230q61 0 61 -62v-911q0 -37 -2.5 -71t-14.5 -86.5t-32 -96t-59 -90.5t-91.5 -79.5t-133.5 -53.5t-181 -21t-181 21t-133.5 53.5t-91.5 79.5
t-59 90.5t-32 96t-14.5 86.5t-2.5 71v911q0 62 62 62h229z" />
    <glyph glyph-name="Ohorn" unicode="&#x1a0;" horiz-adv-x="1191" 
d="M1178 1569v-19q5 -206 -156 -260q88 -122 88 -317v-512q0 -37 -2.5 -71t-14.5 -86.5t-32 -96t-59 -90.5t-91.5 -79.5t-133.5 -53.5t-181 -21t-181 21t-133.5 53.5t-91.5 79.5t-59 90.5t-32 96t-14.5 86.5t-2.5 71v512q0 37 2.5 71t14.5 86t32 95.5t59 90.5t91.5 79.5
t133.5 53.5t181 21q204 0 326 -81q69 23 84.5 40t15.5 54v86q0 47 45 47h66q48 0 45 -47zM758 569v295q0 55 -2 88t-11 68.5t-26 54.5t-47.5 31t-75.5 12t-75.5 -12t-47.5 -31t-26 -54.5t-11 -68.5t-2 -88v-295q0 -55 2 -88t11 -68.5t26 -54.5t47.5 -31t75.5 -12t75.5 12
t47.5 31t26 54.5t11 68.5t2 88z" />
    <glyph glyph-name="ohorn" unicode="&#x1a1;" horiz-adv-x="1191" 
d="M1161 1550q5 -199 -141 -254q90 -124 90 -323v-512q0 -37 -2.5 -71t-14.5 -86.5t-32 -96t-59 -90.5t-91.5 -79.5t-133.5 -53.5t-181 -21t-181 21t-133.5 53.5t-91.5 79.5t-59 90.5t-32 96t-14.5 86.5t-2.5 71v512q0 37 2.5 71t14.5 86t32 95.5t59 90.5t91.5 79.5
t133.5 53.5t181 21q199 0 322 -79q60 23 74 39.5t14 52.5v86q0 47 45 47h65q48 0 45 -47v-19zM758 569v295q0 55 -2 88t-11 68.5t-26 54.5t-47.5 31t-75.5 12t-75.5 -12t-47.5 -31t-26 -54.5t-11 -68.5t-2 -88v-295q0 -55 2 -88t11 -68.5t26 -54.5t47.5 -31t75.5 -12
t75.5 12t47.5 31t26 54.5t11 68.5t2 88z" />
    <glyph glyph-name="Uhorn" unicode="&#x1af;" horiz-adv-x="1208" 
d="M1323 1569v-19q5 -235 -205 -272v-817q0 -37 -2.5 -71t-14.5 -86.5t-32 -96t-59 -90.5t-91.5 -79.5t-133.5 -53.5t-181 -21t-181 21t-133.5 53.5t-91.5 79.5t-59 90.5t-32 96t-14.5 86.5t-2.5 71v911q0 62 62 62h229q61 0 61 -62v-803q0 -55 2 -88t11 -68.5t26 -54.5
t47.5 -31t75.5 -12t75.5 12t47.5 31t26 54.5t11 68.5t2 88v803q0 62 61 62h230q42 0 55 -29q37 16 46 31.5t9 46.5v86q0 47 45 47h66q48 0 45 -47z" />
    <glyph glyph-name="uhorn" unicode="&#x1b0;" horiz-adv-x="1208" 
d="M1323 1569v-19q5 -235 -205 -272v-817q0 -37 -2.5 -71t-14.5 -86.5t-32 -96t-59 -90.5t-91.5 -79.5t-133.5 -53.5t-181 -21t-181 21t-133.5 53.5t-91.5 79.5t-59 90.5t-32 96t-14.5 86.5t-2.5 71v911q0 62 62 62h229q61 0 61 -62v-803q0 -55 2 -88t11 -68.5t26 -54.5
t47.5 -31t75.5 -12t75.5 12t47.5 31t26 54.5t11 68.5t2 88v803q0 62 61 62h230q42 0 55 -29q37 16 46 31.5t9 46.5v86q0 47 45 47h66q48 0 45 -47z" />
    <glyph glyph-name="gravecomb" unicode="&#x300;" horiz-adv-x="0" 
d="M-854 1518l614 -306q5 -2 17 -8.5t17 -8.5t14.5 -4.5t19.5 -2.5h27q38 0 49 26t-17 41l-549 301q-31 31 -67 31h-100q-41 0 -51 -25t26 -44z" />
    <glyph glyph-name="acutecomb" unicode="&#x301;" horiz-adv-x="0" 
d="M469 1483q36 15 25.5 42t-50.5 27h-100q-38 0 -68 -30l-587 -267q-17 -8 -19 -24t12.5 -29.5t38.5 -13.5h27q12 0 22.5 3t25.5 11t20 10z" />
    <glyph glyph-name="uni0302" unicode="&#x302;" horiz-adv-x="0" 
d="M-342 1323q36 -36 0 -74l-47 -47q-36 -36 -72 0q-2 2 -9 9.5t-9 8.5t-9 7t-11.5 7.5t-14 5.5t-19 5t-23 3t-30 2.5t-37.5 0.5q-53 0 -79.5 -5.5t-50 -22t-25.5 -17.5q-33 -37 -70 0l-47 45q-37 39 0 76q56 56 113.5 73t152.5 17q114 0 174 -22t113 -72z" />
    <glyph glyph-name="tildecomb" unicode="&#x303;" horiz-adv-x="0" 
d="M-754 1204l70 -22q12 -5 26 -0.5t19 14.5q13 23 39.5 28t60.5 -3t73.5 -20t81.5 -19.5t80.5 -5t74.5 27.5t61 74q14 32 -20 45l-70 23q-12 4 -25.5 0t-19.5 -13q-15 -27 -49.5 -30.5t-75 10t-90.5 24.5t-95 14.5t-89 -21.5t-72 -81q-17 -33 20 -45z" />
    <glyph glyph-name="uni0306" unicode="&#x306;" horiz-adv-x="0" 
d="M-342 1245q-53 -50 -113 -72t-174 -22q-95 0 -152.5 17t-113.5 73q-37 37 0 76l47 45q37 37 70 0q2 -1 25.5 -17.5t50 -22t79.5 -5.5q21 0 37.5 0.5t30 2.5t23 3t19 5t14 5.5t11.5 7.5t9 7t9 8.5t9 9.5q36 36 72 0l47 -47q36 -38 0 -74z" />
    <glyph glyph-name="hookabovecomb" unicode="&#x309;" horiz-adv-x="0" 
d="M-469 1808l-16 -71q-6 -13 0.5 -26.5t17.5 -18.5q27 -12 33 -45.5t-4 -75.5t-16.5 -92.5t-6 -96t29 -87t87.5 -64.5q34 -12 43 24l16 72q3 12 -2 24.5t-14 18.5q-28 13 -34.5 46.5t3 75.5t16.5 92.5t6.5 95.5t-29 86.5t-87.5 64.5q-34 15 -43 -23z" />
    <glyph glyph-name="uni031B" unicode="&#x31b;" horiz-adv-x="0" 
d="M-236 862q-14 0 -20.5 48t8.5 53q73 23 103.5 38.5t37.5 29t7 42.5v86q0 47 45 47h65q48 0 45 -47v-18q1 -40 -3.5 -72.5t-21.5 -73t-47 -68t-86 -46.5t-133 -19z" />
    <glyph glyph-name="dotbelowcomb" unicode="&#x323;" horiz-adv-x="0" 
d="M-598 -369q-47 0 -82 35t-35 82t35 82t82 35t82 -35t35 -82t-35 -82t-82 -35z" />
    <glyph glyph-name="uni1EA0" unicode="&#x1ea0;" 
d="M1096 938q0 63 -3.5 111.5t-15.5 106.5t-33 100.5t-59 85t-90 69t-128.5 43t-172.5 16.5t-172.5 -16.5t-128.5 -43t-90 -69t-59 -85t-33 -100.5t-15.5 -106.5t-3.5 -111.5v-868q0 -34 16.5 -52t45.5 -18h229q61 0 61 61v179q0 61 62 61h176q61 0 61 -61v-179
q0 -61 62 -61h229q62 0 62 70v868zM743 717q0 -61 -61 -64h-176q-29 0 -45.5 16.5t-16.5 45.5v223q0 41 4.5 65t19.5 44.5t45.5 29t80.5 8.5q95 0 122 -32.5t27 -114.5v-221zM594 -369q-47 0 -82 35t-35 82t35 82t82 35t82 -35t35 -82t-35 -82t-82 -35z" />
    <glyph glyph-name="uni1EA1" unicode="&#x1ea1;" 
d="M1096 938q0 63 -3.5 111.5t-15.5 106.5t-33 100.5t-59 85t-90 69t-128.5 43t-172.5 16.5t-172.5 -16.5t-128.5 -43t-90 -69t-59 -85t-33 -100.5t-15.5 -106.5t-3.5 -111.5v-868q0 -34 16.5 -52t45.5 -18h229q61 0 61 61v179q0 61 62 61h176q61 0 61 -61v-179
q0 -61 62 -61h229q62 0 62 70v868zM743 717q0 -61 -61 -64h-176q-29 0 -45.5 16.5t-16.5 45.5v223q0 41 4.5 65t19.5 44.5t45.5 29t80.5 8.5q95 0 122 -32.5t27 -114.5v-221zM594 -369q-47 0 -82 35t-35 82t35 82t82 35t82 -35t35 -82t-35 -82t-82 -35z" />
    <glyph glyph-name="uni1EA2" unicode="&#x1ea2;" 
d="M504 2138l-17 -72q-6 -13 1 -26.5t18 -18.5q27 -12 33 -45.5t-4 -75.5t-16.5 -92.5t-6 -95.5t29 -86.5t87.5 -64.5q34 -12 43 24l16 72q3 12 -2 24.5t-14 18.5q-28 13 -34.5 46.5t3 75.5t16.5 92.5t6.5 95.5t-29 86.5t-87.5 64.5q-34 15 -43 -23zM1096 938
q0 63 -3.5 111.5t-15.5 106.5t-33 100.5t-59 85t-90 69t-128.5 43t-172.5 16.5t-172.5 -16.5t-128.5 -43t-90 -69t-59 -85t-33 -100.5t-15.5 -106.5t-3.5 -111.5v-868q0 -34 16.5 -52t45.5 -18h229q61 0 61 61v179q0 61 62 61h176q61 0 61 -61v-179q0 -61 62 -61h229
q62 0 62 70v868zM743 717q0 -61 -61 -64h-176q-29 0 -45.5 16.5t-16.5 45.5v223q0 41 4.5 65t19.5 44.5t45.5 29t80.5 8.5q95 0 122 -32.5t27 -114.5v-221z" />
    <glyph glyph-name="uni1EA3" unicode="&#x1ea3;" 
d="M504 2138l-17 -72q-6 -13 1 -26.5t18 -18.5q27 -12 33 -45.5t-4 -75.5t-16.5 -92.5t-6 -95.5t29 -86.5t87.5 -64.5q34 -12 43 24l16 72q3 12 -2 24.5t-14 18.5q-28 13 -34.5 46.5t3 75.5t16.5 92.5t6.5 95.5t-29 86.5t-87.5 64.5q-34 15 -43 -23zM1096 938
q0 63 -3.5 111.5t-15.5 106.5t-33 100.5t-59 85t-90 69t-128.5 43t-172.5 16.5t-172.5 -16.5t-128.5 -43t-90 -69t-59 -85t-33 -100.5t-15.5 -106.5t-3.5 -111.5v-868q0 -34 16.5 -52t45.5 -18h229q61 0 61 61v179q0 61 62 61h176q61 0 61 -61v-179q0 -61 62 -61h229
q62 0 62 70v868zM743 717q0 -61 -61 -64h-176q-29 0 -45.5 16.5t-16.5 45.5v223q0 41 4.5 65t19.5 44.5t45.5 29t80.5 8.5q95 0 122 -32.5t27 -114.5v-221z" />
    <glyph glyph-name="uni1EA4" unicode="&#x1ea4;" 
d="M1798 1804q36 15 26 42.5t-50 27.5h-101q-36 0 -67 -31l-588 -266q-17 -8 -18.5 -24.5t13 -30t38.5 -13.5h26q12 0 22.5 3.5t25 11t20.5 10.5zM870 1653q36 -36 0 -74l-47 -47q-35 -36 -71 0q-2 2 -9 9.5t-9 8.5t-9 7t-11.5 7.5t-14 5.5t-19 5t-23 3t-30 2.5t-37.5 0.5
q-53 0 -80 -5.5t-51 -22.5t-25 -17q-32 -37 -69 0l-48 45q-37 39 0 76q56 56 114 73t153 17q114 0 173.5 -22t112.5 -72zM1096 938q0 63 -3.5 111.5t-15.5 106.5t-33 100.5t-59 85t-90 69t-128.5 43t-172.5 16.5t-172.5 -16.5t-128.5 -43t-90 -69t-59 -85t-33 -100.5
t-15.5 -106.5t-3.5 -111.5v-868q0 -34 16.5 -52t45.5 -18h229q61 0 61 61v179q0 61 62 61h176q61 0 61 -61v-179q0 -61 62 -61h229q62 0 62 70v868zM743 717q0 -61 -61 -64h-176q-29 0 -45.5 16.5t-16.5 45.5v223q0 41 4.5 65t19.5 44.5t45.5 29t80.5 8.5q95 0 122 -32.5
t27 -114.5v-221z" />
    <glyph glyph-name="uni1EA5" unicode="&#x1ea5;" 
d="M1798 1804q36 15 26 42.5t-50 27.5h-101q-36 0 -67 -31l-588 -266q-17 -8 -18.5 -24.5t13 -30t38.5 -13.5h26q12 0 22.5 3.5t25 11t20.5 10.5zM870 1653q36 -36 0 -74l-47 -47q-35 -36 -71 0q-2 2 -9 9.5t-9 8.5t-9 7t-11.5 7.5t-14 5.5t-19 5t-23 3t-30 2.5t-37.5 0.5
q-53 0 -80 -5.5t-51 -22.5t-25 -17q-32 -37 -69 0l-48 45q-37 39 0 76q56 56 114 73t153 17q114 0 173.5 -22t112.5 -72zM1096 938q0 63 -3.5 111.5t-15.5 106.5t-33 100.5t-59 85t-90 69t-128.5 43t-172.5 16.5t-172.5 -16.5t-128.5 -43t-90 -69t-59 -85t-33 -100.5
t-15.5 -106.5t-3.5 -111.5v-868q0 -34 16.5 -52t45.5 -18h229q61 0 61 61v179q0 61 62 61h176q61 0 61 -61v-179q0 -61 62 -61h229q62 0 62 70v868zM743 717q0 -61 -61 -64h-176q-29 0 -45.5 16.5t-16.5 45.5v223q0 41 4.5 65t19.5 44.5t45.5 29t80.5 8.5q95 0 122 -32.5
t27 -114.5v-221z" />
    <glyph glyph-name="uni1EA6" unicode="&#x1ea6;" 
d="M811 1878l614 -305q6 -3 17 -9t17 -8.5t15 -5t19 -2.5h27q38 0 49 26.5t-17 41.5l-548 301q-31 31 -68 31h-100q-40 0 -50.5 -25.5t25.5 -44.5zM870 1653q36 -36 0 -74l-47 -47q-35 -36 -71 0q-2 2 -9 9.5t-9 8.5t-9 7t-11.5 7.5t-14 5.5t-19 5t-23 3t-30 2.5t-37.5 0.5
q-53 0 -80 -5.5t-51 -22.5t-25 -17q-32 -37 -69 0l-48 45q-37 39 0 76q56 56 114 73t153 17q114 0 173.5 -22t112.5 -72zM1096 938q0 63 -3.5 111.5t-15.5 106.5t-33 100.5t-59 85t-90 69t-128.5 43t-172.5 16.5t-172.5 -16.5t-128.5 -43t-90 -69t-59 -85t-33 -100.5
t-15.5 -106.5t-3.5 -111.5v-868q0 -34 16.5 -52t45.5 -18h229q61 0 61 61v179q0 61 62 61h176q61 0 61 -61v-179q0 -61 62 -61h229q62 0 62 70v868zM743 717q0 -61 -61 -64h-176q-29 0 -45.5 16.5t-16.5 45.5v223q0 41 4.5 65t19.5 44.5t45.5 29t80.5 8.5q95 0 122 -32.5
t27 -114.5v-221z" />
    <glyph glyph-name="uni1EA7" unicode="&#x1ea7;" 
d="M811 1878l614 -305q6 -3 17 -9t17 -8.5t15 -5t19 -2.5h27q38 0 49 26.5t-17 41.5l-548 301q-31 31 -68 31h-100q-40 0 -50.5 -25.5t25.5 -44.5zM870 1653q36 -36 0 -74l-47 -47q-35 -36 -71 0q-2 2 -9 9.5t-9 8.5t-9 7t-11.5 7.5t-14 5.5t-19 5t-23 3t-30 2.5t-37.5 0.5
q-53 0 -80 -5.5t-51 -22.5t-25 -17q-32 -37 -69 0l-48 45q-37 39 0 76q56 56 114 73t153 17q114 0 173.5 -22t112.5 -72zM1096 938q0 63 -3.5 111.5t-15.5 106.5t-33 100.5t-59 85t-90 69t-128.5 43t-172.5 16.5t-172.5 -16.5t-128.5 -43t-90 -69t-59 -85t-33 -100.5
t-15.5 -106.5t-3.5 -111.5v-868q0 -34 16.5 -52t45.5 -18h229q61 0 61 61v179q0 61 62 61h176q61 0 61 -61v-179q0 -61 62 -61h229q62 0 62 70v868zM743 717q0 -61 -61 -64h-176q-29 0 -45.5 16.5t-16.5 45.5v223q0 41 4.5 65t19.5 44.5t45.5 29t80.5 8.5q95 0 122 -32.5
t27 -114.5v-221z" />
    <glyph glyph-name="uni1EA8" unicode="&#x1ea8;" 
d="M977 2163l-16 -72q-6 -13 0.5 -26.5t17.5 -18.5q27 -12 33 -45.5t-4 -75.5t-16.5 -92.5t-6 -96t29 -87t87.5 -64.5q33 -12 43 25l16 71q3 12 -2 24.5t-14 18.5q-28 13 -34.5 46.5t3 75.5t16.5 92.5t6.5 95.5t-29 86.5t-87.5 64.5q-34 15 -43 -22zM870 1653q36 -36 0 -74
l-47 -47q-35 -36 -71 0q-2 2 -9 9.5t-9 8.5t-9 7t-11.5 7.5t-14 5.5t-19 5t-23 3t-30 2.5t-37.5 0.5q-53 0 -80 -5.5t-51 -22.5t-25 -17q-32 -37 -69 0l-48 45q-37 39 0 76q56 56 114 73t153 17q114 0 173.5 -22t112.5 -72zM1096 938q0 63 -3.5 111.5t-15.5 106.5t-33 100.5
t-59 85t-90 69t-128.5 43t-172.5 16.5t-172.5 -16.5t-128.5 -43t-90 -69t-59 -85t-33 -100.5t-15.5 -106.5t-3.5 -111.5v-868q0 -34 16.5 -52t45.5 -18h229q61 0 61 61v179q0 61 62 61h176q61 0 61 -61v-179q0 -61 62 -61h229q62 0 62 70v868zM743 717q0 -61 -61 -64h-176
q-29 0 -45.5 16.5t-16.5 45.5v223q0 41 4.5 65t19.5 44.5t45.5 29t80.5 8.5q95 0 122 -32.5t27 -114.5v-221z" />
    <glyph glyph-name="uni1EA9" unicode="&#x1ea9;" 
d="M977 2163l-16 -72q-6 -13 0.5 -26.5t17.5 -18.5q27 -12 33 -45.5t-4 -75.5t-16.5 -92.5t-6 -96t29 -87t87.5 -64.5q33 -12 43 25l16 71q3 12 -2 24.5t-14 18.5q-28 13 -34.5 46.5t3 75.5t16.5 92.5t6.5 95.5t-29 86.5t-87.5 64.5q-34 15 -43 -22zM870 1653q36 -36 0 -74
l-47 -47q-35 -36 -71 0q-2 2 -9 9.5t-9 8.5t-9 7t-11.5 7.5t-14 5.5t-19 5t-23 3t-30 2.5t-37.5 0.5q-53 0 -80 -5.5t-51 -22.5t-25 -17q-32 -37 -69 0l-48 45q-37 39 0 76q56 56 114 73t153 17q114 0 173.5 -22t112.5 -72zM1096 938q0 63 -3.5 111.5t-15.5 106.5t-33 100.5
t-59 85t-90 69t-128.5 43t-172.5 16.5t-172.5 -16.5t-128.5 -43t-90 -69t-59 -85t-33 -100.5t-15.5 -106.5t-3.5 -111.5v-868q0 -34 16.5 -52t45.5 -18h229q61 0 61 61v179q0 61 62 61h176q61 0 61 -61v-179q0 -61 62 -61h229q62 0 62 70v868zM743 717q0 -61 -61 -64h-176
q-29 0 -45.5 16.5t-16.5 45.5v223q0 41 4.5 65t19.5 44.5t45.5 29t80.5 8.5q95 0 122 -32.5t27 -114.5v-221z" />
    <glyph glyph-name="uni1EAA" unicode="&#x1eaa;" 
d="M870 1653q36 -36 0 -74l-47 -47q-35 -36 -71 0q-2 2 -9 9.5t-9 8.5t-9 7t-11.5 7.5t-14 5.5t-19 5t-23 3t-30 2.5t-37.5 0.5q-53 0 -80 -5.5t-51 -22.5t-25 -17q-32 -37 -69 0l-48 45q-37 39 0 76q56 56 114 73t153 17q114 0 173.5 -22t112.5 -72zM1055 1534l69 -23
q11 -6 25.5 -0.5t19.5 15.5q13 23 39.5 28t60.5 -3t73.5 -20t81.5 -19.5t80.5 -5t74.5 27.5t61 74q14 32 -20 45l-70 22q-12 4 -25.5 0.5t-19.5 -12.5q-15 -27 -49.5 -30.5t-75 10t-90.5 24.5t-95 14.5t-89 -21.5t-72 -81q-16 -33 21 -45zM1096 938q0 63 -3.5 111.5
t-15.5 106.5t-33 100.5t-59 85t-90 69t-128.5 43t-172.5 16.5t-172.5 -16.5t-128.5 -43t-90 -69t-59 -85t-33 -100.5t-15.5 -106.5t-3.5 -111.5v-868q0 -34 16.5 -52t45.5 -18h229q61 0 61 61v179q0 61 62 61h176q61 0 61 -61v-179q0 -61 62 -61h229q62 0 62 70v868z
M743 717q0 -61 -61 -64h-176q-29 0 -45.5 16.5t-16.5 45.5v223q0 41 4.5 65t19.5 44.5t45.5 29t80.5 8.5q95 0 122 -32.5t27 -114.5v-221z" />
    <glyph glyph-name="uni1EAB" unicode="&#x1eab;" 
d="M870 1653q36 -36 0 -74l-47 -47q-35 -36 -71 0q-2 2 -9 9.5t-9 8.5t-9 7t-11.5 7.5t-14 5.5t-19 5t-23 3t-30 2.5t-37.5 0.5q-53 0 -80 -5.5t-51 -22.5t-25 -17q-32 -37 -69 0l-48 45q-37 39 0 76q56 56 114 73t153 17q114 0 173.5 -22t112.5 -72zM1055 1534l69 -23
q11 -6 25.5 -0.5t19.5 15.5q13 23 39.5 28t60.5 -3t73.5 -20t81.5 -19.5t80.5 -5t74.5 27.5t61 74q14 32 -20 45l-70 22q-12 4 -25.5 0.5t-19.5 -12.5q-15 -27 -49.5 -30.5t-75 10t-90.5 24.5t-95 14.5t-89 -21.5t-72 -81q-16 -33 21 -45zM1096 938q0 63 -3.5 111.5
t-15.5 106.5t-33 100.5t-59 85t-90 69t-128.5 43t-172.5 16.5t-172.5 -16.5t-128.5 -43t-90 -69t-59 -85t-33 -100.5t-15.5 -106.5t-3.5 -111.5v-868q0 -34 16.5 -52t45.5 -18h229q61 0 61 61v179q0 61 62 61h176q61 0 61 -61v-179q0 -61 62 -61h229q62 0 62 70v868z
M743 717q0 -61 -61 -64h-176q-29 0 -45.5 16.5t-16.5 45.5v223q0 41 4.5 65t19.5 44.5t45.5 29t80.5 8.5q95 0 122 -32.5t27 -114.5v-221z" />
    <glyph glyph-name="uni1EAC" unicode="&#x1eac;" 
d="M870 1653q36 -36 0 -74l-47 -47q-35 -36 -71 0q-2 2 -9 9.5t-9 8.5t-9 7t-11.5 7.5t-14 5.5t-19 5t-23 3t-30 2.5t-37.5 0.5q-53 0 -80 -5.5t-51 -22.5t-25 -17q-32 -37 -69 0l-48 45q-37 39 0 76q56 56 114 73t153 17q114 0 173.5 -22t112.5 -72zM1096 938
q0 63 -3.5 111.5t-15.5 106.5t-33 100.5t-59 85t-90 69t-128.5 43t-172.5 16.5t-172.5 -16.5t-128.5 -43t-90 -69t-59 -85t-33 -100.5t-15.5 -106.5t-3.5 -111.5v-868q0 -34 16.5 -52t45.5 -18h229q61 0 61 61v179q0 61 62 61h176q61 0 61 -61v-179q0 -61 62 -61h229
q62 0 62 70v868zM743 717q0 -61 -61 -64h-176q-29 0 -45.5 16.5t-16.5 45.5v223q0 41 4.5 65t19.5 44.5t45.5 29t80.5 8.5q95 0 122 -32.5t27 -114.5v-221zM594 -369q-47 0 -82 35t-35 82t35 82t82 35t82 -35t35 -82t-35 -82t-82 -35z" />
    <glyph glyph-name="uni1EAD" unicode="&#x1ead;" 
d="M870 1653q36 -36 0 -74l-47 -47q-35 -36 -71 0q-2 2 -9 9.5t-9 8.5t-9 7t-11.5 7.5t-14 5.5t-19 5t-23 3t-30 2.5t-37.5 0.5q-53 0 -80 -5.5t-51 -22.5t-25 -17q-32 -37 -69 0l-48 45q-37 39 0 76q56 56 114 73t153 17q114 0 173.5 -22t112.5 -72zM1096 938
q0 63 -3.5 111.5t-15.5 106.5t-33 100.5t-59 85t-90 69t-128.5 43t-172.5 16.5t-172.5 -16.5t-128.5 -43t-90 -69t-59 -85t-33 -100.5t-15.5 -106.5t-3.5 -111.5v-868q0 -34 16.5 -52t45.5 -18h229q61 0 61 61v179q0 61 62 61h176q61 0 61 -61v-179q0 -61 62 -61h229
q62 0 62 70v868zM743 717q0 -61 -61 -64h-176q-29 0 -45.5 16.5t-16.5 45.5v223q0 41 4.5 65t19.5 44.5t45.5 29t80.5 8.5q95 0 122 -32.5t27 -114.5v-221zM594 -369q-47 0 -82 35t-35 82t35 82t82 35t82 -35t35 -82t-35 -82t-82 -35z" />
    <glyph glyph-name="uni1EAE" unicode="&#x1eae;" 
d="M1765 1759q36 15 26 42.5t-50 27.5h-101q-36 0 -67 -31l-588 -266q-17 -8 -18.5 -24.5t13 -30t38.5 -13.5h26q12 0 22.5 3.5t25 11t20.5 10.5zM866 1655q-53 -50 -112.5 -72t-173.5 -22q-95 0 -153 17t-114 73q-36 36 0 75l47 46q37 37 70 0q2 -1 25.5 -18t50.5 -22.5
t80 -5.5q21 0 37.5 0.5t30 2.5t23.5 3.5t19 5t13.5 5.5t11.5 7.5t9 7.5l9 9l9 9q36 36 71 0l47 -47q36 -38 0 -74zM1096 938q0 63 -3.5 111.5t-15.5 106.5t-33 100.5t-59 85t-90 69t-128.5 43t-172.5 16.5t-172.5 -16.5t-128.5 -43t-90 -69t-59 -85t-33 -100.5t-15.5 -106.5
t-3.5 -111.5v-868q0 -34 16.5 -52t45.5 -18h229q61 0 61 61v179q0 61 62 61h176q61 0 61 -61v-179q0 -61 62 -61h229q62 0 62 70v868zM743 717q0 -61 -61 -64h-176q-29 0 -45.5 16.5t-16.5 45.5v223q0 41 4.5 65t19.5 44.5t45.5 29t80.5 8.5q95 0 122 -32.5t27 -114.5v-221z
" />
    <glyph glyph-name="uni1EAF" unicode="&#x1eaf;" 
d="M1765 1759q36 15 26 42.5t-50 27.5h-101q-36 0 -67 -31l-588 -266q-17 -8 -18.5 -24.5t13 -30t38.5 -13.5h26q12 0 22.5 3.5t25 11t20.5 10.5zM866 1655q-53 -50 -112.5 -72t-173.5 -22q-95 0 -153 17t-114 73q-36 36 0 75l47 46q37 37 70 0q2 -1 25.5 -18t50.5 -22.5
t80 -5.5q21 0 37.5 0.5t30 2.5t23.5 3.5t19 5t13.5 5.5t11.5 7.5t9 7.5l9 9l9 9q36 36 71 0l47 -47q36 -38 0 -74zM1096 938q0 63 -3.5 111.5t-15.5 106.5t-33 100.5t-59 85t-90 69t-128.5 43t-172.5 16.5t-172.5 -16.5t-128.5 -43t-90 -69t-59 -85t-33 -100.5t-15.5 -106.5
t-3.5 -111.5v-868q0 -34 16.5 -52t45.5 -18h229q61 0 61 61v179q0 61 62 61h176q61 0 61 -61v-179q0 -61 62 -61h229q62 0 62 70v868zM743 717q0 -61 -61 -64h-176q-29 0 -45.5 16.5t-16.5 45.5v223q0 41 4.5 65t19.5 44.5t45.5 29t80.5 8.5q95 0 122 -32.5t27 -114.5v-221z
" />
    <glyph glyph-name="uni1EB0" unicode="&#x1eb0;" 
d="M811 1907l614 -305q6 -3 17 -9t17 -8.5t15 -5t19 -2.5h27q38 0 49 26.5t-17 41.5l-548 301q-30 30 -68 30h-100q-41 0 -51 -25t26 -44zM866 1655q-53 -50 -112.5 -72t-173.5 -22q-95 0 -153 17t-114 73q-36 36 0 75l47 46q37 37 70 0q2 -1 25.5 -18t50.5 -22.5t80 -5.5
q21 0 37.5 0.5t30 2.5t23.5 3.5t19 5t13.5 5.5t11.5 7.5t9 7.5l9 9l9 9q36 36 71 0l47 -47q36 -38 0 -74zM1096 938q0 63 -3.5 111.5t-15.5 106.5t-33 100.5t-59 85t-90 69t-128.5 43t-172.5 16.5t-172.5 -16.5t-128.5 -43t-90 -69t-59 -85t-33 -100.5t-15.5 -106.5
t-3.5 -111.5v-868q0 -34 16.5 -52t45.5 -18h229q61 0 61 61v179q0 61 62 61h176q61 0 61 -61v-179q0 -61 62 -61h229q62 0 62 70v868zM743 717q0 -61 -61 -64h-176q-29 0 -45.5 16.5t-16.5 45.5v223q0 41 4.5 65t19.5 44.5t45.5 29t80.5 8.5q95 0 122 -32.5t27 -114.5v-221z
" />
    <glyph glyph-name="uni1EB1" unicode="&#x1eb1;" 
d="M811 1907l614 -305q6 -3 17 -9t17 -8.5t15 -5t19 -2.5h27q38 0 49 26.5t-17 41.5l-548 301q-30 30 -68 30h-100q-41 0 -51 -25t26 -44zM866 1655q-53 -50 -112.5 -72t-173.5 -22q-95 0 -153 17t-114 73q-36 36 0 75l47 46q37 37 70 0q2 -1 25.5 -18t50.5 -22.5t80 -5.5
q21 0 37.5 0.5t30 2.5t23.5 3.5t19 5t13.5 5.5t11.5 7.5t9 7.5l9 9l9 9q36 36 71 0l47 -47q36 -38 0 -74zM1096 938q0 63 -3.5 111.5t-15.5 106.5t-33 100.5t-59 85t-90 69t-128.5 43t-172.5 16.5t-172.5 -16.5t-128.5 -43t-90 -69t-59 -85t-33 -100.5t-15.5 -106.5
t-3.5 -111.5v-868q0 -34 16.5 -52t45.5 -18h229q61 0 61 61v179q0 61 62 61h176q61 0 61 -61v-179q0 -61 62 -61h229q62 0 62 70v868zM743 717q0 -61 -61 -64h-176q-29 0 -45.5 16.5t-16.5 45.5v223q0 41 4.5 65t19.5 44.5t45.5 29t80.5 8.5q95 0 122 -32.5t27 -114.5v-221z
" />
    <glyph glyph-name="uni1EB2" unicode="&#x1eb2;" 
d="M1006 2193l-17 -71q-6 -13 1 -26.5t18 -18.5q27 -12 33 -45.5t-4 -75.5t-17 -92.5t-6.5 -96t29 -87t87.5 -64.5q35 -12 44 24l16 72q3 12 -2 24.5t-14 18.5q-28 13 -34.5 46.5t3 75.5t16.5 92.5t6.5 95.5t-29 86.5t-87.5 64.5q-34 15 -43 -23zM866 1655
q-53 -50 -112.5 -72t-173.5 -22q-95 0 -153 17t-114 73q-36 36 0 75l47 46q37 37 70 0q2 -1 25.5 -18t50.5 -22.5t80 -5.5q21 0 37.5 0.5t30 2.5t23.5 3.5t19 5t13.5 5.5t11.5 7.5t9 7.5l9 9l9 9q36 36 71 0l47 -47q36 -38 0 -74zM1096 938q0 63 -3.5 111.5t-15.5 106.5
t-33 100.5t-59 85t-90 69t-128.5 43t-172.5 16.5t-172.5 -16.5t-128.5 -43t-90 -69t-59 -85t-33 -100.5t-15.5 -106.5t-3.5 -111.5v-868q0 -34 16.5 -52t45.5 -18h229q61 0 61 61v179q0 61 62 61h176q61 0 61 -61v-179q0 -61 62 -61h229q62 0 62 70v868zM743 717
q0 -61 -61 -64h-176q-29 0 -45.5 16.5t-16.5 45.5v223q0 41 4.5 65t19.5 44.5t45.5 29t80.5 8.5q95 0 122 -32.5t27 -114.5v-221z" />
    <glyph glyph-name="uni1EB3" unicode="&#x1eb3;" 
d="M1006 2193l-17 -71q-6 -13 1 -26.5t18 -18.5q27 -12 33 -45.5t-4 -75.5t-17 -92.5t-6.5 -96t29 -87t87.5 -64.5q35 -12 44 24l16 72q3 12 -2 24.5t-14 18.5q-28 13 -34.5 46.5t3 75.5t16.5 92.5t6.5 95.5t-29 86.5t-87.5 64.5q-34 15 -43 -23zM866 1655
q-53 -50 -112.5 -72t-173.5 -22q-95 0 -153 17t-114 73q-36 36 0 75l47 46q37 37 70 0q2 -1 25.5 -18t50.5 -22.5t80 -5.5q21 0 37.5 0.5t30 2.5t23.5 3.5t19 5t13.5 5.5t11.5 7.5t9 7.5l9 9l9 9q36 36 71 0l47 -47q36 -38 0 -74zM1096 938q0 63 -3.5 111.5t-15.5 106.5
t-33 100.5t-59 85t-90 69t-128.5 43t-172.5 16.5t-172.5 -16.5t-128.5 -43t-90 -69t-59 -85t-33 -100.5t-15.5 -106.5t-3.5 -111.5v-868q0 -34 16.5 -52t45.5 -18h229q61 0 61 61v179q0 61 62 61h176q61 0 61 -61v-179q0 -61 62 -61h229q62 0 62 70v868zM743 717
q0 -61 -61 -64h-176q-29 0 -45.5 16.5t-16.5 45.5v223q0 41 4.5 65t19.5 44.5t45.5 29t80.5 8.5q95 0 122 -32.5t27 -114.5v-221z" />
    <glyph glyph-name="uni1EB4" unicode="&#x1eb4;" 
d="M866 1655q-53 -50 -112.5 -72t-173.5 -22q-95 0 -153 17t-114 73q-36 36 0 75l47 46q37 37 70 0q2 -1 25.5 -18t50.5 -22.5t80 -5.5q21 0 37.5 0.5t30 2.5t23.5 3.5t19 5t13.5 5.5t11.5 7.5t9 7.5l9 9l9 9q36 36 71 0l47 -47q36 -38 0 -74zM1083 1620l70 -23
q11 -6 25.5 -0.5t19.5 15.5q13 23 39.5 28t60.5 -3t73.5 -20t81.5 -19.5t80.5 -5t74.5 27.5t61 74q14 32 -20 45l-70 22q-12 4 -25.5 0.5t-19.5 -12.5q-15 -27 -49.5 -30.5t-75 10t-90.5 24.5t-95 14.5t-89 -21.5t-72 -81q-17 -33 20 -45zM1096 938q0 63 -3.5 111.5
t-15.5 106.5t-33 100.5t-59 85t-90 69t-128.5 43t-172.5 16.5t-172.5 -16.5t-128.5 -43t-90 -69t-59 -85t-33 -100.5t-15.5 -106.5t-3.5 -111.5v-868q0 -34 16.5 -52t45.5 -18h229q61 0 61 61v179q0 61 62 61h176q61 0 61 -61v-179q0 -61 62 -61h229q62 0 62 70v868z
M743 717q0 -61 -61 -64h-176q-29 0 -45.5 16.5t-16.5 45.5v223q0 41 4.5 65t19.5 44.5t45.5 29t80.5 8.5q95 0 122 -32.5t27 -114.5v-221z" />
    <glyph glyph-name="uni1EB5" unicode="&#x1eb5;" 
d="M866 1655q-53 -50 -112.5 -72t-173.5 -22q-95 0 -153 17t-114 73q-36 36 0 75l47 46q37 37 70 0q2 -1 25.5 -18t50.5 -22.5t80 -5.5q21 0 37.5 0.5t30 2.5t23.5 3.5t19 5t13.5 5.5t11.5 7.5t9 7.5l9 9l9 9q36 36 71 0l47 -47q36 -38 0 -74zM1083 1620l70 -23
q11 -6 25.5 -0.5t19.5 15.5q13 23 39.5 28t60.5 -3t73.5 -20t81.5 -19.5t80.5 -5t74.5 27.5t61 74q14 32 -20 45l-70 22q-12 4 -25.5 0.5t-19.5 -12.5q-15 -27 -49.5 -30.5t-75 10t-90.5 24.5t-95 14.5t-89 -21.5t-72 -81q-17 -33 20 -45zM1096 938q0 63 -3.5 111.5
t-15.5 106.5t-33 100.5t-59 85t-90 69t-128.5 43t-172.5 16.5t-172.5 -16.5t-128.5 -43t-90 -69t-59 -85t-33 -100.5t-15.5 -106.5t-3.5 -111.5v-868q0 -34 16.5 -52t45.5 -18h229q61 0 61 61v179q0 61 62 61h176q61 0 61 -61v-179q0 -61 62 -61h229q62 0 62 70v868z
M743 717q0 -61 -61 -64h-176q-29 0 -45.5 16.5t-16.5 45.5v223q0 41 4.5 65t19.5 44.5t45.5 29t80.5 8.5q95 0 122 -32.5t27 -114.5v-221z" />
    <glyph glyph-name="uni1EB6" unicode="&#x1eb6;" 
d="M866 1655q-53 -50 -112.5 -72t-173.5 -22q-95 0 -153 17t-114 73q-36 36 0 75l47 46q37 37 70 0q2 -1 25.5 -18t50.5 -22.5t80 -5.5q21 0 37.5 0.5t30 2.5t23.5 3.5t19 5t13.5 5.5t11.5 7.5t9 7.5l9 9l9 9q36 36 71 0l47 -47q36 -38 0 -74zM1096 938q0 63 -3.5 111.5
t-15.5 106.5t-33 100.5t-59 85t-90 69t-128.5 43t-172.5 16.5t-172.5 -16.5t-128.5 -43t-90 -69t-59 -85t-33 -100.5t-15.5 -106.5t-3.5 -111.5v-868q0 -34 16.5 -52t45.5 -18h229q61 0 61 61v179q0 61 62 61h176q61 0 61 -61v-179q0 -61 62 -61h229q62 0 62 70v868z
M743 717q0 -61 -61 -64h-176q-29 0 -45.5 16.5t-16.5 45.5v223q0 41 4.5 65t19.5 44.5t45.5 29t80.5 8.5q95 0 122 -32.5t27 -114.5v-221zM594 -369q-47 0 -82 35t-35 82t35 82t82 35t82 -35t35 -82t-35 -82t-82 -35z" />
    <glyph glyph-name="uni1EB7" unicode="&#x1eb7;" 
d="M866 1655q-53 -50 -112.5 -72t-173.5 -22q-95 0 -153 17t-114 73q-36 36 0 75l47 46q37 37 70 0q2 -1 25.5 -18t50.5 -22.5t80 -5.5q21 0 37.5 0.5t30 2.5t23.5 3.5t19 5t13.5 5.5t11.5 7.5t9 7.5l9 9l9 9q36 36 71 0l47 -47q36 -38 0 -74zM1096 938q0 63 -3.5 111.5
t-15.5 106.5t-33 100.5t-59 85t-90 69t-128.5 43t-172.5 16.5t-172.5 -16.5t-128.5 -43t-90 -69t-59 -85t-33 -100.5t-15.5 -106.5t-3.5 -111.5v-868q0 -34 16.5 -52t45.5 -18h229q61 0 61 61v179q0 61 62 61h176q61 0 61 -61v-179q0 -61 62 -61h229q62 0 62 70v868z
M743 717q0 -61 -61 -64h-176q-29 0 -45.5 16.5t-16.5 45.5v223q0 41 4.5 65t19.5 44.5t45.5 29t80.5 8.5q95 0 122 -32.5t27 -114.5v-221zM594 -369q-47 0 -82 35t-35 82t35 82t82 35t82 -35t35 -82t-35 -82t-82 -35z" />
    <glyph glyph-name="uni1EB8" unicode="&#x1eb8;" horiz-adv-x="1140" 
d="M164 1434q-62 0 -62 -62v-1311q0 -29 16.5 -45t45.5 -16h860q61 0 61 61v230q0 61 -61 61h-496q-29 0 -45 16.5t-16 45.5v65q0 62 61 62h318q61 0 61 61v229q0 62 -61 62h-318q-61 0 -61 61v66q0 61 61 61h496q61 0 61 62v229q0 62 -61 62h-860zM571 -369q-47 0 -81.5 35
t-34.5 82t34.5 82t81.5 35t82 -35t35 -82t-35 -82t-82 -35z" />
    <glyph glyph-name="uni1EB9" unicode="&#x1eb9;" horiz-adv-x="1140" 
d="M164 1434q-62 0 -62 -62v-1311q0 -29 16.5 -45t45.5 -16h860q61 0 61 61v230q0 61 -61 61h-496q-29 0 -45 16.5t-16 45.5v65q0 62 61 62h318q61 0 61 61v229q0 62 -61 62h-318q-61 0 -61 61v66q0 61 61 61h496q61 0 61 62v229q0 62 -61 62h-860zM571 -369q-47 0 -81.5 35
t-34.5 82t34.5 82t81.5 35t82 -35t35 -82t-35 -82t-82 -35z" />
    <glyph glyph-name="uni1EBA" unicode="&#x1eba;" horiz-adv-x="1140" 
d="M481 2138l-16 -72q-6 -13 0.5 -26.5t17.5 -18.5q27 -12 33 -45.5t-4 -75.5t-16.5 -92.5t-6 -95.5t29 -86.5t87.5 -64.5q34 -12 43 24l17 72q3 12 -2.5 24.5t-14.5 18.5q-28 13 -34.5 46.5t3 75.5t16.5 92.5t6.5 95.5t-29 86.5t-87.5 64.5q-34 15 -43 -23zM164 1434
q-62 0 -62 -62v-1311q0 -29 16.5 -45t45.5 -16h860q61 0 61 61v230q0 61 -61 61h-496q-29 0 -45 16.5t-16 45.5v65q0 62 61 62h318q61 0 61 61v229q0 62 -61 62h-318q-61 0 -61 61v66q0 61 61 61h496q61 0 61 62v229q0 62 -61 62h-860z" />
    <glyph glyph-name="uni1EBB" unicode="&#x1ebb;" horiz-adv-x="1140" 
d="M481 2138l-16 -72q-6 -13 0.5 -26.5t17.5 -18.5q27 -12 33 -45.5t-4 -75.5t-16.5 -92.5t-6 -95.5t29 -86.5t87.5 -64.5q34 -12 43 24l17 72q3 12 -2.5 24.5t-14.5 18.5q-28 13 -34.5 46.5t3 75.5t16.5 92.5t6.5 95.5t-29 86.5t-87.5 64.5q-34 15 -43 -23zM164 1434
q-62 0 -62 -62v-1311q0 -29 16.5 -45t45.5 -16h860q61 0 61 61v230q0 61 -61 61h-496q-29 0 -45 16.5t-16 45.5v65q0 62 61 62h318q61 0 61 61v229q0 62 -61 62h-318q-61 0 -61 61v66q0 61 61 61h496q61 0 61 62v229q0 62 -61 62h-860z" />
    <glyph glyph-name="uni1EBC" unicode="&#x1ebc;" horiz-adv-x="1140" 
d="M289 1614l69 -23q11 -6 25.5 -0.5t19.5 15.5q13 23 39.5 28t60.5 -3t73.5 -20t81.5 -19.5t80.5 -5t74.5 27.5t61 74q14 32 -20 45l-70 22q-12 4 -25.5 0.5t-19.5 -12.5q-15 -27 -49.5 -30.5t-75 10t-90.5 24.5t-95 14.5t-89 -21.5t-72 -81q-16 -33 21 -45zM164 1434
q-62 0 -62 -62v-1311q0 -29 16.5 -45t45.5 -16h860q61 0 61 61v230q0 61 -61 61h-496q-29 0 -45 16.5t-16 45.5v65q0 62 61 62h318q61 0 61 61v229q0 62 -61 62h-318q-61 0 -61 61v66q0 61 61 61h496q61 0 61 62v229q0 62 -61 62h-860z" />
    <glyph glyph-name="uni1EBD" unicode="&#x1ebd;" horiz-adv-x="1140" 
d="M289 1614l69 -23q11 -6 25.5 -0.5t19.5 15.5q13 23 39.5 28t60.5 -3t73.5 -20t81.5 -19.5t80.5 -5t74.5 27.5t61 74q14 32 -20 45l-70 22q-12 4 -25.5 0.5t-19.5 -12.5q-15 -27 -49.5 -30.5t-75 10t-90.5 24.5t-95 14.5t-89 -21.5t-72 -81q-16 -33 21 -45zM164 1434
q-62 0 -62 -62v-1311q0 -29 16.5 -45t45.5 -16h860q61 0 61 61v230q0 61 -61 61h-496q-29 0 -45 16.5t-16 45.5v65q0 62 61 62h318q61 0 61 61v229q0 62 -61 62h-318q-61 0 -61 61v66q0 61 61 61h496q61 0 61 62v229q0 62 -61 62h-860z" />
    <glyph glyph-name="uni1EBE" unicode="&#x1ebe;" horiz-adv-x="1140" 
d="M1776 1804q36 15 25.5 42.5t-50.5 27.5h-100q-37 0 -68 -31l-588 -266q-17 -8 -18.5 -24.5t13 -30t38.5 -13.5h27q12 0 22.5 3.5t24.5 11t20 10.5zM848 1653q36 -36 0 -74l-47 -47q-36 -36 -72 0q-2 2 -9 9.5t-9 8.5t-9 7t-11.5 7.5t-14 5.5t-19 5t-23 3t-30 2.5
t-37.5 0.5q-53 0 -79.5 -5.5t-50 -22t-25.5 -17.5q-33 -37 -70 0l-47 45q-37 39 0 76q56 56 113.5 73t152.5 17q114 0 174 -22t113 -72zM164 1434q-62 0 -62 -62v-1311q0 -29 16.5 -45t45.5 -16h860q61 0 61 61v230q0 61 -61 61h-496q-29 0 -45 16.5t-16 45.5v65q0 62 61 62
h318q61 0 61 61v229q0 62 -61 62h-318q-61 0 -61 61v66q0 61 61 61h496q61 0 61 62v229q0 62 -61 62h-860z" />
    <glyph glyph-name="uni1EBF" unicode="&#x1ebf;" horiz-adv-x="1140" 
d="M1776 1804q36 15 25.5 42.5t-50.5 27.5h-100q-37 0 -68 -31l-588 -266q-17 -8 -18.5 -24.5t13 -30t38.5 -13.5h27q12 0 22.5 3.5t24.5 11t20 10.5zM848 1653q36 -36 0 -74l-47 -47q-36 -36 -72 0q-2 2 -9 9.5t-9 8.5t-9 7t-11.5 7.5t-14 5.5t-19 5t-23 3t-30 2.5
t-37.5 0.5q-53 0 -79.5 -5.5t-50 -22t-25.5 -17.5q-33 -37 -70 0l-47 45q-37 39 0 76q56 56 113.5 73t152.5 17q114 0 174 -22t113 -72zM164 1434q-62 0 -62 -62v-1311q0 -29 16.5 -45t45.5 -16h860q61 0 61 61v230q0 61 -61 61h-496q-29 0 -45 16.5t-16 45.5v65q0 62 61 62
h318q61 0 61 61v229q0 62 -61 62h-318q-61 0 -61 61v66q0 61 61 61h496q61 0 61 62v229q0 62 -61 62h-860z" />
    <glyph glyph-name="uni1EC0" unicode="&#x1ec0;" horiz-adv-x="1140" 
d="M788 1878l615 -305q6 -3 16.5 -8.5t16.5 -8.5t15 -5.5t19 -2.5h27q38 0 49.5 26.5t-16.5 41.5l-549 301q-31 31 -68 31h-100q-41 0 -51 -25.5t26 -44.5zM848 1653q36 -36 0 -74l-47 -47q-36 -36 -72 0q-2 2 -9 9.5t-9 8.5t-9 7t-11.5 7.5t-14 5.5t-19 5t-23 3t-30 2.5
t-37.5 0.5q-53 0 -79.5 -5.5t-50 -22t-25.5 -17.5q-33 -37 -70 0l-47 45q-37 39 0 76q56 56 113.5 73t152.5 17q114 0 174 -22t113 -72zM164 1434q-62 0 -62 -62v-1311q0 -29 16.5 -45t45.5 -16h860q61 0 61 61v230q0 61 -61 61h-496q-29 0 -45 16.5t-16 45.5v65q0 62 61 62
h318q61 0 61 61v229q0 62 -61 62h-318q-61 0 -61 61v66q0 61 61 61h496q61 0 61 62v229q0 62 -61 62h-860z" />
    <glyph glyph-name="uni1EC1" unicode="&#x1ec1;" horiz-adv-x="1140" 
d="M788 1878l615 -305q6 -3 16.5 -8.5t16.5 -8.5t15 -5.5t19 -2.5h27q38 0 49.5 26.5t-16.5 41.5l-549 301q-31 31 -68 31h-100q-41 0 -51 -25.5t26 -44.5zM848 1653q36 -36 0 -74l-47 -47q-36 -36 -72 0q-2 2 -9 9.5t-9 8.5t-9 7t-11.5 7.5t-14 5.5t-19 5t-23 3t-30 2.5
t-37.5 0.5q-53 0 -79.5 -5.5t-50 -22t-25.5 -17.5q-33 -37 -70 0l-47 45q-37 39 0 76q56 56 113.5 73t152.5 17q114 0 174 -22t113 -72zM164 1434q-62 0 -62 -62v-1311q0 -29 16.5 -45t45.5 -16h860q61 0 61 61v230q0 61 -61 61h-496q-29 0 -45 16.5t-16 45.5v65q0 62 61 62
h318q61 0 61 61v229q0 62 -61 62h-318q-61 0 -61 61v66q0 61 61 61h496q61 0 61 62v229q0 62 -61 62h-860z" />
    <glyph glyph-name="uni1EC2" unicode="&#x1ec2;" horiz-adv-x="1140" 
d="M954 2163l-16 -72q-6 -13 0.5 -26.5t17.5 -18.5q27 -12 33 -45.5t-4 -75.5t-16.5 -92.5t-6 -96t29 -87t87.5 -64.5q33 -12 43 25l17 71q3 12 -2.5 24.5t-14.5 18.5q-28 13 -34.5 46.5t3 75.5t16.5 92.5t6.5 95.5t-29 86.5t-87.5 64.5q-34 15 -43 -22zM848 1653
q36 -36 0 -74l-47 -47q-36 -36 -72 0q-2 2 -9 9.5t-9 8.5t-9 7t-11.5 7.5t-14 5.5t-19 5t-23 3t-30 2.5t-37.5 0.5q-53 0 -79.5 -5.5t-50 -22t-25.5 -17.5q-33 -37 -70 0l-47 45q-37 39 0 76q56 56 113.5 73t152.5 17q114 0 174 -22t113 -72zM164 1434q-62 0 -62 -62v-1311
q0 -29 16.5 -45t45.5 -16h860q61 0 61 61v230q0 61 -61 61h-496q-29 0 -45 16.5t-16 45.5v65q0 62 61 62h318q61 0 61 61v229q0 62 -61 62h-318q-61 0 -61 61v66q0 61 61 61h496q61 0 61 62v229q0 62 -61 62h-860z" />
    <glyph glyph-name="uni1EC3" unicode="&#x1ec3;" horiz-adv-x="1140" 
d="M954 2163l-16 -72q-6 -13 0.5 -26.5t17.5 -18.5q27 -12 33 -45.5t-4 -75.5t-16.5 -92.5t-6 -96t29 -87t87.5 -64.5q33 -12 43 25l17 71q3 12 -2.5 24.5t-14.5 18.5q-28 13 -34.5 46.5t3 75.5t16.5 92.5t6.5 95.5t-29 86.5t-87.5 64.5q-34 15 -43 -22zM848 1653
q36 -36 0 -74l-47 -47q-36 -36 -72 0q-2 2 -9 9.5t-9 8.5t-9 7t-11.5 7.5t-14 5.5t-19 5t-23 3t-30 2.5t-37.5 0.5q-53 0 -79.5 -5.5t-50 -22t-25.5 -17.5q-33 -37 -70 0l-47 45q-37 39 0 76q56 56 113.5 73t152.5 17q114 0 174 -22t113 -72zM164 1434q-62 0 -62 -62v-1311
q0 -29 16.5 -45t45.5 -16h860q61 0 61 61v230q0 61 -61 61h-496q-29 0 -45 16.5t-16 45.5v65q0 62 61 62h318q61 0 61 61v229q0 62 -61 62h-318q-61 0 -61 61v66q0 61 61 61h496q61 0 61 62v229q0 62 -61 62h-860z" />
    <glyph glyph-name="uni1EC4" unicode="&#x1ec4;" horiz-adv-x="1140" 
d="M848 1653q36 -36 0 -74l-47 -47q-36 -36 -72 0q-2 2 -9 9.5t-9 8.5t-9 7t-11.5 7.5t-14 5.5t-19 5t-23 3t-30 2.5t-37.5 0.5q-53 0 -79.5 -5.5t-50 -22t-25.5 -17.5q-33 -37 -70 0l-47 45q-37 39 0 76q56 56 113.5 73t152.5 17q114 0 174 -22t113 -72zM1032 1534l70 -23
q11 -6 25.5 -0.5t19.5 15.5q13 23 39.5 28t60.5 -3t73.5 -20t81.5 -19.5t80.5 -5t74.5 27.5t61 74q14 31 -21 45l-69 22q-12 4 -25.5 0.5t-19.5 -12.5q-15 -27 -49.5 -30.5t-75 10t-90.5 24.5t-95 14.5t-89 -21.5t-72 -81q-17 -33 20 -45zM164 1434q-62 0 -62 -62v-1311
q0 -29 16.5 -45t45.5 -16h860q61 0 61 61v230q0 61 -61 61h-496q-29 0 -45 16.5t-16 45.5v65q0 62 61 62h318q61 0 61 61v229q0 62 -61 62h-318q-61 0 -61 61v66q0 61 61 61h496q61 0 61 62v229q0 62 -61 62h-860z" />
    <glyph glyph-name="uni1EC5" unicode="&#x1ec5;" horiz-adv-x="1140" 
d="M848 1653q36 -36 0 -74l-47 -47q-36 -36 -72 0q-2 2 -9 9.5t-9 8.5t-9 7t-11.5 7.5t-14 5.5t-19 5t-23 3t-30 2.5t-37.5 0.5q-53 0 -79.5 -5.5t-50 -22t-25.5 -17.5q-33 -37 -70 0l-47 45q-37 39 0 76q56 56 113.5 73t152.5 17q114 0 174 -22t113 -72zM1032 1534l70 -23
q11 -6 25.5 -0.5t19.5 15.5q13 23 39.5 28t60.5 -3t73.5 -20t81.5 -19.5t80.5 -5t74.5 27.5t61 74q14 31 -21 45l-69 22q-12 4 -25.5 0.5t-19.5 -12.5q-15 -27 -49.5 -30.5t-75 10t-90.5 24.5t-95 14.5t-89 -21.5t-72 -81q-17 -33 20 -45zM164 1434q-62 0 -62 -62v-1311
q0 -29 16.5 -45t45.5 -16h860q61 0 61 61v230q0 61 -61 61h-496q-29 0 -45 16.5t-16 45.5v65q0 62 61 62h318q61 0 61 61v229q0 62 -61 62h-318q-61 0 -61 61v66q0 61 61 61h496q61 0 61 62v229q0 62 -61 62h-860z" />
    <glyph glyph-name="uni1EC6" unicode="&#x1ec6;" horiz-adv-x="1140" 
d="M848 1653q36 -36 0 -74l-47 -47q-36 -36 -72 0q-2 2 -9 9.5t-9 8.5t-9 7t-11.5 7.5t-14 5.5t-19 5t-23 3t-30 2.5t-37.5 0.5q-53 0 -79.5 -5.5t-50 -22t-25.5 -17.5q-33 -37 -70 0l-47 45q-37 39 0 76q56 56 113.5 73t152.5 17q114 0 174 -22t113 -72zM164 1434
q-62 0 -62 -62v-1311q0 -29 16.5 -45t45.5 -16h860q61 0 61 61v230q0 61 -61 61h-496q-29 0 -45 16.5t-16 45.5v65q0 62 61 62h318q61 0 61 61v229q0 62 -61 62h-318q-61 0 -61 61v66q0 61 61 61h496q61 0 61 62v229q0 62 -61 62h-860zM571 -369q-47 0 -81.5 35t-34.5 82
t34.5 82t81.5 35t82 -35t35 -82t-35 -82t-82 -35z" />
    <glyph glyph-name="uni1EC7" unicode="&#x1ec7;" horiz-adv-x="1140" 
d="M848 1653q36 -36 0 -74l-47 -47q-36 -36 -72 0q-2 2 -9 9.5t-9 8.5t-9 7t-11.5 7.5t-14 5.5t-19 5t-23 3t-30 2.5t-37.5 0.5q-53 0 -79.5 -5.5t-50 -22t-25.5 -17.5q-33 -37 -70 0l-47 45q-37 39 0 76q56 56 113.5 73t152.5 17q114 0 174 -22t113 -72zM164 1434
q-62 0 -62 -62v-1311q0 -29 16.5 -45t45.5 -16h860q61 0 61 61v230q0 61 -61 61h-496q-29 0 -45 16.5t-16 45.5v65q0 62 61 62h318q61 0 61 61v229q0 62 -61 62h-318q-61 0 -61 61v66q0 61 61 61h496q61 0 61 62v229q0 62 -61 62h-860zM571 -369q-47 0 -81.5 35t-34.5 82
t34.5 82t81.5 35t82 -35t35 -82t-35 -82t-82 -35z" />
    <glyph glyph-name="uni1EC8" unicode="&#x1ec8;" horiz-adv-x="552" 
d="M186 2138l-16 -72q-6 -13 0.5 -26.5t17.5 -18.5q27 -12 33 -45.5t-4 -75.5t-16.5 -92.5t-6 -95.5t29 -86.5t87.5 -64.5q34 -12 43 24l17 72q3 12 -2.5 24.5t-14.5 18.5q-28 13 -34.5 46.5t3 75.5t16.5 92.5t6.5 95.5t-29 86.5t-87.5 64.5q-34 15 -43 -23zM164 1434
q-62 0 -62 -62v-1311q0 -29 16.5 -45t45.5 -16h225q62 0 62 61v1311q0 62 -62 62h-225z" />
    <glyph glyph-name="uni1EC9" unicode="&#x1ec9;" horiz-adv-x="552" 
d="M186 2138l-16 -72q-6 -13 0.5 -26.5t17.5 -18.5q27 -12 33 -45.5t-4 -75.5t-16.5 -92.5t-6 -95.5t29 -86.5t87.5 -64.5q34 -12 43 24l17 72q3 12 -2.5 24.5t-14.5 18.5q-28 13 -34.5 46.5t3 75.5t16.5 92.5t6.5 95.5t-29 86.5t-87.5 64.5q-34 15 -43 -23zM164 1434
q-62 0 -62 -62v-1311q0 -29 16.5 -45t45.5 -16h225q62 0 62 61v1311q0 62 -62 62h-225z" />
    <glyph glyph-name="uni1ECA" unicode="&#x1eca;" horiz-adv-x="552" 
d="M164 1434q-62 0 -62 -62v-1311q0 -29 16.5 -45t45.5 -16h225q62 0 62 61v1311q0 62 -62 62h-225zM276 -369q-47 0 -81.5 35t-34.5 82t34.5 82t81.5 35t82 -35t35 -82t-35 -82t-82 -35z" />
    <glyph glyph-name="uni1ECB" unicode="&#x1ecb;" horiz-adv-x="552" 
d="M164 1434q-62 0 -62 -62v-1311q0 -29 16.5 -45t45.5 -16h225q62 0 62 61v1311q0 62 -62 62h-225zM276 -369q-47 0 -81.5 35t-34.5 82t34.5 82t81.5 35t82 -35t35 -82t-35 -82t-82 -35z" />
    <glyph glyph-name="uni1ECC" unicode="&#x1ecc;" horiz-adv-x="1191" 
d="M1110 461q0 -37 -2.5 -71t-14.5 -86.5t-32 -96t-59 -90.5t-91.5 -79.5t-133.5 -53.5t-181 -21t-181 21t-133.5 53.5t-91.5 79.5t-59 90.5t-32 96t-14.5 86.5t-2.5 71v512q0 37 2.5 71t14.5 86t32 95.5t59 90.5t91.5 79.5t133.5 53.5t181 21t181 -21t133.5 -53.5
t91.5 -79.5t59 -90.5t32 -95.5t14.5 -86t2.5 -71v-512zM758 864q0 55 -2 88t-11 68.5t-26 54.5t-47.5 31t-75.5 12t-75.5 -12t-47.5 -31t-26 -54.5t-11 -68.5t-2 -88v-295q0 -55 2 -88t11 -68.5t26 -54.5t47.5 -31t75.5 -12t75.5 12t47.5 31t26 54.5t11 68.5t2 88v295z
M596 -369q-47 0 -82 35t-35 82t35 82t82 35t82 -35t35 -82t-35 -82t-82 -35z" />
    <glyph glyph-name="uni1ECD" unicode="&#x1ecd;" horiz-adv-x="1191" 
d="M1110 461q0 -37 -2.5 -71t-14.5 -86.5t-32 -96t-59 -90.5t-91.5 -79.5t-133.5 -53.5t-181 -21t-181 21t-133.5 53.5t-91.5 79.5t-59 90.5t-32 96t-14.5 86.5t-2.5 71v512q0 37 2.5 71t14.5 86t32 95.5t59 90.5t91.5 79.5t133.5 53.5t181 21t181 -21t133.5 -53.5
t91.5 -79.5t59 -90.5t32 -95.5t14.5 -86t2.5 -71v-512zM758 864q0 55 -2 88t-11 68.5t-26 54.5t-47.5 31t-75.5 12t-75.5 -12t-47.5 -31t-26 -54.5t-11 -68.5t-2 -88v-295q0 -55 2 -88t11 -68.5t26 -54.5t47.5 -31t75.5 -12t75.5 12t47.5 31t26 54.5t11 68.5t2 88v295z
M596 -369q-47 0 -82 35t-35 82t35 82t82 35t82 -35t35 -82t-35 -82t-82 -35z" />
    <glyph glyph-name="uni1ECE" unicode="&#x1ece;" horiz-adv-x="1191" 
d="M506 2138l-17 -72q-6 -13 1 -26.5t18 -18.5q27 -12 33 -45.5t-4 -75.5t-16.5 -92.5t-6 -95.5t29 -86.5t87.5 -64.5q34 -12 43 24l16 72q3 12 -2 24.5t-14 18.5q-28 13 -34.5 46.5t3 75.5t16.5 92.5t6.5 95.5t-29 86.5t-87.5 64.5q-34 15 -43 -23zM1110 461
q0 -37 -2.5 -71t-14.5 -86.5t-32 -96t-59 -90.5t-91.5 -79.5t-133.5 -53.5t-181 -21t-181 21t-133.5 53.5t-91.5 79.5t-59 90.5t-32 96t-14.5 86.5t-2.5 71v512q0 37 2.5 71t14.5 86t32 95.5t59 90.5t91.5 79.5t133.5 53.5t181 21t181 -21t133.5 -53.5t91.5 -79.5t59 -90.5
t32 -95.5t14.5 -86t2.5 -71v-512zM758 864q0 55 -2 88t-11 68.5t-26 54.5t-47.5 31t-75.5 12t-75.5 -12t-47.5 -31t-26 -54.5t-11 -68.5t-2 -88v-295q0 -55 2 -88t11 -68.5t26 -54.5t47.5 -31t75.5 -12t75.5 12t47.5 31t26 54.5t11 68.5t2 88v295z" />
    <glyph glyph-name="uni1ECF" unicode="&#x1ecf;" horiz-adv-x="1191" 
d="M506 2138l-17 -72q-6 -13 1 -26.5t18 -18.5q27 -12 33 -45.5t-4 -75.5t-16.5 -92.5t-6 -95.5t29 -86.5t87.5 -64.5q34 -12 43 24l16 72q3 12 -2 24.5t-14 18.5q-28 13 -34.5 46.5t3 75.5t16.5 92.5t6.5 95.5t-29 86.5t-87.5 64.5q-34 15 -43 -23zM1110 461
q0 -37 -2.5 -71t-14.5 -86.5t-32 -96t-59 -90.5t-91.5 -79.5t-133.5 -53.5t-181 -21t-181 21t-133.5 53.5t-91.5 79.5t-59 90.5t-32 96t-14.5 86.5t-2.5 71v512q0 37 2.5 71t14.5 86t32 95.5t59 90.5t91.5 79.5t133.5 53.5t181 21t181 -21t133.5 -53.5t91.5 -79.5t59 -90.5
t32 -95.5t14.5 -86t2.5 -71v-512zM758 864q0 55 -2 88t-11 68.5t-26 54.5t-47.5 31t-75.5 12t-75.5 -12t-47.5 -31t-26 -54.5t-11 -68.5t-2 -88v-295q0 -55 2 -88t11 -68.5t26 -54.5t47.5 -31t75.5 -12t75.5 12t47.5 31t26 54.5t11 68.5t2 88v295z" />
    <glyph glyph-name="uni1ED0" unicode="&#x1ed0;" horiz-adv-x="1191" 
d="M1800 1804q36 15 26 42.5t-50 27.5h-101q-36 0 -67 -31l-588 -266q-17 -8 -18.5 -24.5t13 -30t38.5 -13.5h26q12 0 22.5 3.5t25 11t20.5 10.5zM872 1653q36 -36 0 -74l-47 -47q-35 -36 -71 0q-2 2 -9 9.5t-9 8.5t-9 7t-11.5 7.5t-14 5.5t-19 5t-23 3t-30 2.5t-37.5 0.5
q-53 0 -80 -5.5t-51 -22.5t-25 -17q-32 -37 -69 0l-48 45q-37 39 0 76q56 56 114 73t153 17q114 0 173.5 -22t112.5 -72zM1110 461q0 -37 -2.5 -71t-14.5 -86.5t-32 -96t-59 -90.5t-91.5 -79.5t-133.5 -53.5t-181 -21t-181 21t-133.5 53.5t-91.5 79.5t-59 90.5t-32 96
t-14.5 86.5t-2.5 71v512q0 37 2.5 71t14.5 86t32 95.5t59 90.5t91.5 79.5t133.5 53.5t181 21t181 -21t133.5 -53.5t91.5 -79.5t59 -90.5t32 -95.5t14.5 -86t2.5 -71v-512zM758 864q0 55 -2 88t-11 68.5t-26 54.5t-47.5 31t-75.5 12t-75.5 -12t-47.5 -31t-26 -54.5t-11 -68.5
t-2 -88v-295q0 -55 2 -88t11 -68.5t26 -54.5t47.5 -31t75.5 -12t75.5 12t47.5 31t26 54.5t11 68.5t2 88v295z" />
    <glyph glyph-name="uni1ED1" unicode="&#x1ed1;" horiz-adv-x="1191" 
d="M1800 1804q36 15 26 42.5t-50 27.5h-101q-36 0 -67 -31l-588 -266q-17 -8 -18.5 -24.5t13 -30t38.5 -13.5h26q12 0 22.5 3.5t25 11t20.5 10.5zM872 1653q36 -36 0 -74l-47 -47q-35 -36 -71 0q-2 2 -9 9.5t-9 8.5t-9 7t-11.5 7.5t-14 5.5t-19 5t-23 3t-30 2.5t-37.5 0.5
q-53 0 -80 -5.5t-51 -22.5t-25 -17q-32 -37 -69 0l-48 45q-37 39 0 76q56 56 114 73t153 17q114 0 173.5 -22t112.5 -72zM1110 461q0 -37 -2.5 -71t-14.5 -86.5t-32 -96t-59 -90.5t-91.5 -79.5t-133.5 -53.5t-181 -21t-181 21t-133.5 53.5t-91.5 79.5t-59 90.5t-32 96
t-14.5 86.5t-2.5 71v512q0 37 2.5 71t14.5 86t32 95.5t59 90.5t91.5 79.5t133.5 53.5t181 21t181 -21t133.5 -53.5t91.5 -79.5t59 -90.5t32 -95.5t14.5 -86t2.5 -71v-512zM758 864q0 55 -2 88t-11 68.5t-26 54.5t-47.5 31t-75.5 12t-75.5 -12t-47.5 -31t-26 -54.5t-11 -68.5
t-2 -88v-295q0 -55 2 -88t11 -68.5t26 -54.5t47.5 -31t75.5 -12t75.5 12t47.5 31t26 54.5t11 68.5t2 88v295z" />
    <glyph glyph-name="uni1ED2" unicode="&#x1ed2;" horiz-adv-x="1191" 
d="M813 1878l614 -305q6 -3 17 -9t17 -8.5t15 -5t19 -2.5h27q38 0 49 26.5t-17 41.5l-548 301q-31 31 -68 31h-100q-40 0 -50.5 -25.5t25.5 -44.5zM872 1653q36 -36 0 -74l-47 -47q-35 -36 -71 0q-2 2 -9 9.5t-9 8.5t-9 7t-11.5 7.5t-14 5.5t-19 5t-23 3t-30 2.5t-37.5 0.5
q-53 0 -80 -5.5t-51 -22.5t-25 -17q-32 -37 -69 0l-48 45q-37 39 0 76q56 56 114 73t153 17q114 0 173.5 -22t112.5 -72zM1110 461q0 -37 -2.5 -71t-14.5 -86.5t-32 -96t-59 -90.5t-91.5 -79.5t-133.5 -53.5t-181 -21t-181 21t-133.5 53.5t-91.5 79.5t-59 90.5t-32 96
t-14.5 86.5t-2.5 71v512q0 37 2.5 71t14.5 86t32 95.5t59 90.5t91.5 79.5t133.5 53.5t181 21t181 -21t133.5 -53.5t91.5 -79.5t59 -90.5t32 -95.5t14.5 -86t2.5 -71v-512zM758 864q0 55 -2 88t-11 68.5t-26 54.5t-47.5 31t-75.5 12t-75.5 -12t-47.5 -31t-26 -54.5t-11 -68.5
t-2 -88v-295q0 -55 2 -88t11 -68.5t26 -54.5t47.5 -31t75.5 -12t75.5 12t47.5 31t26 54.5t11 68.5t2 88v295z" />
    <glyph glyph-name="uni1ED3" unicode="&#x1ed3;" horiz-adv-x="1191" 
d="M813 1878l614 -305q6 -3 17 -9t17 -8.5t15 -5t19 -2.5h27q38 0 49 26.5t-17 41.5l-548 301q-31 31 -68 31h-100q-40 0 -50.5 -25.5t25.5 -44.5zM872 1653q36 -36 0 -74l-47 -47q-35 -36 -71 0q-2 2 -9 9.5t-9 8.5t-9 7t-11.5 7.5t-14 5.5t-19 5t-23 3t-30 2.5t-37.5 0.5
q-53 0 -80 -5.5t-51 -22.5t-25 -17q-32 -37 -69 0l-48 45q-37 39 0 76q56 56 114 73t153 17q114 0 173.5 -22t112.5 -72zM1110 461q0 -37 -2.5 -71t-14.5 -86.5t-32 -96t-59 -90.5t-91.5 -79.5t-133.5 -53.5t-181 -21t-181 21t-133.5 53.5t-91.5 79.5t-59 90.5t-32 96
t-14.5 86.5t-2.5 71v512q0 37 2.5 71t14.5 86t32 95.5t59 90.5t91.5 79.5t133.5 53.5t181 21t181 -21t133.5 -53.5t91.5 -79.5t59 -90.5t32 -95.5t14.5 -86t2.5 -71v-512zM758 864q0 55 -2 88t-11 68.5t-26 54.5t-47.5 31t-75.5 12t-75.5 -12t-47.5 -31t-26 -54.5t-11 -68.5
t-2 -88v-295q0 -55 2 -88t11 -68.5t26 -54.5t47.5 -31t75.5 -12t75.5 12t47.5 31t26 54.5t11 68.5t2 88v295z" />
    <glyph glyph-name="uni1ED4" unicode="&#x1ed4;" horiz-adv-x="1191" 
d="M979 2163l-16 -72q-6 -13 0.5 -26.5t17.5 -18.5q27 -12 33 -45.5t-4 -75.5t-16.5 -92.5t-6 -96t29 -87t87.5 -64.5q33 -12 43 25l16 71q3 12 -2 24.5t-14 18.5q-28 13 -34.5 46.5t3 75.5t16.5 92.5t6.5 95.5t-29 86.5t-87.5 64.5q-34 15 -43 -22zM872 1653q36 -36 0 -74
l-47 -47q-35 -36 -71 0q-2 2 -9 9.5t-9 8.5t-9 7t-11.5 7.5t-14 5.5t-19 5t-23 3t-30 2.5t-37.5 0.5q-53 0 -80 -5.5t-51 -22.5t-25 -17q-32 -37 -69 0l-48 45q-37 39 0 76q56 56 114 73t153 17q114 0 173.5 -22t112.5 -72zM1110 461q0 -37 -2.5 -71t-14.5 -86.5t-32 -96
t-59 -90.5t-91.5 -79.5t-133.5 -53.5t-181 -21t-181 21t-133.5 53.5t-91.5 79.5t-59 90.5t-32 96t-14.5 86.5t-2.5 71v512q0 37 2.5 71t14.5 86t32 95.5t59 90.5t91.5 79.5t133.5 53.5t181 21t181 -21t133.5 -53.5t91.5 -79.5t59 -90.5t32 -95.5t14.5 -86t2.5 -71v-512z
M758 864q0 55 -2 88t-11 68.5t-26 54.5t-47.5 31t-75.5 12t-75.5 -12t-47.5 -31t-26 -54.5t-11 -68.5t-2 -88v-295q0 -55 2 -88t11 -68.5t26 -54.5t47.5 -31t75.5 -12t75.5 12t47.5 31t26 54.5t11 68.5t2 88v295z" />
    <glyph glyph-name="uni1ED5" unicode="&#x1ed5;" horiz-adv-x="1191" 
d="M979 2163l-16 -72q-6 -13 0.5 -26.5t17.5 -18.5q27 -12 33 -45.5t-4 -75.5t-16.5 -92.5t-6 -96t29 -87t87.5 -64.5q33 -12 43 25l16 71q3 12 -2 24.5t-14 18.5q-28 13 -34.5 46.5t3 75.5t16.5 92.5t6.5 95.5t-29 86.5t-87.5 64.5q-34 15 -43 -22zM872 1653q36 -36 0 -74
l-47 -47q-35 -36 -71 0q-2 2 -9 9.5t-9 8.5t-9 7t-11.5 7.5t-14 5.5t-19 5t-23 3t-30 2.5t-37.5 0.5q-53 0 -80 -5.5t-51 -22.5t-25 -17q-32 -37 -69 0l-48 45q-37 39 0 76q56 56 114 73t153 17q114 0 173.5 -22t112.5 -72zM1110 461q0 -37 -2.5 -71t-14.5 -86.5t-32 -96
t-59 -90.5t-91.5 -79.5t-133.5 -53.5t-181 -21t-181 21t-133.5 53.5t-91.5 79.5t-59 90.5t-32 96t-14.5 86.5t-2.5 71v512q0 37 2.5 71t14.5 86t32 95.5t59 90.5t91.5 79.5t133.5 53.5t181 21t181 -21t133.5 -53.5t91.5 -79.5t59 -90.5t32 -95.5t14.5 -86t2.5 -71v-512z
M758 864q0 55 -2 88t-11 68.5t-26 54.5t-47.5 31t-75.5 12t-75.5 -12t-47.5 -31t-26 -54.5t-11 -68.5t-2 -88v-295q0 -55 2 -88t11 -68.5t26 -54.5t47.5 -31t75.5 -12t75.5 12t47.5 31t26 54.5t11 68.5t2 88v295z" />
    <glyph glyph-name="uni1ED6" unicode="&#x1ed6;" horiz-adv-x="1191" 
d="M872 1653q36 -36 0 -74l-47 -47q-35 -36 -71 0q-2 2 -9 9.5t-9 8.5t-9 7t-11.5 7.5t-14 5.5t-19 5t-23 3t-30 2.5t-37.5 0.5q-53 0 -80 -5.5t-51 -22.5t-25 -17q-32 -37 -69 0l-48 45q-37 39 0 76q56 56 114 73t153 17q114 0 173.5 -22t112.5 -72zM1057 1534l69 -23
q11 -6 25.5 -0.5t19.5 15.5q13 23 39.5 28t60.5 -3t73.5 -20t81.5 -19.5t80.5 -5t74.5 27.5t61 74q14 32 -20 45l-70 22q-12 4 -25.5 0.5t-19.5 -12.5q-15 -27 -49.5 -30.5t-75 10t-90.5 24.5t-95 14.5t-89 -21.5t-72 -81q-16 -33 21 -45zM1110 461q0 -37 -2.5 -71
t-14.5 -86.5t-32 -96t-59 -90.5t-91.5 -79.5t-133.5 -53.5t-181 -21t-181 21t-133.5 53.5t-91.5 79.5t-59 90.5t-32 96t-14.5 86.5t-2.5 71v512q0 37 2.5 71t14.5 86t32 95.5t59 90.5t91.5 79.5t133.5 53.5t181 21t181 -21t133.5 -53.5t91.5 -79.5t59 -90.5t32 -95.5
t14.5 -86t2.5 -71v-512zM758 864q0 55 -2 88t-11 68.5t-26 54.5t-47.5 31t-75.5 12t-75.5 -12t-47.5 -31t-26 -54.5t-11 -68.5t-2 -88v-295q0 -55 2 -88t11 -68.5t26 -54.5t47.5 -31t75.5 -12t75.5 12t47.5 31t26 54.5t11 68.5t2 88v295z" />
    <glyph glyph-name="uni1ED7" unicode="&#x1ed7;" horiz-adv-x="1191" 
d="M872 1653q36 -36 0 -74l-47 -47q-35 -36 -71 0q-2 2 -9 9.5t-9 8.5t-9 7t-11.5 7.5t-14 5.5t-19 5t-23 3t-30 2.5t-37.5 0.5q-53 0 -80 -5.5t-51 -22.5t-25 -17q-32 -37 -69 0l-48 45q-37 39 0 76q56 56 114 73t153 17q114 0 173.5 -22t112.5 -72zM1057 1534l69 -23
q11 -6 25.5 -0.5t19.5 15.5q13 23 39.5 28t60.5 -3t73.5 -20t81.5 -19.5t80.5 -5t74.5 27.5t61 74q14 32 -20 45l-70 22q-12 4 -25.5 0.5t-19.5 -12.5q-15 -27 -49.5 -30.5t-75 10t-90.5 24.5t-95 14.5t-89 -21.5t-72 -81q-16 -33 21 -45zM1110 461q0 -37 -2.5 -71
t-14.5 -86.5t-32 -96t-59 -90.5t-91.5 -79.5t-133.5 -53.5t-181 -21t-181 21t-133.5 53.5t-91.5 79.5t-59 90.5t-32 96t-14.5 86.5t-2.5 71v512q0 37 2.5 71t14.5 86t32 95.5t59 90.5t91.5 79.5t133.5 53.5t181 21t181 -21t133.5 -53.5t91.5 -79.5t59 -90.5t32 -95.5
t14.5 -86t2.5 -71v-512zM758 864q0 55 -2 88t-11 68.5t-26 54.5t-47.5 31t-75.5 12t-75.5 -12t-47.5 -31t-26 -54.5t-11 -68.5t-2 -88v-295q0 -55 2 -88t11 -68.5t26 -54.5t47.5 -31t75.5 -12t75.5 12t47.5 31t26 54.5t11 68.5t2 88v295z" />
    <glyph glyph-name="uni1ED8" unicode="&#x1ed8;" horiz-adv-x="1191" 
d="M872 1653q36 -36 0 -74l-47 -47q-35 -36 -71 0q-2 2 -9 9.5t-9 8.5t-9 7t-11.5 7.5t-14 5.5t-19 5t-23 3t-30 2.5t-37.5 0.5q-53 0 -80 -5.5t-51 -22.5t-25 -17q-32 -37 -69 0l-48 45q-37 39 0 76q56 56 114 73t153 17q114 0 173.5 -22t112.5 -72zM1110 461
q0 -37 -2.5 -71t-14.5 -86.5t-32 -96t-59 -90.5t-91.5 -79.5t-133.5 -53.5t-181 -21t-181 21t-133.5 53.5t-91.5 79.5t-59 90.5t-32 96t-14.5 86.5t-2.5 71v512q0 37 2.5 71t14.5 86t32 95.5t59 90.5t91.5 79.5t133.5 53.5t181 21t181 -21t133.5 -53.5t91.5 -79.5t59 -90.5
t32 -95.5t14.5 -86t2.5 -71v-512zM758 864q0 55 -2 88t-11 68.5t-26 54.5t-47.5 31t-75.5 12t-75.5 -12t-47.5 -31t-26 -54.5t-11 -68.5t-2 -88v-295q0 -55 2 -88t11 -68.5t26 -54.5t47.5 -31t75.5 -12t75.5 12t47.5 31t26 54.5t11 68.5t2 88v295zM596 -369q-47 0 -82 35
t-35 82t35 82t82 35t82 -35t35 -82t-35 -82t-82 -35z" />
    <glyph glyph-name="uni1ED9" unicode="&#x1ed9;" horiz-adv-x="1191" 
d="M872 1653q36 -36 0 -74l-47 -47q-35 -36 -71 0q-2 2 -9 9.5t-9 8.5t-9 7t-11.5 7.5t-14 5.5t-19 5t-23 3t-30 2.5t-37.5 0.5q-53 0 -80 -5.5t-51 -22.5t-25 -17q-32 -37 -69 0l-48 45q-37 39 0 76q56 56 114 73t153 17q114 0 173.5 -22t112.5 -72zM1110 461
q0 -37 -2.5 -71t-14.5 -86.5t-32 -96t-59 -90.5t-91.5 -79.5t-133.5 -53.5t-181 -21t-181 21t-133.5 53.5t-91.5 79.5t-59 90.5t-32 96t-14.5 86.5t-2.5 71v512q0 37 2.5 71t14.5 86t32 95.5t59 90.5t91.5 79.5t133.5 53.5t181 21t181 -21t133.5 -53.5t91.5 -79.5t59 -90.5
t32 -95.5t14.5 -86t2.5 -71v-512zM758 864q0 55 -2 88t-11 68.5t-26 54.5t-47.5 31t-75.5 12t-75.5 -12t-47.5 -31t-26 -54.5t-11 -68.5t-2 -88v-295q0 -55 2 -88t11 -68.5t26 -54.5t47.5 -31t75.5 -12t75.5 12t47.5 31t26 54.5t11 68.5t2 88v295zM596 -369q-47 0 -82 35
t-35 82t35 82t82 35t82 -35t35 -82t-35 -82t-82 -35z" />
    <glyph glyph-name="uni1EDA" unicode="&#x1eda;" horiz-adv-x="1191" 
d="M311 1597q-24 0 -38.5 13.5t-12.5 30t19 24.5l587 266q31 31 68 31h100q40 0 50.5 -27.5t-25.5 -42.5l-653 -270q-6 -3 -20.5 -10.5t-25 -11t-22.5 -3.5h-27zM1178 1569v-19q5 -206 -156 -260q88 -122 88 -317v-512q0 -37 -2.5 -71t-14.5 -86.5t-32 -96t-59 -90.5
t-91.5 -79.5t-133.5 -53.5t-181 -21t-181 21t-133.5 53.5t-91.5 79.5t-59 90.5t-32 96t-14.5 86.5t-2.5 71v512q0 37 2.5 71t14.5 86t32 95.5t59 90.5t91.5 79.5t133.5 53.5t181 21q204 0 326 -81q69 23 84.5 40t15.5 54v86q0 47 45 47h66q48 0 45 -47zM758 569v295
q0 55 -2 88t-11 68.5t-26 54.5t-47.5 31t-75.5 12t-75.5 -12t-47.5 -31t-26 -54.5t-11 -68.5t-2 -88v-295q0 -55 2 -88t11 -68.5t26 -54.5t47.5 -31t75.5 -12t75.5 12t47.5 31t26 54.5t11 68.5t2 88z" />
    <glyph glyph-name="uni1EDB" unicode="&#x1edb;" horiz-adv-x="1191" 
d="M311 1597q-24 0 -38.5 13.5t-12.5 30t19 24.5l587 266q31 31 68 31h100q40 0 50.5 -27.5t-25.5 -42.5l-653 -270q-6 -3 -20.5 -10.5t-25 -11t-22.5 -3.5h-27zM1161 1550q5 -199 -141 -254q90 -124 90 -323v-512q0 -37 -2.5 -71t-14.5 -86.5t-32 -96t-59 -90.5
t-91.5 -79.5t-133.5 -53.5t-181 -21t-181 21t-133.5 53.5t-91.5 79.5t-59 90.5t-32 96t-14.5 86.5t-2.5 71v512q0 37 2.5 71t14.5 86t32 95.5t59 90.5t91.5 79.5t133.5 53.5t181 21q199 0 322 -79q60 23 74 39.5t14 52.5v86q0 47 45 47h65q48 0 45 -47v-19zM758 569v295
q0 55 -2 88t-11 68.5t-26 54.5t-47.5 31t-75.5 12t-75.5 -12t-47.5 -31t-26 -54.5t-11 -68.5t-2 -88v-295q0 -55 2 -88t11 -68.5t26 -54.5t47.5 -31t75.5 -12t75.5 12t47.5 31t26 54.5t11 68.5t2 88z" />
    <glyph glyph-name="uni1EDC" unicode="&#x1edc;" horiz-adv-x="1191" 
d="M166 1927q-36 19 -26 44.5t50 25.5h101q36 0 67 -31l549 -301q28 -15 16.5 -41.5t-49.5 -26.5h-26q-10 0 -19 2.5t-15 5t-17 8.5t-17 9zM1178 1569v-19q5 -206 -156 -260q88 -122 88 -317v-512q0 -37 -2.5 -71t-14.5 -86.5t-32 -96t-59 -90.5t-91.5 -79.5t-133.5 -53.5
t-181 -21t-181 21t-133.5 53.5t-91.5 79.5t-59 90.5t-32 96t-14.5 86.5t-2.5 71v512q0 37 2.5 71t14.5 86t32 95.5t59 90.5t91.5 79.5t133.5 53.5t181 21q204 0 326 -81q69 23 84.5 40t15.5 54v86q0 47 45 47h66q48 0 45 -47zM758 569v295q0 55 -2 88t-11 68.5t-26 54.5
t-47.5 31t-75.5 12t-75.5 -12t-47.5 -31t-26 -54.5t-11 -68.5t-2 -88v-295q0 -55 2 -88t11 -68.5t26 -54.5t47.5 -31t75.5 -12t75.5 12t47.5 31t26 54.5t11 68.5t2 88z" />
    <glyph glyph-name="uni1EDD" unicode="&#x1edd;" horiz-adv-x="1191" 
d="M166 1927q-36 19 -26 44.5t50 25.5h101q36 0 67 -31l549 -301q28 -15 16.5 -41.5t-49.5 -26.5h-26q-10 0 -19 2.5t-15 5t-17 8.5t-17 9zM1161 1550q5 -199 -141 -254q90 -124 90 -323v-512q0 -37 -2.5 -71t-14.5 -86.5t-32 -96t-59 -90.5t-91.5 -79.5t-133.5 -53.5
t-181 -21t-181 21t-133.5 53.5t-91.5 79.5t-59 90.5t-32 96t-14.5 86.5t-2.5 71v512q0 37 2.5 71t14.5 86t32 95.5t59 90.5t91.5 79.5t133.5 53.5t181 21q199 0 322 -79q60 23 74 39.5t14 52.5v86q0 47 45 47h65q48 0 45 -47v-19zM758 569v295q0 55 -2 88t-11 68.5t-26 54.5
t-47.5 31t-75.5 12t-75.5 -12t-47.5 -31t-26 -54.5t-11 -68.5t-2 -88v-295q0 -55 2 -88t11 -68.5t26 -54.5t47.5 -31t75.5 -12t75.5 12t47.5 31t26 54.5t11 68.5t2 88z" />
    <glyph glyph-name="uni1EDE" unicode="&#x1ede;" horiz-adv-x="1191" 
d="M508 2021q-11 5 -18 18.5t-1 26.5l17 72q9 38 43 23q59 -23 87.5 -64.5t29 -86.5t-6.5 -95.5t-16.5 -92.5t-3 -75.5t34.5 -46.5q9 -6 14 -18.5t2 -24.5l-16 -72q-9 -36 -43 -24q-59 23 -87.5 64.5t-29 86.5t6 95.5t16.5 92.5t4 75.5t-33 45.5zM1178 1569v-19
q5 -206 -156 -260q88 -122 88 -317v-512q0 -37 -2.5 -71t-14.5 -86.5t-32 -96t-59 -90.5t-91.5 -79.5t-133.5 -53.5t-181 -21t-181 21t-133.5 53.5t-91.5 79.5t-59 90.5t-32 96t-14.5 86.5t-2.5 71v512q0 37 2.5 71t14.5 86t32 95.5t59 90.5t91.5 79.5t133.5 53.5t181 21
q204 0 326 -81q69 23 84.5 40t15.5 54v86q0 47 45 47h66q48 0 45 -47zM758 569v295q0 55 -2 88t-11 68.5t-26 54.5t-47.5 31t-75.5 12t-75.5 -12t-47.5 -31t-26 -54.5t-11 -68.5t-2 -88v-295q0 -55 2 -88t11 -68.5t26 -54.5t47.5 -31t75.5 -12t75.5 12t47.5 31t26 54.5
t11 68.5t2 88z" />
    <glyph glyph-name="uni1EDF" unicode="&#x1edf;" horiz-adv-x="1191" 
d="M508 2021q-11 5 -18 18.5t-1 26.5l17 72q9 38 43 23q59 -23 87.5 -64.5t29 -86.5t-6.5 -95.5t-16.5 -92.5t-3 -75.5t34.5 -46.5q9 -6 14 -18.5t2 -24.5l-16 -72q-9 -36 -43 -24q-59 23 -87.5 64.5t-29 86.5t6 95.5t16.5 92.5t4 75.5t-33 45.5zM1161 1550
q5 -199 -141 -254q90 -124 90 -323v-512q0 -37 -2.5 -71t-14.5 -86.5t-32 -96t-59 -90.5t-91.5 -79.5t-133.5 -53.5t-181 -21t-181 21t-133.5 53.5t-91.5 79.5t-59 90.5t-32 96t-14.5 86.5t-2.5 71v512q0 37 2.5 71t14.5 86t32 95.5t59 90.5t91.5 79.5t133.5 53.5t181 21
q199 0 322 -79q60 23 74 39.5t14 52.5v86q0 47 45 47h65q48 0 45 -47v-19zM758 569v295q0 55 -2 88t-11 68.5t-26 54.5t-47.5 31t-75.5 12t-75.5 -12t-47.5 -31t-26 -54.5t-11 -68.5t-2 -88v-295q0 -55 2 -88t11 -68.5t26 -54.5t47.5 -31t75.5 -12t75.5 12t47.5 31t26 54.5
t11 68.5t2 88z" />
    <glyph glyph-name="uni1EE0" unicode="&#x1ee0;" horiz-adv-x="1191" 
d="M313 1614q-37 12 -20 45q28 56 72 81t89 21.5t95 -14.5t90.5 -24.5t75 -10t49.5 30.5q6 9 19.5 12.5t25.5 -0.5l70 -22q34 -13 20 -45q-25 -49 -61 -74t-74.5 -27.5t-80.5 5t-81.5 19.5t-73.5 20t-60.5 3t-39.5 -28q-5 -10 -19.5 -15.5t-25.5 0.5zM1178 1569v-19
q5 -206 -156 -260q88 -122 88 -317v-512q0 -37 -2.5 -71t-14.5 -86.5t-32 -96t-59 -90.5t-91.5 -79.5t-133.5 -53.5t-181 -21t-181 21t-133.5 53.5t-91.5 79.5t-59 90.5t-32 96t-14.5 86.5t-2.5 71v512q0 37 2.5 71t14.5 86t32 95.5t59 90.5t91.5 79.5t133.5 53.5t181 21
q204 0 326 -81q69 23 84.5 40t15.5 54v86q0 47 45 47h66q48 0 45 -47zM758 569v295q0 55 -2 88t-11 68.5t-26 54.5t-47.5 31t-75.5 12t-75.5 -12t-47.5 -31t-26 -54.5t-11 -68.5t-2 -88v-295q0 -55 2 -88t11 -68.5t26 -54.5t47.5 -31t75.5 -12t75.5 12t47.5 31t26 54.5
t11 68.5t2 88z" />
    <glyph glyph-name="uni1EE1" unicode="&#x1ee1;" horiz-adv-x="1191" 
d="M313 1614q-37 12 -20 45q28 56 72 81t89 21.5t95 -14.5t90.5 -24.5t75 -10t49.5 30.5q6 9 19.5 12.5t25.5 -0.5l70 -22q34 -13 20 -45q-25 -49 -61 -74t-74.5 -27.5t-80.5 5t-81.5 19.5t-73.5 20t-60.5 3t-39.5 -28q-5 -10 -19.5 -15.5t-25.5 0.5zM1161 1550
q5 -199 -141 -254q90 -124 90 -323v-512q0 -37 -2.5 -71t-14.5 -86.5t-32 -96t-59 -90.5t-91.5 -79.5t-133.5 -53.5t-181 -21t-181 21t-133.5 53.5t-91.5 79.5t-59 90.5t-32 96t-14.5 86.5t-2.5 71v512q0 37 2.5 71t14.5 86t32 95.5t59 90.5t91.5 79.5t133.5 53.5t181 21
q199 0 322 -79q60 23 74 39.5t14 52.5v86q0 47 45 47h65q48 0 45 -47v-19zM758 569v295q0 55 -2 88t-11 68.5t-26 54.5t-47.5 31t-75.5 12t-75.5 -12t-47.5 -31t-26 -54.5t-11 -68.5t-2 -88v-295q0 -55 2 -88t11 -68.5t26 -54.5t47.5 -31t75.5 -12t75.5 12t47.5 31t26 54.5
t11 68.5t2 88z" />
    <glyph glyph-name="uni1EE2" unicode="&#x1ee2;" horiz-adv-x="1191" 
d="M1178 1569v-19q5 -206 -156 -260q88 -122 88 -317v-512q0 -37 -2.5 -71t-14.5 -86.5t-32 -96t-59 -90.5t-91.5 -79.5t-133.5 -53.5t-181 -21t-181 21t-133.5 53.5t-91.5 79.5t-59 90.5t-32 96t-14.5 86.5t-2.5 71v512q0 37 2.5 71t14.5 86t32 95.5t59 90.5t91.5 79.5
t133.5 53.5t181 21q204 0 326 -81q69 23 84.5 40t15.5 54v86q0 47 45 47h66q48 0 45 -47zM758 569v295q0 55 -2 88t-11 68.5t-26 54.5t-47.5 31t-75.5 12t-75.5 -12t-47.5 -31t-26 -54.5t-11 -68.5t-2 -88v-295q0 -55 2 -88t11 -68.5t26 -54.5t47.5 -31t75.5 -12t75.5 12
t47.5 31t26 54.5t11 68.5t2 88zM596 -135q47 0 82 -35t35 -82t-35 -82t-82 -35t-82 35t-35 82t35 82t82 35z" />
    <glyph glyph-name="uni1EE3" unicode="&#x1ee3;" horiz-adv-x="1191" 
d="M1161 1550q5 -199 -141 -254q90 -124 90 -323v-512q0 -37 -2.5 -71t-14.5 -86.5t-32 -96t-59 -90.5t-91.5 -79.5t-133.5 -53.5t-181 -21t-181 21t-133.5 53.5t-91.5 79.5t-59 90.5t-32 96t-14.5 86.5t-2.5 71v512q0 37 2.5 71t14.5 86t32 95.5t59 90.5t91.5 79.5
t133.5 53.5t181 21q199 0 322 -79q60 23 74 39.5t14 52.5v86q0 47 45 47h65q48 0 45 -47v-19zM758 569v295q0 55 -2 88t-11 68.5t-26 54.5t-47.5 31t-75.5 12t-75.5 -12t-47.5 -31t-26 -54.5t-11 -68.5t-2 -88v-295q0 -55 2 -88t11 -68.5t26 -54.5t47.5 -31t75.5 -12
t75.5 12t47.5 31t26 54.5t11 68.5t2 88zM596 -135q47 0 82 -35t35 -82t-35 -82t-82 -35t-82 35t-35 82t35 82t82 35z" />
    <glyph glyph-name="uni1EE4" unicode="&#x1ee4;" horiz-adv-x="1208" 
d="M381 1434q61 0 61 -62v-803q0 -55 2 -88t11 -68.5t26 -54.5t47.5 -31t75.5 -12t75.5 12t47.5 31t26 54.5t11 68.5t2 88v803q0 62 61 62h230q61 0 61 -62v-911q0 -37 -2.5 -71t-14.5 -86.5t-32 -96t-59 -90.5t-91.5 -79.5t-133.5 -53.5t-181 -21t-181 21t-133.5 53.5
t-91.5 79.5t-59 90.5t-32 96t-14.5 86.5t-2.5 71v911q0 62 62 62h229zM604 -369q-47 0 -82 35t-35 82t35 82t82 35t82 -35t35 -82t-35 -82t-82 -35z" />
    <glyph glyph-name="uni1EE5" unicode="&#x1ee5;" horiz-adv-x="1208" 
d="M381 1434q61 0 61 -62v-803q0 -55 2 -88t11 -68.5t26 -54.5t47.5 -31t75.5 -12t75.5 12t47.5 31t26 54.5t11 68.5t2 88v803q0 62 61 62h230q61 0 61 -62v-911q0 -37 -2.5 -71t-14.5 -86.5t-32 -96t-59 -90.5t-91.5 -79.5t-133.5 -53.5t-181 -21t-181 21t-133.5 53.5
t-91.5 79.5t-59 90.5t-32 96t-14.5 86.5t-2.5 71v911q0 62 62 62h229zM604 -369q-47 0 -82 35t-35 82t35 82t82 35t82 -35t35 -82t-35 -82t-82 -35z" />
    <glyph glyph-name="uni1EE6" unicode="&#x1ee6;" horiz-adv-x="1208" 
d="M514 2138l-16 -72q-6 -13 0.5 -26.5t17.5 -18.5q27 -12 33 -45.5t-4 -75.5t-16.5 -92.5t-6 -95.5t29 -86.5t87.5 -64.5q34 -12 43 24l16 72q3 12 -2 24.5t-14 18.5q-28 13 -34.5 46.5t3 75.5t16.5 92.5t6.5 95.5t-29 86.5t-87.5 64.5q-34 15 -43 -23zM381 1434
q61 0 61 -62v-803q0 -55 2 -88t11 -68.5t26 -54.5t47.5 -31t75.5 -12t75.5 12t47.5 31t26 54.5t11 68.5t2 88v803q0 62 61 62h230q61 0 61 -62v-911q0 -37 -2.5 -71t-14.5 -86.5t-32 -96t-59 -90.5t-91.5 -79.5t-133.5 -53.5t-181 -21t-181 21t-133.5 53.5t-91.5 79.5
t-59 90.5t-32 96t-14.5 86.5t-2.5 71v911q0 62 62 62h229z" />
    <glyph glyph-name="uni1EE7" unicode="&#x1ee7;" horiz-adv-x="1208" 
d="M514 2138l-16 -72q-6 -13 0.5 -26.5t17.5 -18.5q27 -12 33 -45.5t-4 -75.5t-16.5 -92.5t-6 -95.5t29 -86.5t87.5 -64.5q34 -12 43 24l16 72q3 12 -2 24.5t-14 18.5q-28 13 -34.5 46.5t3 75.5t16.5 92.5t6.5 95.5t-29 86.5t-87.5 64.5q-34 15 -43 -23zM381 1434
q61 0 61 -62v-803q0 -55 2 -88t11 -68.5t26 -54.5t47.5 -31t75.5 -12t75.5 12t47.5 31t26 54.5t11 68.5t2 88v803q0 62 61 62h230q61 0 61 -62v-911q0 -37 -2.5 -71t-14.5 -86.5t-32 -96t-59 -90.5t-91.5 -79.5t-133.5 -53.5t-181 -21t-181 21t-133.5 53.5t-91.5 79.5
t-59 90.5t-32 96t-14.5 86.5t-2.5 71v911q0 62 62 62h229z" />
    <glyph glyph-name="uni1EE8" unicode="&#x1ee8;" horiz-adv-x="1208" 
d="M319 1597q-24 0 -38.5 13.5t-12.5 30t19 24.5l587 266q31 31 68 31h100q40 0 50.5 -27.5t-25.5 -42.5l-653 -270q-6 -3 -20.5 -10.5t-25 -11t-22.5 -3.5h-27zM1323 1569v-19q5 -235 -205 -272v-817q0 -37 -2.5 -71t-14.5 -86.5t-32 -96t-59 -90.5t-91.5 -79.5
t-133.5 -53.5t-181 -21t-181 21t-133.5 53.5t-91.5 79.5t-59 90.5t-32 96t-14.5 86.5t-2.5 71v911q0 62 62 62h229q61 0 61 -62v-803q0 -55 2 -88t11 -68.5t26 -54.5t47.5 -31t75.5 -12t75.5 12t47.5 31t26 54.5t11 68.5t2 88v803q0 62 61 62h230q42 0 55 -29q37 16 46 31.5
t9 46.5v86q0 47 45 47h66q48 0 45 -47z" />
    <glyph glyph-name="uni1EE9" unicode="&#x1ee9;" horiz-adv-x="1208" 
d="M319 1597q-24 0 -38.5 13.5t-12.5 30t19 24.5l587 266q31 31 68 31h100q40 0 50.5 -27.5t-25.5 -42.5l-653 -270q-6 -3 -20.5 -10.5t-25 -11t-22.5 -3.5h-27zM1323 1569v-19q5 -235 -205 -272v-817q0 -37 -2.5 -71t-14.5 -86.5t-32 -96t-59 -90.5t-91.5 -79.5
t-133.5 -53.5t-181 -21t-181 21t-133.5 53.5t-91.5 79.5t-59 90.5t-32 96t-14.5 86.5t-2.5 71v911q0 62 62 62h229q61 0 61 -62v-803q0 -55 2 -88t11 -68.5t26 -54.5t47.5 -31t75.5 -12t75.5 12t47.5 31t26 54.5t11 68.5t2 88v803q0 62 61 62h230q42 0 55 -29q37 16 46 31.5
t9 46.5v86q0 47 45 47h66q48 0 45 -47z" />
    <glyph glyph-name="uni1EEA" unicode="&#x1eea;" horiz-adv-x="1208" 
d="M174 1927q-36 19 -26 44.5t51 25.5h100q37 0 68 -31l548 -301q28 -15 17 -41.5t-49 -26.5h-27q-10 0 -19 2.5t-15 5t-17 8.5t-17 9zM1323 1569v-19q5 -235 -205 -272v-817q0 -37 -2.5 -71t-14.5 -86.5t-32 -96t-59 -90.5t-91.5 -79.5t-133.5 -53.5t-181 -21t-181 21
t-133.5 53.5t-91.5 79.5t-59 90.5t-32 96t-14.5 86.5t-2.5 71v911q0 62 62 62h229q61 0 61 -62v-803q0 -55 2 -88t11 -68.5t26 -54.5t47.5 -31t75.5 -12t75.5 12t47.5 31t26 54.5t11 68.5t2 88v803q0 62 61 62h230q42 0 55 -29q37 16 46 31.5t9 46.5v86q0 47 45 47h66
q48 0 45 -47z" />
    <glyph glyph-name="uni1EEB" unicode="&#x1eeb;" horiz-adv-x="1208" 
d="M174 1927q-36 19 -26 44.5t51 25.5h100q37 0 68 -31l548 -301q28 -15 17 -41.5t-49 -26.5h-27q-10 0 -19 2.5t-15 5t-17 8.5t-17 9zM1323 1569v-19q5 -235 -205 -272v-817q0 -37 -2.5 -71t-14.5 -86.5t-32 -96t-59 -90.5t-91.5 -79.5t-133.5 -53.5t-181 -21t-181 21
t-133.5 53.5t-91.5 79.5t-59 90.5t-32 96t-14.5 86.5t-2.5 71v911q0 62 62 62h229q61 0 61 -62v-803q0 -55 2 -88t11 -68.5t26 -54.5t47.5 -31t75.5 -12t75.5 12t47.5 31t26 54.5t11 68.5t2 88v803q0 62 61 62h230q42 0 55 -29q37 16 46 31.5t9 46.5v86q0 47 45 47h66
q48 0 45 -47z" />
    <glyph glyph-name="uni1EEC" unicode="&#x1eec;" horiz-adv-x="1208" 
d="M516 2021q-11 5 -17.5 18.5t-0.5 26.5l16 72q9 38 43 23q59 -23 87.5 -64.5t29 -86.5t-6.5 -95.5t-16.5 -92.5t-3 -75.5t34.5 -46.5q9 -6 14 -18.5t2 -24.5l-16 -72q-9 -36 -43 -24q-59 23 -87.5 64.5t-29 86.5t6 95.5t16.5 92.5t4 75.5t-33 45.5zM1323 1569v-19
q5 -235 -205 -272v-817q0 -37 -2.5 -71t-14.5 -86.5t-32 -96t-59 -90.5t-91.5 -79.5t-133.5 -53.5t-181 -21t-181 21t-133.5 53.5t-91.5 79.5t-59 90.5t-32 96t-14.5 86.5t-2.5 71v911q0 62 62 62h229q61 0 61 -62v-803q0 -55 2 -88t11 -68.5t26 -54.5t47.5 -31t75.5 -12
t75.5 12t47.5 31t26 54.5t11 68.5t2 88v803q0 62 61 62h230q42 0 55 -29q37 16 46 31.5t9 46.5v86q0 47 45 47h66q48 0 45 -47z" />
    <glyph glyph-name="uni1EED" unicode="&#x1eed;" horiz-adv-x="1208" 
d="M516 2021q-11 5 -17.5 18.5t-0.5 26.5l16 72q9 38 43 23q59 -23 87.5 -64.5t29 -86.5t-6.5 -95.5t-16.5 -92.5t-3 -75.5t34.5 -46.5q9 -6 14 -18.5t2 -24.5l-16 -72q-9 -36 -43 -24q-59 23 -87.5 64.5t-29 86.5t6 95.5t16.5 92.5t4 75.5t-33 45.5zM1323 1569v-19
q5 -235 -205 -272v-817q0 -37 -2.5 -71t-14.5 -86.5t-32 -96t-59 -90.5t-91.5 -79.5t-133.5 -53.5t-181 -21t-181 21t-133.5 53.5t-91.5 79.5t-59 90.5t-32 96t-14.5 86.5t-2.5 71v911q0 62 62 62h229q61 0 61 -62v-803q0 -55 2 -88t11 -68.5t26 -54.5t47.5 -31t75.5 -12
t75.5 12t47.5 31t26 54.5t11 68.5t2 88v803q0 62 61 62h230q42 0 55 -29q37 16 46 31.5t9 46.5v86q0 47 45 47h66q48 0 45 -47z" />
    <glyph glyph-name="uni1EEE" unicode="&#x1eee;" horiz-adv-x="1208" 
d="M322 1614q-38 12 -21 45q28 56 72 81t89 21.5t95 -14.5t90.5 -24.5t75 -10t49.5 30.5q6 9 19.5 12.5t25.5 -0.5l70 -22q34 -13 20 -45q-25 -49 -61 -74t-74.5 -27.5t-80.5 5t-81.5 19.5t-73.5 20t-60.5 3t-39.5 -28q-5 -10 -19.5 -15.5t-25.5 0.5zM1323 1569v-19
q5 -235 -205 -272v-817q0 -37 -2.5 -71t-14.5 -86.5t-32 -96t-59 -90.5t-91.5 -79.5t-133.5 -53.5t-181 -21t-181 21t-133.5 53.5t-91.5 79.5t-59 90.5t-32 96t-14.5 86.5t-2.5 71v911q0 62 62 62h229q61 0 61 -62v-803q0 -55 2 -88t11 -68.5t26 -54.5t47.5 -31t75.5 -12
t75.5 12t47.5 31t26 54.5t11 68.5t2 88v803q0 62 61 62h230q42 0 55 -29q37 16 46 31.5t9 46.5v86q0 47 45 47h66q48 0 45 -47z" />
    <glyph glyph-name="uni1EEF" unicode="&#x1eef;" horiz-adv-x="1208" 
d="M322 1614q-38 12 -21 45q28 56 72 81t89 21.5t95 -14.5t90.5 -24.5t75 -10t49.5 30.5q6 9 19.5 12.5t25.5 -0.5l70 -22q34 -13 20 -45q-25 -49 -61 -74t-74.5 -27.5t-80.5 5t-81.5 19.5t-73.5 20t-60.5 3t-39.5 -28q-5 -10 -19.5 -15.5t-25.5 0.5zM1323 1569v-19
q5 -235 -205 -272v-817q0 -37 -2.5 -71t-14.5 -86.5t-32 -96t-59 -90.5t-91.5 -79.5t-133.5 -53.5t-181 -21t-181 21t-133.5 53.5t-91.5 79.5t-59 90.5t-32 96t-14.5 86.5t-2.5 71v911q0 62 62 62h229q61 0 61 -62v-803q0 -55 2 -88t11 -68.5t26 -54.5t47.5 -31t75.5 -12
t75.5 12t47.5 31t26 54.5t11 68.5t2 88v803q0 62 61 62h230q42 0 55 -29q37 16 46 31.5t9 46.5v86q0 47 45 47h66q48 0 45 -47z" />
    <glyph glyph-name="uni1EF0" unicode="&#x1ef0;" horiz-adv-x="1208" 
d="M1323 1569v-19q5 -235 -205 -272v-817q0 -37 -2.5 -71t-14.5 -86.5t-32 -96t-59 -90.5t-91.5 -79.5t-133.5 -53.5t-181 -21t-181 21t-133.5 53.5t-91.5 79.5t-59 90.5t-32 96t-14.5 86.5t-2.5 71v911q0 62 62 62h229q61 0 61 -62v-803q0 -55 2 -88t11 -68.5t26 -54.5
t47.5 -31t75.5 -12t75.5 12t47.5 31t26 54.5t11 68.5t2 88v803q0 62 61 62h230q42 0 55 -29q37 16 46 31.5t9 46.5v86q0 47 45 47h66q48 0 45 -47zM604 -135q47 0 82 -35t35 -82t-35 -82t-82 -35t-82 35t-35 82t35 82t82 35z" />
    <glyph glyph-name="uni1EF1" unicode="&#x1ef1;" horiz-adv-x="1208" 
d="M1323 1569v-19q5 -235 -205 -272v-817q0 -37 -2.5 -71t-14.5 -86.5t-32 -96t-59 -90.5t-91.5 -79.5t-133.5 -53.5t-181 -21t-181 21t-133.5 53.5t-91.5 79.5t-59 90.5t-32 96t-14.5 86.5t-2.5 71v911q0 62 62 62h229q61 0 61 -62v-803q0 -55 2 -88t11 -68.5t26 -54.5
t47.5 -31t75.5 -12t75.5 12t47.5 31t26 54.5t11 68.5t2 88v803q0 62 61 62h230q42 0 55 -29q37 16 46 31.5t9 46.5v86q0 47 45 47h66q48 0 45 -47zM604 -135q47 0 82 -35t35 -82t-35 -82t-82 -35t-82 35t-35 82t35 82t82 35z" />
    <glyph glyph-name="Ygrave" unicode="&#x1ef2;" horiz-adv-x="1230" 
d="M186 1927l615 -305q6 -3 16.5 -8.5t16.5 -8.5t15 -5.5t19 -2.5h27q38 0 49.5 26.5t-16.5 41.5l-549 301q-31 31 -68 31h-100q-41 0 -51 -25.5t26 -44.5zM86 1434q-35 0 -48.5 -20t1.5 -52l369 -819q4 -8 4 -25v-457q0 -61 61 -61h287q61 0 61 61v457q0 17 4 25l367 819
q15 32 1.5 52t-48.5 20h-293q-53 0 -70 -48l-151 -380q-6 -14 -14.5 -14t-14.5 14l-151 380q-17 48 -70 48h-295z" />
    <glyph glyph-name="ygrave" unicode="&#x1ef3;" horiz-adv-x="1230" 
d="M186 1927l615 -305q6 -3 16.5 -8.5t16.5 -8.5t15 -5.5t19 -2.5h27q38 0 49.5 26.5t-16.5 41.5l-549 301q-31 31 -68 31h-100q-41 0 -51 -25.5t26 -44.5zM86 1434q-35 0 -48.5 -20t1.5 -52l369 -819q4 -8 4 -25v-457q0 -61 61 -61h287q61 0 61 61v457q0 17 4 25l367 819
q15 32 1.5 52t-48.5 20h-293q-53 0 -70 -48l-151 -380q-6 -14 -14.5 -14t-14.5 14l-151 380q-17 48 -70 48h-295z" />
    <glyph glyph-name="uni1EF4" unicode="&#x1ef4;" horiz-adv-x="1230" 
d="M86 1434q-35 0 -48.5 -20t1.5 -52l369 -819q4 -8 4 -25v-457q0 -61 61 -61h287q61 0 61 61v457q0 17 4 25l367 819q15 32 1.5 52t-48.5 20h-293q-53 0 -70 -48l-151 -380q-6 -14 -14.5 -14t-14.5 14l-151 380q-17 48 -70 48h-295zM616 -369q-47 0 -81.5 35t-34.5 82
t34.5 82t81.5 35t82 -35t35 -82t-35 -82t-82 -35z" />
    <glyph glyph-name="uni1EF5" unicode="&#x1ef5;" horiz-adv-x="1230" 
d="M86 1434q-35 0 -48.5 -20t1.5 -52l369 -819q4 -8 4 -25v-457q0 -61 61 -61h287q61 0 61 61v457q0 17 4 25l367 819q15 32 1.5 52t-48.5 20h-293q-53 0 -70 -48l-151 -380q-6 -14 -14.5 -14t-14.5 14l-151 380q-17 48 -70 48h-295zM616 -369q-47 0 -81.5 35t-34.5 82
t34.5 82t81.5 35t82 -35t35 -82t-35 -82t-82 -35z" />
    <glyph glyph-name="uni1EF6" unicode="&#x1ef6;" horiz-adv-x="1230" 
d="M526 2138l-16 -72q-6 -13 0.5 -26.5t17.5 -18.5q27 -12 33 -45.5t-4 -75.5t-16.5 -92.5t-6 -95.5t29 -86.5t87.5 -64.5q34 -12 43 24l17 72q3 12 -2.5 24.5t-14.5 18.5q-28 13 -34.5 46.5t3 75.5t16.5 92.5t6.5 95.5t-29 86.5t-87.5 64.5q-34 15 -43 -23zM86 1434
q-35 0 -48.5 -20t1.5 -52l369 -819q4 -8 4 -25v-457q0 -61 61 -61h287q61 0 61 61v457q0 17 4 25l367 819q15 32 1.5 52t-48.5 20h-293q-53 0 -70 -48l-151 -380q-6 -14 -14.5 -14t-14.5 14l-151 380q-17 48 -70 48h-295z" />
    <glyph glyph-name="uni1EF7" unicode="&#x1ef7;" horiz-adv-x="1230" 
d="M526 2138l-16 -72q-6 -13 0.5 -26.5t17.5 -18.5q27 -12 33 -45.5t-4 -75.5t-16.5 -92.5t-6 -95.5t29 -86.5t87.5 -64.5q34 -12 43 24l17 72q3 12 -2.5 24.5t-14.5 18.5q-28 13 -34.5 46.5t3 75.5t16.5 92.5t6.5 95.5t-29 86.5t-87.5 64.5q-34 15 -43 -23zM86 1434
q-35 0 -48.5 -20t1.5 -52l369 -819q4 -8 4 -25v-457q0 -61 61 -61h287q61 0 61 61v457q0 17 4 25l367 819q15 32 1.5 52t-48.5 20h-293q-53 0 -70 -48l-151 -380q-6 -14 -14.5 -14t-14.5 14l-151 380q-17 48 -70 48h-295z" />
    <glyph glyph-name="uni1EF8" unicode="&#x1ef8;" horiz-adv-x="1230" 
d="M334 1614l69 -23q11 -6 26 -0.5t20 15.5q13 23 39.5 28t60.5 -3t73.5 -20t81.5 -19.5t80.5 -5t74.5 27.5t61 74q14 31 -21 45l-70 22q-12 4 -25.5 0.5t-19.5 -12.5q-15 -27 -49.5 -30.5t-75 10t-90.5 24.5t-95 14.5t-89 -21.5t-72 -81q-17 -33 21 -45zM86 1434
q-35 0 -48.5 -20t1.5 -52l369 -819q4 -8 4 -25v-457q0 -61 61 -61h287q61 0 61 61v457q0 17 4 25l367 819q15 32 1.5 52t-48.5 20h-293q-53 0 -70 -48l-151 -380q-6 -14 -14.5 -14t-14.5 14l-151 380q-17 48 -70 48h-295z" />
    <glyph glyph-name="uni1EF9" unicode="&#x1ef9;" horiz-adv-x="1230" 
d="M334 1614l69 -23q11 -6 26 -0.5t20 15.5q13 23 39.5 28t60.5 -3t73.5 -20t81.5 -19.5t80.5 -5t74.5 27.5t61 74q14 31 -21 45l-70 22q-12 4 -25.5 0.5t-19.5 -12.5q-15 -27 -49.5 -30.5t-75 10t-90.5 24.5t-95 14.5t-89 -21.5t-72 -81q-17 -33 21 -45zM86 1434
q-35 0 -48.5 -20t1.5 -52l369 -819q4 -8 4 -25v-457q0 -61 61 -61h287q61 0 61 61v457q0 17 4 25l367 819q15 32 1.5 52t-48.5 20h-293q-53 0 -70 -48l-151 -380q-6 -14 -14.5 -14t-14.5 14l-151 380q-17 48 -70 48h-295z" />
    <glyph glyph-name="endash" unicode="&#x2013;" horiz-adv-x="1228" 
d="M186 801q0 61 62 61h733q61 0 61 -61v-230q0 -61 -61 -61h-733q-29 0 -45.5 16t-16.5 45v230z" />
    <glyph glyph-name="emdash" unicode="&#x2014;" horiz-adv-x="1880" 
d="M102 801q0 61 62 61h1552q62 0 62 -61v-230q0 -61 -62 -61h-1552q-29 0 -45.5 16t-16.5 45v230z" />
    <glyph glyph-name="quoteleft" unicode="&#x2018;" horiz-adv-x="475" 
d="M352 862q62 0 62 62v229q0 29 -16.5 45t-45.5 16h-94q-20 0 -20 21q4 85 65 158q14 17 8 31.5t-26 13.5q-113 -11 -168.5 -88.5t-55.5 -196.5v-229q0 -62 62 -62h229z" />
    <glyph glyph-name="quoteright" unicode="&#x2019;" horiz-adv-x="475" 
d="M123 1434q-62 0 -62 -62v-229q0 -29 16.5 -45.5t45.5 -16.5h94q21 0 21 -20q-4 -84 -66 -158q-14 -17 -8 -31.5t26 -13.5q113 11 168.5 88.5t55.5 196.5v229q0 62 -62 62h-229z" />
    <glyph glyph-name="quotesinglbase" unicode="&#x201a;" horiz-adv-x="485" 
d="M143 352q-61 0 -61 -61v-230q0 -61 61 -61h95q20 0 20 -20q-4 -85 -65 -158q-14 -17 -8 -31.5t26 -13.5q113 11 168 88t55 196v230q0 61 -61 61h-230z" />
    <glyph glyph-name="quotedblleft" unicode="&#x201c;" horiz-adv-x="884" 
d="M352 854q62 0 62 61v230q0 29 -16.5 45t-45.5 16h-94q-20 0 -20 21q4 84 65 157q14 17 8 32t-26 14q-113 -11 -168.5 -88.5t-55.5 -196.5v-230q0 -61 62 -61h229zM762 854q61 0 61 61v230q0 61 -61 61h-94q-9 0 -15 6t-6 15q4 83 66 157q14 17 7.5 32t-26.5 14
q-113 -11 -168 -88.5t-55 -196.5v-230q0 -61 61 -61h230z" />
    <glyph glyph-name="quotedblright" unicode="&#x201d;" horiz-adv-x="884" 
d="M123 1430q-62 0 -62 -62v-229q0 -29 16.5 -45.5t45.5 -16.5h94q21 0 21 -20q-4 -84 -66 -158q-14 -17 -8 -31.5t26 -13.5q113 11 168.5 88.5t55.5 196.5v229q0 62 -62 62h-229zM532 1430q-61 0 -61 -62v-229q0 -29 16 -45.5t45 -16.5h95q20 0 20 -20q-4 -85 -65 -158
q-14 -17 -8 -31.5t26 -13.5q113 11 168 88.5t55 196.5v229q0 62 -61 62h-230z" />
    <glyph glyph-name="quotedblbase" unicode="&#x201e;" horiz-adv-x="915" 
d="M143 352q-61 0 -61 -61v-230q0 -61 61 -61h95q20 0 20 -20q-4 -85 -65 -158q-14 -17 -8 -31.5t26 -13.5q113 11 168 88t55 196v230q0 61 -61 61h-230zM573 352q-61 0 -61 -61v-230q0 -61 61 -61h95q20 0 20 -20q-4 -85 -65 -158q-14 -17 -8 -31.5t26 -13.5q113 11 168 88
t55 196v230q0 61 -61 61h-230z" />
    <glyph glyph-name="bullet" unicode="&#x2022;" horiz-adv-x="1228" 
d="M614 510q-85 0 -145.5 61t-60.5 146t60.5 146t145.5 61t146 -61t61 -146t-61 -146t-146 -61z" />
    <glyph glyph-name="ellipsis" unicode="&#x2026;" horiz-adv-x="1474" 
d="M143 352q-61 0 -61 -61v-230q0 -61 61 -61h230q61 0 61 61v230q0 61 -61 61h-230zM651 352q-61 0 -61 -61v-230q0 -61 61 -61h230q61 0 61 61v230q0 61 -61 61h-230zM1143 352q-62 0 -62 -61v-230q0 -29 16.5 -45t45.5 -16h229q62 0 62 61v230q0 61 -62 61h-229z" />
    <glyph glyph-name="guilsinglleft" unicode="&#x2039;" horiz-adv-x="755" 
d="M598 197q-48 -45 -90 0l-404 403q-22 25 -22 44.5t22 41.5l404 404q44 44 90 0l55 -58q20 -20 20 -42.5t-20 -41.5l-288 -291q-15 -15 0 -24l288 -293q43 -43 0 -86z" />
    <glyph glyph-name="guilsinglright" unicode="&#x203a;" horiz-adv-x="755" 
d="M248 197q-42 -45 -90 0l-56 57q-43 43 0 86l289 293q15 9 0 24l-289 291q-20 19 -20 41.5t20 42.5l56 58q46 44 90 0l403 -404q22 -22 22 -41.5t-22 -44.5z" />
    <glyph glyph-name="minus" unicode="&#x2212;" horiz-adv-x="1228" 
d="M145 674q0 61 62 61h815q61 0 61 -61v-123q0 -62 -61 -62h-815q-29 0 -45.5 16.5t-16.5 45.5v123z" />
    <glyph glyph-name="notequal" unicode="&#x2260;" horiz-adv-x="1347" 
d="M850 737l-80 -162h373q61 0 61 -61v-229q0 -62 -61 -62h-549l-92 -186q-18 -37 -72 -37h-100q-34 0 -47.5 14t-1.5 39l84 170h-160q-29 0 -45.5 16.5t-16.5 45.5v229q0 61 62 61h336l80 162h-416q-29 0 -45.5 16.5t-16.5 45.5v229q0 62 62 62h592l94 188q18 37 72 37h100
q34 0 47.5 -15t1.5 -38l-86 -172h117q61 0 61 -62v-229q0 -62 -61 -62h-293z" />
    <glyph glyph-name="uni03060301" horiz-adv-x="0" 
d="M557 1350q36 15 25.5 42t-50.5 27h-100q-37 0 -67 -30l-588 -267q-17 -8 -18.5 -24t13 -29.5t38.5 -13.5h26q12 0 22.5 3t25.5 11t20 10zM-342 1245q-53 -50 -113 -72t-174 -22q-95 0 -152.5 17t-113.5 73q-37 37 0 76l47 45q37 37 70 0q2 -1 25.5 -17.5t50 -22
t79.5 -5.5q21 0 37.5 0.5t30 2.5t23 3t19 5t14 5.5t11.5 7.5t9 7t9 8.5t9 9.5q36 36 72 0l47 -47q36 -38 0 -74z" />
    <glyph glyph-name="uni03060300" horiz-adv-x="0" 
d="M-397 1497l614 -305q6 -3 17 -9t17 -8.5t15 -5t19 -2.5h26q38 0 49.5 26.5t-16.5 41.5l-549 301q-31 31 -67 31h-101q-40 0 -50 -25.5t26 -44.5zM-342 1245q-53 -50 -113 -72t-174 -22q-95 0 -152.5 17t-113.5 73q-37 37 0 76l47 45q37 37 70 0q2 -1 25.5 -17.5t50 -22
t79.5 -5.5q21 0 37.5 0.5t30 2.5t23 3t19 5t14 5.5t11.5 7.5t9 7t9 8.5t9 9.5q36 36 72 0l47 -47q36 -38 0 -74z" />
    <glyph glyph-name="uni03060309" horiz-adv-x="0" 
d="M-203 1784l-16 -72q-6 -13 0.5 -26.5t17.5 -18.5q27 -12 33 -45.5t-4 -75.5t-16.5 -92.5t-6 -96t29 -87t87.5 -64.5q33 -12 43 25l17 72q3 12 -2.5 24.5t-14.5 18.5q-28 13 -34.5 46.5t3 75.5t16.5 92t6.5 95.5t-29 86.5t-87.5 64q-34 15 -43 -22zM-342 1245
q-53 -50 -113 -72t-174 -22q-95 0 -152.5 17t-113.5 73q-37 37 0 76l47 45q37 37 70 0q2 -1 25.5 -17.5t50 -22t79.5 -5.5q21 0 37.5 0.5t30 2.5t23 3t19 5t14 5.5t11.5 7.5t9 7t9 8.5t9 9.5q36 36 72 0l47 -47q36 -38 0 -74z" />
    <glyph glyph-name="uni03060303" horiz-adv-x="0" 
d="M-342 1245q-53 -50 -113 -72t-174 -22q-95 0 -152.5 17t-113.5 73q-37 37 0 76l47 45q37 37 70 0q2 -1 25.5 -17.5t50 -22t79.5 -5.5q21 0 37.5 0.5t30 2.5t23 3t19 5t14 5.5t11.5 7.5t9 7t9 8.5t9 9.5q36 36 72 0l47 -47q36 -38 0 -74zM-125 1210l70 -22q12 -5 26 -0.5
t19 14.5q13 23 39.5 28t60.5 -3t73.5 -20t81.5 -19.5t80.5 -5t74.5 27.5t61 74q14 31 -21 45l-69 23q-12 4 -25.5 0t-19.5 -13q-15 -27 -49.5 -30.5t-75 10t-90.5 24.5t-95 14.5t-89 -21.5t-72 -81q-17 -33 20 -45z" />
    <glyph glyph-name="uni03020301" horiz-adv-x="0" 
d="M586 1475q36 15 25.5 42t-50.5 27h-100q-37 0 -68 -31l-588 -266q-17 -8 -18.5 -24t13 -29.5t38.5 -13.5h27q12 0 22.5 3t25 11t19.5 10zM-342 1323q36 -36 0 -74l-47 -47q-36 -36 -72 0q-2 2 -9 9.5t-9 8.5t-9 7t-11.5 7.5t-14 5.5t-19 5t-23 3t-30 2.5t-37.5 0.5
q-53 0 -79.5 -5.5t-50 -22t-25.5 -17.5q-33 -37 -70 0l-47 45q-37 39 0 76q56 56 113.5 73t152.5 17q114 0 174 -22t113 -72z" />
    <glyph glyph-name="uni03020300" horiz-adv-x="0" 
d="M-401 1548l614 -305q5 -2 17 -8.5t17 -8.5t14.5 -4.5t19.5 -2.5h26q38 0 49.5 26t-16.5 41l-549 301q-31 31 -67 31h-101q-40 0 -50 -25.5t26 -44.5zM-342 1323q36 -36 0 -74l-47 -47q-36 -36 -72 0q-2 2 -9 9.5t-9 8.5t-9 7t-11.5 7.5t-14 5.5t-19 5t-23 3t-30 2.5
t-37.5 0.5q-53 0 -79.5 -5.5t-50 -22t-25.5 -17.5q-33 -37 -70 0l-47 45q-37 39 0 76q56 56 113.5 73t152.5 17q114 0 174 -22t113 -72z" />
    <glyph glyph-name="uni03020309" horiz-adv-x="0" 
d="M-236 1833l-16 -72q-6 -13 1 -26.5t18 -18.5q27 -12 33 -45.5t-4 -75.5t-17 -92.5t-6.5 -96t29 -87t87.5 -64.5q33 -12 43 25l17 72q3 12 -2.5 24.5t-14.5 18.5q-28 13 -34.5 46.5t3 75.5t16.5 92t6.5 95.5t-29 86.5t-87.5 64q-34 15 -43 -22zM-342 1323q36 -36 0 -74
l-47 -47q-36 -36 -72 0q-2 2 -9 9.5t-9 8.5t-9 7t-11.5 7.5t-14 5.5t-19 5t-23 3t-30 2.5t-37.5 0.5q-53 0 -79.5 -5.5t-50 -22t-25.5 -17.5q-33 -37 -70 0l-47 45q-37 39 0 76q56 56 113.5 73t152.5 17q114 0 174 -22t113 -72z" />
    <glyph glyph-name="uni03020303" horiz-adv-x="0" 
d="M-342 1323q36 -36 0 -74l-47 -47q-36 -36 -72 0q-2 2 -9 9.5t-9 8.5t-9 7t-11.5 7.5t-14 5.5t-19 5t-23 3t-30 2.5t-37.5 0.5q-53 0 -79.5 -5.5t-50 -22t-25.5 -17.5q-33 -37 -70 0l-47 45q-37 39 0 76q56 56 113.5 73t152.5 17q114 0 174 -22t113 -72zM-158 1204l70 -22
q12 -5 26 -0.5t19 14.5q13 23 39.5 28t60.5 -3t73.5 -20t81.5 -19.5t80.5 -5t74.5 27.5t61 74q14 32 -20 45l-70 23q-12 4 -25.5 0t-19.5 -13q-15 -27 -49.5 -30.5t-75 10t-90.5 24.5t-95 14.5t-89 -21.5t-72 -81q-17 -33 20 -45z" />
    </font>
</defs>
</svg>
